<svg width="254" height="176" viewBox="0 0 254 176" fill="none" xmlns="http://www.w3.org/2000/svg">
<path d="M0 16C0 7.16344 7.16344 0 16 0H237.131C245.968 0 253.131 7.16344 253.131 16V160C253.131 168.837 245.968 176 237.131 176H16C7.16345 176 0 168.837 0 160V16Z" fill="#73308A"/>
<path fill-rule="evenodd" clip-rule="evenodd" d="M237.131 4H16C9.37258 4 4 9.37258 4 16V160C4 166.627 9.37259 172 16 172H237.131C243.759 172 249.131 166.627 249.131 160V16C249.131 9.37259 243.759 4 237.131 4ZM16 0C7.16344 0 0 7.16344 0 16V160C0 168.837 7.16345 176 16 176H237.131C245.968 176 253.131 168.837 253.131 160V16C253.131 7.16344 245.968 0 237.131 0H16Z" fill="#1F1300"/>
<path d="M35.0598 115.347C35.0598 112.829 37.1003 110.789 39.6175 110.789H59.251C61.7682 110.789 63.8088 112.829 63.8088 115.347C63.8088 117.864 61.7682 119.904 59.251 119.904H39.6175C37.1003 119.904 35.0598 117.864 35.0598 115.347Z" fill="#FDFFFC"/>
<path fill-rule="evenodd" clip-rule="evenodd" d="M44.209 88.9861C44.188 88.9867 44.167 88.9869 44.146 88.9868L43.9678 88.986C43.9468 88.9859 43.9259 88.9854 43.9049 88.9847L43.7267 88.9782C43.7059 88.9775 43.6851 88.9764 43.6643 88.975L43.486 88.963C43.4655 88.9616 43.445 88.9599 43.4246 88.9579L43.2463 88.9404C43.2262 88.9384 43.2062 88.9361 43.1862 88.9335L43.0079 88.9105C42.9884 88.908 42.9689 88.9052 42.9495 88.9021L42.7712 88.8737C42.7523 88.8707 42.7335 88.8674 42.7147 88.8638L42.5365 88.8302C42.5268 88.8284 42.5171 88.8265 42.5075 88.8245C42.4991 88.8228 42.4907 88.821 42.4823 88.8192L42.3041 88.7804C42.2868 88.7766 42.2696 88.7727 42.2524 88.7684L42.0742 88.7247C42.0672 88.723 42.0602 88.7212 42.0533 88.7194C42.0439 88.717 42.0346 88.7146 42.0253 88.712L41.847 88.6635C41.8316 88.6593 41.8163 88.6549 41.801 88.6503L41.6227 88.5971C41.6084 88.5929 41.594 88.5884 41.5797 88.5838L41.4015 88.5262C41.3881 88.5219 41.3748 88.5174 41.3615 88.5128L41.1833 88.4511C41.1709 88.4468 41.1587 88.4424 41.1464 88.4379L40.9682 88.3722C40.9569 88.3681 40.9457 88.3638 40.9345 88.3595L40.7562 88.2901L40.7257 88.2779L40.5474 88.2052L40.5199 88.1937L40.3417 88.1179L40.3173 88.1073L40.1391 88.0286L40.1177 88.0191L39.9395 87.9379L39.9212 87.9294L39.7429 87.8461L39.7275 87.8388L39.5493 87.7536L39.5493 87.7536L39.5369 87.7476L39.3586 87.6609L39.3491 87.6562L39.1708 87.5683L39.1641 87.565L38.9859 87.4763L38.982 87.4744L38.8038 87.3851L38.8028 87.3846L38.6263 87.2962L38.6245 87.2953L38.4504 87.2083L38.2782 87.1228L38.1089 87.0396L37.9425 86.959L37.779 86.8813L37.6184 86.8068L37.4609 86.7357L37.3063 86.6681L37.1549 86.6044L37.0066 86.5447L36.8613 86.4891L36.7193 86.4376L36.5803 86.3904L36.4444 86.3475L36.3115 86.3089L36.1816 86.2745L36.0544 86.2443L35.9297 86.2182L35.8075 86.1962L35.6872 86.1781L35.5688 86.1639L35.4517 86.1534L35.3356 86.1467L35.2201 86.1436L35.0733 86.1443L35.0547 82.1443L35.233 82.1435C35.2539 82.1434 35.2749 82.1436 35.2959 82.1442L35.4741 82.1489C35.495 82.1495 35.5159 82.1504 35.5367 82.1516L35.715 82.162C35.7356 82.1632 35.7562 82.1647 35.7767 82.1665L35.955 82.1825C35.9752 82.1843 35.9954 82.1864 36.0156 82.1888L36.1938 82.2102C36.2135 82.2126 36.2332 82.2152 36.2528 82.2182L36.4311 82.245C36.4501 82.2479 36.4692 82.251 36.4882 82.2544L36.6664 82.2865C36.6847 82.2899 36.703 82.2934 36.7213 82.2972L36.8995 82.3345C36.9102 82.3367 36.9209 82.3391 36.9315 82.3415C36.9383 82.343 36.9451 82.3446 36.9519 82.3462L37.1302 82.3885C37.1468 82.3925 37.1634 82.3966 37.1799 82.401L37.3582 82.4482C37.3739 82.4523 37.3895 82.4566 37.4051 82.4612L37.5833 82.513C37.598 82.5173 37.6126 82.5217 37.6272 82.5263L37.8055 82.5826C37.8192 82.5869 37.8328 82.5914 37.8464 82.596L38.0246 82.6566C38.0372 82.6608 38.0498 82.6653 38.0624 82.6698L38.2406 82.7343C38.2522 82.7385 38.2637 82.7428 38.2752 82.7473L38.4535 82.8155L38.485 82.8279L38.6633 82.8997L38.6916 82.9114L38.8699 82.9864L38.8952 82.9972L39.0734 83.0751L39.0956 83.0849L39.2739 83.1654L39.2931 83.1742L39.4714 83.257L39.4876 83.2646L39.6658 83.3493L39.6791 83.3556L39.8574 83.442L39.8574 83.4419L39.8678 83.447L40.0461 83.5346L40.0535 83.5383L40.2318 83.6269L40.2365 83.6292L40.4148 83.7183L40.4166 83.7192L40.5938 83.808L40.5948 83.8085L40.7683 83.8953L40.7721 83.8972L40.9432 83.9824L41.1134 84.0663L41.2807 84.1477L41.445 84.2263L41.6065 84.3018L41.7649 84.3739L41.9203 84.4425L42.0727 84.5074L42.222 84.5683L42.3681 84.6252L42.5111 84.6779L42.651 84.7263L42.7878 84.7705L42.9216 84.8104L43.0524 84.8461L43.1804 84.8775L43.3057 84.9048L43.4287 84.928L43.5495 84.9472L43.6684 84.9626L43.7859 84.9741L43.9022 84.982L44.0179 84.9862L44.1332 84.9867L44.2487 84.9836L44.3648 84.9768L44.4819 84.9664L44.6003 84.9522L44.7206 84.9341L44.8429 84.912L44.9675 84.886L45.0947 84.8558L45.2246 84.8214L45.3575 84.7828L45.4934 84.7398L45.6324 84.6926L45.7745 84.6412L45.9197 84.5855L46.068 84.5258L46.2195 84.4621L46.374 84.3946L46.5315 84.3235L46.6921 84.2489L46.8556 84.1712L47.022 84.0907L47.1914 84.0075L47.3612 83.9231L47.3659 83.9208L47.5376 83.835L47.5395 83.834L47.7159 83.7456L47.7169 83.7451L47.8951 83.6559L47.899 83.654L48.0772 83.5653L48.0839 83.562L48.2622 83.474L48.2717 83.4694L48.4499 83.3827L48.4499 83.3826L48.4624 83.3767L48.6407 83.2915L48.656 83.2842L48.8343 83.2008L48.8526 83.1924L49.0308 83.1112L49.0522 83.1016L49.2304 83.023L49.2548 83.0124L49.433 82.9365L49.4605 82.9251L49.6388 82.8523L49.6693 82.8402L49.8476 82.7708C49.8588 82.7664 49.87 82.7622 49.8813 82.758L50.0595 82.6923C50.0718 82.6878 50.084 82.6835 50.0964 82.6792L50.2746 82.6174C50.2879 82.6128 50.3012 82.6084 50.3146 82.6041L50.4928 82.5465C50.5071 82.5419 50.5215 82.5374 50.5358 82.5331L50.7141 82.4799C50.7294 82.4754 50.7447 82.471 50.7601 82.4668L50.9384 82.4182C50.9546 82.4138 50.9709 82.4096 50.9873 82.4056L51.1655 82.3618C51.1827 82.3576 51.1999 82.3536 51.2172 82.3499L51.3954 82.3111C51.4134 82.3072 51.4315 82.3035 51.4496 82.3001L51.6278 82.2664C51.6466 82.2629 51.6654 82.2596 51.6843 82.2566L51.8625 82.2282C51.882 82.2251 51.9015 82.2223 51.921 82.2198L52.0993 82.1968C52.1193 82.1942 52.1393 82.1919 52.1594 82.1899L52.3377 82.1724C52.3581 82.1703 52.3786 82.1687 52.3991 82.1673L52.5774 82.1552C52.5982 82.1538 52.619 82.1528 52.6398 82.152L52.818 82.1456C52.839 82.1448 52.8599 82.1444 52.8809 82.1443L53.0591 82.1435C53.0801 82.1434 53.1011 82.1436 53.1221 82.1442L53.3003 82.1489C53.3212 82.1495 53.3421 82.1504 53.3629 82.1516L53.5412 82.162C53.5618 82.1632 53.5824 82.1647 53.6029 82.1665L53.7812 82.1825C53.8014 82.1843 53.8216 82.1864 53.8418 82.1888L54.02 82.2102C54.0397 82.2126 54.0594 82.2152 54.079 82.2182L54.2573 82.245C54.2763 82.2479 54.2954 82.251 54.3143 82.2544L54.4926 82.2865C54.5109 82.2899 54.5292 82.2934 54.5475 82.2972L54.7257 82.3345C54.7433 82.3382 54.7607 82.3421 54.7782 82.3462L54.9564 82.3885C54.973 82.3925 54.9896 82.3966 55.0061 82.401L55.1844 82.4482C55.2 82.4523 55.2157 82.4566 55.2312 82.4612L55.4095 82.513C55.4242 82.5173 55.4388 82.5217 55.4534 82.5263L55.6317 82.5826C55.6454 82.5869 55.659 82.5914 55.6725 82.596L55.8508 82.6566C55.8634 82.6608 55.876 82.6653 55.8886 82.6698L56.0668 82.7343C56.0784 82.7385 56.0899 82.7428 56.1014 82.7472L56.2797 82.8155L56.3112 82.8279L56.4895 82.8997L56.5178 82.9114L56.6961 82.9864L56.7213 82.9972L56.8996 83.0751L56.9218 83.0849L57.1001 83.1654L57.1193 83.1742L57.2975 83.257L57.3138 83.2646L57.492 83.3493L57.5053 83.3557L57.6836 83.442L57.6836 83.4419L57.694 83.447L57.8722 83.5346L57.8797 83.5383L58.058 83.6269L58.0627 83.6292L58.241 83.7183L58.2428 83.7192L58.42 83.808L58.421 83.8085L58.5945 83.8953L58.5983 83.8972L58.7661 83.9808L58.7727 83.9841L58.9348 84.064L58.9443 84.0687L59.1069 84.1477L59.2712 84.2263L59.4327 84.3018L59.5911 84.3739L59.7466 84.4426L59.8989 84.5074L60.0482 84.5683L60.1943 84.6252L60.3373 84.6779L60.4772 84.7263L60.614 84.7705L60.7477 84.8104L60.8786 84.8461L61.0066 84.8775L61.1319 84.9048L61.2549 84.928L61.3757 84.9472L61.4946 84.9626L61.6121 84.9741L61.7284 84.982L61.8441 84.9862L61.9594 84.9867L62.0749 84.9836L62.191 84.9768L62.3081 84.9664L62.4265 84.9522L62.5468 84.9341L62.669 84.912L62.7937 84.886L62.9209 84.8558L63.0508 84.8214L63.1837 84.7828L63.3196 84.7398L63.4585 84.6926L63.6006 84.6412L63.7458 84.5856L63.8942 84.5258L64.0456 84.4621L64.2002 84.3946L64.3577 84.3235L64.5183 84.2489L64.6818 84.1713L64.8483 84.0906L65.0138 84.0093L65.0213 84.0056L65.1874 83.9231L65.1921 83.9208L65.3638 83.8349L65.3656 83.834L65.5421 83.7456L65.5431 83.7451L65.7213 83.6559L65.7252 83.654L65.9034 83.5653L65.9101 83.562L66.0884 83.474L66.0979 83.4694L66.2762 83.3827L66.2761 83.3826L66.2886 83.3767L66.4668 83.2915L66.4822 83.2842L66.6605 83.2008L66.6788 83.1924L66.857 83.1112L66.8784 83.1016L67.0566 83.023L67.081 83.0124L67.2592 82.9365L67.2867 82.9251L67.465 82.8523L67.4955 82.8402L67.6738 82.7708C67.685 82.7664 67.6962 82.7622 67.7075 82.758L67.8857 82.6924C67.898 82.6878 67.9102 82.6835 67.9226 82.6792L68.1008 82.6174C68.1141 82.6128 68.1274 82.6084 68.1408 82.6041L68.319 82.5465C68.3333 82.5419 68.3477 82.5374 68.362 82.5331L68.5403 82.4799C68.5556 82.4754 68.5709 82.471 68.5863 82.4668L68.7646 82.4182C68.7808 82.4138 68.7971 82.4096 68.8135 82.4056L68.9917 82.3618C69.0089 82.3576 69.0261 82.3536 69.0433 82.3499L69.2216 82.3111C69.2396 82.3072 69.2577 82.3035 69.2758 82.3001L69.454 82.2664C69.4637 82.2646 69.4733 82.2629 69.4829 82.2612C69.4921 82.2596 69.5013 82.2581 69.5105 82.2566L69.6888 82.2282C69.7082 82.2251 69.7277 82.2223 69.7472 82.2198L69.9255 82.1968C69.9455 82.1942 69.9655 82.1919 69.9856 82.1899L70.1639 82.1724C70.1843 82.1703 70.2048 82.1687 70.2253 82.1673L70.4036 82.1552C70.4244 82.1538 70.4452 82.1528 70.466 82.152L70.6442 82.1456C70.6528 82.1453 70.6613 82.145 70.6699 82.1448C70.6823 82.1445 70.6947 82.1444 70.7071 82.1443L70.8853 82.1435C70.9063 82.1434 70.9273 82.1436 70.9483 82.1442L71.1265 82.1489C71.1474 82.1495 71.1683 82.1504 71.1891 82.1516L71.3674 82.162C71.388 82.1632 71.4086 82.1647 71.4291 82.1665L71.6074 82.1825C71.6276 82.1843 71.6478 82.1864 71.668 82.1888L71.8462 82.2102C71.8659 82.2126 71.8856 82.2152 71.9052 82.2182L72.0835 82.245C72.1025 82.2479 72.1216 82.251 72.1405 82.2544L72.3188 82.2865C72.3372 82.2899 72.3554 82.2934 72.3737 82.2972L72.5519 82.3345C72.5695 82.3382 72.5869 82.3421 72.6043 82.3462L72.7826 82.3885C72.7992 82.3925 72.8158 82.3966 72.8323 82.401L73.0106 82.4482C73.0262 82.4523 73.0419 82.4566 73.0574 82.4612L73.2357 82.513C73.2504 82.5173 73.265 82.5217 73.2796 82.5263L73.4579 82.5826C73.4666 82.5854 73.4753 82.5882 73.4839 82.591C73.4889 82.5927 73.4938 82.5943 73.4987 82.596L73.677 82.6566C73.6896 82.6608 73.7022 82.6653 73.7148 82.6698L73.893 82.7344L73.9091 82.7402L73.9276 82.7472L74.1059 82.8155L74.1374 82.8279L74.3156 82.8997L74.344 82.9114L74.5223 82.9864L74.5475 82.9972L74.7258 83.0751L74.748 83.0849L74.9263 83.1654L74.9455 83.1742L75.1237 83.257L75.14 83.2646L75.3183 83.3493L75.3315 83.3556L75.5098 83.442L75.5098 83.4419L75.5202 83.447L75.6984 83.5346L75.7059 83.5383L75.8842 83.6269L75.8889 83.6292L76.0671 83.7183L76.069 83.7192L76.2463 83.8081L76.2472 83.8085L76.4207 83.8953L76.4245 83.8973L76.5923 83.9808L76.5989 83.9841L76.761 84.064L76.7705 84.0687L76.9268 84.1447L76.9393 84.1507L77.0974 84.2263L77.2588 84.3018L77.4174 84.374L77.5727 84.4425L77.7251 84.5074L77.8743 84.5683L78.0205 84.6252L78.1636 84.6779L78.3034 84.7263L78.4402 84.7705L78.5739 84.8104L78.7048 84.8461L78.8328 84.8775L78.9581 84.9048L79.0811 84.928L79.2019 84.9472L79.3208 84.9626L79.4383 84.9741L79.5546 84.982L79.6702 84.9862L79.7856 84.9867L79.9011 84.9836L80.0172 84.9768L80.1343 84.9664L80.2527 84.9522L80.373 84.9341L80.4952 84.912L80.6199 84.886L80.7471 84.8558L80.877 84.8214L81.0099 84.7828L81.1458 84.7398L81.2848 84.6926L81.4269 84.6412L81.5721 84.5855L81.7204 84.5258L81.8719 84.4621L82.0264 84.3946L82.1839 84.3235L82.3446 84.2489L82.5014 84.1745L82.5147 84.1681L82.6693 84.0932L82.6796 84.0881L82.84 84.0093L82.8475 84.0056L83.0136 83.9231L83.0183 83.9208L83.19 83.8349L83.1918 83.834L83.3683 83.7456L83.3693 83.7451L83.5475 83.6559L83.5514 83.654L83.7296 83.5653L83.7363 83.562L83.9146 83.4741L83.9241 83.4694L84.1024 83.3827L84.1023 83.3826L84.1148 83.3767L84.293 83.2915L84.3084 83.2842L84.4867 83.2008L84.505 83.1924L84.6832 83.1112L84.7046 83.1016L84.8828 83.023L84.9072 83.0124L85.0854 82.9365L85.1129 82.9251L85.2912 82.8523L85.3217 82.8402L85.5 82.7708C85.5112 82.7664 85.5224 82.7622 85.5337 82.758L85.7119 82.6924L85.7251 82.6875L85.7488 82.6792L85.927 82.6174C85.9403 82.6128 85.9536 82.6084 85.967 82.6041L86.1452 82.5465C86.1595 82.5419 86.1739 82.5374 86.1882 82.5331L86.3665 82.4799C86.3818 82.4754 86.3971 82.471 86.4125 82.4668L86.5908 82.4182C86.607 82.4138 86.6233 82.4096 86.6397 82.4056L86.8179 82.3618C86.8351 82.3576 86.8523 82.3536 86.8696 82.3499L87.0478 82.3111C87.0658 82.3072 87.0839 82.3035 87.102 82.3001L87.2802 82.2664C87.299 82.2629 87.3178 82.2596 87.3367 82.2566L87.515 82.2282C87.5344 82.2251 87.5539 82.2223 87.5734 82.2198L87.7517 82.1968C87.7717 82.1942 87.7917 82.1919 87.8118 82.1899L87.9901 82.1724C87.9999 82.1714 88.0098 82.1705 88.0197 82.1697C88.0303 82.1688 88.0409 82.168 88.0515 82.1673L88.2298 82.1552C88.2506 82.1538 88.2714 82.1528 88.2922 82.152L88.4704 82.1456C88.4914 82.1448 88.5123 82.1444 88.5333 82.1443L88.7115 82.1435V82.1441L88.8459 82.1435C88.8669 82.1434 88.8878 82.1436 88.9088 82.1442L89.0871 82.1489C89.1079 82.1495 89.1288 82.1504 89.1496 82.1516L89.3279 82.162C89.3485 82.1632 89.3691 82.1647 89.3896 82.1665L89.5679 82.1825C89.5881 82.1843 89.6083 82.1864 89.6285 82.1888L89.8068 82.2102C89.8148 82.2112 89.8229 82.2122 89.831 82.2133C89.8426 82.2148 89.8542 82.2164 89.8657 82.2182L90.044 82.245C90.0631 82.2479 90.0821 82.251 90.1011 82.2544L90.2793 82.2865C90.2977 82.2899 90.316 82.2934 90.3342 82.2972L90.5125 82.3345C90.53 82.3382 90.5475 82.3421 90.5649 82.3462L90.7431 82.3885C90.7598 82.3925 90.7763 82.3966 90.7928 82.401L90.9711 82.4482C90.9776 82.4499 90.9842 82.4516 90.9907 82.4534C90.9998 82.4559 91.0089 82.4585 91.018 82.4612L91.1962 82.513C91.2109 82.5173 91.2256 82.5217 91.2402 82.5263L91.4184 82.5826C91.4321 82.5869 91.4457 82.5914 91.4593 82.596L91.6375 82.6566C91.6421 82.6581 91.6466 82.6596 91.6511 82.6612C91.6592 82.664 91.6672 82.6669 91.6753 82.6698L91.8535 82.7343C91.8589 82.7363 91.8643 82.7383 91.8697 82.7403C91.8758 82.7426 91.882 82.7449 91.8882 82.7473L92.0664 82.8155L92.0979 82.8279L92.2762 82.8997L92.3045 82.9114L92.4828 82.9864L92.5081 82.9972L92.6863 83.0751L92.7086 83.0849L92.8868 83.1654L92.906 83.1742L93.0843 83.257L93.1005 83.2646L93.2788 83.3493L93.292 83.3556L93.4703 83.442L93.4703 83.4419L93.4807 83.447L93.659 83.5346L93.6665 83.5383L93.8447 83.6269L93.8494 83.6292L94.0277 83.7183L94.0295 83.7192L94.2068 83.808L94.2078 83.8085L94.3812 83.8953L94.385 83.8972L94.5562 83.9824L94.7263 84.0663L94.8936 84.1477L95.0579 84.2263L95.2194 84.3018L95.3779 84.3739L95.5333 84.4425L95.6856 84.5074L95.8349 84.5683L95.981 84.6252L96.1241 84.6779L96.2639 84.7263L96.4007 84.7705L96.5345 84.8104L96.6653 84.8461L96.7933 84.8775L96.9187 84.9048L97.0416 84.928L97.1624 84.9472L97.2814 84.9626L97.3988 84.9741L97.5152 84.982L97.6308 84.9862L97.7776 84.9868L97.759 88.9868L97.5807 88.986C97.5598 88.9859 97.5388 88.9854 97.5179 88.9847L97.3396 88.9782C97.3188 88.9775 97.298 88.9764 97.2772 88.975L97.099 88.963C97.0784 88.9616 97.058 88.9599 97.0375 88.9579L96.8592 88.9404C96.8392 88.9384 96.8191 88.9361 96.7991 88.9335L96.6208 88.9105C96.6013 88.908 96.5818 88.9052 96.5624 88.9021L96.3841 88.8737C96.3653 88.8707 96.3464 88.8674 96.3277 88.8638L96.1494 88.8302C96.1313 88.8268 96.1133 88.8231 96.0952 88.8192L95.917 88.7804C95.8997 88.7766 95.8825 88.7727 95.8654 88.7684L95.6871 88.7247C95.6707 88.7207 95.6544 88.7165 95.6382 88.712L95.4599 88.6635C95.4567 88.6626 95.4535 88.6617 95.4503 88.6608C95.4382 88.6574 95.426 88.6539 95.4139 88.6503L95.2357 88.5971C95.2305 88.5956 95.2254 88.5941 95.2203 88.5925C95.2111 88.5897 95.2018 88.5868 95.1927 88.5838L95.0144 88.5262C95.0075 88.524 95.0007 88.5217 94.9938 88.5194C94.9873 88.5173 94.9809 88.5151 94.9744 88.5128L94.7962 88.4511C94.7839 88.4468 94.7716 88.4424 94.7594 88.4379L94.5811 88.3722C94.5698 88.3681 94.5586 88.3638 94.5474 88.3595L94.3692 88.2901L94.3386 88.2779L94.1603 88.2052L94.1329 88.1937L93.9546 88.1179L93.9303 88.1073L93.752 88.0286L93.7307 88.0191L93.5524 87.9379L93.5341 87.9294L93.3558 87.8461L93.3405 87.8388L93.1622 87.7536L93.1622 87.7536L93.1498 87.7476L92.9715 87.6609L92.962 87.6562L92.7837 87.5683L92.7771 87.565L92.5988 87.4763L92.595 87.4744L92.4167 87.3851L92.4157 87.3846L92.2393 87.2962L92.2375 87.2953L92.0634 87.2083L91.8912 87.1228L91.7219 87.0396L91.5554 86.959L91.3919 86.8813L91.2314 86.8068L91.0738 86.7357L90.9193 86.6681L90.7678 86.6044L90.6195 86.5447L90.4743 86.4891L90.3322 86.4376L90.1932 86.3904L90.0573 86.3475L89.9245 86.3089L89.7945 86.2745L89.6673 86.2443L89.5427 86.2182L89.4204 86.1962L89.3002 86.1781L89.1817 86.1639L89.0646 86.1534L88.9485 86.1467L88.833 86.1436L88.6862 86.1443V86.1436L88.5834 86.1441L88.4677 86.1483L88.3514 86.1561L88.2339 86.1677L88.115 86.1831L87.9942 86.2023L87.8712 86.2255L87.7459 86.2528L87.6178 86.2842L87.487 86.3199L87.3533 86.3597L87.2165 86.4039L87.0766 86.4524L86.9336 86.5051L86.7875 86.562L86.6382 86.6229L86.4858 86.6877L86.3304 86.7563L86.172 86.8285L86.0106 86.904L85.8524 86.9795L85.84 86.9855L85.6836 87.0616L85.6741 87.0663L85.512 87.1462L85.5054 87.1495L85.3376 87.233L85.3338 87.2349L85.1603 87.3217L85.1593 87.3222L84.9821 87.4111L84.9803 87.412L84.802 87.5011L84.7973 87.5034L84.619 87.5919L84.6115 87.5956L84.4333 87.6832L84.4333 87.6833L84.4229 87.6883L84.2446 87.7746L84.2313 87.781L84.0531 87.8657L84.0368 87.8733L83.8586 87.9561L83.8394 87.9649L83.6611 88.0453L83.6389 88.0552L83.4607 88.1331L83.4354 88.1439L83.2571 88.2189L83.2287 88.2306L83.0505 88.3023L83.019 88.3147L82.8407 88.383C82.8292 88.3874 82.8177 88.3917 82.8061 88.3959L82.6279 88.4605C82.6153 88.465 82.6027 88.4694 82.5901 88.4737L82.4118 88.5343C82.3983 88.5389 82.3847 88.5433 82.371 88.5476L82.1927 88.6039C82.1835 88.6069 82.1742 88.6097 82.1649 88.6125C82.1596 88.6141 82.1542 88.6157 82.1488 88.6173L81.9706 88.6691C81.955 88.6736 81.9393 88.678 81.9237 88.6821L81.7454 88.7293C81.7289 88.7337 81.7123 88.7378 81.6957 88.7418L81.5174 88.7841C81.5 88.7882 81.4826 88.7921 81.465 88.7958L81.2868 88.833C81.2685 88.8369 81.2502 88.8404 81.2319 88.8437L81.0536 88.8758C81.0347 88.8793 81.0156 88.8824 80.9966 88.8853L80.8183 88.9121C80.7987 88.915 80.779 88.9177 80.7593 88.9201L80.5811 88.9415C80.5609 88.9439 80.5407 88.946 80.5205 88.9478L80.3422 88.9637C80.3217 88.9656 80.3011 88.9671 80.2805 88.9683L80.1022 88.9787C80.0814 88.9799 80.0605 88.9808 80.0396 88.9813L79.8614 88.9861C79.8404 88.9867 79.8194 88.9869 79.7984 88.9868L79.6202 88.986C79.5992 88.9859 79.5783 88.9854 79.5573 88.9847L79.3791 88.9782C79.3583 88.9775 79.3375 88.9764 79.3167 88.975L79.1384 88.963C79.1179 88.9616 79.0974 88.9599 79.077 88.9579L78.8987 88.9404C78.8786 88.9384 78.8586 88.9361 78.8386 88.9335L78.6603 88.9105C78.6493 88.9091 78.6384 88.9076 78.6275 88.906C78.6189 88.9047 78.6104 88.9034 78.6019 88.9021L78.4236 88.8737C78.4047 88.8707 78.3859 88.8674 78.3671 88.8638L78.1889 88.8302C78.1708 88.8268 78.1527 88.8231 78.1347 88.8192L77.9565 88.7804C77.9392 88.7766 77.922 88.7727 77.9048 88.7684L77.7266 88.7247C77.7102 88.7207 77.6939 88.7164 77.6777 88.712L77.4994 88.6635C77.4895 88.6608 77.4796 88.658 77.4697 88.6551C77.4643 88.6535 77.4588 88.652 77.4534 88.6503L77.2751 88.5971C77.2608 88.5929 77.2464 88.5884 77.2321 88.5838L77.0539 88.5262C77.0405 88.5219 77.0272 88.5174 77.0139 88.5128L76.8357 88.4511C76.8233 88.4468 76.8111 88.4424 76.7988 88.4379L76.6206 88.3722C76.6127 88.3693 76.6048 88.3664 76.5969 88.3634C76.5936 88.3621 76.5902 88.3608 76.5869 88.3595L76.4086 88.2901L76.3781 88.2779L76.1998 88.2052L76.1723 88.1937L75.9941 88.1179L75.9697 88.1073L75.7914 88.0286L75.7701 88.0191L75.5919 87.9379L75.5736 87.9294L75.3953 87.8461L75.38 87.8388L75.2017 87.7536L75.2017 87.7536L75.1893 87.7476L75.011 87.6609L75.0015 87.6562L74.8232 87.5683L74.8165 87.565L74.6383 87.4763L74.6344 87.4743L74.4562 87.3851L74.4552 87.3847L74.2788 87.2962L74.2769 87.2953L74.1052 87.2095L74.1005 87.2071L73.9344 87.1246L73.9269 87.1209L73.7665 87.0421L73.7561 87.0371L73.6015 86.9622L73.5883 86.9558L73.4313 86.8813L73.2707 86.8067L73.1133 86.7356L72.9588 86.6682L72.8073 86.6044L72.6589 86.5447L72.5137 86.4891L72.3717 86.4376L72.2327 86.3904L72.0968 86.3475L71.964 86.3089L71.834 86.2745L71.7067 86.2443L71.5821 86.2182L71.4599 86.1962L71.3396 86.1781L71.2212 86.1639L71.1041 86.1534L70.988 86.1467L70.8725 86.1436L70.7572 86.1441L70.6415 86.1483L70.5252 86.1561L70.4077 86.1677L70.2888 86.1831L70.168 86.2023L70.045 86.2255L69.9197 86.2528L69.7917 86.2842L69.6609 86.3198L69.5271 86.3598L69.3903 86.4039L69.2504 86.4524L69.1074 86.5051L68.9613 86.562L68.812 86.6229L68.6596 86.6877L68.5042 86.7563L68.3458 86.8285L68.1844 86.904L68.0262 86.9795L68.0138 86.9855L67.8574 87.0616L67.8479 87.0663L67.6858 87.1462L67.6792 87.1495L67.5114 87.233L67.5076 87.2349L67.3341 87.3217L67.3331 87.3222L67.1559 87.4111L67.1541 87.412L66.9758 87.5011L66.9711 87.5034L66.7929 87.5919L66.7853 87.5956L66.6071 87.6832L66.6071 87.6833L66.5967 87.6883L66.4184 87.7746L66.4051 87.781L66.2269 87.8657L66.2106 87.8733L66.0324 87.9561L66.0132 87.9649L65.8349 88.0453L65.8127 88.0552L65.6345 88.1331L65.6092 88.1439L65.4309 88.2189L65.4025 88.2306L65.2243 88.3023L65.1928 88.3147L65.0145 88.383C65.003 88.3874 64.9915 88.3917 64.9799 88.3959L64.8017 88.4605C64.7891 88.465 64.7765 88.4694 64.7639 88.4737L64.5856 88.5343C64.5776 88.537 64.5696 88.5396 64.5616 88.5423C64.556 88.5441 64.5504 88.5459 64.5448 88.5476L64.3665 88.6039C64.3519 88.6086 64.3373 88.613 64.3226 88.6173L64.1444 88.6691C64.1288 88.6736 64.1131 88.678 64.0975 88.6821L63.9192 88.7293C63.9027 88.7337 63.8861 88.7378 63.8695 88.7418L63.6912 88.7841C63.6738 88.7882 63.6564 88.7921 63.6388 88.7958L63.4606 88.833C63.4423 88.8369 63.424 88.8404 63.4057 88.8437L63.2274 88.8758C63.2085 88.8793 63.1894 88.8824 63.1704 88.8853L62.9921 88.9121C62.9811 88.9137 62.9701 88.9153 62.9591 88.9168C62.9505 88.9179 62.9418 88.919 62.9331 88.9201L62.7549 88.9415C62.7347 88.9439 62.7145 88.946 62.6943 88.9478L62.516 88.9637C62.4955 88.9656 62.4749 88.9671 62.4543 88.9683L62.276 88.9787C62.2552 88.9799 62.2343 88.9808 62.2134 88.9813L62.0352 88.9861C62.0142 88.9867 61.9932 88.9869 61.9722 88.9868L61.794 88.986C61.773 88.9859 61.7521 88.9854 61.7311 88.9847L61.5529 88.9782C61.5321 88.9775 61.5113 88.9764 61.4905 88.975L61.3122 88.963C61.2917 88.9616 61.2712 88.9599 61.2508 88.9579L61.0725 88.9404C61.0524 88.9384 61.0324 88.9361 61.0124 88.9335L60.8341 88.9105C60.8146 88.908 60.7951 88.9052 60.7757 88.9021L60.5974 88.8737C60.5785 88.8707 60.5597 88.8674 60.5409 88.8638L60.3627 88.8302C60.3446 88.8268 60.3265 88.8231 60.3085 88.8192L60.1303 88.7804C60.113 88.7766 60.0958 88.7727 60.0786 88.7684L59.9004 88.7247C59.884 88.7207 59.8677 88.7164 59.8515 88.712L59.6732 88.6635C59.6578 88.6593 59.6425 88.6549 59.6272 88.6503L59.4489 88.5971C59.4346 88.5929 59.4202 88.5884 59.4059 88.5838L59.2277 88.5262C59.2192 88.5235 59.2107 88.5206 59.2022 88.5178C59.1974 88.5162 59.1925 88.5145 59.1877 88.5128L59.0095 88.4511C58.9971 88.4468 58.9849 88.4424 58.9726 88.4379L58.7944 88.3722C58.7831 88.3681 58.7719 88.3638 58.7607 88.3595L58.5824 88.2901L58.5519 88.2779L58.3736 88.2052L58.3461 88.1937L58.1679 88.1179L58.1435 88.1073L57.9653 88.0286L57.9439 88.0191L57.7657 87.9379L57.7474 87.9294L57.5691 87.8461L57.5538 87.8388L57.3755 87.7536L57.3755 87.7536L57.3631 87.7476L57.1848 87.6609L57.1753 87.6562L56.997 87.5683L56.9903 87.565L56.8121 87.4763L56.8082 87.4744L56.63 87.3851L56.629 87.3847L56.4525 87.2962L56.4507 87.2953L56.279 87.2095L56.2743 87.2071L56.1082 87.1246L56.1007 87.1209L55.9351 87.0396L55.7687 86.959L55.6053 86.8814L55.4446 86.8068L55.287 86.7356L55.1326 86.6682L54.9811 86.6045L54.8328 86.5447L54.6876 86.4891L54.5455 86.4376L54.4065 86.3904L54.2706 86.3475L54.1378 86.3089L54.0078 86.2745L53.8806 86.2443L53.756 86.2182L53.6337 86.1962L53.5134 86.1781L53.395 86.1639L53.2779 86.1534L53.1618 86.1467L53.0463 86.1436L52.9309 86.1441L52.8153 86.1483L52.699 86.1561L52.5815 86.1677L52.4626 86.1831L52.3418 86.2023L52.2188 86.2255L52.0935 86.2528L51.9655 86.2842L51.8346 86.3199L51.7009 86.3598L51.5641 86.4039L51.4242 86.4524L51.2812 86.5051L51.1351 86.562L50.9858 86.6229L50.8334 86.6877L50.678 86.7563L50.5196 86.8285L50.3581 86.904L50.1937 86.9826L50.0265 87.064L49.8596 87.1462L49.853 87.1495L49.6852 87.233L49.6814 87.2349L49.5079 87.3217L49.5069 87.3222L49.3297 87.4111L49.3278 87.412L49.1496 87.5011L49.1449 87.5034L48.9667 87.5919L48.9591 87.5956L48.7809 87.6832L48.7809 87.6833L48.7705 87.6883L48.5922 87.7746L48.5789 87.781L48.4007 87.8657L48.3845 87.8733L48.2062 87.9561L48.187 87.9648L48.0087 88.0453L47.9865 88.0552L47.8083 88.1331L47.783 88.1439L47.6047 88.2189L47.5764 88.2306L47.3981 88.3023L47.3666 88.3147L47.1883 88.383C47.1768 88.3874 47.1653 88.3917 47.1537 88.3959L46.9755 88.4605C46.9629 88.465 46.9503 88.4694 46.9377 88.4737L46.7594 88.5343C46.7459 88.5389 46.7323 88.5433 46.7186 88.5476L46.5403 88.6039C46.5257 88.6086 46.5111 88.613 46.4964 88.6173L46.3182 88.6691C46.3026 88.6736 46.2869 88.678 46.2713 88.6821L46.093 88.7293C46.0872 88.7308 46.0814 88.7323 46.0756 88.7338C46.0648 88.7366 46.0541 88.7392 46.0433 88.7417L45.865 88.7841C45.8476 88.7882 45.8302 88.7921 45.8126 88.7958L45.6344 88.833C45.6161 88.8369 45.5978 88.8404 45.5795 88.8437L45.4013 88.8758C45.3823 88.8793 45.3632 88.8824 45.3442 88.8853L45.1659 88.9121C45.1463 88.915 45.1266 88.9177 45.1069 88.9201L44.9287 88.9415C44.9085 88.9439 44.8883 88.946 44.8681 88.9478L44.6898 88.9637C44.6693 88.9656 44.6487 88.9671 44.6281 88.9683L44.4498 88.9787C44.429 88.9799 44.4081 88.9808 44.3872 88.9813L44.209 88.9861Z" fill="#FDFFFC"/>
<path fill-rule="evenodd" clip-rule="evenodd" d="M44.209 100.205C44.188 100.206 44.167 100.206 44.146 100.206L43.9678 100.205C43.9468 100.205 43.9259 100.204 43.9049 100.204L43.7267 100.197C43.7059 100.196 43.6851 100.195 43.6643 100.194L43.486 100.182C43.4655 100.181 43.445 100.179 43.4246 100.177L43.2463 100.159C43.2262 100.157 43.2062 100.155 43.1862 100.153L43.0079 100.129C42.9884 100.127 42.9689 100.124 42.9495 100.121L42.7712 100.093C42.7523 100.09 42.7335 100.086 42.7147 100.083L42.5365 100.049C42.5184 100.046 42.5003 100.042 42.4823 100.038L42.3041 99.9994C42.2868 99.9956 42.2696 99.9917 42.2524 99.9874L42.0742 99.9437C42.0578 99.9397 42.0415 99.9354 42.0253 99.931L41.847 99.8825C41.8353 99.8792 41.8235 99.8759 41.8118 99.8725C41.8082 99.8715 41.8046 99.8704 41.801 99.8693L41.6227 99.8161C41.6153 99.8139 41.6079 99.8117 41.6005 99.8094C41.5936 99.8072 41.5867 99.805 41.5797 99.8028L41.4015 99.7452C41.3931 99.7425 41.3847 99.7397 41.3763 99.7369C41.3714 99.7352 41.3664 99.7335 41.3615 99.7318L41.1833 99.6701C41.1709 99.6658 41.1587 99.6614 41.1464 99.6569L40.9682 99.5912C40.9628 99.5892 40.9574 99.5872 40.9521 99.5852C40.9462 99.583 40.9403 99.5807 40.9345 99.5785L40.7562 99.5091L40.7257 99.4969L40.5474 99.4242L40.5199 99.4127L40.3417 99.3369L40.3173 99.3263L40.1391 99.2476L40.1177 99.2381L39.9395 99.1569L39.9212 99.1484L39.7429 99.0651L39.7275 99.0578L39.5493 98.9726L39.5493 98.9726L39.5369 98.9666L39.3586 98.8799L39.3491 98.8752L39.1708 98.7873L39.1641 98.784L38.9859 98.6953L38.982 98.6933L38.8038 98.6041L38.8028 98.6036L38.6263 98.5152L38.6245 98.5143L38.4504 98.4273L38.2782 98.3418L38.1089 98.2586L37.9425 98.178L37.779 98.1003L37.6184 98.0258L37.4609 97.9547L37.3063 97.8871L37.1549 97.8234L37.0066 97.7637L36.8613 97.7081L36.7193 97.6566L36.5803 97.6094L36.4444 97.5665L36.3115 97.5279L36.1816 97.4935L36.0544 97.4633L35.9297 97.4372L35.8075 97.4152L35.6872 97.3971L35.5688 97.3829L35.4517 97.3724L35.3356 97.3657L35.2201 97.3626L35.0733 97.3633L35.0547 93.3633L35.233 93.3625C35.2436 93.3624 35.2543 93.3625 35.2649 93.3626C35.2753 93.3627 35.2856 93.3629 35.2959 93.3632L35.4741 93.3679C35.495 93.3685 35.5159 93.3694 35.5367 93.3706L35.715 93.381C35.7356 93.3822 35.7562 93.3837 35.7767 93.3855L35.955 93.4015C35.9752 93.4033 35.9954 93.4054 36.0156 93.4078L36.1938 93.4292C36.2135 93.4316 36.2332 93.4342 36.2528 93.4372L36.4311 93.464C36.4501 93.4669 36.4692 93.47 36.4882 93.4734L36.6664 93.5055C36.6735 93.5068 36.6806 93.5081 36.6876 93.5095C36.6989 93.5116 36.7101 93.5139 36.7213 93.5162L36.8995 93.5535C36.9171 93.5572 36.9345 93.5611 36.9519 93.5652L37.1302 93.6075C37.1468 93.6115 37.1634 93.6156 37.1799 93.62L37.3582 93.6671C37.3739 93.6713 37.3895 93.6756 37.4051 93.6802L37.5833 93.732C37.598 93.7363 37.6126 93.7407 37.6272 93.7453L37.8055 93.8016C37.8192 93.8059 37.8328 93.8104 37.8464 93.815L38.0246 93.8756C38.0308 93.8776 38.0369 93.8798 38.043 93.8819C38.0495 93.8842 38.0559 93.8865 38.0624 93.8888L38.2406 93.9533C38.2522 93.9575 38.2637 93.9618 38.2752 93.9662L38.4535 94.0345L38.485 94.0469L38.6633 94.1187L38.6916 94.1304L38.8699 94.2053L38.8952 94.2162L39.0734 94.2941L39.0956 94.3039L39.2739 94.3844L39.2931 94.3932L39.4714 94.476L39.4876 94.4836L39.6658 94.5683L39.6791 94.5746L39.8574 94.661L39.8574 94.6609L39.8678 94.666L40.0461 94.7536L40.0535 94.7573L40.2318 94.8458L40.2365 94.8482L40.4148 94.9373L40.4166 94.9382L40.5938 95.027L40.5948 95.0275L40.7683 95.1143L40.7721 95.1162L40.9432 95.2014L41.1134 95.2853L41.2807 95.3667L41.445 95.4453L41.6065 95.5208L41.7649 95.5929L41.9203 95.6615L42.0727 95.7264L42.222 95.7873L42.3681 95.8442L42.5111 95.8969L42.651 95.9453L42.7878 95.9895L42.9216 96.0294L43.0524 96.065L43.1804 96.0965L43.3057 96.1237L43.4287 96.147L43.5495 96.1662L43.6684 96.1816L43.7859 96.1931L43.9022 96.201L44.0179 96.2051L44.1332 96.2057L44.2487 96.2026L44.3648 96.1958L44.4819 96.1854L44.6003 96.1711L44.7206 96.1531L44.8429 96.131L44.9675 96.105L45.0947 96.0748L45.2246 96.0404L45.3575 96.0018L45.4934 95.9588L45.6324 95.9116L45.7745 95.8602L45.9197 95.8045L46.068 95.7448L46.2195 95.6811L46.374 95.6136L46.5315 95.5425L46.6921 95.4679L46.8556 95.3902L47.022 95.3097L47.1914 95.2264L47.3612 95.1421L47.3659 95.1398L47.5376 95.0539L47.5395 95.053L47.7159 94.9646L47.7169 94.9641L47.8951 94.8749L47.899 94.873L48.0772 94.7843L48.0839 94.781L48.2622 94.693L48.2717 94.6884L48.4499 94.6017L48.4499 94.6016L48.4624 94.5957L48.6407 94.5104L48.656 94.5032L48.8343 94.4198L48.8526 94.4114L49.0308 94.3302L49.0522 94.3206L49.2304 94.242L49.2548 94.2314L49.433 94.1555L49.4605 94.1441L49.6388 94.0713L49.6693 94.0591L49.8476 93.9898C49.8588 93.9854 49.87 93.9812 49.8813 93.977L50.0595 93.9113C50.0718 93.9068 50.084 93.9024 50.0964 93.8982L50.2746 93.8364C50.2879 93.8318 50.3012 93.8274 50.3146 93.8231L50.4928 93.7655C50.5071 93.7609 50.5215 93.7564 50.5358 93.7521L50.7141 93.6989C50.7294 93.6944 50.7447 93.69 50.7601 93.6858L50.9384 93.6372C50.9546 93.6328 50.9709 93.6286 50.9873 93.6246L51.1655 93.5808C51.1827 93.5766 51.1999 93.5726 51.2172 93.5689L51.3954 93.5301C51.4134 93.5262 51.4315 93.5225 51.4496 93.5191L51.6278 93.4854C51.6466 93.4819 51.6654 93.4786 51.6843 93.4756L51.8625 93.4472C51.882 93.4441 51.9015 93.4413 51.921 93.4388L52.0993 93.4158C52.1193 93.4132 52.1393 93.4109 52.1594 93.4089L52.3377 93.3914C52.3581 93.3893 52.3786 93.3876 52.3991 93.3863L52.5774 93.3742C52.5982 93.3728 52.619 93.3718 52.6398 93.371L52.818 93.3646C52.839 93.3638 52.8599 93.3634 52.8809 93.3633L53.0591 93.3625C53.0801 93.3624 53.1011 93.3626 53.1221 93.3632L53.3003 93.3679C53.3212 93.3685 53.3421 93.3694 53.3629 93.3706L53.5412 93.381C53.5618 93.3822 53.5824 93.3837 53.6029 93.3855L53.7812 93.4015C53.8014 93.4033 53.8216 93.4054 53.8418 93.4078L54.02 93.4292C54.0397 93.4316 54.0594 93.4342 54.079 93.4372L54.2573 93.464C54.2763 93.4669 54.2954 93.47 54.3143 93.4734L54.4926 93.5055C54.5109 93.5088 54.5292 93.5124 54.5475 93.5162L54.7257 93.5535C54.7433 93.5572 54.7607 93.5611 54.7782 93.5652L54.9564 93.6075C54.973 93.6115 54.9896 93.6156 55.0061 93.62L55.1844 93.6671C55.2 93.6713 55.2157 93.6756 55.2312 93.6802L55.4095 93.732C55.4242 93.7363 55.4388 93.7407 55.4534 93.7453L55.6317 93.8016C55.6454 93.8059 55.659 93.8104 55.6725 93.815L55.8508 93.8755C55.8634 93.8798 55.876 93.8843 55.8886 93.8888L56.0668 93.9533C56.0784 93.9575 56.0899 93.9618 56.1014 93.9662L56.2797 94.0345L56.3112 94.0469L56.4895 94.1187L56.5178 94.1304L56.6961 94.2053L56.7213 94.2162L56.8996 94.2941L56.9218 94.3039L57.1001 94.3844L57.1193 94.3932L57.2975 94.4759L57.3138 94.4836L57.492 94.5683L57.5053 94.5747L57.6836 94.661L57.6836 94.6609L57.694 94.666L57.8722 94.7536L57.8797 94.7573L58.058 94.8459L58.0627 94.8482L58.241 94.9373L58.2428 94.9382L58.42 95.027L58.421 95.0275L58.5945 95.1143L58.5983 95.1162L58.7661 95.1998L58.7727 95.2031L58.9348 95.283L58.9443 95.2877L59.1069 95.3667L59.2712 95.4453L59.4327 95.5208L59.5911 95.5929L59.7466 95.6615L59.8989 95.7264L60.0482 95.7873L60.1943 95.8442L60.3373 95.8969L60.4772 95.9453L60.614 95.9895L60.7477 96.0294L60.8786 96.065L61.0066 96.0965L61.1319 96.1237L61.2549 96.147L61.3757 96.1662L61.4946 96.1816L61.6121 96.1931L61.7284 96.201L61.8441 96.2051L61.9594 96.2057L62.0749 96.2026L62.191 96.1958L62.3081 96.1854L62.4265 96.1711L62.5468 96.1531L62.669 96.131L62.7937 96.105L62.9209 96.0748L63.0508 96.0404L63.1837 96.0018L63.3196 95.9588L63.4585 95.9116L63.6006 95.8602L63.7458 95.8046L63.8942 95.7448L64.0456 95.6811L64.2002 95.6136L64.3577 95.5425L64.5183 95.4679L64.6818 95.3903L64.8483 95.3096L65.0138 95.2283L65.0213 95.2246L65.1874 95.1421L65.1921 95.1398L65.3638 95.0539L65.3656 95.053L65.5421 94.9646L65.5431 94.9641L65.7213 94.8749L65.7252 94.873L65.9034 94.7843L65.9101 94.781L66.0884 94.693L66.0979 94.6884L66.2762 94.6017L66.2761 94.6016L66.2886 94.5957L66.4668 94.5105L66.4822 94.5032L66.6605 94.4198L66.6788 94.4114L66.857 94.3302L66.8784 94.3206L67.0566 94.242L67.081 94.2314L67.2592 94.1555L67.2867 94.1441L67.465 94.0713L67.4955 94.0591L67.6738 93.9898C67.685 93.9854 67.6962 93.9812 67.7075 93.977L67.8857 93.9113C67.8955 93.9077 67.9053 93.9042 67.9152 93.9007L67.9226 93.8982L68.1008 93.8364C68.1141 93.8318 68.1274 93.8274 68.1408 93.8231L68.319 93.7655C68.3333 93.7609 68.3477 93.7564 68.362 93.7521L68.5403 93.6989C68.5556 93.6944 68.5709 93.69 68.5863 93.6858L68.7646 93.6372C68.7808 93.6328 68.7971 93.6286 68.8135 93.6246L68.9917 93.5808C69.0089 93.5766 69.0261 93.5726 69.0433 93.5689L69.2216 93.5301C69.2396 93.5262 69.2577 93.5225 69.2758 93.5191L69.454 93.4854C69.4728 93.4819 69.4916 93.4786 69.5105 93.4756L69.6888 93.4472C69.7082 93.4441 69.7277 93.4413 69.7472 93.4388L69.9255 93.4158C69.9378 93.4142 69.9502 93.4127 69.9626 93.4113C69.9703 93.4105 69.9779 93.4097 69.9856 93.4089L70.1639 93.3914C70.1843 93.3893 70.2048 93.3876 70.2253 93.3863L70.4036 93.3742C70.4244 93.3728 70.4452 93.3718 70.466 93.371L70.6442 93.3646C70.6652 93.3638 70.6861 93.3634 70.7071 93.3633L70.8853 93.3625C70.9063 93.3624 70.9273 93.3626 70.9483 93.3632L71.1265 93.3679C71.1413 93.3683 71.1561 93.3689 71.1708 93.3696C71.1769 93.3699 71.183 93.3702 71.1891 93.3706L71.3674 93.381C71.388 93.3822 71.4086 93.3837 71.4291 93.3855L71.6074 93.4015C71.6276 93.4033 71.6478 93.4054 71.668 93.4078L71.8462 93.4292C71.8659 93.4316 71.8856 93.4342 71.9052 93.4372L72.0835 93.464C72.1025 93.4669 72.1216 93.47 72.1405 93.4734L72.3188 93.5055C72.3372 93.5088 72.3554 93.5124 72.3737 93.5162L72.5519 93.5535C72.5695 93.5572 72.5869 93.5611 72.6043 93.5652L72.7826 93.6075C72.7992 93.6115 72.8158 93.6156 72.8323 93.62L73.0106 93.6671C73.0262 93.6713 73.0419 93.6756 73.0574 93.6802L73.2357 93.732C73.2504 93.7363 73.265 93.7407 73.2796 93.7453L73.4579 93.8016C73.4716 93.8059 73.4852 93.8104 73.4987 93.815L73.677 93.8755C73.6896 93.8798 73.7022 93.8843 73.7148 93.8888L73.893 93.9534L73.9091 93.9592L73.9276 93.9662L74.1059 94.0345L74.1374 94.0469L74.3156 94.1187L74.344 94.1304L74.5223 94.2053L74.5475 94.2162L74.7258 94.2941L74.748 94.3039L74.9263 94.3844L74.9455 94.3932L75.1237 94.4759L75.14 94.4836L75.3183 94.5683L75.3315 94.5746L75.5098 94.661L75.5098 94.6609L75.5202 94.666L75.6984 94.7536L75.7059 94.7573L75.8842 94.8459L75.8889 94.8482L76.0671 94.9373L76.069 94.9382L76.2463 95.027L76.2472 95.0275L76.4207 95.1143L76.4245 95.1163L76.5923 95.1998L76.5989 95.2031L76.761 95.283L76.7705 95.2877L76.9268 95.3637L76.9393 95.3697L77.0974 95.4453L77.2588 95.5207L77.4174 95.593L77.5727 95.6615L77.7251 95.7264L77.8743 95.7873L78.0205 95.8442L78.1636 95.8969L78.3034 95.9453L78.4402 95.9895L78.5739 96.0294L78.7048 96.065L78.8328 96.0965L78.9581 96.1237L79.0811 96.147L79.2019 96.1662L79.3208 96.1816L79.4383 96.1931L79.5546 96.201L79.6702 96.2051L79.7856 96.2057L79.9011 96.2026L80.0172 96.1958L80.1343 96.1854L80.2527 96.1711L80.373 96.1531L80.4952 96.131L80.6199 96.105L80.7471 96.0748L80.877 96.0404L81.0099 96.0018L81.1458 95.9588L81.2848 95.9116L81.4269 95.8602L81.5721 95.8045L81.7204 95.7448L81.8719 95.6811L82.0264 95.6136L82.1839 95.5425L82.3446 95.4679L82.5014 95.3935L82.5147 95.3871L82.6693 95.3122L82.6796 95.3071L82.84 95.2283L82.8475 95.2246L83.0136 95.1421L83.0183 95.1398L83.19 95.0539L83.1918 95.053L83.3683 94.9646L83.3693 94.9641L83.5475 94.8749L83.5514 94.873L83.7296 94.7843L83.7363 94.781L83.9146 94.6931L83.9241 94.6884L84.1024 94.6017L84.1023 94.6016L84.1148 94.5957L84.293 94.5105L84.3084 94.5032L84.4867 94.4198L84.505 94.4114L84.6832 94.3302L84.7046 94.3206L84.8828 94.242L84.9072 94.2314L85.0854 94.1555L85.1129 94.1441L85.2912 94.0713L85.3217 94.0591L85.5 93.9898C85.5112 93.9854 85.5224 93.9812 85.5337 93.977L85.7119 93.9113L85.7251 93.9065L85.7488 93.8982L85.927 93.8364C85.9403 93.8318 85.9536 93.8274 85.967 93.8231L86.1452 93.7655C86.1526 93.7631 86.1599 93.7608 86.1673 93.7585C86.1743 93.7563 86.1813 93.7542 86.1882 93.7521L86.3665 93.6989C86.3818 93.6944 86.3971 93.69 86.4125 93.6858L86.5908 93.6372C86.607 93.6328 86.6233 93.6286 86.6397 93.6246L86.8179 93.5808C86.8351 93.5766 86.8523 93.5726 86.8696 93.5689L87.0478 93.5301C87.0571 93.5281 87.0664 93.5261 87.0756 93.5242C87.0844 93.5225 87.0932 93.5207 87.102 93.5191L87.2802 93.4854C87.299 93.4819 87.3178 93.4786 87.3367 93.4756L87.515 93.4472C87.5344 93.4441 87.5539 93.4413 87.5734 93.4388L87.7517 93.4158C87.7717 93.4132 87.7917 93.4109 87.8118 93.4089L87.9901 93.3914C88.0105 93.3893 88.031 93.3876 88.0515 93.3863L88.2298 93.3742C88.2506 93.3728 88.2714 93.3718 88.2922 93.371L88.4704 93.3646C88.4914 93.3638 88.5123 93.3634 88.5333 93.3633L88.7115 93.3625V93.3631L88.8459 93.3625C88.8669 93.3624 88.8878 93.3626 88.9088 93.3632L89.0871 93.3679C89.0978 93.3682 89.1085 93.3686 89.1193 93.3691C89.1294 93.3695 89.1395 93.37 89.1496 93.3706L89.3279 93.381C89.3485 93.3822 89.3691 93.3837 89.3896 93.3855L89.5679 93.4015C89.5881 93.4033 89.6083 93.4054 89.6285 93.4078L89.8068 93.4292C89.8174 93.4305 89.8281 93.4319 89.8388 93.4333C89.8478 93.4345 89.8568 93.4358 89.8657 93.4372L90.044 93.464C90.0631 93.4669 90.0821 93.47 90.1011 93.4734L90.2793 93.5055C90.2977 93.5088 90.316 93.5124 90.3342 93.5162L90.5125 93.5535C90.53 93.5572 90.5475 93.5611 90.5649 93.5652L90.7431 93.6075C90.7598 93.6115 90.7763 93.6156 90.7928 93.62L90.9711 93.6671C90.9868 93.6713 91.0024 93.6756 91.018 93.6802L91.1962 93.732C91.2109 93.7363 91.2256 93.7407 91.2402 93.7453L91.4184 93.8016C91.4321 93.8059 91.4457 93.8104 91.4593 93.815L91.6375 93.8756C91.6423 93.8772 91.647 93.8788 91.6518 93.8805C91.6596 93.8832 91.6675 93.886 91.6753 93.8888L91.8535 93.9533C91.8651 93.9575 91.8767 93.9618 91.8882 93.9662L92.0664 94.0345L92.0979 94.0469L92.2762 94.1187L92.3045 94.1304L92.4828 94.2053L92.5081 94.2162L92.6863 94.2941L92.7086 94.3039L92.8868 94.3844L92.906 94.3932L93.0843 94.476L93.1005 94.4836L93.2788 94.5683L93.292 94.5746L93.4703 94.661L93.4703 94.6609L93.4807 94.666L93.659 94.7536L93.6665 94.7573L93.8447 94.8459L93.8494 94.8482L94.0277 94.9373L94.0295 94.9382L94.2068 95.027L94.2078 95.0275L94.3812 95.1143L94.385 95.1162L94.5562 95.2014L94.7263 95.2853L94.8936 95.3667L95.0579 95.4453L95.2194 95.5208L95.3779 95.5929L95.5333 95.6615L95.6856 95.7264L95.8349 95.7873L95.981 95.8442L96.1241 95.8969L96.2639 95.9453L96.4007 95.9895L96.5345 96.0294L96.6653 96.065L96.7933 96.0965L96.9187 96.1237L97.0416 96.147L97.1624 96.1662L97.2814 96.1816L97.3988 96.1931L97.5152 96.201L97.6308 96.2051L97.7776 96.2058L97.759 100.206L97.5807 100.205C97.5598 100.205 97.5388 100.204 97.5179 100.204L97.3396 100.197C97.3188 100.196 97.298 100.195 97.2772 100.194L97.099 100.182C97.0784 100.181 97.058 100.179 97.0375 100.177L96.8592 100.159C96.8392 100.157 96.8191 100.155 96.7991 100.153L96.6208 100.129C96.6013 100.127 96.5818 100.124 96.5624 100.121L96.3841 100.093C96.3653 100.09 96.3464 100.086 96.3277 100.083L96.1494 100.049C96.1459 100.049 96.1424 100.048 96.1389 100.047C96.1243 100.044 96.1098 100.041 96.0952 100.038L95.917 99.9994C95.8997 99.9956 95.8825 99.9917 95.8654 99.9874L95.6871 99.9437C95.6707 99.9397 95.6544 99.9354 95.6382 99.931L95.4599 99.8825C95.4548 99.8811 95.4497 99.8796 95.4446 99.8782C95.4343 99.8753 95.4241 99.8724 95.4139 99.8693L95.2357 99.8161C95.2213 99.8119 95.2069 99.8074 95.1927 99.8028L95.0144 99.7452C95.001 99.7409 94.9877 99.7364 94.9744 99.7318L94.7962 99.6701C94.7839 99.6658 94.7716 99.6614 94.7594 99.6569L94.5811 99.5912C94.5698 99.5871 94.5586 99.5828 94.5474 99.5785L94.3692 99.5091L94.3386 99.4969L94.1603 99.4242L94.1329 99.4127L93.9546 99.3369L93.9303 99.3263L93.752 99.2476L93.7307 99.2381L93.5524 99.1569L93.5341 99.1484L93.3558 99.0651L93.3405 99.0578L93.1622 98.9726L93.1622 98.9726L93.1498 98.9666L92.9715 98.8799L92.962 98.8752L92.7837 98.7873L92.7771 98.784L92.5988 98.6953L92.595 98.6933L92.4167 98.6041L92.4157 98.6036L92.2393 98.5152L92.2375 98.5143L92.0634 98.4273L91.8912 98.3418L91.7219 98.2586L91.5554 98.178L91.3919 98.1003L91.2314 98.0258L91.0738 97.9547L90.9193 97.8871L90.7678 97.8234L90.6195 97.7637L90.4743 97.7081L90.3322 97.6566L90.1932 97.6094L90.0573 97.5665L89.9245 97.5279L89.7945 97.4935L89.6673 97.4633L89.5427 97.4372L89.4204 97.4152L89.3002 97.3971L89.1817 97.3829L89.0646 97.3724L88.9485 97.3657L88.833 97.3626L88.6862 97.3633V97.3626L88.5834 97.3631L88.4677 97.3673L88.3514 97.3751L88.2339 97.3867L88.115 97.4021L87.9942 97.4213L87.8712 97.4445L87.7459 97.4718L87.6178 97.5032L87.487 97.5388L87.3533 97.5787L87.2165 97.6229L87.0766 97.6714L86.9336 97.7241L86.7875 97.7809L86.6382 97.8419L86.4858 97.9067L86.3304 97.9753L86.172 98.0475L86.0106 98.123L85.8524 98.1985L85.84 98.2045L85.6836 98.2806L85.6741 98.2853L85.512 98.3652L85.5054 98.3685L85.3376 98.452L85.3338 98.4539L85.1603 98.5407L85.1593 98.5412L84.9821 98.6301L84.9803 98.631L84.802 98.7201L84.7973 98.7224L84.619 98.8109L84.6115 98.8146L84.4333 98.9022L84.4333 98.9023L84.4229 98.9073L84.2446 98.9936L84.2313 99L84.0531 99.0847L84.0368 99.0923L83.8586 99.1751L83.8394 99.1838L83.6611 99.2643L83.6389 99.2742L83.4607 99.3521L83.4354 99.3629L83.2571 99.4379L83.2287 99.4496L83.0505 99.5213L83.019 99.5337L82.8407 99.602C82.8356 99.604 82.8304 99.606 82.8252 99.6079C82.8189 99.6103 82.8125 99.6126 82.8061 99.6149L82.6279 99.6795C82.6153 99.684 82.6027 99.6884 82.5901 99.6927L82.4118 99.7533C82.3983 99.7579 82.3847 99.7623 82.371 99.7666L82.1927 99.8229C82.1782 99.8275 82.1635 99.832 82.1488 99.8363L81.9706 99.8881C81.955 99.8926 81.9393 99.897 81.9237 99.9011L81.7454 99.9483C81.7362 99.9507 81.727 99.9531 81.7177 99.9554C81.7104 99.9572 81.7031 99.959 81.6957 99.9607L81.5174 100.003C81.5 100.007 81.4826 100.011 81.465 100.015L81.2868 100.052C81.2734 100.055 81.2601 100.057 81.2467 100.06C81.2418 100.061 81.2369 100.062 81.2319 100.063L81.0536 100.095C81.0347 100.098 81.0156 100.101 80.9966 100.104L80.8183 100.131C80.7987 100.134 80.779 100.137 80.7593 100.139L80.5811 100.16C80.5609 100.163 80.5407 100.165 80.5205 100.167L80.3422 100.183C80.3217 100.185 80.3011 100.186 80.2805 100.187L80.1022 100.198C80.0814 100.199 80.0605 100.2 80.0396 100.2L79.8614 100.205C79.8404 100.206 79.8194 100.206 79.7984 100.206L79.6202 100.205C79.5992 100.205 79.5783 100.204 79.5573 100.204L79.3791 100.197C79.3692 100.197 79.3593 100.196 79.3494 100.196C79.3385 100.195 79.3276 100.195 79.3167 100.194L79.1384 100.182C79.1179 100.181 79.0974 100.179 79.077 100.177L78.8987 100.159C78.8786 100.157 78.8586 100.155 78.8386 100.153L78.6603 100.129C78.6408 100.127 78.6213 100.124 78.6019 100.121L78.4236 100.093C78.4047 100.09 78.3859 100.086 78.3671 100.083L78.1889 100.049C78.1708 100.046 78.1527 100.042 78.1347 100.038L77.9565 99.9994C77.9392 99.9956 77.922 99.9917 77.9048 99.9874L77.7266 99.9437C77.7102 99.9397 77.6939 99.9354 77.6777 99.931L77.4994 99.8824C77.484 99.8783 77.4687 99.8739 77.4534 99.8693L77.2751 99.8161C77.2608 99.8119 77.2464 99.8074 77.2321 99.8028L77.0539 99.7452C77.0405 99.7409 77.0272 99.7364 77.0139 99.7318L76.8357 99.6701C76.8233 99.6658 76.8111 99.6614 76.7988 99.6569L76.6206 99.5912C76.615 99.5892 76.6094 99.5871 76.6039 99.585C76.5982 99.5828 76.5925 99.5807 76.5869 99.5785L76.4086 99.5091L76.3781 99.4969L76.1998 99.4242L76.1723 99.4127L75.9941 99.3369L75.9697 99.3263L75.7914 99.2476L75.7701 99.2381L75.5919 99.1569L75.5736 99.1484L75.3953 99.0651L75.38 99.0578L75.2017 98.9726L75.2017 98.9726L75.1893 98.9666L75.011 98.8799L75.0015 98.8752L74.8232 98.7873L74.8165 98.784L74.6383 98.6953L74.6344 98.6933L74.4562 98.6041L74.4552 98.6036L74.2788 98.5152L74.2769 98.5143L74.1052 98.4285L74.1005 98.4261L73.9344 98.3436L73.9269 98.3399L73.7665 98.2611L73.7561 98.256L73.6015 98.1812L73.5883 98.1748L73.4313 98.1003L73.2707 98.0257L73.1133 97.9546L72.9588 97.8871L72.8073 97.8234L72.6589 97.7637L72.5137 97.7081L72.3717 97.6566L72.2327 97.6094L72.0968 97.5665L71.964 97.5279L71.834 97.4935L71.7067 97.4633L71.5821 97.4372L71.4599 97.4152L71.3396 97.3971L71.2212 97.3829L71.1041 97.3724L70.988 97.3657L70.8725 97.3626L70.7572 97.3631L70.6415 97.3673L70.5252 97.3751L70.4077 97.3867L70.2888 97.4021L70.168 97.4213L70.045 97.4445L69.9197 97.4718L69.7917 97.5032L69.6609 97.5388L69.5271 97.5788L69.3903 97.6229L69.2504 97.6714L69.1074 97.7241L68.9613 97.7809L68.812 97.8419L68.6596 97.9067L68.5042 97.9753L68.3458 98.0475L68.1844 98.123L68.0262 98.1985L68.0138 98.2045L67.8574 98.2806L67.8479 98.2853L67.6858 98.3652L67.6792 98.3685L67.5114 98.452L67.5076 98.4539L67.3341 98.5407L67.3331 98.5412L67.1559 98.6301L67.1541 98.631L66.9758 98.7201L66.9711 98.7224L66.7929 98.8109L66.7853 98.8146L66.6071 98.9022L66.6071 98.9023L66.5967 98.9073L66.4184 98.9936L66.4051 99L66.2269 99.0847L66.2106 99.0923L66.0324 99.1751L66.0132 99.1838L65.8349 99.2643L65.8127 99.2742L65.6345 99.3521L65.6092 99.3629L65.4309 99.4379L65.4025 99.4496L65.2243 99.5213L65.1928 99.5337L65.0145 99.602C65.0078 99.6046 65.0011 99.6071 64.9943 99.6096C64.9895 99.6114 64.9847 99.6132 64.9799 99.6149L64.8017 99.6795C64.7891 99.684 64.7765 99.6884 64.7639 99.6927L64.5856 99.7533C64.5721 99.7579 64.5585 99.7623 64.5448 99.7666L64.3665 99.8229C64.3519 99.8275 64.3373 99.832 64.3226 99.8363L64.1444 99.8881C64.1353 99.8907 64.1261 99.8933 64.117 99.8958C64.1105 99.8976 64.104 99.8994 64.0975 99.9011L63.9192 99.9483C63.9027 99.9526 63.8861 99.9568 63.8695 99.9607L63.6912 100.003C63.6738 100.007 63.6564 100.011 63.6388 100.015L63.4606 100.052C63.4423 100.056 63.424 100.059 63.4057 100.063L63.2274 100.095C63.2085 100.098 63.1894 100.101 63.1704 100.104L62.9921 100.131C62.9725 100.134 62.9528 100.137 62.9331 100.139L62.7549 100.16C62.7347 100.163 62.7145 100.165 62.6943 100.167L62.516 100.183C62.5025 100.184 62.4889 100.185 62.4753 100.186C62.4683 100.186 62.4613 100.187 62.4543 100.187L62.276 100.198C62.2552 100.199 62.2343 100.2 62.2134 100.2L62.0352 100.205C62.0142 100.206 61.9932 100.206 61.9722 100.206L61.794 100.205C61.773 100.205 61.7521 100.204 61.7311 100.204L61.5529 100.197C61.5321 100.196 61.5113 100.195 61.4905 100.194L61.3122 100.182C61.2917 100.181 61.2712 100.179 61.2508 100.177L61.0725 100.159C61.0524 100.157 61.0324 100.155 61.0124 100.153L60.8341 100.129C60.8146 100.127 60.7951 100.124 60.7757 100.121L60.5974 100.093C60.5785 100.09 60.5597 100.086 60.5409 100.083L60.3627 100.049C60.3446 100.046 60.3265 100.042 60.3085 100.038L60.1303 99.9994C60.113 99.9956 60.0958 99.9917 60.0786 99.9874L59.9004 99.9437C59.8917 99.9415 59.883 99.9393 59.8743 99.9371C59.8667 99.9351 59.8591 99.9331 59.8515 99.931L59.6732 99.8825C59.6578 99.8783 59.6425 99.8739 59.6272 99.8693L59.4489 99.8161C59.4346 99.8119 59.4202 99.8074 59.4059 99.8028L59.2277 99.7452C59.2143 99.7409 59.201 99.7364 59.1877 99.7318L59.0095 99.6701C58.9971 99.6658 58.9849 99.6614 58.9726 99.6569L58.7944 99.5912C58.7876 99.5887 58.7809 99.5862 58.7742 99.5837C58.7697 99.5819 58.7652 99.5802 58.7607 99.5785L58.5824 99.5091L58.5519 99.4969L58.3736 99.4242L58.3461 99.4127L58.1679 99.3368L58.1435 99.3263L57.9653 99.2476L57.9439 99.2381L57.7657 99.1569L57.7474 99.1484L57.5691 99.0651L57.5538 99.0578L57.3755 98.9726L57.3755 98.9726L57.3631 98.9666L57.1848 98.8799L57.1753 98.8752L56.997 98.7873L56.9903 98.784L56.8121 98.6953L56.8082 98.6933L56.63 98.6041L56.629 98.6036L56.4525 98.5152L56.4507 98.5143L56.279 98.4285L56.2743 98.4261L56.1082 98.3436L56.1007 98.3399L55.9351 98.2586L55.7687 98.178L55.6053 98.1003L55.4446 98.0258L55.287 97.9546L55.1326 97.8871L54.9811 97.8234L54.8328 97.7637L54.6876 97.7081L54.5455 97.6566L54.4065 97.6094L54.2706 97.5665L54.1378 97.5279L54.0078 97.4935L53.8806 97.4633L53.756 97.4372L53.6337 97.4152L53.5134 97.3971L53.395 97.3829L53.2779 97.3724L53.1618 97.3657L53.0463 97.3626L52.9309 97.3631L52.8153 97.3673L52.699 97.3751L52.5815 97.3867L52.4626 97.4021L52.3418 97.4213L52.2188 97.4445L52.0935 97.4718L51.9655 97.5032L51.8346 97.5388L51.7009 97.5788L51.5641 97.6229L51.4242 97.6714L51.2812 97.7241L51.1351 97.781L50.9858 97.8419L50.8334 97.9067L50.678 97.9753L50.5196 98.0475L50.3581 98.123L50.1937 98.2016L50.0265 98.283L49.8596 98.3652L49.853 98.3685L49.6852 98.452L49.6814 98.4539L49.5079 98.5407L49.5069 98.5412L49.3297 98.6301L49.3278 98.631L49.1496 98.7201L49.1449 98.7224L48.9667 98.8109L48.9591 98.8146L48.7809 98.9022L48.7809 98.9023L48.7705 98.9073L48.5922 98.9936L48.5789 99L48.4007 99.0847L48.3845 99.0923L48.2062 99.1751L48.187 99.1838L48.0087 99.2643L47.9865 99.2742L47.8083 99.3521L47.783 99.3629L47.6047 99.4379L47.5764 99.4496L47.3981 99.5213L47.3666 99.5337L47.1883 99.602C47.1768 99.6064 47.1653 99.6107 47.1537 99.6149L46.9755 99.6795C46.9629 99.684 46.9503 99.6884 46.9377 99.6927L46.7594 99.7533C46.7459 99.7579 46.7323 99.7623 46.7186 99.7666L46.5403 99.8229C46.5257 99.8275 46.5111 99.832 46.4964 99.8363L46.3182 99.8881C46.3026 99.8926 46.2869 99.897 46.2713 99.9011L46.093 99.9483C46.0765 99.9526 46.0599 99.9568 46.0433 99.9607L45.865 100.003C45.8476 100.007 45.8302 100.011 45.8126 100.015L45.6344 100.052C45.6161 100.056 45.5978 100.059 45.5795 100.063L45.4013 100.095C45.3823 100.098 45.3632 100.101 45.3442 100.104L45.1659 100.131C45.1463 100.134 45.1266 100.137 45.1069 100.139L44.9287 100.16C44.9085 100.163 44.8883 100.165 44.8681 100.167L44.6898 100.183C44.6693 100.185 44.6487 100.186 44.6281 100.187L44.4498 100.198C44.429 100.199 44.4081 100.2 44.3872 100.2L44.209 100.205Z" fill="#FDFFFC"/>
<path d="M115.695 78.8208C115.695 74.4025 119.277 70.8208 123.695 70.8208H210.07C214.488 70.8208 218.07 74.4025 218.07 78.8208V124.526C218.07 128.944 214.488 132.526 210.07 132.526H123.695C119.277 132.526 115.695 128.944 115.695 124.526V78.8208Z" fill="#FDFFFC"/>
<path fill-rule="evenodd" clip-rule="evenodd" d="M39.0625 142.147H85.0545C88.9205 142.147 92.0545 145.281 92.0545 149.147V158.677C92.0545 162.543 88.9205 165.677 85.0545 165.677H39.0625C35.1965 165.677 32.0625 162.543 32.0625 158.677V149.147C32.0625 145.281 35.1965 142.147 39.0625 142.147ZM39.0625 145.147C36.8534 145.147 35.0625 146.938 35.0625 149.147V158.677C35.0625 160.886 36.8534 162.677 39.0625 162.677H85.0545C87.2637 162.677 89.0545 160.886 89.0545 158.677V149.147C89.0545 146.938 87.2637 145.147 85.0545 145.147H39.0625Z" fill="#FDFFFC"/>
<path fill-rule="evenodd" clip-rule="evenodd" d="M103.572 142.147H149.564C153.43 142.147 156.564 145.281 156.564 149.147V158.677C156.564 162.543 153.43 165.677 149.564 165.677H103.572C99.7065 165.677 96.5725 162.543 96.5725 158.677V149.147C96.5725 145.281 99.7065 142.147 103.572 142.147ZM103.572 145.147C101.363 145.147 99.5725 146.938 99.5725 149.147V158.677C99.5725 160.886 101.363 162.677 103.572 162.677H149.564C151.774 162.677 153.564 160.886 153.564 158.677V149.147C153.564 146.938 151.774 145.147 149.564 145.147H103.572Z" fill="#FDFFFC"/>
<path fill-rule="evenodd" clip-rule="evenodd" d="M168.082 142.147H214.074C217.94 142.147 221.074 145.281 221.074 149.147V158.677C221.074 162.543 217.94 165.677 214.074 165.677H168.082C164.216 165.677 161.082 162.543 161.082 158.677V149.147C161.082 145.281 164.216 142.147 168.082 142.147ZM168.082 145.147C165.873 145.147 164.082 146.938 164.082 149.147V158.677C164.082 160.886 165.873 162.677 168.082 162.677H214.074C216.284 162.677 218.074 160.886 218.074 158.677V149.147C218.074 146.938 216.284 145.147 214.074 145.147H168.082Z" fill="#FDFFFC"/>
<path fill-rule="evenodd" clip-rule="evenodd" d="M90.4902 49.0178C90.4693 49.0184 90.4483 49.0186 90.4273 49.0185L90.249 49.0177C90.2281 49.0176 90.2071 49.0172 90.1862 49.0164L90.0079 49.01C89.9871 49.0092 89.9663 49.0082 89.9455 49.0068L89.7673 48.9947C89.7468 48.9934 89.7263 48.9917 89.7058 48.9896L89.5276 48.9721C89.5075 48.9701 89.4874 48.9678 89.4674 48.9652L89.2892 48.9422C89.2696 48.9397 89.2501 48.9369 89.2307 48.9338L89.0524 48.9054C89.0336 48.9024 89.0148 48.8991 88.996 48.8956L88.8177 48.8619C88.8112 48.8607 88.8047 48.8594 88.7982 48.8581C88.7866 48.8558 88.7751 48.8534 88.7636 48.8509L88.5853 48.8121C88.5781 48.8106 88.5709 48.809 88.5637 48.8073C88.5537 48.805 88.5437 48.8026 88.5337 48.8002L88.3554 48.7564C88.3462 48.7542 88.337 48.7518 88.3278 48.7494C88.3207 48.7476 88.3136 48.7457 88.3065 48.7438L88.1283 48.6952C88.1129 48.691 88.0975 48.6866 88.0823 48.6821L87.904 48.6289C87.8896 48.6246 87.8753 48.6201 87.861 48.6155L87.6827 48.5579C87.6694 48.5536 87.656 48.5492 87.6428 48.5446L87.4645 48.4828C87.4522 48.4786 87.4399 48.4742 87.4277 48.4697L87.2494 48.404C87.2441 48.402 87.2388 48.4 87.2336 48.398C87.2276 48.3958 87.2217 48.3935 87.2157 48.3912L87.0375 48.3219L87.0069 48.3097L86.8286 48.2369L86.8012 48.2255L86.6229 48.1496L86.5986 48.139L86.4203 48.0604L86.399 48.0508L86.2207 47.9696L86.2024 47.9612L86.0242 47.8778L86.0088 47.8705L85.8305 47.7853L85.8305 47.7854L85.8181 47.7793L85.6398 47.6926L85.6398 47.6926L85.6303 47.6879L85.452 47.6L85.452 47.6L85.4454 47.5967L85.2671 47.508L85.2633 47.5061L85.085 47.4169L85.084 47.4164L84.9076 47.328L84.9058 47.3271L84.7317 47.24L84.5595 47.1545L84.3902 47.0713L84.2238 46.9908L84.0602 46.9131L83.8997 46.8385L83.7421 46.7674L83.5876 46.6999L83.4362 46.6362L83.2878 46.5764L83.1426 46.5208L83.0005 46.4694L82.8615 46.4222L82.7257 46.3792L82.5928 46.3406L82.4628 46.3062L82.3356 46.276L82.211 46.25L82.0887 46.2279L81.9685 46.2099L81.85 46.1956L81.7329 46.1852L81.6169 46.1784L81.5014 46.1753L81.3546 46.176L81.3359 42.176L81.5142 42.1752C81.5352 42.1751 81.5562 42.1753 81.5771 42.1759L81.7554 42.1807C81.7763 42.1812 81.7971 42.1821 81.818 42.1833L81.9962 42.1937C82.0168 42.1949 82.0374 42.1964 82.058 42.1983L82.2362 42.2142C82.2473 42.2152 82.2584 42.2163 82.2694 42.2174C82.2785 42.2184 82.2877 42.2194 82.2968 42.2205L82.4751 42.242C82.4948 42.2443 82.5144 42.247 82.5341 42.2499L82.7123 42.2767C82.7314 42.2796 82.7504 42.2828 82.7694 42.2862L82.9477 42.3183C82.966 42.3216 82.9843 42.3251 83.0025 42.329L83.1808 42.3662C83.1983 42.3699 83.2158 42.3738 83.2332 42.3779L83.4115 42.4203C83.4281 42.4242 83.4446 42.4284 83.4612 42.4327L83.6394 42.4799C83.6551 42.484 83.6707 42.4884 83.6863 42.4929L83.8646 42.5447C83.8793 42.549 83.8939 42.5534 83.9085 42.5581L84.0867 42.6144C84.1004 42.6187 84.114 42.6231 84.1276 42.6277L84.3059 42.6883C84.3185 42.6926 84.3311 42.697 84.3436 42.7015L84.5219 42.7661C84.5334 42.7703 84.545 42.7746 84.5565 42.779L84.7347 42.8473L84.7662 42.8597L84.9445 42.9314L84.9729 42.9431L85.1511 43.0181L85.1764 43.0289L85.3547 43.1068L85.3769 43.1167L85.5551 43.1972L85.5743 43.2059L85.7526 43.2887L85.7688 43.2963L85.9471 43.381L85.9604 43.3874L86.1386 43.4737L86.1386 43.4737L86.149 43.4788L86.3273 43.5664L86.3273 43.5664L86.3348 43.5701L86.5131 43.6586L86.5177 43.6609L86.696 43.75L86.6978 43.7509L86.8751 43.8398L86.8761 43.8403L87.0495 43.9271L87.0534 43.929L87.2245 44.0142L87.3946 44.0981L87.5619 44.1794L87.7263 44.258L87.8877 44.3335L88.0462 44.4057L88.2016 44.4743L88.354 44.5391L88.5032 44.6L88.6494 44.6569L88.7924 44.7096L88.9323 44.7581L89.0691 44.8023L89.2028 44.8422L89.3336 44.8778L89.4616 44.9092L89.587 44.9365L89.7099 44.9597L89.8307 44.9789L89.9497 44.9943L90.0671 45.0059L90.1835 45.0137L90.2991 45.0179L90.4145 45.0184L90.53 45.0153L90.646 45.0086L90.7631 44.9981L90.8816 44.9839L91.0018 44.9658L91.1241 44.9438L91.2487 44.9177L91.3759 44.8875L91.5059 44.8531L91.6388 44.8145L91.7746 44.7716L91.9136 44.7244L92.0557 44.6729L92.2009 44.6173L92.3492 44.5576L92.5007 44.4938L92.6552 44.4264L92.8128 44.3552L92.9734 44.2807L93.1369 44.203L93.3033 44.1224L93.4726 44.0392L93.6424 43.9549L93.6471 43.9525L93.8189 43.8667L93.8207 43.8658L93.9971 43.7774L93.9981 43.7769L94.1764 43.6877L94.1802 43.6857L94.3585 43.597L94.3585 43.597L94.3652 43.5937L94.5434 43.5058L94.5434 43.5058L94.5529 43.5011L94.7312 43.4144L94.7312 43.4144L94.7436 43.4084L94.9219 43.3232L94.9373 43.3159L95.1155 43.2326L95.1338 43.2241L95.3121 43.1429L95.3334 43.1334L95.5117 43.0547L95.536 43.0441L95.7143 42.9683L95.7417 42.9568L95.92 42.8841L95.9506 42.8719L96.1288 42.8025C96.14 42.7982 96.1513 42.7939 96.1625 42.7898L96.3408 42.7241C96.353 42.7196 96.3653 42.7152 96.3776 42.7109L96.5559 42.6492C96.5582 42.6484 96.5606 42.6475 96.5629 42.6467C96.5739 42.643 96.5848 42.6393 96.5958 42.6358L96.7741 42.5782C96.7884 42.5736 96.8027 42.5691 96.8171 42.5649L96.9954 42.5117C97.0106 42.5071 97.026 42.5027 97.0414 42.4985L97.2196 42.45C97.2359 42.4456 97.2522 42.4413 97.2685 42.4373L97.4468 42.3936C97.4639 42.3893 97.4811 42.3854 97.4984 42.3816L97.6767 42.3428C97.6947 42.3389 97.7127 42.3352 97.7308 42.3318L97.9091 42.2982C97.9198 42.2961 97.9305 42.2942 97.9412 42.2924C97.9493 42.291 97.9574 42.2896 97.9655 42.2883L98.1438 42.2599C98.1632 42.2568 98.1827 42.254 98.2023 42.2515L98.3805 42.2285C98.4005 42.2259 98.4206 42.2236 98.4407 42.2217L98.6189 42.2041C98.6394 42.2021 98.6599 42.2004 98.6804 42.199L98.8586 42.187C98.8794 42.1856 98.9002 42.1845 98.921 42.1838L99.0993 42.1773C99.1202 42.1766 99.1412 42.1761 99.1621 42.176L99.3404 42.1752C99.3614 42.1751 99.3824 42.1753 99.4033 42.1759L99.5816 42.1807C99.6025 42.1812 99.6233 42.1821 99.6442 42.1833L99.8224 42.1937C99.843 42.1949 99.8636 42.1964 99.8842 42.1983L100.062 42.2142C100.083 42.216 100.103 42.2181 100.123 42.2205L100.301 42.2419C100.321 42.2443 100.341 42.247 100.36 42.2499L100.539 42.2767C100.558 42.2796 100.577 42.2828 100.596 42.2862L100.774 42.3183C100.792 42.3216 100.81 42.3251 100.829 42.329L101.007 42.3662C101.025 42.3699 101.042 42.3738 101.059 42.3779L101.238 42.4203C101.254 42.4242 101.271 42.4284 101.287 42.4327L101.466 42.4799C101.481 42.484 101.497 42.4884 101.512 42.4929L101.691 42.5447C101.705 42.549 101.72 42.5535 101.735 42.5581L101.913 42.6144C101.927 42.6187 101.94 42.6231 101.954 42.6277L102.132 42.6883C102.138 42.6904 102.144 42.6925 102.151 42.6947C102.157 42.6969 102.163 42.6992 102.17 42.7015L102.348 42.7661C102.36 42.7703 102.371 42.7746 102.383 42.779L102.561 42.8473L102.592 42.8597L102.771 42.9314L102.799 42.9431L102.977 43.0181L103.003 43.0289L103.181 43.1068L103.203 43.1167L103.381 43.1972L103.401 43.2059L103.579 43.2887L103.595 43.2963L103.773 43.381L103.787 43.3874L103.965 43.4737L103.965 43.4737L103.975 43.4788L104.153 43.5664L104.153 43.5664L104.161 43.5701L104.339 43.6586L104.344 43.6609L104.522 43.75L104.524 43.7509L104.701 43.8398L104.702 43.8403L104.876 43.9271L104.88 43.929L105.047 44.0125L105.054 44.0158L105.216 44.0957L105.226 44.1004L105.388 44.1795L105.552 44.258L105.714 44.3335L105.872 44.4057L106.028 44.4743L106.18 44.5391L106.329 44.6L106.476 44.6569L106.619 44.7096L106.758 44.7581L106.895 44.8023L107.029 44.8421L107.16 44.8778L107.288 44.9092L107.413 44.9365L107.536 44.9597L107.657 44.9789L107.776 44.9943L107.893 45.0059L108.01 45.0137L108.125 45.0179L108.241 45.0184L108.356 45.0153L108.472 45.0086L108.589 44.9981L108.708 44.9839L108.828 44.9658L108.95 44.9438L109.075 44.9177L109.202 44.8875L109.332 44.8531L109.465 44.8145L109.601 44.7716L109.74 44.7244L109.882 44.6729L110.027 44.6173L110.175 44.5576L110.327 44.4939L110.481 44.4263L110.639 44.3552L110.8 44.2807L110.963 44.203L111.13 44.1224L111.295 44.0411L111.303 44.0374L111.469 43.9549L111.473 43.9525L111.645 43.8667L111.647 43.8658L111.823 43.7774L111.824 43.7769L112.003 43.6877L112.006 43.6857L112.185 43.597L112.191 43.5937L112.37 43.5058L112.37 43.5058L112.379 43.5011L112.557 43.4144L112.557 43.4144L112.57 43.4084L112.748 43.3232L112.763 43.3159L112.942 43.2326L112.96 43.2241L113.138 43.1429L113.16 43.1334L113.338 43.0547L113.362 43.0441L113.54 42.9683L113.568 42.9568L113.746 42.8841L113.777 42.8719L113.955 42.8025C113.966 42.7982 113.977 42.7939 113.989 42.7898L114.167 42.7241C114.179 42.7196 114.191 42.7152 114.204 42.7109L114.382 42.6492C114.395 42.6446 114.409 42.6401 114.422 42.6358L114.6 42.5782C114.615 42.5736 114.629 42.5691 114.643 42.5649L114.822 42.5117C114.837 42.5071 114.852 42.5027 114.868 42.4985L115.046 42.45C115.062 42.4456 115.078 42.4413 115.095 42.4373L115.273 42.3936C115.29 42.3893 115.307 42.3854 115.325 42.3816L115.503 42.3428C115.521 42.3389 115.539 42.3352 115.557 42.3318L115.735 42.2982C115.754 42.2946 115.773 42.2913 115.792 42.2883L115.97 42.2599C115.989 42.2568 116.009 42.254 116.028 42.2515L116.207 42.2285C116.227 42.2259 116.247 42.2236 116.267 42.2217L116.445 42.2041C116.466 42.2021 116.486 42.2004 116.507 42.199L116.685 42.187C116.706 42.1856 116.726 42.1845 116.747 42.1838L116.925 42.1773C116.946 42.1766 116.967 42.1761 116.988 42.176L117.167 42.1752C117.188 42.1751 117.209 42.1753 117.23 42.1759L117.408 42.1807C117.429 42.1812 117.45 42.1821 117.47 42.1833L117.649 42.1937C117.669 42.1949 117.69 42.1964 117.71 42.1983L117.889 42.2142C117.909 42.216 117.929 42.2181 117.949 42.2205L118.127 42.2419C118.147 42.2443 118.167 42.247 118.186 42.2499L118.365 42.2767C118.384 42.2796 118.403 42.2828 118.422 42.2862L118.6 42.3183C118.618 42.3216 118.637 42.3251 118.655 42.329L118.833 42.3662C118.851 42.3699 118.868 42.3738 118.886 42.3779L119.064 42.4203C119.08 42.4242 119.097 42.4284 119.114 42.4327L119.292 42.4799C119.307 42.484 119.323 42.4884 119.339 42.4929L119.517 42.5447C119.532 42.549 119.546 42.5534 119.561 42.5581L119.739 42.6144C119.753 42.6187 119.766 42.6231 119.78 42.6277L119.958 42.6883C119.971 42.6926 119.983 42.697 119.996 42.7015L120.174 42.7661L120.19 42.772L120.209 42.779L120.387 42.8473L120.419 42.8597L120.597 42.9314L120.625 42.9431L120.804 43.0181L120.829 43.0289L121.007 43.1068L121.029 43.1167L121.208 43.1972L121.227 43.2059L121.405 43.2887L121.421 43.2963L121.6 43.381L121.613 43.3874L121.791 43.4737L121.791 43.4737L121.801 43.4788L121.98 43.5664L121.987 43.5701L122.165 43.6586L122.17 43.6609L122.348 43.75L122.35 43.7509L122.528 43.8398L122.528 43.8403L122.702 43.9271L122.706 43.929L122.874 44.0125L122.88 44.0158L123.042 44.0957L123.052 44.1004L123.208 44.1765L123.221 44.1825L123.379 44.258L123.54 44.3335L123.699 44.4057L123.854 44.4743L124.006 44.5391L124.156 44.6L124.302 44.6569L124.445 44.7096L124.585 44.7581L124.721 44.8023L124.855 44.8421L124.986 44.8778L125.114 44.9092L125.239 44.9365L125.362 44.9597L125.483 44.9789L125.602 44.9943L125.72 45.0059L125.836 45.0137L125.951 45.0179L126.067 45.0184L126.182 45.0153L126.298 45.0086L126.416 44.9981L126.534 44.9839L126.654 44.9658L126.776 44.9438L126.901 44.9177L127.028 44.8875L127.158 44.8531L127.291 44.8145L127.427 44.7716L127.566 44.7244L127.708 44.6729L127.853 44.6173L128.002 44.5575L128.153 44.4938L128.308 44.4263L128.465 44.3552L128.626 44.2806L128.783 44.2062L128.796 44.1998L128.95 44.125L128.961 44.1199L129.121 44.0411L129.129 44.0374L129.295 43.9549L129.3 43.9525L129.471 43.8667L129.473 43.8658L129.65 43.7774L129.651 43.7769L129.829 43.6877L129.833 43.6857L130.011 43.597L130.018 43.5937L130.196 43.5058L130.205 43.5011L130.384 43.4144L130.384 43.4144L130.396 43.4084L130.574 43.3232L130.59 43.3159L130.768 43.2326L130.786 43.2241L130.964 43.1429L130.986 43.1334L131.164 43.0547L131.188 43.0441L131.367 42.9683L131.394 42.9568L131.572 42.8841L131.603 42.8719L131.781 42.8025C131.791 42.7989 131.8 42.7953 131.809 42.7918C131.811 42.7911 131.813 42.7905 131.815 42.7898L131.993 42.7241L132.006 42.7193L132.03 42.7109L132.208 42.6492C132.222 42.6446 132.235 42.6401 132.248 42.6358L132.426 42.5782C132.441 42.5736 132.455 42.5691 132.469 42.5649L132.648 42.5117C132.656 42.5094 132.663 42.5071 132.671 42.5049C132.679 42.5027 132.686 42.5006 132.694 42.4985L132.872 42.45C132.882 42.4472 132.892 42.4445 132.903 42.4419C132.909 42.4403 132.915 42.4388 132.921 42.4373L133.099 42.3936C133.116 42.3893 133.134 42.3854 133.151 42.3816L133.329 42.3428C133.347 42.3389 133.365 42.3352 133.383 42.3318L133.561 42.2982C133.58 42.2946 133.599 42.2913 133.618 42.2883L133.796 42.2599C133.816 42.2568 133.835 42.254 133.855 42.2515L134.033 42.2285C134.053 42.2259 134.073 42.2236 134.093 42.2217L134.271 42.2041C134.292 42.2021 134.312 42.2004 134.333 42.199L134.511 42.187C134.532 42.1856 134.553 42.1845 134.573 42.1838L134.752 42.1773C134.773 42.1766 134.794 42.1761 134.815 42.176L134.993 42.1752L134.993 42.1758L135.127 42.1752C135.148 42.1751 135.169 42.1753 135.19 42.1759L135.368 42.1807C135.389 42.1812 135.41 42.1821 135.431 42.1833L135.609 42.1937C135.63 42.1949 135.65 42.1964 135.671 42.1983L135.849 42.2142C135.869 42.216 135.89 42.2181 135.91 42.2205L136.088 42.242C136.108 42.2443 136.127 42.247 136.147 42.2499L136.325 42.2767C136.344 42.2796 136.363 42.2828 136.382 42.2862L136.561 42.3183C136.579 42.3216 136.597 42.3251 136.615 42.329L136.794 42.3662C136.811 42.3699 136.829 42.3738 136.846 42.3779L137.024 42.4203C137.041 42.4242 137.058 42.4284 137.074 42.4327L137.252 42.4799C137.268 42.484 137.284 42.4884 137.299 42.4929L137.477 42.5447C137.492 42.549 137.507 42.5534 137.521 42.5581L137.7 42.6144C137.713 42.6187 137.727 42.6231 137.741 42.6277L137.919 42.6883C137.931 42.6926 137.944 42.697 137.957 42.7015L138.135 42.7661C138.146 42.7703 138.158 42.7746 138.169 42.779L138.348 42.8473L138.379 42.8597L138.557 42.9314L138.586 42.9431L138.764 43.0181L138.789 43.0289L138.968 43.1068L138.99 43.1167L139.168 43.1972L139.187 43.2059L139.366 43.2887L139.382 43.2963L139.56 43.381L139.573 43.3874L139.752 43.4737L139.752 43.4737L139.762 43.4788L139.94 43.5664L139.94 43.5664L139.948 43.5701L140.126 43.6586L140.131 43.6609L140.309 43.75L140.311 43.7509L140.488 43.8398L140.489 43.8403L140.662 43.9271L140.666 43.929L140.837 44.0142L141.008 44.0981L141.175 44.1794L141.339 44.258L141.501 44.3335L141.659 44.4057L141.815 44.4743L141.967 44.5391L142.116 44.6L142.262 44.6569L142.405 44.7096L142.545 44.7581L142.682 44.8022L142.816 44.8421L142.947 44.8778L143.075 44.9092L143.2 44.9365L143.323 44.9597L143.444 44.9789L143.563 44.9943L143.68 45.0059L143.796 45.0137L143.912 45.0179L144.027 45.0184L144.143 45.0153L144.259 45.0086L144.376 44.9981L144.495 44.9839L144.615 44.9658L144.737 44.9438L144.862 44.9177L144.989 44.8875L145.119 44.8531L145.252 44.8145L145.388 44.7716L145.527 44.7244L145.669 44.6729L145.814 44.6173L145.962 44.5576L146.114 44.4939L146.268 44.4263L146.426 44.3552L146.586 44.2807L146.75 44.203L146.916 44.1224L147.086 44.0392L147.255 43.9549L147.26 43.9525L147.432 43.8667L147.434 43.8658L147.61 43.7774L147.611 43.7769L147.789 43.6877L147.793 43.6857L147.971 43.597L147.978 43.5937L148.156 43.5058L148.166 43.5011L148.344 43.4144L148.344 43.4144L148.357 43.4084L148.535 43.3232L148.55 43.3159L148.728 43.2326L148.747 43.2241L148.925 43.1429L148.946 43.1334L149.125 43.0547L149.149 43.0441L149.327 42.9683L149.355 42.9568L149.533 42.8841L149.563 42.8719L149.742 42.8025C149.753 42.7982 149.764 42.7939 149.775 42.7898L149.954 42.7241C149.966 42.7196 149.978 42.7152 149.991 42.7109L150.169 42.6492C150.182 42.6446 150.195 42.6401 150.209 42.6358L150.387 42.5782C150.401 42.5736 150.416 42.5691 150.43 42.5649L150.608 42.5117C150.624 42.5071 150.639 42.5027 150.654 42.4985L150.833 42.45C150.849 42.4456 150.865 42.4413 150.881 42.4373L151.06 42.3936C151.077 42.3893 151.094 42.3854 151.111 42.3816L151.29 42.3428C151.295 42.3416 151.301 42.3403 151.307 42.3391C151.319 42.3366 151.332 42.3341 151.344 42.3318L151.522 42.2982C151.541 42.2946 151.56 42.2913 151.578 42.2883L151.757 42.2599C151.776 42.2568 151.796 42.254 151.815 42.2515L151.993 42.2285C152.013 42.2259 152.034 42.2236 152.054 42.2217L152.232 42.2041C152.252 42.2021 152.273 42.2004 152.293 42.199L152.472 42.187C152.492 42.1856 152.513 42.1845 152.534 42.1838L152.712 42.1773C152.724 42.1769 152.736 42.1766 152.747 42.1764C152.757 42.1762 152.766 42.1761 152.775 42.176L152.953 42.1752C152.974 42.1751 152.995 42.1753 153.016 42.1759L153.195 42.1807C153.215 42.1812 153.236 42.1821 153.257 42.1833L153.435 42.1937C153.456 42.1949 153.477 42.1964 153.497 42.1983L153.675 42.2142C153.696 42.216 153.716 42.2181 153.736 42.2205L153.914 42.242C153.934 42.2443 153.954 42.247 153.973 42.2499L154.151 42.2767C154.171 42.2796 154.19 42.2828 154.209 42.2862L154.387 42.3183C154.405 42.3216 154.423 42.3251 154.442 42.329L154.62 42.3662C154.633 42.3689 154.645 42.3717 154.658 42.3746C154.663 42.3757 154.668 42.3768 154.672 42.3779L154.851 42.4203C154.867 42.4242 154.884 42.4284 154.9 42.4327L155.079 42.4799C155.094 42.484 155.11 42.4884 155.125 42.4929L155.304 42.5447C155.312 42.5471 155.32 42.5495 155.328 42.5519C155.334 42.5539 155.341 42.556 155.348 42.5581L155.526 42.6144C155.54 42.6187 155.553 42.6231 155.567 42.6277L155.745 42.6883C155.758 42.6926 155.77 42.697 155.783 42.7015L155.961 42.7661L155.977 42.772L155.996 42.779L156.174 42.8473L156.205 42.8597L156.384 42.9314L156.412 42.9431L156.59 43.0181L156.616 43.0289L156.794 43.1068L156.816 43.1167L156.994 43.1972L157.013 43.2059L157.192 43.2887L157.208 43.2963L157.386 43.381L157.4 43.3874L157.578 43.4737L157.578 43.4737L157.588 43.4788L157.766 43.5664L157.774 43.5701L157.952 43.6586L157.957 43.6609L158.135 43.75L158.137 43.7509L158.314 43.8398L158.315 43.8403L158.489 43.9271L158.492 43.929L158.66 44.0125L158.667 44.0158L158.829 44.0957L158.839 44.1004L159.001 44.1794L159.165 44.258L159.327 44.3335L159.485 44.4057L159.641 44.4743L159.793 44.5391L159.942 44.6L160.088 44.6569L160.231 44.7096L160.371 44.7581L160.508 44.8023L160.642 44.8422L160.773 44.8778L160.901 44.9092L161.026 44.9365L161.149 44.9597L161.27 44.9789L161.389 44.9943L161.506 45.0059L161.623 45.0137L161.738 45.0179L161.885 45.0186L161.866 49.0185L161.688 49.0177C161.667 49.0176 161.646 49.0172 161.625 49.0164L161.447 49.01C161.426 49.0092 161.405 49.0082 161.385 49.0068L161.206 48.9947C161.186 48.9934 161.165 48.9917 161.145 48.9896L160.967 48.9721C160.947 48.9701 160.927 48.9678 160.907 48.9652L160.728 48.9422C160.709 48.9397 160.689 48.9369 160.67 48.9338L160.492 48.9054C160.473 48.9024 160.454 48.8991 160.435 48.8956L160.257 48.8619C160.239 48.8585 160.221 48.8548 160.203 48.8509L160.024 48.8121C160.015 48.81 160.005 48.8079 159.996 48.8056C159.988 48.8039 159.98 48.802 159.973 48.8002L159.795 48.7564C159.778 48.7524 159.762 48.7482 159.746 48.7438L159.567 48.6952C159.552 48.691 159.537 48.6866 159.521 48.6821L159.343 48.6289C159.329 48.6246 159.314 48.6201 159.3 48.6155L159.122 48.5579C159.108 48.5536 159.095 48.5492 159.082 48.5446L158.904 48.4828C158.891 48.4786 158.879 48.4742 158.867 48.4697L158.689 48.404C158.677 48.3998 158.666 48.3956 158.655 48.3912L158.477 48.3219L158.446 48.3097L158.268 48.2369L158.24 48.2255L158.062 48.1496L158.038 48.139L157.859 48.0604L157.838 48.0508L157.66 47.9696L157.642 47.9612L157.463 47.8778L157.448 47.8705L157.27 47.7853L157.27 47.7854L157.257 47.7793L157.079 47.6926L157.069 47.6879L156.891 47.6L156.885 47.5967L156.706 47.508L156.702 47.5061L156.524 47.4169L156.523 47.4164L156.347 47.328L156.345 47.3271L156.173 47.2412L156.168 47.2389L156.002 47.1564L155.995 47.1527L155.829 47.0713L155.663 46.9907L155.499 46.9131L155.339 46.8385L155.181 46.7674L155.027 46.6999L154.875 46.6362L154.727 46.5765L154.582 46.5208L154.44 46.4694L154.301 46.4222L154.165 46.3792L154.032 46.3406L153.902 46.3062L153.775 46.276L153.65 46.25L153.528 46.2279L153.408 46.2099L153.289 46.1956L153.172 46.1852L153.056 46.1784L152.94 46.1753L152.825 46.1758L152.71 46.18L152.593 46.1879L152.476 46.1994L152.357 46.2148L152.236 46.234L152.113 46.2573L151.988 46.2845L151.86 46.316L151.729 46.3516L151.595 46.3915L151.458 46.4357L151.318 46.4841L151.175 46.5368L151.029 46.5937L150.88 46.6546L150.728 46.7195L150.572 46.7881L150.414 46.8602L150.252 46.9357L150.088 47.0143L149.921 47.0957L149.754 47.1779L149.747 47.1812L149.579 47.2648L149.576 47.2667L149.402 47.3535L149.401 47.354L149.224 47.4428L149.222 47.4437L149.044 47.5328L149.039 47.5351L148.861 47.6237L148.853 47.6274L148.675 47.715L148.675 47.715L148.665 47.72L148.486 47.8064L148.473 47.8127L148.295 47.8974L148.279 47.905L148.1 47.9878L148.081 47.9966L147.903 48.0771L147.881 48.0869L147.702 48.1648L147.677 48.1756L147.499 48.2506L147.471 48.2623L147.292 48.3341L147.261 48.3465L147.083 48.4148C147.071 48.4192 147.059 48.4235 147.048 48.4277L146.87 48.4922C146.857 48.4967 146.845 48.5012 146.832 48.5054L146.654 48.566C146.64 48.5706 146.626 48.5751 146.613 48.5794L146.435 48.6357C146.42 48.6403 146.405 48.6447 146.391 48.649L146.212 48.7008C146.197 48.7054 146.181 48.7097 146.165 48.7139L145.987 48.761C145.971 48.7654 145.954 48.7695 145.937 48.7735L145.759 48.8158C145.753 48.8174 145.746 48.819 145.739 48.8205C145.728 48.8229 145.718 48.8252 145.707 48.8275L145.529 48.8648C145.51 48.8686 145.492 48.8722 145.474 48.8755L145.295 48.9076C145.276 48.911 145.257 48.9141 145.238 48.917L145.06 48.9438C145.04 48.9468 145.021 48.9494 145.001 48.9518L144.823 48.9732C144.803 48.9756 144.782 48.9777 144.762 48.9795L144.584 48.9955C144.563 48.9973 144.543 48.9988 144.522 49L144.344 49.0104C144.323 49.0116 144.302 49.0125 144.281 49.0131L144.103 49.0178C144.082 49.0184 144.061 49.0186 144.04 49.0185L143.862 49.0177C143.841 49.0176 143.82 49.0172 143.799 49.0164L143.621 49.01C143.6 49.0092 143.579 49.0082 143.558 49.0068L143.38 48.9947C143.36 48.9934 143.339 48.9917 143.319 48.9896L143.14 48.9721C143.12 48.9701 143.1 48.9678 143.08 48.9652L142.902 48.9422C142.883 48.9397 142.863 48.9369 142.844 48.9338L142.665 48.9054C142.647 48.9024 142.628 48.8991 142.609 48.8956L142.431 48.8619C142.413 48.8585 142.394 48.8548 142.376 48.8509L142.198 48.8121C142.181 48.8084 142.164 48.8044 142.147 48.8002L141.968 48.7564C141.952 48.7524 141.936 48.7482 141.919 48.7438L141.741 48.6952C141.726 48.691 141.71 48.6866 141.695 48.6821L141.517 48.6289C141.503 48.6246 141.488 48.6201 141.474 48.6155L141.296 48.5579C141.289 48.5559 141.283 48.5539 141.277 48.5518C141.27 48.5494 141.263 48.547 141.256 48.5446L141.077 48.4828C141.065 48.4786 141.053 48.4742 141.041 48.4697L140.862 48.404C140.851 48.3998 140.84 48.3956 140.829 48.3912L140.65 48.3219L140.62 48.3097L140.442 48.2369L140.414 48.2255L140.236 48.1496L140.212 48.139L140.033 48.0604L140.012 48.0508L139.834 47.9696L139.815 47.9612L139.637 47.8778L139.622 47.8705L139.443 47.7853L139.443 47.7854L139.431 47.7793L139.253 47.6926L139.253 47.6926L139.243 47.6879L139.065 47.6L139.065 47.6L139.058 47.5967L138.88 47.508L138.876 47.5061L138.698 47.4169L138.697 47.4164L138.521 47.328L138.519 47.3271L138.345 47.24L138.172 47.1545L138.003 47.0713L137.837 46.9908L137.673 46.9131L137.513 46.8385L137.355 46.7674L137.201 46.6999L137.049 46.6362L136.901 46.5764L136.756 46.5208L136.613 46.4694L136.474 46.4222L136.339 46.3792L136.206 46.3406L136.076 46.3062L135.949 46.276L135.824 46.25L135.702 46.2279L135.581 46.2099L135.463 46.1956L135.346 46.1852L135.23 46.1784L135.114 46.1753L134.967 46.176L134.967 46.1754L134.865 46.1758L134.749 46.18L134.633 46.1879L134.515 46.1994L134.396 46.2148L134.275 46.234L134.152 46.2573L134.027 46.2845L133.899 46.316L133.768 46.3516L133.635 46.3915L133.498 46.4357L133.358 46.4841L133.215 46.5368L133.069 46.5937L132.919 46.6546L132.767 46.7195L132.612 46.7881L132.453 46.8602L132.292 46.9357L132.134 47.0113L132.121 47.0173L131.965 47.0933L131.955 47.098L131.793 47.1779L131.787 47.1812L131.619 47.2648L131.615 47.2667L131.442 47.3535L131.441 47.354L131.263 47.4428L131.262 47.4437L131.083 47.5328L131.079 47.5351L130.9 47.6237L130.9 47.6237L130.893 47.6274L130.715 47.715L130.715 47.715L130.704 47.72L130.526 47.8064L130.513 47.8127L130.334 47.8974L130.318 47.905L130.14 47.9878L130.121 47.9966L129.942 48.0771L129.92 48.0869L129.742 48.1648L129.717 48.1756L129.538 48.2506L129.51 48.2623L129.332 48.3341L129.3 48.3465L129.122 48.4148C129.114 48.4178 129.106 48.4208 129.098 48.4238C129.094 48.4251 129.091 48.4264 129.087 48.4277L128.909 48.4922C128.897 48.4967 128.884 48.5012 128.871 48.5054L128.693 48.566C128.68 48.5706 128.666 48.5751 128.652 48.5794L128.474 48.6357C128.459 48.6403 128.445 48.6447 128.43 48.649L128.252 48.7008C128.236 48.7054 128.221 48.7097 128.205 48.7139L128.027 48.761C128.01 48.7654 127.994 48.7695 127.977 48.7735L127.799 48.8158C127.781 48.8199 127.764 48.8238 127.746 48.8275L127.568 48.8648C127.55 48.8686 127.531 48.8722 127.513 48.8755L127.335 48.9076C127.316 48.911 127.297 48.9141 127.278 48.917L127.1 48.9438C127.08 48.9468 127.06 48.9494 127.041 48.9518L126.862 48.9732C126.842 48.9756 126.822 48.9777 126.802 48.9795L126.623 48.9955C126.603 48.9973 126.582 48.9988 126.562 49L126.383 49.0104C126.363 49.0116 126.342 49.0125 126.321 49.0131L126.143 49.0178C126.122 49.0184 126.101 49.0186 126.08 49.0185L125.901 49.0177C125.88 49.0176 125.86 49.0172 125.839 49.0164L125.66 49.01C125.64 49.0092 125.619 49.0082 125.598 49.0068L125.42 48.9947C125.399 48.9934 125.379 48.9917 125.358 48.9896L125.18 48.9721C125.16 48.9701 125.14 48.9678 125.12 48.9652L124.942 48.9422C124.922 48.9397 124.903 48.9369 124.883 48.9338L124.705 48.9054C124.686 48.9024 124.667 48.8991 124.648 48.8956L124.47 48.8619C124.452 48.8585 124.434 48.8548 124.416 48.8509L124.238 48.8121C124.22 48.8084 124.203 48.8044 124.186 48.8002L124.008 48.7564C123.991 48.7524 123.975 48.7482 123.959 48.7438L123.781 48.6952C123.765 48.691 123.75 48.6866 123.735 48.6821L123.556 48.6289C123.542 48.6246 123.528 48.6201 123.513 48.6155L123.335 48.5579C123.322 48.5536 123.308 48.5492 123.295 48.5446L123.117 48.4828C123.105 48.4786 123.092 48.4742 123.08 48.4697L122.902 48.404C122.891 48.3998 122.879 48.3956 122.868 48.3912L122.69 48.3219L122.659 48.3097L122.481 48.2369L122.454 48.2255L122.275 48.1496L122.251 48.139L122.073 48.0604L122.051 48.0508L121.873 47.9696L121.855 47.9612L121.677 47.8778L121.661 47.8705L121.483 47.7853L121.483 47.7854L121.471 47.7793L121.292 47.6926L121.292 47.6926L121.283 47.6879L121.104 47.6L121.098 47.5967L120.92 47.508L120.916 47.5061L120.737 47.4169L120.736 47.4164L120.56 47.328L120.558 47.3271L120.386 47.2412L120.382 47.2389L120.216 47.1564L120.208 47.1527L120.048 47.0739L120.037 47.0688L119.883 46.9939L119.87 46.9875L119.713 46.913L119.552 46.8385L119.395 46.7674L119.24 46.6999L119.089 46.6362L118.94 46.5764L118.795 46.5208L118.653 46.4694L118.514 46.4222L118.378 46.3792L118.245 46.3406L118.115 46.3062L117.988 46.276L117.863 46.25L117.741 46.2279L117.621 46.2099L117.502 46.1956L117.385 46.1852L117.269 46.1784L117.154 46.1753L117.038 46.1758L116.923 46.18L116.806 46.1879L116.689 46.1994L116.57 46.2148L116.449 46.234L116.326 46.2572L116.201 46.2845L116.073 46.316L115.942 46.3516L115.808 46.3915L115.672 46.4357L115.532 46.4841L115.389 46.5368L115.243 46.5937L115.093 46.6546L114.941 46.7195L114.785 46.7881L114.627 46.8602L114.466 46.9357L114.307 47.0113L114.295 47.0173L114.139 47.0933L114.129 47.098L113.967 47.1779L113.96 47.1812L113.793 47.2648L113.789 47.2667L113.615 47.3535L113.614 47.354L113.437 47.4428L113.435 47.4437L113.257 47.5328L113.252 47.5351L113.074 47.6237L113.074 47.6237L113.067 47.6274L112.888 47.715L112.888 47.715L112.878 47.72L112.7 47.8064L112.686 47.8127L112.508 47.8974L112.492 47.905L112.314 47.9878L112.294 47.9966L112.116 48.0771L112.094 48.0869L111.916 48.1648L111.89 48.1756L111.712 48.2506L111.684 48.2623L111.506 48.3341L111.474 48.3465L111.296 48.4148C111.284 48.4192 111.273 48.4235 111.261 48.4277L111.083 48.4922C111.07 48.4967 111.058 48.5012 111.045 48.5054L110.867 48.566C110.853 48.5706 110.84 48.5751 110.826 48.5794L110.648 48.6357C110.633 48.6403 110.619 48.6447 110.604 48.649L110.426 48.7008C110.41 48.7054 110.394 48.7097 110.379 48.7139L110.2 48.761C110.184 48.7654 110.167 48.7695 110.151 48.7735L109.972 48.8158C109.955 48.8199 109.938 48.8238 109.92 48.8275L109.742 48.8648C109.724 48.8686 109.705 48.8722 109.687 48.8755L109.509 48.9076C109.49 48.911 109.471 48.9141 109.452 48.917L109.273 48.9438C109.254 48.9468 109.234 48.9494 109.214 48.9518L109.036 48.9732C109.016 48.9756 108.996 48.9777 108.976 48.9795L108.797 48.9955C108.777 48.9973 108.756 48.9988 108.736 49L108.557 49.0104C108.536 49.0116 108.516 49.0125 108.495 49.0131L108.316 49.0178C108.295 49.0184 108.274 49.0186 108.253 49.0185L108.075 49.0177C108.054 49.0176 108.033 49.0172 108.012 49.0164L107.834 49.01C107.813 49.0092 107.793 49.0082 107.772 49.0068L107.593 48.9947C107.573 48.9934 107.552 48.9917 107.532 48.9896L107.354 48.9721C107.334 48.9701 107.314 48.9678 107.294 48.9652L107.115 48.9422C107.096 48.9397 107.076 48.9369 107.057 48.9338L106.879 48.9054C106.86 48.9024 106.841 48.8991 106.822 48.8956L106.644 48.8619C106.626 48.8585 106.608 48.8548 106.59 48.8509L106.412 48.8121C106.394 48.8084 106.377 48.8044 106.36 48.8002L106.182 48.7564C106.165 48.7524 106.149 48.7482 106.133 48.7438L105.954 48.6952C105.939 48.691 105.924 48.6866 105.908 48.6821L105.73 48.6289C105.722 48.6265 105.714 48.624 105.706 48.6215C105.7 48.6195 105.693 48.6175 105.687 48.6155L105.509 48.5579C105.496 48.5536 105.482 48.5492 105.469 48.5446L105.291 48.4828C105.278 48.4786 105.266 48.4742 105.254 48.4697L105.076 48.404C105.064 48.3998 105.053 48.3956 105.042 48.3912L104.864 48.3219L104.833 48.3097L104.655 48.2369L104.627 48.2255L104.449 48.1496L104.425 48.139L104.247 48.0604L104.225 48.0508L104.047 47.9696L104.029 47.9612L103.85 47.8778L103.835 47.8705L103.657 47.7853L103.657 47.7854L103.644 47.7793L103.466 47.6926L103.466 47.6926L103.457 47.6879L103.278 47.6L103.272 47.5967L103.093 47.508L103.089 47.5061L102.911 47.4169L102.91 47.4164L102.734 47.328L102.732 47.3271L102.56 47.2412L102.556 47.2389L102.389 47.1564L102.382 47.1527L102.216 47.0713L102.05 46.9907L101.887 46.9131L101.726 46.8385L101.568 46.7674L101.414 46.6999L101.262 46.6362L101.114 46.5764L100.969 46.5208L100.827 46.4694L100.688 46.4222L100.552 46.3792L100.419 46.3406L100.289 46.3062L100.162 46.276L100.037 46.25L99.9149 46.2279L99.7947 46.2099L99.6762 46.1956L99.5591 46.1852L99.4431 46.1784L99.3276 46.1753L99.2122 46.1758L99.0966 46.18L98.9802 46.1879L98.8628 46.1994L98.7438 46.2148L98.623 46.234L98.5001 46.2572L98.3747 46.2845L98.2467 46.3159L98.1159 46.3516L97.9821 46.3915L97.8454 46.4357L97.7055 46.4841L97.5624 46.5368L97.4163 46.5937L97.2671 46.6546L97.1147 46.7195L96.9593 46.7881L96.8008 46.8602L96.6394 46.9357L96.475 47.0143L96.3077 47.0957L96.1409 47.1779L96.1342 47.1812L95.9665 47.2648L95.9626 47.2667L95.7892 47.3535L95.7882 47.354L95.6109 47.4428L95.6091 47.4437L95.4308 47.5328L95.4262 47.5351L95.2479 47.6237L95.2479 47.6237L95.2404 47.6274L95.0621 47.715L95.0621 47.715L95.0517 47.72L94.8735 47.8064L94.8602 47.8127L94.6819 47.8974L94.6657 47.905L94.4874 47.9878L94.4682 47.9966L94.29 48.0771L94.2678 48.0869L94.0895 48.1648L94.0642 48.1756L93.886 48.2506L93.8576 48.2623L93.6793 48.3341L93.6478 48.3465L93.4696 48.4148C93.4581 48.4192 93.4465 48.4235 93.435 48.4277L93.2567 48.4922C93.2442 48.4967 93.2316 48.5012 93.219 48.5054L93.0407 48.566C93.0271 48.5706 93.0135 48.5751 92.9998 48.5794L92.8216 48.6357C92.807 48.6403 92.7924 48.6447 92.7777 48.649L92.5994 48.7008C92.5838 48.7054 92.5682 48.7097 92.5525 48.7139L92.3743 48.761C92.3577 48.7654 92.3412 48.7695 92.3246 48.7735L92.1463 48.8158C92.1289 48.8199 92.1114 48.8238 92.0939 48.8275L91.9156 48.8648C91.8974 48.8686 91.8791 48.8722 91.8608 48.8755L91.6825 48.9076C91.6635 48.911 91.6445 48.9141 91.6254 48.917L91.4472 48.9438C91.4275 48.9468 91.4079 48.9494 91.3882 48.9518L91.2099 48.9732C91.1898 48.9756 91.1696 48.9777 91.1493 48.9795L90.9711 48.9955C90.9505 48.9973 90.9299 48.9988 90.9093 49L90.7311 49.0104C90.7102 49.0116 90.6894 49.0125 90.6685 49.0131L90.4902 49.0178Z" fill="#FDFFFC"/>
<path d="M11.2188 15.2192C11.2188 13.0101 13.0096 11.2192 15.2188 11.2192H237.912C240.121 11.2192 241.912 13.0101 241.912 15.2192V21.9443C241.912 24.1535 240.121 25.9443 237.912 25.9443H15.2188C13.0096 25.9443 11.2188 24.1535 11.2188 21.9443V15.2192Z" fill="#FDFFFC"/>
</svg>
