<?xml version="1.0" encoding="UTF-8" standalone="no"?>
<!DOCTYPE svg PUBLIC "-//W3C//DTD SVG 1.1//EN" "http://www.w3.org/Graphics/SVG/1.1/DTD/svg11.dtd">
<svg width="100%" height="100%" viewBox="0 0 3904 1283" version="1.1" xmlns="http://www.w3.org/2000/svg" xmlns:xlink="http://www.w3.org/1999/xlink" xml:space="preserve" xmlns:serif="http://www.serif.com/" style="fill-rule:evenodd;clip-rule:evenodd;stroke-linejoin:round;stroke-miterlimit:2;">
    <g transform="matrix(8.33333,0,0,8.33333,245.376,406.912)">
        <path d="M0,59.719C11.974,59.693 18.536,54.517 23.377,49.455C23.57,49.255 23.566,48.936 23.369,48.736L16.948,42.263C16.754,42.067 16.435,42.061 16.232,42.252C11.507,46.681 7.193,49.429 0.303,49.445C-10.08,49.467 -17.93,41.062 -17.955,29.891L-17.955,29.73C-17.98,18.608 -10.166,10.204 0.218,10.181C5.814,10.169 10.612,12.291 15.771,17.063C15.874,17.157 16.013,17.202 16.152,17.198C16.29,17.191 16.419,17.126 16.513,17.02L22.899,9.629C23.08,9.422 23.066,9.109 22.866,8.919C18.208,4.488 11.879,-0.037 0.276,-0.012C-16.704,0.025 -29.482,12.891 -29.445,29.917L-29.444,30.081C-29.407,47.013 -16.748,59.756 0,59.719" style="fill:white;fill-rule:nonzero;"/>
    </g>
    <g transform="matrix(8.33333,0,0,8.33333,514.924,521.131)">
        <path d="M0,44.964L9.809,44.943C10.096,44.942 10.325,44.709 10.324,44.425L10.289,28.129C10.266,17.688 15.385,11.69 24.33,11.67L24.901,11.669C25.184,11.668 25.413,11.435 25.412,11.151L25.39,0.775C25.389,0.497 25.172,0.272 24.895,0.26C18.537,-0.001 13.408,3.078 10.247,8.982L10.231,1.617C10.23,1.334 10.001,1.102 9.714,1.102L-0.096,1.124C-0.38,1.124 -0.611,1.357 -0.611,1.641L-0.517,44.449C-0.517,44.733 -0.284,44.965 0,44.964" style="fill:white;fill-rule:nonzero;"/>
    </g>
    <g transform="matrix(8.33333,0,0,8.33333,837.191,642.631)">
        <path d="M0,17.054L0,16.893C-0.009,12.748 3.55,10.266 9.523,10.253C13.617,10.244 16.751,11.047 18.739,11.774L18.745,14.336C18.756,19.348 14.174,22.994 7.848,23.008C3.09,23.018 0.008,20.68 0,17.054M5.111,31.181C10.482,31.169 15.091,29.292 18.528,25.733L18.537,29.742C18.537,30.026 18.767,30.258 19.054,30.257L28.621,30.236C28.905,30.236 29.134,30.003 29.133,29.719L29.078,4.343C29.065,-1.583 27.448,-6.15 24.284,-9.224C21.128,-12.446 16.093,-14.144 9.712,-14.131C2.271,-14.114 -2.538,-12.407 -6.625,-10.563C-6.866,-10.453 -6.985,-10.178 -6.901,-9.927L-4.287,-2.229C-4.245,-2.094 -4.141,-1.985 -4.012,-1.927C-3.883,-1.866 -3.732,-1.863 -3.603,-1.921C0.194,-3.51 3.691,-4.573 8.436,-4.583C15.049,-4.597 18.549,-1.56 18.562,4.204L18.562,4.556C15.845,3.742 12.411,2.972 7.563,2.983C-3.827,3.008 -10.619,8.368 -10.599,17.319L-10.599,17.484C-10.578,26.919 -2.44,31.198 5.111,31.181" style="fill:white;fill-rule:nonzero;"/>
    </g>
    <g transform="matrix(8.33333,0,0,8.33333,1191.89,388.215)">
        <path d="M0,60.74L9.809,60.719C10.096,60.718 10.325,60.485 10.324,60.201L10.25,26.341L20.924,26.318C21.208,26.317 21.44,26.085 21.439,25.801L21.421,17.695C21.421,17.408 21.188,17.179 20.904,17.18L10.069,17.203L10.065,15.368C10.056,11.294 11.691,9.394 15.21,9.386C17.297,9.381 18.956,9.787 20.805,10.399C20.964,10.451 21.138,10.425 21.273,10.328C21.405,10.23 21.485,10.075 21.485,9.911L21.467,1.64C21.466,1.411 21.314,1.212 21.095,1.148C19.165,0.578 16.693,-0.001 13.002,0.007C8.657,0.017 5.386,1.188 2.998,3.587C0.59,6.005 -0.628,9.676 -0.617,14.498L-0.611,17.146L-5.527,17.157C-5.814,17.157 -6.043,17.387 -6.042,17.674L-6.024,25.861C-6.024,26.145 -5.794,26.376 -5.507,26.376L-0.591,26.365L-0.517,60.225C-0.517,60.509 -0.284,60.741 0,60.74" style="fill:white;fill-rule:nonzero;"/>
    </g>
    <g transform="matrix(8.33333,0,0,8.33333,1622.99,449.464)">
        <path d="M0,51.748C0.161,51.657 0.261,51.486 0.26,51.299L0.243,43.273C0.242,43.093 0.148,42.928 -0.003,42.835C-0.155,42.739 -0.346,42.733 -0.503,42.814C-2.421,43.776 -4.278,44.225 -6.352,44.23C-9.594,44.237 -11.11,42.705 -11.117,39.405L-11.162,18.922L-0.165,18.898C0.122,18.897 0.35,18.668 0.35,18.381L0.331,9.949C0.331,9.665 0.101,9.433 -0.186,9.434L-11.182,9.458L-11.207,-1.781C-11.208,-2.068 -11.437,-2.296 -11.724,-2.296L-21.533,-2.274C-21.817,-2.273 -22.049,-2.044 -22.048,-1.757L-22.024,9.481L-26.94,9.492C-27.224,9.493 -27.455,9.726 -27.455,10.009L-27.436,18.441C-27.436,18.728 -27.203,18.957 -26.919,18.956L-22.003,18.946L-21.955,40.97C-21.936,49.651 -17.607,54.044 -9.088,54.026C-5.553,54.018 -2.751,53.315 0,51.748" style="fill:white;fill-rule:nonzero;"/>
    </g>
    <g transform="matrix(8.33333,0,0,8.33333,1761.23,740.048)">
        <path d="M0,-7.061C1.031,-13.305 5.097,-17.311 10.487,-17.322C17.054,-17.337 20.091,-12.156 20.793,-7.106L0,-7.061ZM11.702,19.322C19.044,19.306 25.064,16.529 29.593,11.071C29.77,10.857 29.744,10.538 29.537,10.355L23.768,5.261C23.568,5.081 23.261,5.088 23.068,5.279C19.511,8.764 16.157,10.255 11.844,10.264C5.725,10.278 1.278,6.536 0.11,0.458L30.957,0.391C31.225,0.39 31.447,0.183 31.469,-0.085L31.485,-0.278C31.56,-1.178 31.629,-2.03 31.627,-2.885C31.602,-14.604 25.073,-26.412 10.548,-26.38C-1.671,-26.353 -10.866,-16.527 -10.837,-3.521L-10.837,-3.36C-10.808,9.811 -1.329,19.351 11.702,19.322" style="fill:white;fill-rule:nonzero;"/>
    </g>
    <g transform="matrix(8.33333,0,0,8.33333,2310.78,795.131)">
        <path d="M0,-21.626C0.284,-21.627 0.516,-21.856 0.515,-22.143L0.492,-32.52C0.492,-32.798 0.272,-33.023 -0.002,-33.035C-6.358,-33.296 -11.489,-30.217 -14.651,-24.313L-14.667,-31.678C-14.667,-31.961 -14.9,-32.193 -15.184,-32.192L-24.996,-32.171C-25.28,-32.17 -25.509,-31.938 -25.508,-31.654L-25.415,11.154C-25.414,11.441 -25.184,11.67 -24.901,11.669L-15.088,11.648C-14.804,11.647 -14.572,11.417 -14.573,11.131L-14.609,-5.166C-14.632,-15.604 -9.513,-21.605 -0.568,-21.625L0,-21.626Z" style="fill:white;fill-rule:nonzero;"/>
    </g>
    <g transform="matrix(8.33333,0,0,8.33333,2384.96,413.214)">
        <path d="M0,23.225C0.059,23.457 0.265,23.615 0.501,23.614L0.543,23.614C9.383,22.895 13.492,18.444 13.473,9.612L13.452,0.125C13.452,-0.159 13.219,-0.39 12.935,-0.39L2.152,-0.366C1.868,-0.365 1.636,-0.133 1.637,0.151L1.661,11.26C1.661,11.544 1.894,11.776 2.178,11.776L5.904,11.767C6.008,15.39 3.855,17.556 -0.656,18.378C-0.798,18.404 -0.92,18.485 -0.997,18.605C-1.074,18.727 -1.1,18.873 -1.064,19.011L0,23.225Z" style="fill:white;fill-rule:nonzero;"/>
    </g>
    <g transform="matrix(8.33333,0,0,8.33333,2832.96,636.464)">
        <path d="M0,17.355L0,17.194C-0.017,9.53 -6.588,6.441 -13.683,4.247L-14.506,3.984C-19.054,2.539 -22.98,1.29 -22.985,-1.323L-22.986,-1.484C-22.99,-3.733 -20.842,-5.189 -17.51,-5.196C-14.162,-5.204 -9.852,-3.765 -5.689,-1.245C-5.569,-1.171 -5.424,-1.152 -5.289,-1.188C-5.153,-1.223 -5.037,-1.311 -4.97,-1.434L-1.095,-8.416C-0.963,-8.652 -1.035,-8.948 -1.261,-9.096C-5.961,-12.186 -11.949,-14.024 -17.287,-14.013C-26.564,-13.992 -33.033,-8.398 -33.015,-0.408L-33.015,-0.247C-32.996,8.227 -25.891,10.925 -19.245,12.784L-18.235,13.089C-13.835,14.411 -10.036,15.551 -10.03,18.271L-10.03,18.432C-10.024,21.002 -12.314,22.543 -16.153,22.551C-20.504,22.561 -25.379,20.736 -29.883,17.411C-29.996,17.327 -30.141,17.292 -30.28,17.321C-30.422,17.344 -30.544,17.425 -30.621,17.544L-34.984,24.202C-35.132,24.425 -35.08,24.725 -34.87,24.892C-29.606,29.019 -22.865,31.379 -16.375,31.365C-6.256,31.342 0.019,25.977 0,17.355" style="fill:white;fill-rule:nonzero;"/>
    </g>
    <g transform="matrix(8.33333,0,0,8.33333,3900.12,745.131)">
        <path d="M0,-14.482C-0.363,-15.336 -0.968,-16.122 -1.834,-16.736C-1.844,-16.746 -1.85,-16.752 -1.86,-16.759C-1.889,-16.778 -1.918,-16.8 -1.947,-16.82C-1.995,-16.852 -2.044,-16.887 -2.089,-16.923C-2.157,-16.968 -2.222,-17.016 -2.286,-17.061C-2.37,-17.122 -2.454,-17.18 -2.538,-17.241C-2.638,-17.315 -2.739,-17.386 -2.842,-17.46C-2.958,-17.543 -3.078,-17.627 -3.194,-17.711C-3.33,-17.807 -3.465,-17.903 -3.601,-18C-3.753,-18.109 -3.905,-18.219 -4.057,-18.325C-4.225,-18.444 -4.389,-18.566 -4.557,-18.685C-4.742,-18.817 -4.926,-18.945 -5.107,-19.077C-5.307,-19.219 -5.504,-19.36 -5.701,-19.502C-5.914,-19.656 -6.128,-19.807 -6.344,-19.958C-6.57,-20.122 -6.796,-20.283 -7.026,-20.447C-7.268,-20.621 -7.51,-20.791 -7.753,-20.965C-8.008,-21.148 -8.263,-21.332 -8.518,-21.512C-8.786,-21.705 -9.055,-21.898 -9.323,-22.09C-9.607,-22.29 -9.888,-22.492 -10.169,-22.695C-10.463,-22.904 -10.76,-23.113 -11.054,-23.325C-11.361,-23.544 -11.668,-23.763 -11.975,-23.981C-12.292,-24.21 -12.612,-24.438 -12.932,-24.663C-13.258,-24.901 -13.591,-25.136 -13.92,-25.371C-14.259,-25.615 -14.602,-25.859 -14.941,-26.104C-15.293,-26.355 -15.645,-26.606 -15.997,-26.856C-16.359,-27.114 -16.721,-27.374 -17.083,-27.631C-17.455,-27.898 -17.829,-28.162 -18.198,-28.429C-18.582,-28.702 -18.963,-28.972 -19.345,-29.246C-19.454,-29.326 -19.568,-29.407 -19.681,-29.487L-29.54,0.688L-33.408,12.519L-34.222,15.005C-33.958,14.814 -33.69,14.623 -33.426,14.432C-32.969,14.102 -32.508,13.769 -32.048,13.439C-31.59,13.112 -31.136,12.782 -30.682,12.455C-30.234,12.132 -29.784,11.808 -29.333,11.484C-28.891,11.164 -28.45,10.844 -28.006,10.523C-27.571,10.21 -27.133,9.896 -26.698,9.579C-26.267,9.271 -25.835,8.961 -25.407,8.65C-24.985,8.346 -24.563,8.042 -24.138,7.738C-23.726,7.437 -23.31,7.139 -22.895,6.838C-22.489,6.547 -22.08,6.253 -21.674,5.961C-21.278,5.674 -20.879,5.385 -20.479,5.098C-20.089,4.816 -19.7,4.535 -19.31,4.256C-18.93,3.981 -18.547,3.706 -18.167,3.431C-17.796,3.163 -17.426,2.897 -17.052,2.629C-16.692,2.367 -16.331,2.108 -15.97,1.849C-15.619,1.593 -15.268,1.341 -14.917,1.089C-14.576,0.843 -14.234,0.597 -13.896,0.351C-13.568,0.115 -13.236,-0.125 -12.907,-0.361C-12.589,-0.59 -12.273,-0.82 -11.954,-1.047C-11.648,-1.27 -11.342,-1.49 -11.036,-1.71C-10.74,-1.924 -10.447,-2.134 -10.154,-2.347C-9.87,-2.548 -9.59,-2.752 -9.31,-2.956C-9.039,-3.147 -8.772,-3.341 -8.505,-3.535C-8.247,-3.719 -7.993,-3.904 -7.738,-4.088C-7.497,-4.263 -7.255,-4.434 -7.014,-4.609C-6.785,-4.774 -6.56,-4.939 -6.331,-5.101C-6.118,-5.256 -5.906,-5.408 -5.69,-5.564C-5.494,-5.706 -5.294,-5.848 -5.097,-5.991C-4.917,-6.12 -4.74,-6.249 -4.56,-6.379C-4.556,-6.382 -4.553,-6.385 -4.547,-6.388C-4.379,-6.508 -4.212,-6.628 -4.044,-6.751C-3.893,-6.858 -3.742,-6.968 -3.59,-7.078C-3.455,-7.175 -3.32,-7.272 -3.184,-7.369C-3.065,-7.456 -2.949,-7.54 -2.83,-7.625C-2.727,-7.699 -2.627,-7.773 -2.524,-7.845C-2.444,-7.906 -2.357,-7.967 -2.273,-8.026C-2.209,-8.074 -2.141,-8.123 -2.077,-8.168C-2.028,-8.204 -1.98,-8.239 -1.932,-8.272C-1.903,-8.294 -1.874,-8.317 -1.845,-8.336C-1.835,-8.343 -1.825,-8.352 -1.816,-8.359C0.294,-9.876 0.892,-12.39 0,-14.482" style="fill:white;fill-rule:nonzero;"/>
    </g>
    <g transform="matrix(8.33333,0,0,8.33333,3526.95,806.298)">
        <path d="M0,12.032C-0.549,11.656 -0.928,11.173 -1.132,10.576L-1.635,9.074L-19.782,-45.21L-23.308,-45.202L-35.604,-45.175L-35.076,4.783L-35.024,9.525C-35.022,10.434 -35.346,11.187 -35.996,11.782C-36.373,12.128 -36.811,12.364 -37.294,12.51C-37.639,12.614 -38.007,12.679 -38.41,12.68L-41.497,12.687C-42.491,12.689 -43.314,12.401 -43.967,11.822C-44.62,11.246 -44.947,10.501 -44.949,9.592L-45.493,-41.483L-45.53,-45.154L-58.671,-45.125L-58.671,-44.796L-58.667,-43.161L-58.663,-41.515L-58.66,-39.857L-58.656,-38.193L-58.652,-36.519L-58.649,-34.838L-58.645,-33.151L-58.641,-31.455L-58.638,-29.758L-58.634,-28.051L-58.63,-26.345L-58.627,-24.635L-58.623,-22.923L-58.619,-21.207L-58.615,-19.494L-58.612,-17.778L-58.604,-14.352L-58.6,-12.642L-58.597,-10.936L-58.593,-9.233L-58.589,-7.533L-58.585,-5.843L-58.582,-4.155L-58.578,-2.475L-58.574,-0.804L-58.571,0.86L-58.567,2.515L-58.564,4.16L-58.56,5.792L-58.557,7.415L-58.553,9.024L-58.549,10.621L-58.546,12.205L-58.543,13.773L-58.539,15.324L-58.539,15.579L-58.536,16.863L-58.533,18.382L-58.529,19.882L-58.526,21.369L-58.523,22.834L-58.52,24.279L-58.517,25.701L-58.513,27.105L-58.51,28.485L-58.508,29.843L-58.505,31.178L-58.502,32.485L-58.499,33.769L-58.496,35.027L-58.493,36.259L-58.491,37.462L-58.488,38.636L-58.486,39.785L-58.483,40.901L-58.482,41.578L-58.481,41.988L-58.479,43.042L-58.476,44.065L-58.474,45.055L-58.472,46.01L-58.47,46.929L-58.468,47.817L-58.466,48.668L-58.465,49.481L-58.463,50.258L-58.461,50.994L-58.46,51.694L-58.458,52.352L-58.457,52.971L-58.456,53.549L-58.455,54.084L-58.453,54.578L-58.453,55.026L-58.452,55.429L-58.451,55.791L-58.45,56.103L-58.45,56.371L-58.449,56.59C-58.449,56.784 -58.457,57.242 -58.093,57.132C-58.022,57.112 -57.961,57.07 -57.903,57.025C-57.755,56.889 -57.568,56.779 -57.404,56.659C-57.236,56.536 -57.066,56.41 -56.895,56.284C-56.557,56.038 -56.215,55.802 -55.877,55.556C-55.707,55.436 -55.539,55.313 -55.372,55.19C-55.185,55.058 -55.001,54.925 -54.818,54.792C-54.618,54.65 -54.418,54.504 -54.219,54.362C-54.006,54.207 -53.79,54.051 -53.574,53.899C-53.349,53.734 -53.12,53.569 -52.892,53.404C-52.647,53.226 -52.405,53.052 -52.161,52.88C-51.906,52.692 -51.649,52.508 -51.394,52.324C-51.124,52.129 -50.853,51.935 -50.586,51.741C-50.302,51.537 -50.019,51.334 -49.735,51.13C-49.442,50.916 -49.146,50.706 -48.85,50.492C-48.544,50.269 -48.238,50.049 -47.929,49.829C-47.61,49.599 -47.291,49.366 -46.972,49.136C-46.644,48.9 -46.312,48.661 -45.983,48.422C-45.642,48.179 -45.301,47.93 -44.959,47.687C-44.608,47.431 -44.254,47.179 -43.903,46.924C-43.542,46.665 -43.178,46.403 -42.818,46.14C-42.444,45.872 -42.074,45.604 -41.703,45.335C-41.32,45.063 -40.94,44.788 -40.557,44.513C-40.167,44.231 -39.777,43.95 -39.384,43.665C-38.985,43.381 -38.589,43.089 -38.186,42.805C-37.781,42.51 -37.372,42.216 -36.966,41.921C-36.55,41.624 -36.135,41.323 -35.719,41.025C-35.294,40.718 -34.872,40.414 -34.447,40.106C-34.019,39.799 -33.587,39.488 -33.159,39.178C-32.721,38.864 -32.283,38.547 -31.848,38.233C-31.404,37.913 -30.959,37.592 -30.515,37.272C-30.067,36.949 -29.616,36.625 -29.169,36.301C-28.711,35.975 -28.257,35.645 -27.803,35.318C-27.343,34.984 -26.882,34.651 -26.421,34.318C-25.954,33.985 -25.487,33.648 -25.024,33.312C-24.553,32.972 -24.083,32.636 -23.613,32.296C-23.14,31.953 -22.666,31.613 -22.19,31.27C-21.713,30.927 -21.233,30.581 -20.756,30.238C-20.276,29.889 -19.793,29.542 -19.313,29.196C-18.827,28.847 -18.344,28.497 -17.858,28.148C-17.371,27.798 -16.885,27.446 -16.399,27.093C-15.909,26.744 -15.42,26.388 -14.93,26.035C-14.437,25.682 -13.948,25.33 -13.458,24.974C-12.966,24.618 -12.473,24.265 -11.98,23.909C-11.484,23.553 -10.991,23.198 -10.499,22.842C-10.312,22.709 -10.128,22.573 -9.945,22.44C-9.632,22.217 -9.323,21.994 -9.014,21.771C-8.518,21.415 -8.025,21.059 -7.529,20.7C-7.033,20.344 -6.54,19.988 -6.045,19.629C-5.549,19.273 -5.056,18.917 -4.563,18.561C-4.067,18.205 -3.574,17.849 -3.082,17.493C-2.586,17.137 -2.096,16.782 -1.6,16.426C-1.11,16.073 -0.621,15.72 -0.128,15.368C0.361,15.012 0.848,14.659 1.337,14.306C1.823,13.957 2.313,13.604 2.799,13.255C3.109,13.032 3.414,12.812 3.724,12.588L1.853,12.593C1.169,12.594 0.549,12.408 0,12.032" style="fill:white;fill-rule:nonzero;"/>
    </g>
    <g transform="matrix(8.33333,0,0,8.33333,3666.84,315.548)">
        <path d="M0,16.116L0.045,15.977C0.016,15.955 -0.013,15.932 -0.042,15.913C-0.488,15.595 -0.934,15.276 -1.377,14.958C-1.829,14.636 -2.278,14.314 -2.734,13.993C-3.189,13.665 -3.645,13.337 -4.103,13.012C-4.565,12.681 -5.027,12.353 -5.489,12.022C-5.958,11.687 -6.423,11.353 -6.892,11.018C-7.363,10.684 -7.835,10.346 -8.307,10.009C-8.782,9.668 -9.26,9.33 -9.735,8.989C-10.216,8.645 -10.694,8.304 -11.176,7.96C-11.657,7.616 -12.142,7.269 -12.626,6.925C-13.111,6.577 -13.599,6.23 -14.083,5.883L-17.026,3.779C-17.521,3.426 -18.015,3.075 -18.506,2.721C-19.004,2.368 -19.498,2.014 -19.992,1.66C-20.49,1.306 -20.984,0.953 -21.482,0.599C-21.976,0.242 -22.473,-0.112 -22.971,-0.466C-23.469,-0.822 -23.966,-1.176 -24.464,-1.533C-24.961,-1.887 -25.459,-2.244 -25.956,-2.598C-26.454,-2.955 -26.951,-3.308 -27.446,-3.665C-27.943,-4.019 -28.441,-4.373 -28.935,-4.727C-29.432,-5.08 -29.927,-5.434 -30.421,-5.788C-30.915,-6.142 -31.41,-6.495 -31.904,-6.846C-32.395,-7.196 -32.886,-7.55 -33.377,-7.901C-33.868,-8.251 -34.356,-8.602 -34.847,-8.949C-35.335,-9.296 -35.82,-9.647 -36.307,-9.994C-36.792,-10.338 -37.277,-10.686 -37.758,-11.03C-38.239,-11.374 -38.721,-11.718 -39.202,-12.059C-39.677,-12.4 -40.155,-12.74 -40.63,-13.081C-41.102,-13.419 -41.577,-13.757 -42.048,-14.094C-42.517,-14.429 -42.985,-14.763 -43.454,-15.098C-43.916,-15.429 -44.378,-15.76 -44.843,-16.088C-45.299,-16.416 -45.757,-16.744 -46.216,-17.072C-46.668,-17.394 -47.121,-17.715 -47.573,-18.04C-48.019,-18.359 -48.465,-18.677 -48.911,-18.995C-49.35,-19.311 -49.789,-19.622 -50.229,-19.937C-50.662,-20.246 -51.095,-20.555 -51.527,-20.864C-51.951,-21.169 -52.377,-21.471 -52.804,-21.777C-53.22,-22.076 -53.64,-22.372 -54.057,-22.671C-54.467,-22.964 -54.878,-23.256 -55.288,-23.549C-55.689,-23.838 -56.089,-24.125 -56.49,-24.411C-56.884,-24.691 -57.278,-24.974 -57.669,-25.253C-58.054,-25.527 -58.438,-25.8 -58.822,-26.077C-59.194,-26.343 -59.569,-26.611 -59.944,-26.877C-60.309,-27.138 -60.674,-27.398 -61.036,-27.659C-61.391,-27.91 -61.746,-28.164 -62.098,-28.418C-62.441,-28.662 -62.787,-28.907 -63.129,-29.151C-63.462,-29.389 -63.795,-29.627 -64.124,-29.865C-64.447,-30.093 -64.767,-30.322 -65.09,-30.553C-65.397,-30.772 -65.707,-30.994 -66.017,-31.216C-66.315,-31.428 -66.612,-31.64 -66.906,-31.852C-67.193,-32.055 -67.478,-32.258 -67.762,-32.46C-68.03,-32.656 -68.301,-32.849 -68.576,-33.042C-68.835,-33.229 -69.093,-33.412 -69.348,-33.595C-69.594,-33.772 -69.839,-33.946 -70.082,-34.12C-70.314,-34.283 -70.544,-34.447 -70.773,-34.615C-70.989,-34.769 -71.206,-34.924 -71.422,-35.078C-71.623,-35.219 -71.826,-35.364 -72.026,-35.509C-72.211,-35.641 -72.398,-35.772 -72.582,-35.904C-72.753,-36.027 -72.925,-36.149 -73.093,-36.271C-73.248,-36.38 -73.403,-36.493 -73.558,-36.602C-73.694,-36.699 -73.832,-36.798 -73.971,-36.898C-74.382,-37.191 -74.795,-37.487 -75.206,-37.779C-75.254,-37.814 -75.306,-37.85 -75.361,-37.866C-75.377,-37.869 -75.39,-37.872 -75.406,-37.872C-75.515,-37.878 -75.606,-37.791 -75.654,-37.704C-75.728,-37.572 -75.695,-37.41 -75.695,-37.269L-75.694,-37.036L-75.694,-36.759L-75.693,-36.436L-75.692,-36.065L-75.691,-35.652L-75.69,-35.194L-75.689,-34.691L-75.688,-34.146L-75.687,-33.559L-75.685,-32.93L-75.684,-32.259L-75.682,-31.552L-75.681,-30.804L-75.679,-30.02L-75.677,-29.195L-75.675,-28.336L-75.673,-27.44L-75.671,-26.511L-75.669,-25.546L-75.667,-24.546L-75.665,-23.514L-75.662,-22.453L-75.66,-21.359L-75.658,-20.234L-75.655,-19.079L-75.652,-17.895L-75.65,-16.682L-75.647,-15.444L-75.644,-14.176L-75.641,-12.885L-75.639,-11.569L-75.636,-10.228L-75.633,-8.86L-75.63,-7.473L-75.627,-6.063L-75.623,-4.631L-75.62,-3.179L-75.617,-1.708L-75.614,-0.218L-75.61,1.291L-75.607,2.817L-75.604,4.362L-75.602,5.127L-75.476,5.126L-75.476,5.304L-47.471,5.243L-34.313,5.214L-33.587,5.212L-31.484,5.208C-31.087,5.207 -30.723,5.267 -30.381,5.376C-30.106,5.466 -29.845,5.585 -29.606,5.746C-29.073,6.106 -28.704,6.598 -28.496,7.224L-12.659,53.994L0.023,16.132C0.013,16.126 0.006,16.122 0,16.116" style="fill:white;fill-rule:nonzero;"/>
    </g>
</svg>
