<svg width="254" height="176" viewBox="0 0 254 176" fill="none" xmlns="http://www.w3.org/2000/svg">
<path d="M16 2H238C245.732 2 252 8.26801 252 16V160C252 167.732 245.732 174 238 174H16C8.26801 174 2 167.732 2 160V16C2 8.26801 8.26801 2 16 2Z" fill="#1877F2" stroke="#1F1300" stroke-width="4"/>
<path fill-rule="evenodd" clip-rule="evenodd" d="M83.6934 73.5598C83.6725 73.5604 83.6516 73.5606 83.6306 73.5605L83.4519 73.5597C83.431 73.5596 83.4101 73.5592 83.3892 73.5584L83.2105 73.552C83.1897 73.5512 83.169 73.5502 83.1483 73.5488L82.9695 73.5368C82.9491 73.5354 82.9287 73.5337 82.9083 73.5317L82.7295 73.5141C82.7095 73.5122 82.6895 73.5099 82.6695 73.5073L82.4908 73.4843C82.4713 73.4818 82.4519 73.479 82.4325 73.4759L82.2538 73.4475C82.235 73.4445 82.2162 73.4413 82.1975 73.4377L82.0187 73.4041C82.0007 73.4007 81.9827 73.397 81.9647 73.3931L81.786 73.3544C81.7687 73.3506 81.7516 73.3467 81.7345 73.3425L81.5557 73.2987C81.5394 73.2947 81.5232 73.2905 81.5069 73.2861L81.3282 73.2375C81.3129 73.2334 81.2975 73.229 81.2823 73.2245L81.1036 73.1713C81.0892 73.167 81.0749 73.1626 81.0606 73.158L80.8819 73.1004C80.8686 73.0961 80.8553 73.0917 80.842 73.0871L80.6633 73.0253C80.651 73.0211 80.6388 73.0167 80.6266 73.0122L80.4478 72.9465C80.4366 72.9424 80.4254 72.9382 80.4142 72.9338L80.2355 72.8645L80.205 72.8523L80.0262 72.7796L79.9988 72.7682L79.8201 72.6923L79.7958 72.6818L79.617 72.6031L79.5957 72.5936L79.417 72.5124L79.3987 72.504L79.22 72.4206L79.2047 72.4134L79.0259 72.3282L79.0259 72.3282L79.0135 72.3222L78.8348 72.2355L78.8348 72.2355L78.8253 72.2308L78.6465 72.1429L78.6465 72.1429L78.6399 72.1396L78.4612 72.0509L78.4612 72.0509L78.4573 72.049L78.2786 71.9598L78.2776 71.9593L78.1007 71.8709L78.0989 71.87L77.9243 71.783L77.7517 71.6974L77.5819 71.6142L77.415 71.5336L77.251 71.4559L77.09 71.3813L76.9319 71.3102L76.7769 71.2426L76.6249 71.1789L76.4761 71.1191L76.3303 71.0634L76.1877 71.0119L76.0482 70.9646L75.9118 70.9217L75.7784 70.883L75.6479 70.8485L75.5201 70.8183L75.3949 70.7921L75.272 70.7701L75.1512 70.7519L75.0321 70.7377L74.9144 70.7272L74.7977 70.7204L74.6815 70.7173L74.5342 70.718L74.5156 66.718L74.6944 66.7172C74.7153 66.7171 74.7362 66.7173 74.7571 66.7179L74.9358 66.7227C74.9567 66.7232 74.9775 66.7241 74.9982 66.7253L75.177 66.7357C75.1975 66.7369 75.2181 66.7384 75.2386 66.7402L75.4173 66.7561C75.4375 66.7579 75.4576 66.76 75.4777 66.7625L75.6564 66.7839C75.6761 66.7862 75.6957 66.7889 75.7153 66.7918L75.894 66.8186C75.913 66.8215 75.932 66.8246 75.951 66.828L76.1297 66.8601C76.148 66.8634 76.1662 66.8669 76.1844 66.8707L76.3631 66.908C76.3806 66.9117 76.3981 66.9156 76.4154 66.9197L76.5942 66.962C76.6107 66.9659 76.6273 66.97 76.6438 66.9744L76.8225 67.0216C76.8381 67.0257 76.8537 67.03 76.8693 67.0345L77.048 67.0863C77.0627 67.0906 77.0773 67.095 77.0918 67.0996L77.2705 67.1559C77.2842 67.1602 77.2978 67.1646 77.3113 67.1692L77.4901 67.2298C77.5027 67.2341 77.5152 67.2384 77.5277 67.243L77.7065 67.3075C77.718 67.3117 77.7295 67.316 77.741 67.3204L77.9197 67.3887L77.9512 67.401L78.1299 67.4728L78.1582 67.4844L78.337 67.5594L78.3622 67.5702L78.5409 67.648L78.5631 67.6579L78.7418 67.7383L78.761 67.7471L78.9397 67.8299L78.956 67.8374L79.1347 67.9222L79.1479 67.9285L79.3267 68.0148L79.3267 68.0148L79.3371 68.0199L79.5158 68.1075L79.5158 68.1074L79.5233 68.1111L79.702 68.1997L79.702 68.1997L79.7067 68.202L79.8854 68.2911L79.8872 68.292L80.065 68.3808L80.0659 68.3813L80.2399 68.4681L80.2437 68.47L80.4152 68.5552L80.5859 68.6391L80.7537 68.7206L80.9185 68.7992L81.0804 68.8747L81.2394 68.9469L81.3953 69.0155L81.5482 69.0804L81.6979 69.1414L81.8446 69.1983L81.9881 69.251L82.1285 69.2996L82.2659 69.3438L82.4002 69.3838L82.5315 69.4195L82.6601 69.451L82.7861 69.4783L82.9096 69.5015L83.031 69.5208L83.1506 69.5362L83.2686 69.5478L83.3856 69.5557L83.5018 69.5599L83.6178 69.5604L83.734 69.5573L83.8507 69.5505L83.9684 69.5401L84.0875 69.5258L84.2083 69.5077L84.3312 69.4856L84.4564 69.4595L84.5841 69.4292L84.7147 69.3948L84.8481 69.3561L84.9845 69.3131L85.124 69.2658L85.2666 69.2143L85.4124 69.1586L85.5612 69.0989L85.7132 69.0351L85.8682 68.9676L86.0263 68.8964L86.1873 68.8218L86.3513 68.7441L86.5181 68.6635L86.688 68.5803L86.8583 68.4959L86.863 68.4936L87.0352 68.4078L87.037 68.4068L87.2139 68.3184L87.2149 68.3179L87.3936 68.2287L87.3975 68.2268L87.5762 68.1381L87.5762 68.1381L87.5828 68.1348L87.7616 68.0469L87.7616 68.0469L87.7711 68.0422L87.9498 67.9555L87.9498 67.9555L87.9622 67.9495L88.141 67.8643L88.1563 67.8571L88.335 67.7737L88.3533 67.7653L88.532 67.6841L88.5533 67.6746L88.7321 67.5959L88.7564 67.5854L88.9351 67.5095L88.9625 67.4981L89.1412 67.4254L89.1718 67.4132L89.3505 67.3439C89.3617 67.3395 89.3729 67.3353 89.3841 67.3312L89.5629 67.2655C89.5751 67.261 89.5873 67.2566 89.5996 67.2524L89.7783 67.1906C89.7916 67.1861 89.8049 67.1816 89.8182 67.1773L89.9969 67.1197C90.0112 67.1151 90.0255 67.1107 90.0399 67.1064L90.2186 67.0533C90.2338 67.0487 90.2491 67.0444 90.2645 67.0402L90.4432 66.9916C90.4594 66.9872 90.4757 66.983 90.492 66.979L90.6707 66.9353C90.6879 66.9311 90.705 66.9271 90.7223 66.9234L90.901 66.8846C90.9189 66.8807 90.937 66.877 90.955 66.8736L91.1337 66.84C91.1525 66.8365 91.1712 66.8332 91.1901 66.8302L91.3688 66.8018C91.3882 66.7987 91.4076 66.7959 91.4271 66.7934L91.6058 66.7704C91.6258 66.7678 91.6458 66.7656 91.6658 66.7636L91.8445 66.746C91.8649 66.744 91.8854 66.7424 91.9058 66.741L92.0846 66.729C92.1053 66.7276 92.126 66.7265 92.1468 66.7257L92.3255 66.7193C92.3464 66.7186 92.3673 66.7181 92.3882 66.718L92.5669 66.7172C92.5879 66.7171 92.6088 66.7173 92.6297 66.7179L92.8084 66.7227C92.8292 66.7232 92.85 66.7241 92.8708 66.7253L93.0496 66.7357C93.0701 66.7369 93.0906 66.7384 93.1111 66.7402L93.2899 66.7561C93.31 66.7579 93.3302 66.76 93.3503 66.7625L93.529 66.7839C93.5487 66.7862 93.5683 66.7889 93.5879 66.7918L93.7666 66.8186C93.7856 66.8215 93.8046 66.8246 93.8235 66.828L94.0023 66.8601C94.0205 66.8634 94.0388 66.8669 94.057 66.8707L94.2357 66.908C94.2532 66.9117 94.2706 66.9156 94.288 66.9197L94.4667 66.962C94.4833 66.9659 94.4999 66.97 94.5163 66.9744L94.6951 67.0216C94.7107 67.0257 94.7263 67.03 94.7418 67.0345L94.9206 67.0863C94.9352 67.0906 94.9498 67.095 94.9644 67.0996L95.1431 67.1559C95.1568 67.1602 95.1704 67.1646 95.1839 67.1692L95.3626 67.2298C95.3752 67.234 95.3878 67.2384 95.4003 67.243L95.579 67.3075C95.5828 67.3089 95.5865 67.3102 95.5903 67.3116C95.5981 67.3145 95.6058 67.3174 95.6136 67.3204L95.7923 67.3887L95.8238 67.401L96.0025 67.4728L96.0308 67.4844L96.2095 67.5594L96.2348 67.5702L96.4135 67.648L96.4357 67.6579L96.6144 67.7384L96.6336 67.7471L96.8123 67.8299L96.8285 67.8374L97.0073 67.9221L97.0205 67.9285L97.1993 68.0148L97.1993 68.0148L97.2096 68.0199L97.3884 68.1075L97.3884 68.1074L97.3958 68.1111L97.5746 68.1997L97.5793 68.202L97.758 68.2911L97.7598 68.292L97.9375 68.3808L97.9385 68.3813L98.1124 68.4681L98.1163 68.47L98.2845 68.5536L98.2912 68.5569L98.4537 68.6368L98.4632 68.6415L98.6262 68.7206L98.7911 68.7992L98.953 68.8747L99.112 68.9469L99.2679 69.0155L99.4207 69.0804L99.5705 69.1414L99.7172 69.1983L99.8607 69.251L100.001 69.2996L100.138 69.3438L100.273 69.3838L100.404 69.4195L100.533 69.4509L100.659 69.4783L100.782 69.5015L100.904 69.5208L101.023 69.5362L101.141 69.5478L101.258 69.5557L101.374 69.5599L101.49 69.5604L101.607 69.5573L101.723 69.5505L101.841 69.5401L101.96 69.5258L102.081 69.5077L102.204 69.4856L102.329 69.4595L102.457 69.4292L102.587 69.3948L102.721 69.3561L102.857 69.3131L102.997 69.2658L103.139 69.2143L103.285 69.1586L103.434 69.0989L103.586 69.0351L103.741 68.9676L103.899 68.8964L104.06 68.8218L104.224 68.7441L104.391 68.6635L104.557 68.5821L104.564 68.5784L104.731 68.496L104.736 68.4936L104.908 68.4077L104.91 68.4069L105.086 68.3184L105.087 68.3179L105.266 68.2287L105.27 68.2268L105.449 68.1381L105.455 68.1348L105.634 68.0469L105.634 68.0469L105.644 68.0422L105.822 67.9555L105.822 67.9555L105.835 67.9495L106.014 67.8643L106.029 67.8571L106.208 67.7737L106.226 67.7653L106.405 67.6841L106.426 67.6746L106.605 67.5959L106.629 67.5854L106.808 67.5095L106.835 67.4981L107.014 67.4254L107.044 67.4132L107.223 67.3439C107.228 67.3421 107.232 67.3403 107.237 67.3385C107.244 67.336 107.25 67.3336 107.257 67.3312L107.435 67.2655C107.441 67.2635 107.446 67.2615 107.452 67.2595C107.459 67.2571 107.465 67.2547 107.472 67.2524L107.651 67.1906C107.664 67.1861 107.677 67.1816 107.691 67.1773L107.87 67.1197C107.884 67.1151 107.898 67.1107 107.912 67.1064L108.091 67.0533C108.106 67.0487 108.122 67.0444 108.137 67.0402L108.316 66.9916C108.332 66.9872 108.348 66.983 108.365 66.979L108.543 66.9353C108.56 66.9311 108.578 66.9271 108.595 66.9234L108.774 66.8846C108.792 66.8807 108.81 66.877 108.828 66.8736L109.006 66.84C109.025 66.8365 109.044 66.8332 109.063 66.8302L109.241 66.8018C109.261 66.7987 109.28 66.7959 109.3 66.7934L109.478 66.7704C109.498 66.7678 109.518 66.7656 109.538 66.7636L109.717 66.746C109.738 66.744 109.758 66.7424 109.778 66.741L109.957 66.729C109.978 66.7276 109.999 66.7265 110.019 66.7257L110.198 66.7193C110.219 66.7186 110.24 66.7181 110.261 66.718L110.44 66.7172C110.46 66.7171 110.481 66.7173 110.502 66.7179L110.681 66.7227C110.702 66.7232 110.723 66.7241 110.743 66.7253L110.922 66.7357C110.943 66.7369 110.963 66.7384 110.984 66.7402L111.162 66.7561C111.183 66.7579 111.203 66.76 111.223 66.7625L111.402 66.7839C111.421 66.7862 111.441 66.7889 111.46 66.7918L111.639 66.8186C111.658 66.8215 111.677 66.8246 111.696 66.828L111.875 66.8601C111.893 66.8634 111.911 66.8669 111.93 66.8707L112.108 66.908C112.126 66.9117 112.143 66.9156 112.161 66.9197L112.339 66.962C112.356 66.9659 112.372 66.97 112.389 66.9744L112.568 67.0216C112.583 67.0257 112.599 67.03 112.614 67.0345L112.793 67.0863C112.808 67.0906 112.822 67.095 112.837 67.0996L113.016 67.1559C113.029 67.1602 113.043 67.1646 113.056 67.1692L113.235 67.2298C113.248 67.2341 113.26 67.2384 113.273 67.243L113.452 67.3075C113.458 67.31 113.465 67.3125 113.472 67.315C113.477 67.3168 113.481 67.3185 113.486 67.3204L113.665 67.3887L113.696 67.401L113.875 67.4728L113.903 67.4844L114.082 67.5594L114.107 67.5702L114.286 67.648L114.308 67.6579L114.487 67.7383L114.506 67.7471L114.685 67.8299L114.701 67.8375L114.88 67.9222L114.893 67.9285L115.072 68.0148L115.072 68.0148L115.082 68.0199L115.261 68.1075L115.268 68.1111L115.447 68.1997L115.452 68.202L115.631 68.2911L115.632 68.292L115.81 68.3809L115.811 68.3813L115.985 68.4681L115.989 68.4701L116.157 68.5536L116.164 68.5569L116.326 68.6368L116.336 68.6415L116.493 68.7176L116.505 68.7236L116.664 68.7992L116.826 68.8747L116.985 68.9469L117.14 69.0155L117.293 69.0804L117.443 69.1414L117.59 69.1983L117.733 69.251L117.874 69.2996L118.011 69.3438L118.145 69.3838L118.277 69.4195L118.405 69.451L118.531 69.4783L118.655 69.5015L118.776 69.5208L118.896 69.5362L119.014 69.5478L119.131 69.5557L119.247 69.5599L119.363 69.5604L119.479 69.5573L119.596 69.5505L119.714 69.5401L119.833 69.5258L119.953 69.5077L120.076 69.4856L120.202 69.4595L120.329 69.4292L120.46 69.3948L120.593 69.3561L120.73 69.3131L120.869 69.2658L121.012 69.2143L121.158 69.1586L121.306 69.0989L121.458 69.0351L121.613 68.9676L121.771 68.8964L121.932 68.8218L122.09 68.7473L122.103 68.741L122.258 68.666L122.269 68.661L122.429 68.5821L122.437 68.5784L122.603 68.496L122.608 68.4936L122.78 68.4077L122.782 68.4069L122.959 68.3184L122.96 68.3179L123.139 68.2287L123.143 68.2268L123.321 68.1381L123.328 68.1348L123.507 68.0469L123.516 68.0422L123.695 67.9555L123.695 67.9555L123.707 67.9495L123.886 67.8643L123.901 67.8571L124.08 67.7737L124.098 67.7653L124.277 67.6841L124.298 67.6746L124.477 67.5959L124.502 67.5854L124.68 67.5095L124.708 67.4981L124.886 67.4254L124.917 67.4132L125.096 67.3439C125.102 67.3414 125.108 67.339 125.115 67.3366C125.12 67.3348 125.124 67.333 125.129 67.3312L125.308 67.2655C125.32 67.261 125.332 67.2566 125.345 67.2524L125.523 67.1906L125.534 67.1869L125.563 67.1773L125.742 67.1197C125.756 67.1151 125.771 67.1107 125.785 67.1064L125.964 67.0533C125.979 67.0487 125.994 67.0444 126.01 67.0402L126.188 66.9916C126.205 66.9872 126.221 66.983 126.237 66.979L126.416 66.9353C126.427 66.9326 126.438 66.93 126.449 66.9275C126.455 66.9261 126.461 66.9247 126.467 66.9234L126.646 66.8846C126.664 66.8807 126.682 66.877 126.7 66.8736L126.879 66.84C126.898 66.8365 126.916 66.8332 126.935 66.8302L127.114 66.8018C127.133 66.7987 127.153 66.7959 127.172 66.7934L127.351 66.7704C127.371 66.7678 127.391 66.7656 127.411 66.7636L127.59 66.746C127.61 66.744 127.631 66.7424 127.651 66.741L127.83 66.729C127.85 66.7276 127.871 66.7265 127.892 66.7257L128.071 66.7193C128.092 66.7186 128.112 66.7181 128.133 66.718L128.312 66.7172L128.312 66.7178L128.447 66.7172C128.468 66.7171 128.489 66.7173 128.51 66.7179L128.688 66.7227C128.709 66.7232 128.73 66.7241 128.751 66.7253L128.929 66.7357C128.95 66.7369 128.97 66.7384 128.991 66.7402L129.17 66.7561C129.19 66.7579 129.21 66.76 129.23 66.7625L129.409 66.7839C129.429 66.7862 129.448 66.7889 129.468 66.7918L129.646 66.8186C129.665 66.8215 129.684 66.8246 129.703 66.828L129.882 66.8601C129.9 66.8634 129.919 66.8669 129.937 66.8707L130.116 66.908C130.133 66.9117 130.15 66.9156 130.168 66.9197L130.347 66.962C130.363 66.9659 130.38 66.97 130.396 66.9744L130.575 67.0216C130.591 67.0257 130.606 67.03 130.622 67.0345L130.8 67.0863C130.815 67.0906 130.83 67.095 130.844 67.0996L131.023 67.1559C131.037 67.1602 131.05 67.1646 131.064 67.1692L131.242 67.2298C131.255 67.234 131.268 67.2384 131.28 67.243L131.459 67.3075C131.47 67.3117 131.482 67.316 131.493 67.3204L131.672 67.3887L131.704 67.401L131.882 67.4728L131.911 67.4844L132.089 67.5594L132.115 67.5702L132.293 67.648L132.316 67.6579L132.494 67.7383L132.513 67.7471L132.692 67.8299L132.708 67.8374L132.887 67.9222L132.9 67.9285L133.079 68.0148L133.079 68.0148L133.089 68.0199L133.268 68.1074L133.276 68.1111L133.454 68.1997L133.459 68.202L133.638 68.2911L133.64 68.292L133.817 68.3808L133.818 68.3813L133.992 68.4681L133.996 68.47L134.168 68.5552L134.338 68.6391L134.506 68.7206L134.671 68.7992L134.833 68.8747L134.992 68.9469L135.148 69.0155L135.301 69.0804L135.45 69.1414L135.597 69.1983L135.741 69.251L135.881 69.2996L136.018 69.3438L136.153 69.3838L136.284 69.4195L136.413 69.451L136.538 69.4783L136.662 69.5015L136.783 69.5208L136.903 69.5362L137.021 69.5478L137.138 69.5557L137.254 69.5599L137.37 69.5604L137.486 69.5573L137.603 69.5505L137.721 69.5401L137.84 69.5258L137.961 69.5077L138.084 69.4856L138.209 69.4595L138.337 69.4292L138.467 69.3948L138.601 69.3561L138.737 69.3131L138.876 69.2658L139.019 69.2143L139.165 69.1586L139.314 69.0989L139.466 69.0351L139.621 68.9676L139.779 68.8964L139.94 68.8218L140.104 68.7441L140.271 68.6635L140.44 68.5802L140.611 68.4959L140.615 68.4936L140.788 68.4078L140.789 68.4068L140.966 68.3184L140.967 68.3179L141.146 68.2287L141.15 68.2268L141.329 68.1381L141.335 68.1348L141.514 68.0469L141.523 68.0422L141.702 67.9555L141.715 67.9495L141.893 67.8643L141.909 67.8571L142.087 67.7737L142.106 67.7653L142.284 67.6841L142.306 67.6746L142.484 67.5959L142.509 67.5854L142.688 67.5095L142.715 67.4981L142.894 67.4254L142.924 67.4132L143.103 67.3439C143.114 67.3395 143.125 67.3353 143.137 67.3312L143.315 67.2655C143.327 67.261 143.34 67.2566 143.352 67.2524L143.531 67.1906C143.544 67.1861 143.557 67.1816 143.571 67.1773L143.749 67.1197C143.764 67.1151 143.778 67.1107 143.792 67.1064L143.971 67.0533C143.986 67.0487 144.002 67.0444 144.017 67.0402L144.196 66.9916C144.212 66.9872 144.228 66.983 144.244 66.979L144.423 66.9353C144.44 66.9311 144.457 66.9271 144.475 66.9234L144.653 66.8846C144.671 66.8807 144.689 66.877 144.707 66.8736L144.886 66.84C144.905 66.8365 144.924 66.8332 144.942 66.8302L145.121 66.8018C145.141 66.7987 145.16 66.7959 145.18 66.7934L145.358 66.7704C145.378 66.7678 145.398 66.7656 145.418 66.7636L145.597 66.746C145.617 66.744 145.638 66.7424 145.658 66.741L145.837 66.729C145.858 66.7276 145.878 66.7265 145.899 66.7257L146.078 66.7193C146.099 66.7186 146.12 66.7181 146.141 66.718L146.319 66.7172C146.332 66.7171 146.344 66.7172 146.356 66.7174C146.365 66.7175 146.373 66.7177 146.382 66.7179L146.561 66.7227C146.582 66.7232 146.602 66.7241 146.623 66.7253L146.802 66.7357C146.823 66.7369 146.843 66.7384 146.864 66.7402L147.042 66.7561C147.062 66.7579 147.083 66.76 147.103 66.7625L147.281 66.7839C147.301 66.7862 147.321 66.7889 147.34 66.7918L147.519 66.8186C147.538 66.8215 147.557 66.8246 147.576 66.828L147.755 66.8601C147.773 66.8634 147.791 66.8669 147.809 66.8707L147.988 66.908C148.006 66.9117 148.023 66.9156 148.04 66.9197L148.219 66.962C148.236 66.9659 148.252 66.97 148.269 66.9744L148.447 67.0216C148.463 67.0257 148.479 67.03 148.494 67.0345L148.673 67.0863C148.688 67.0906 148.702 67.095 148.717 67.0996L148.896 67.1559C148.909 67.1602 148.923 67.1646 148.936 67.1692L149.115 67.2298C149.123 67.2326 149.131 67.2354 149.14 67.2383C149.144 67.2398 149.148 67.2414 149.153 67.243L149.331 67.3075C149.343 67.3117 149.355 67.316 149.366 67.3204L149.545 67.3887L149.576 67.401L149.755 67.4728L149.783 67.4844L149.962 67.5594L149.987 67.5702L150.166 67.648L150.188 67.6579L150.367 67.7384L150.386 67.7471L150.565 67.8299L150.581 67.8374L150.76 67.9221L150.773 67.9285L150.952 68.0148L150.962 68.0199L151.141 68.1074L151.148 68.1111L151.327 68.1997L151.332 68.202L151.51 68.2911L151.512 68.292L151.69 68.3808L151.691 68.3813L151.865 68.4681L151.869 68.47L152.037 68.5536L152.044 68.5569L152.206 68.6368L152.216 68.6415L152.379 68.7206L152.544 68.7992L152.705 68.8747L152.864 68.9469L153.02 69.0155L153.173 69.0804L153.323 69.1414L153.47 69.1983L153.613 69.251L153.754 69.2996L153.891 69.3438L154.025 69.3838L154.157 69.4195L154.285 69.451L154.411 69.4783L154.535 69.5015L154.656 69.5208L154.776 69.5362L154.894 69.5478L155.011 69.5557L155.127 69.5599L155.274 69.5606L155.256 73.5605L155.077 73.5597C155.056 73.5596 155.035 73.5592 155.014 73.5584L154.835 73.552C154.815 73.5512 154.794 73.5502 154.773 73.5488L154.595 73.5368C154.574 73.5354 154.554 73.5337 154.533 73.5317L154.355 73.5141C154.335 73.5122 154.315 73.5099 154.295 73.5073L154.116 73.4843C154.096 73.4818 154.077 73.479 154.058 73.4759L153.879 73.4475C153.86 73.4445 153.841 73.4413 153.822 73.4377L153.644 73.4041C153.626 73.4007 153.608 73.397 153.59 73.3931L153.411 73.3544C153.394 73.3506 153.377 73.3467 153.359 73.3425L153.181 73.2987C153.164 73.2947 153.148 73.2905 153.132 73.2861L152.953 73.2375C152.938 73.2334 152.923 73.229 152.907 73.2245L152.729 73.1713C152.714 73.167 152.7 73.1626 152.686 73.158L152.507 73.1004C152.494 73.0961 152.48 73.0917 152.467 73.0871L152.288 73.0253C152.276 73.0211 152.264 73.0167 152.252 73.0122L152.073 72.9465C152.062 72.9424 152.05 72.9382 152.039 72.9338L151.86 72.8645L151.83 72.8524L151.651 72.7796L151.624 72.7682L151.445 72.6923L151.421 72.6818L151.242 72.6031L151.221 72.5936L151.042 72.5124L151.024 72.504L150.845 72.4206L150.83 72.4134L150.651 72.3282L150.651 72.3282L150.639 72.3222L150.46 72.2355L150.45 72.2308L150.272 72.1429L150.265 72.1396L150.086 72.0509L150.082 72.049L149.904 71.9598L149.903 71.9593L149.726 71.8709L149.724 71.87L149.552 71.7841L149.547 71.7818L149.38 71.6993L149.373 71.6956L149.207 71.6142L149.04 71.5336L148.876 71.4559L148.715 71.3813L148.557 71.3102L148.402 71.2426L148.25 71.1789L148.101 71.1191L147.955 71.0634L147.813 71.0119L147.673 70.9646L147.537 70.9217L147.403 70.883L147.273 70.8485L147.145 70.8183L147.02 70.7921L146.897 70.7701L146.776 70.7519L146.657 70.7377L146.539 70.7272L146.423 70.7204L146.307 70.7173L146.191 70.7178L146.074 70.722L145.957 70.7299L145.839 70.7415L145.72 70.7569L145.598 70.7762L145.475 70.7994L145.349 70.8268L145.22 70.8583L145.089 70.894L144.955 70.9339L144.817 70.9782L144.677 71.0267L144.533 71.0794L144.387 71.1364L144.237 71.1973L144.084 71.2622L143.928 71.3308L143.769 71.403L143.607 71.4786L143.442 71.5572L143.275 71.6386L143.107 71.7209L143.101 71.7241L142.932 71.8077L142.929 71.8096L142.755 71.8964L142.754 71.8969L142.576 71.9857L142.574 71.9866L142.395 72.0757L142.391 72.0781L142.212 72.1666L142.204 72.1703L142.026 72.2579L142.015 72.2629L141.837 72.3492L141.823 72.3556L141.645 72.4403L141.628 72.4479L141.45 72.5306L141.431 72.5394L141.252 72.6199L141.23 72.6297L141.051 72.7076L141.026 72.7184L140.847 72.7933L140.819 72.805L140.64 72.8767L140.608 72.8891L140.43 72.9574C140.418 72.9618 140.407 72.966 140.395 72.9702L140.216 73.0348C140.204 73.0393 140.191 73.0437 140.179 73.0479L140 73.1085C139.986 73.1131 139.973 73.1175 139.959 73.1218L139.781 73.1781C139.766 73.1827 139.751 73.1871 139.737 73.1914L139.558 73.2432C139.542 73.2477 139.527 73.252 139.511 73.2562L139.332 73.3033C139.316 73.3077 139.299 73.3118 139.283 73.3157L139.104 73.3581C139.087 73.3622 139.069 73.3661 139.052 73.3697L138.873 73.407C138.855 73.4108 138.837 73.4143 138.818 73.4176L138.64 73.4497C138.621 73.4531 138.602 73.4563 138.583 73.4591L138.404 73.4859C138.384 73.4889 138.365 73.4915 138.345 73.4939L138.166 73.5153C138.146 73.5177 138.126 73.5198 138.106 73.5216L137.927 73.5375C137.907 73.5393 137.886 73.5408 137.866 73.542L137.687 73.5524C137.666 73.5536 137.645 73.5545 137.625 73.5551L137.446 73.5598C137.425 73.5604 137.404 73.5606 137.383 73.5605L137.204 73.5597C137.183 73.5596 137.163 73.5592 137.142 73.5584L136.963 73.552C136.942 73.5512 136.921 73.5502 136.901 73.5488L136.722 73.5368C136.702 73.5354 136.681 73.5337 136.661 73.5317L136.482 73.5141C136.462 73.5122 136.442 73.5099 136.422 73.5073L136.243 73.4843C136.224 73.4818 136.204 73.479 136.185 73.4759L136.006 73.4475C135.987 73.4445 135.969 73.4413 135.95 73.4377L135.771 73.4041C135.753 73.4007 135.735 73.397 135.717 73.3931L135.538 73.3544C135.521 73.3506 135.504 73.3467 135.487 73.3425L135.308 73.2987C135.292 73.2947 135.276 73.2905 135.259 73.2861L135.081 73.2375C135.065 73.2334 135.05 73.229 135.035 73.2245L134.856 73.1713C134.842 73.167 134.827 73.1626 134.813 73.158L134.634 73.1004C134.621 73.0961 134.608 73.0917 134.594 73.0871L134.416 73.0253C134.403 73.0211 134.391 73.0167 134.379 73.0122L134.2 72.9465C134.189 72.9424 134.178 72.9382 134.167 72.9338L133.988 72.8645L133.957 72.8523L133.779 72.7796L133.751 72.7682L133.573 72.6923L133.548 72.6818L133.369 72.6031L133.348 72.5936L133.169 72.5124L133.151 72.504L132.972 72.4206L132.957 72.4134L132.778 72.3282L132.778 72.3282L132.766 72.3222L132.587 72.2355L132.587 72.2355L132.578 72.2308L132.399 72.1429L132.392 72.1396L132.214 72.0509L132.21 72.049L132.031 71.9598L132.03 71.9593L131.853 71.8709L131.851 71.87L131.677 71.7829L131.504 71.6974L131.334 71.6142L131.167 71.5336L131.003 71.4559L130.842 71.3813L130.684 71.3102L130.529 71.2426L130.377 71.1789L130.229 71.1191L130.083 71.0634L129.94 71.0119L129.801 70.9646L129.664 70.9217L129.531 70.883L129.4 70.8485L129.272 70.8183L129.147 70.7921L129.024 70.7701L128.904 70.7519L128.785 70.7377L128.667 70.7272L128.55 70.7204L128.434 70.7173L128.287 70.718L128.287 70.7174L128.183 70.7178L128.067 70.722L127.95 70.7299L127.832 70.7415L127.712 70.7569L127.591 70.7762L127.468 70.7994L127.342 70.8268L127.213 70.8583L127.082 70.894L126.947 70.9339L126.81 70.9782L126.67 71.0267L126.526 71.0794L126.379 71.1364L126.23 71.1973L126.077 71.2622L125.921 71.3309L125.762 71.403L125.6 71.4786L125.441 71.5542L125.429 71.5601L125.272 71.6362L125.263 71.6409L125.1 71.7209L125.093 71.7241L124.925 71.8077L124.921 71.8096L124.747 71.8964L124.746 71.8969L124.569 71.9857L124.567 71.9866L124.388 72.0757L124.383 72.0781L124.205 72.1666L124.197 72.1703L124.019 72.2579L124.019 72.2579L124.008 72.2629L123.829 72.3492L123.816 72.3556L123.637 72.4403L123.621 72.4479L123.442 72.5306L123.423 72.5394L123.245 72.6199L123.222 72.6297L123.044 72.7076L123.018 72.7184L122.84 72.7933L122.811 72.805L122.633 72.8767L122.601 72.8891L122.422 72.9574C122.411 72.9618 122.399 72.966 122.388 72.9702L122.209 73.0348C122.197 73.0393 122.184 73.0437 122.172 73.0479L121.993 73.1085C121.979 73.1131 121.966 73.1175 121.952 73.1218L121.773 73.1781C121.759 73.1827 121.744 73.1871 121.729 73.1914L121.551 73.2432C121.535 73.2477 121.52 73.252 121.504 73.2562L121.325 73.3033C121.309 73.3077 121.292 73.3118 121.276 73.3158L121.097 73.3581C121.08 73.3622 121.062 73.3661 121.045 73.3697L120.866 73.407C120.848 73.4108 120.829 73.4143 120.811 73.4176L120.632 73.4497C120.613 73.4531 120.594 73.4563 120.575 73.4591L120.397 73.4859C120.377 73.4889 120.358 73.4915 120.338 73.4939L120.159 73.5153C120.139 73.5177 120.119 73.5198 120.099 73.5216L119.92 73.5375C119.9 73.5393 119.879 73.5408 119.858 73.542L119.68 73.5524C119.659 73.5536 119.638 73.5545 119.617 73.5551L119.439 73.5598C119.418 73.5604 119.397 73.5606 119.376 73.5605L119.197 73.5597C119.176 73.5596 119.155 73.5592 119.134 73.5584L118.956 73.552C118.935 73.5512 118.914 73.5502 118.893 73.5488L118.715 73.5368C118.694 73.5354 118.674 73.5337 118.653 73.5317L118.475 73.5141C118.455 73.5122 118.435 73.5099 118.415 73.5073L118.236 73.4843C118.216 73.4818 118.197 73.479 118.178 73.4759L117.999 73.4475C117.98 73.4445 117.961 73.4413 117.943 73.4377L117.764 73.4041C117.746 73.4007 117.728 73.397 117.71 73.3931L117.531 73.3544C117.514 73.3506 117.497 73.3467 117.48 73.3425L117.301 73.2987C117.285 73.2947 117.268 73.2905 117.252 73.2861L117.073 73.2375C117.058 73.2334 117.043 73.229 117.027 73.2245L116.849 73.1713C116.834 73.167 116.82 73.1626 116.806 73.158L116.627 73.1004C116.614 73.0961 116.6 73.0917 116.587 73.0871L116.408 73.0253C116.396 73.0211 116.384 73.0167 116.372 73.0122L116.193 72.9465C116.182 72.9424 116.171 72.9382 116.159 72.9338L115.981 72.8645L115.95 72.8524L115.771 72.7796L115.744 72.7682L115.565 72.6923L115.541 72.6818L115.362 72.6031L115.341 72.5936L115.162 72.5124L115.144 72.504L114.965 72.4206L114.95 72.4134L114.771 72.3282L114.771 72.3282L114.759 72.3222L114.58 72.2355L114.57 72.2308L114.392 72.1429L114.385 72.1396L114.206 72.0509L114.202 72.049L114.024 71.9598L114.023 71.9593L113.846 71.8709L113.844 71.87L113.672 71.7841L113.667 71.7818L113.501 71.6993L113.493 71.6956L113.332 71.6167L113.322 71.6117L113.167 71.5368L113.154 71.5304L112.996 71.4559L112.835 71.3814L112.677 71.3102L112.522 71.2426L112.37 71.1789L112.221 71.1191L112.076 71.0634L111.933 71.0119L111.793 70.9646L111.657 70.9217L111.524 70.883L111.393 70.8485L111.265 70.8183L111.14 70.7921L111.017 70.7701L110.896 70.7519L110.777 70.7377L110.66 70.7272L110.543 70.7204L110.427 70.7173L110.311 70.7178L110.194 70.722L110.078 70.7299L109.959 70.7415L109.84 70.7569L109.718 70.7762L109.595 70.7994L109.469 70.8268L109.34 70.8583L109.209 70.894L109.075 70.9339L108.937 70.9782L108.797 71.0267L108.653 71.0794L108.507 71.1363L108.357 71.1973L108.204 71.2622L108.048 71.3308L107.889 71.403L107.727 71.4786L107.569 71.5542L107.556 71.5601L107.4 71.6362L107.39 71.6409L107.227 71.7209L107.221 71.7241L107.053 71.8077L107.049 71.8096L106.875 71.8964L106.874 71.8969L106.696 71.9857L106.694 71.9866L106.516 72.0757L106.511 72.0781L106.332 72.1666L106.332 72.1666L106.325 72.1703L106.146 72.2579L106.146 72.2579L106.136 72.2629L105.957 72.3492L105.944 72.3556L105.765 72.4403L105.749 72.4479L105.57 72.5306L105.551 72.5394L105.372 72.6199L105.35 72.6297L105.171 72.7076L105.146 72.7184L104.967 72.7933L104.939 72.805L104.76 72.8767L104.729 72.8891L104.55 72.9574C104.538 72.9618 104.527 72.966 104.515 72.9702L104.337 73.0348C104.324 73.0393 104.312 73.0437 104.299 73.0479L104.12 73.1085C104.107 73.1131 104.093 73.1175 104.079 73.1218L103.901 73.1781C103.886 73.1827 103.872 73.1871 103.857 73.1914L103.678 73.2432C103.663 73.2477 103.647 73.252 103.631 73.2562L103.453 73.3033C103.436 73.3077 103.42 73.3118 103.403 73.3158L103.224 73.3581C103.207 73.3622 103.189 73.3661 103.172 73.3697L102.993 73.407C102.975 73.4108 102.957 73.4143 102.939 73.4176L102.76 73.4497C102.741 73.4531 102.722 73.4563 102.703 73.4591L102.524 73.4859C102.505 73.4889 102.485 73.4915 102.465 73.4939L102.287 73.5153C102.266 73.5177 102.246 73.5198 102.226 73.5216L102.047 73.5375C102.027 73.5393 102.006 73.5408 101.986 73.542L101.807 73.5524C101.786 73.5536 101.766 73.5545 101.745 73.5551L101.566 73.5598C101.545 73.5604 101.524 73.5606 101.503 73.5605L101.324 73.5597C101.304 73.5596 101.283 73.5592 101.262 73.5584L101.083 73.552C101.062 73.5512 101.042 73.5502 101.021 73.5488L100.842 73.5368C100.822 73.5354 100.801 73.5337 100.781 73.5317L100.602 73.5141C100.582 73.5122 100.562 73.5099 100.542 73.5073L100.363 73.4843C100.344 73.4818 100.324 73.479 100.305 73.4759L100.126 73.4475C100.108 73.4445 100.089 73.4413 100.07 73.4377L99.8913 73.4041C99.8732 73.4007 99.8552 73.397 99.8373 73.3931L99.6585 73.3544C99.6413 73.3506 99.6242 73.3467 99.607 73.3425L99.4283 73.2987C99.412 73.2947 99.3957 73.2905 99.3795 73.2861L99.2008 73.2375C99.1854 73.2334 99.1701 73.229 99.1549 73.2245L98.9762 73.1713C98.9618 73.167 98.9475 73.1626 98.9332 73.158L98.7545 73.1004C98.7411 73.0961 98.7279 73.0917 98.7146 73.0871L98.5359 73.0253C98.5236 73.0211 98.5113 73.0167 98.4991 73.0122L98.3204 72.9465C98.3092 72.9424 98.2979 72.9382 98.2868 72.9338L98.108 72.8645L98.0775 72.8524L97.8988 72.7796L97.8714 72.7682L97.6927 72.6923L97.6683 72.6818L97.4896 72.6031L97.4683 72.5936L97.2896 72.5124L97.2713 72.504L97.0926 72.4206L97.0772 72.4134L96.8985 72.3282L96.8985 72.3282L96.8861 72.3222L96.7074 72.2355L96.7074 72.2355L96.6978 72.2308L96.5191 72.1429L96.5125 72.1396L96.3337 72.0509L96.3299 72.049L96.1512 71.9598L96.1502 71.9593L95.9733 71.8709L95.9715 71.87L95.7992 71.7841L95.7946 71.7818L95.628 71.6993L95.6205 71.6956L95.4545 71.6142L95.2876 71.5336L95.1236 71.4559L94.9625 71.3813L94.8045 71.3102L94.6494 71.2426L94.4975 71.1789L94.3487 71.1191L94.2029 71.0634L94.0603 71.0119L93.9208 70.9646L93.7844 70.9217L93.651 70.883L93.5204 70.8485L93.3927 70.8183L93.2674 70.7921L93.1446 70.7701L93.0237 70.7519L92.9047 70.7377L92.787 70.7272L92.6702 70.7204L92.5541 70.7173L92.4381 70.7178L92.3219 70.722L92.2049 70.7299L92.0869 70.7415L91.9673 70.7569L91.8459 70.7762L91.7223 70.7994L91.5964 70.8268L91.4678 70.8583L91.3364 70.894L91.2022 70.9339L91.0648 70.9782L90.9244 71.0267L90.7809 71.0794L90.6342 71.1363L90.4845 71.1973L90.3316 71.2622L90.1757 71.3308L90.0167 71.4031L89.8548 71.4786L89.69 71.5572L89.5222 71.6386L89.3549 71.7209L89.3482 71.7241L89.18 71.8077L89.1761 71.8096L89.0022 71.8964L89.0012 71.8969L88.8235 71.9857L88.8217 71.9866L88.643 72.0757L88.6383 72.0781L88.4596 72.1666L88.4596 72.1666L88.4521 72.1703L88.2733 72.2579L88.2734 72.2579L88.263 72.2629L88.0842 72.3492L88.071 72.3556L87.8922 72.4403L87.876 72.4479L87.6973 72.5306L87.6781 72.5394L87.4994 72.6199L87.4772 72.6297L87.2985 72.7076L87.2733 72.7184L87.0945 72.7933L87.0662 72.805L86.8875 72.8767L86.856 72.8891L86.6773 72.9574C86.6658 72.9618 86.6543 72.966 86.6428 72.9702L86.464 73.0348C86.4515 73.0393 86.439 73.0437 86.4263 73.0479L86.2476 73.1085C86.2341 73.1131 86.2205 73.1175 86.2068 73.1218L86.0281 73.1781C86.0136 73.1827 85.9989 73.1871 85.9843 73.1914L85.8056 73.2432C85.79 73.2477 85.7744 73.252 85.7588 73.2562L85.58 73.3033C85.5636 73.3077 85.547 73.3118 85.5305 73.3157L85.3517 73.3581C85.3343 73.3622 85.3169 73.3661 85.2994 73.3697L85.1207 73.407C85.1025 73.4108 85.0843 73.4143 85.066 73.4176L84.8872 73.4497C84.8683 73.4531 84.8493 73.4563 84.8303 73.4591L84.6516 73.4859C84.632 73.4889 84.6124 73.4915 84.5927 73.4939L84.414 73.5153C84.3939 73.5177 84.3738 73.5198 84.3536 73.5216L84.1749 73.5375C84.1544 73.5393 84.1338 73.5408 84.1133 73.542L83.9345 73.5524C83.9137 73.5536 83.8929 73.5545 83.8721 73.5551L83.6934 73.5598Z" fill="#FDFFFC"/>
<path fill-rule="evenodd" clip-rule="evenodd" d="M137.446 84.7789C137.425 84.7795 137.404 84.7797 137.383 84.7796L137.204 84.7788C137.183 84.7787 137.163 84.7783 137.142 84.7775L136.963 84.7711C136.942 84.7704 136.921 84.7693 136.901 84.7679L136.722 84.7559C136.702 84.7545 136.681 84.7528 136.661 84.7508L136.482 84.7332C136.462 84.7313 136.442 84.729 136.422 84.7264L136.243 84.7034C136.224 84.7009 136.204 84.6981 136.185 84.695L136.006 84.6666C135.987 84.6636 135.969 84.6604 135.95 84.6569L135.771 84.6232C135.753 84.6198 135.735 84.6162 135.717 84.6123L135.538 84.5735C135.521 84.5697 135.504 84.5658 135.487 84.5616L135.308 84.5178C135.292 84.5138 135.276 84.5096 135.259 84.5052L135.081 84.4566C135.065 84.4525 135.05 84.4481 135.035 84.4436L134.856 84.3904C134.842 84.3861 134.827 84.3817 134.813 84.3771L134.634 84.3195C134.621 84.3152 134.608 84.3108 134.594 84.3062L134.416 84.2445C134.403 84.2402 134.391 84.2358 134.379 84.2313L134.2 84.1657C134.189 84.1615 134.178 84.1573 134.167 84.153L133.988 84.0836L133.957 84.0715L133.779 83.9987L133.751 83.9873L133.573 83.9114L133.548 83.9009L133.369 83.8222L133.348 83.8127L133.169 83.7315L133.151 83.7231L132.972 83.6398L132.957 83.6325L132.778 83.5473L132.778 83.5474L132.766 83.5413L132.587 83.4546L132.587 83.4546L132.578 83.45L132.399 83.3621L132.392 83.3588L132.214 83.27L132.21 83.2681L132.031 83.1789L132.03 83.1784L131.853 83.09L131.851 83.0891L131.677 83.0021L131.504 82.9166L131.334 82.8333L131.167 82.7527L131.003 82.675L130.842 82.6005L130.684 82.5293L130.529 82.4617L130.377 82.398L130.229 82.3382L130.083 82.2825L129.94 82.231L129.801 82.1837L129.664 82.1408L129.531 82.1021L129.4 82.0676L129.272 82.0374L129.147 82.0113L129.024 81.9892L128.904 81.9711L128.785 81.9568L128.667 81.9463L128.55 81.9395L128.434 81.9364L128.287 81.9371L128.287 81.9365L128.183 81.937L128.067 81.9411L127.95 81.949L127.832 81.9606L127.712 81.976L127.591 81.9953L127.468 82.0186L127.342 82.0459L127.213 82.0774L127.082 82.1131L126.947 82.153L126.81 82.1973L126.67 82.2458L126.526 82.2985L126.379 82.3555L126.23 82.4164L126.077 82.4813L125.921 82.55L125.762 82.6222L125.6 82.6977L125.441 82.7733L125.429 82.7792L125.272 82.8554L125.263 82.86L125.1 82.94L125.093 82.9433L124.925 83.0268L124.921 83.0287L124.747 83.1155L124.746 83.116L124.569 83.2048L124.567 83.2057L124.388 83.2948L124.383 83.2972L124.205 83.3857L124.197 83.3894L124.019 83.477L124.019 83.477L124.008 83.482L123.829 83.5683L123.816 83.5747L123.637 83.6594L123.621 83.667L123.442 83.7497L123.423 83.7585L123.245 83.839L123.222 83.8488L123.044 83.9267L123.018 83.9375L122.84 84.0125L122.811 84.0241L122.633 84.0959L122.601 84.1082L122.422 84.1765C122.411 84.1809 122.399 84.1852 122.388 84.1893L122.209 84.2539C122.197 84.2584 122.184 84.2628 122.172 84.2671L121.993 84.3276C121.979 84.3322 121.966 84.3366 121.952 84.3409L121.773 84.3972C121.759 84.4018 121.744 84.4062 121.729 84.4105L121.551 84.4623C121.535 84.4668 121.52 84.4712 121.504 84.4753L121.325 84.5225C121.309 84.5268 121.292 84.5309 121.276 84.5349L121.097 84.5772C121.08 84.5813 121.062 84.5852 121.045 84.5888L120.866 84.6261C120.848 84.6299 120.829 84.6334 120.811 84.6367L120.632 84.6688C120.613 84.6722 120.594 84.6754 120.575 84.6782L120.397 84.705C120.377 84.708 120.358 84.7106 120.338 84.713L120.159 84.7344C120.139 84.7368 120.119 84.7389 120.099 84.7407L119.92 84.7566C119.9 84.7584 119.879 84.76 119.858 84.7611L119.68 84.7715C119.659 84.7727 119.638 84.7736 119.617 84.7742L119.439 84.7789C119.418 84.7795 119.397 84.7797 119.376 84.7796L119.197 84.7788C119.176 84.7787 119.155 84.7783 119.134 84.7775L118.956 84.7711C118.935 84.7704 118.914 84.7693 118.893 84.7679L118.715 84.7559C118.694 84.7545 118.674 84.7528 118.653 84.7508L118.475 84.7332C118.455 84.7313 118.435 84.729 118.415 84.7264L118.236 84.7034C118.216 84.7009 118.197 84.6981 118.178 84.695L117.999 84.6666C117.98 84.6636 117.961 84.6604 117.943 84.6569L117.764 84.6232C117.746 84.6198 117.728 84.6162 117.71 84.6123L117.531 84.5735C117.514 84.5697 117.497 84.5658 117.48 84.5616L117.301 84.5178C117.285 84.5138 117.268 84.5096 117.252 84.5052L117.073 84.4566C117.058 84.4525 117.043 84.4481 117.027 84.4436L116.849 84.3904C116.834 84.3861 116.82 84.3817 116.806 84.3771L116.627 84.3195C116.614 84.3152 116.6 84.3108 116.587 84.3062L116.408 84.2445C116.396 84.2402 116.384 84.2358 116.372 84.2314L116.193 84.1657C116.182 84.1615 116.171 84.1573 116.159 84.153L115.981 84.0836L115.95 84.0715L115.771 83.9987L115.744 83.9873L115.565 83.9114L115.541 83.9009L115.362 83.8222L115.341 83.8127L115.162 83.7315L115.144 83.7231L114.965 83.6398L114.95 83.6325L114.771 83.5473L114.771 83.5474L114.759 83.5413L114.58 83.4546L114.57 83.45L114.392 83.3621L114.385 83.3588L114.206 83.27L114.202 83.2681L114.024 83.1789L114.023 83.1784L113.846 83.09L113.844 83.0891L113.672 83.0032L113.667 83.0009L113.501 82.9184L113.493 82.9147L113.332 82.8359L113.322 82.8308L113.167 82.7559L113.154 82.7495L112.996 82.675L112.835 82.6005L112.677 82.5293L112.522 82.4617L112.37 82.398L112.221 82.3382L112.076 82.2825L111.933 82.231L111.793 82.1837L111.657 82.1408L111.524 82.1021L111.393 82.0676L111.265 82.0374L111.14 82.0113L111.017 81.9892L110.896 81.9711L110.777 81.9568L110.66 81.9463L110.543 81.9395L110.427 81.9364L110.311 81.937L110.194 81.9411L110.078 81.949L109.959 81.9606L109.84 81.976L109.718 81.9953L109.595 82.0186L109.469 82.0459L109.34 82.0774L109.209 82.1131L109.075 82.153L108.937 82.1973L108.797 82.2458L108.653 82.2985L108.507 82.3555L108.357 82.4164L108.204 82.4813L108.048 82.55L107.889 82.6222L107.727 82.6977L107.569 82.7733L107.556 82.7792L107.4 82.8554L107.39 82.86L107.227 82.94L107.221 82.9433L107.053 83.0268L107.049 83.0287L106.875 83.1155L106.874 83.116L106.696 83.2048L106.694 83.2057L106.516 83.2948L106.511 83.2972L106.332 83.3857L106.332 83.3857L106.325 83.3894L106.146 83.477L106.146 83.477L106.136 83.482L105.957 83.5683L105.944 83.5747L105.765 83.6594L105.749 83.667L105.57 83.7497L105.551 83.7585L105.372 83.839L105.35 83.8488L105.171 83.9267L105.146 83.9375L104.967 84.0125L104.939 84.0241L104.76 84.0959L104.729 84.1082L104.55 84.1765C104.538 84.1809 104.527 84.1852 104.515 84.1893L104.337 84.2539C104.324 84.2584 104.312 84.2628 104.299 84.2671L104.12 84.3276C104.107 84.3322 104.093 84.3366 104.079 84.3409L103.901 84.3972C103.886 84.4018 103.872 84.4062 103.857 84.4105L103.678 84.4623C103.663 84.4668 103.647 84.4712 103.631 84.4753L103.453 84.5225C103.436 84.5268 103.42 84.5309 103.403 84.5349L103.224 84.5772C103.207 84.5813 103.189 84.5852 103.172 84.5888L102.993 84.6261C102.975 84.6299 102.957 84.6334 102.939 84.6367L102.76 84.6688C102.741 84.6722 102.722 84.6754 102.703 84.6782L102.524 84.705C102.505 84.708 102.485 84.7106 102.465 84.713L102.287 84.7344C102.266 84.7368 102.246 84.7389 102.226 84.7407L102.047 84.7566C102.027 84.7584 102.006 84.76 101.986 84.7611L101.807 84.7715C101.786 84.7727 101.766 84.7736 101.745 84.7742L101.566 84.7789C101.545 84.7795 101.524 84.7797 101.503 84.7796L101.324 84.7788C101.304 84.7787 101.283 84.7783 101.262 84.7775L101.083 84.7711C101.062 84.7704 101.042 84.7693 101.021 84.7679L100.842 84.7559C100.822 84.7545 100.801 84.7528 100.781 84.7508L100.602 84.7332C100.582 84.7313 100.562 84.729 100.542 84.7264L100.363 84.7034C100.344 84.7009 100.324 84.6981 100.305 84.695L100.126 84.6666C100.108 84.6636 100.089 84.6604 100.07 84.6569L99.8913 84.6232C99.8732 84.6198 99.8552 84.6162 99.8373 84.6123L99.6585 84.5735C99.6413 84.5697 99.6242 84.5658 99.607 84.5616L99.4283 84.5178C99.412 84.5138 99.3957 84.5096 99.3795 84.5052L99.2008 84.4566C99.1854 84.4525 99.1701 84.4481 99.1549 84.4436L98.9762 84.3904C98.9618 84.3861 98.9475 84.3817 98.9332 84.3771L98.7545 84.3195C98.7411 84.3152 98.7279 84.3108 98.7146 84.3062L98.5359 84.2445C98.5236 84.2402 98.5113 84.2358 98.4991 84.2314L98.3204 84.1657C98.3092 84.1615 98.2979 84.1573 98.2868 84.153L98.108 84.0836L98.0775 84.0715L97.8988 83.9987L97.8714 83.9873L97.6927 83.9114L97.6683 83.9009L97.4896 83.8222L97.4683 83.8127L97.2896 83.7315L97.2713 83.7231L97.0926 83.6398L97.0772 83.6325L96.8985 83.5473L96.8985 83.5474L96.8861 83.5413L96.7074 83.4546L96.7074 83.4546L96.6978 83.4499L96.5191 83.362L96.5125 83.3588L96.3337 83.27L96.3299 83.2681L96.1512 83.1789L96.1502 83.1784L95.9733 83.09L95.9715 83.0891L95.7992 83.0032L95.7946 83.0009L95.628 82.9184L95.6205 82.9147L95.4545 82.8333L95.2876 82.7528L95.1236 82.675L94.9625 82.6004L94.8045 82.5293L94.6494 82.4617L94.4975 82.398L94.3487 82.3382L94.2029 82.2825L94.0603 82.231L93.9208 82.1837L93.7844 82.1408L93.651 82.1021L93.5204 82.0676L93.3927 82.0374L93.2674 82.0113L93.1446 81.9892L93.0237 81.9711L92.9047 81.9568L92.787 81.9463L92.6702 81.9395L92.5541 81.9364L92.4381 81.937L92.3219 81.9411L92.2049 81.949L92.0869 81.9606L91.9673 81.976L91.8459 81.9953L91.7223 82.0186L91.5964 82.0459L91.4678 82.0774L91.3364 82.1131L91.2022 82.153L91.0648 82.1973L90.9244 82.2458L90.7809 82.2985L90.6342 82.3555L90.4845 82.4164L90.3316 82.4813L90.1757 82.55L90.0167 82.6222L89.8548 82.6977L89.69 82.7763L89.5222 82.8577L89.3549 82.94L89.3482 82.9433L89.18 83.0268L89.1761 83.0287L89.0022 83.1155L89.0012 83.116L88.8235 83.2048L88.8217 83.2057L88.643 83.2949L88.6383 83.2972L88.4596 83.3857L88.4596 83.3857L88.4521 83.3894L88.2733 83.477L88.2734 83.477L88.263 83.482L88.0842 83.5683L88.071 83.5747L87.8922 83.6594L87.876 83.667L87.6973 83.7497L87.6781 83.7585L87.4994 83.839L87.4772 83.8488L87.2985 83.9267L87.2733 83.9375L87.0945 84.0125L87.0662 84.0241L86.8875 84.0959L86.856 84.1082L86.6773 84.1765C86.6658 84.1809 86.6543 84.1852 86.6428 84.1893L86.464 84.2539C86.4515 84.2584 86.439 84.2628 86.4263 84.2671L86.2476 84.3276C86.2341 84.3322 86.2205 84.3366 86.2068 84.3409L86.0281 84.3972C86.0136 84.4018 85.9989 84.4062 85.9843 84.4105L85.8056 84.4623C85.79 84.4668 85.7744 84.4712 85.7588 84.4753L85.58 84.5225C85.5636 84.5268 85.547 84.5309 85.5305 84.5349L85.3517 84.5772C85.3343 84.5813 85.3169 84.5852 85.2994 84.5888L85.1207 84.6261C85.1025 84.6299 85.0843 84.6334 85.066 84.6367L84.8872 84.6688C84.8683 84.6722 84.8493 84.6754 84.8303 84.6782L84.6516 84.705C84.632 84.708 84.6124 84.7106 84.5927 84.713L84.414 84.7344C84.3939 84.7368 84.3738 84.7389 84.3536 84.7407L84.1749 84.7566C84.1544 84.7584 84.1338 84.76 84.1133 84.7611L83.9345 84.7715C83.9137 84.7727 83.8929 84.7736 83.8721 84.7742L83.6934 84.7789C83.6725 84.7795 83.6516 84.7797 83.6306 84.7796L83.4519 84.7788C83.431 84.7787 83.4101 84.7783 83.3892 84.7775L83.2105 84.7711C83.1897 84.7704 83.169 84.7693 83.1483 84.7679L82.9695 84.7559C82.9491 84.7545 82.9287 84.7528 82.9083 84.7508L82.7295 84.7332C82.7095 84.7313 82.6895 84.729 82.6695 84.7264L82.4908 84.7034C82.4713 84.7009 82.4519 84.6981 82.4325 84.695L82.2538 84.6666C82.235 84.6636 82.2162 84.6604 82.1975 84.6569L82.0187 84.6232C82.0007 84.6198 81.9827 84.6162 81.9647 84.6123L81.786 84.5735C81.7687 84.5697 81.7516 84.5658 81.7345 84.5616L81.5557 84.5178C81.5394 84.5138 81.5232 84.5096 81.5069 84.5052L81.3282 84.4566C81.3129 84.4525 81.2975 84.4481 81.2823 84.4436L81.1036 84.3904C81.0892 84.3861 81.0749 84.3817 81.0606 84.3771L80.8819 84.3195C80.8686 84.3152 80.8553 84.3108 80.842 84.3062L80.6633 84.2445C80.651 84.2402 80.6388 84.2358 80.6266 84.2313L80.4478 84.1657C80.4366 84.1615 80.4254 84.1573 80.4142 84.153L80.2355 84.0836L80.205 84.0715L80.0262 83.9987L79.9988 83.9873L79.8201 83.9114L79.7958 83.9009L79.617 83.8222L79.5957 83.8127L79.417 83.7315L79.3987 83.7231L79.22 83.6398L79.2047 83.6325L79.0259 83.5473L79.0259 83.5474L79.0135 83.5413L78.8348 83.4546L78.8348 83.4546L78.8253 83.45L78.6465 83.362L78.6465 83.3621L78.6399 83.3588L78.4612 83.27L78.4612 83.27L78.4573 83.2681L78.2786 83.1789L78.2776 83.1784L78.1007 83.09L78.0989 83.0891L77.9243 83.0021L77.7517 82.9166L77.5819 82.8333L77.415 82.7527L77.251 82.675L77.09 82.6005L76.9319 82.5293L76.7769 82.4617L76.6249 82.398L76.4761 82.3382L76.3303 82.2825L76.1877 82.231L76.0482 82.1837L75.9118 82.1408L75.7784 82.1021L75.6479 82.0676L75.5201 82.0374L75.3949 82.0113L75.272 81.9892L75.1512 81.9711L75.0321 81.9568L74.9144 81.9463L74.7977 81.9395L74.6815 81.9364L74.5342 81.9371L74.5156 77.9371L74.6944 77.9363C74.7153 77.9362 74.7362 77.9365 74.7571 77.937L74.9358 77.9418C74.9567 77.9423 74.9775 77.9432 74.9982 77.9444L75.177 77.9548C75.1975 77.956 75.2181 77.9575 75.2386 77.9593L75.4173 77.9753C75.4375 77.9771 75.4576 77.9792 75.4777 77.9816L75.6564 78.003C75.6761 78.0053 75.6957 78.008 75.7153 78.0109L75.894 78.0377C75.913 78.0406 75.932 78.0437 75.951 78.0471L76.1297 78.0792C76.148 78.0825 76.1662 78.0861 76.1844 78.0899L76.3631 78.1271C76.3806 78.1308 76.3981 78.1347 76.4154 78.1388L76.5942 78.1811C76.6107 78.185 76.6273 78.1892 76.6438 78.1935L76.8225 78.2407C76.8381 78.2448 76.8537 78.2491 76.8693 78.2536L77.048 78.3055C77.0627 78.3097 77.0773 78.3141 77.0918 78.3187L77.2705 78.375C77.2842 78.3793 77.2978 78.3838 77.3113 78.3883L77.4901 78.4489C77.5027 78.4532 77.5152 78.4576 77.5277 78.4621L77.7065 78.5266C77.718 78.5308 77.7295 78.5351 77.741 78.5395L77.9197 78.6078L77.9512 78.6201L78.1299 78.6919L78.1582 78.7035L78.337 78.7785L78.3622 78.7893L78.5409 78.8672L78.5631 78.877L78.7418 78.9575L78.761 78.9662L78.9397 79.049L78.956 79.0566L79.1347 79.1413L79.1479 79.1476L79.3267 79.2339L79.3267 79.2339L79.3371 79.239L79.5158 79.3266L79.5158 79.3266L79.5233 79.3303L79.702 79.4188L79.702 79.4188L79.7067 79.4211L79.8854 79.5102L79.8872 79.5111L80.065 79.6L80.0659 79.6004L80.2399 79.6873L80.2437 79.6892L80.4152 79.7743L80.5859 79.8583L80.7537 79.9397L80.9185 80.0183L81.0804 80.0938L81.2394 80.166L81.3953 80.2346L81.5482 80.2995L81.6979 80.3605L81.8446 80.4174L81.9881 80.4702L82.1285 80.5187L82.2659 80.5629L82.4002 80.6029L82.5315 80.6386L82.6601 80.6701L82.7861 80.6974L82.9096 80.7207L83.031 80.7399L83.1506 80.7554L83.2686 80.7669L83.3856 80.7748L83.5018 80.779L83.6178 80.7795L83.734 80.7764L83.8507 80.7697L83.9684 80.7592L84.0875 80.7449L84.2083 80.7268L84.3312 80.7047L84.4564 80.6786L84.5841 80.6483L84.7147 80.6139L84.8481 80.5752L84.9845 80.5322L85.124 80.485L85.2666 80.4334L85.4124 80.3778L85.5612 80.318L85.7132 80.2542L85.8682 80.1867L86.0263 80.1155L86.1873 80.0409L86.3513 79.9632L86.5181 79.8826L86.688 79.7994L86.8583 79.7151L86.863 79.7127L87.0352 79.6269L87.037 79.626L87.2139 79.5375L87.2149 79.537L87.3936 79.4478L87.3975 79.4459L87.5762 79.3572L87.5762 79.3572L87.5828 79.3539L87.7616 79.266L87.7616 79.266L87.7711 79.2614L87.9498 79.1746L87.9498 79.1746L87.9622 79.1686L88.141 79.0834L88.1563 79.0762L88.335 78.9928L88.3533 78.9844L88.532 78.9032L88.5533 78.8937L88.7321 78.815L88.7564 78.8045L88.9351 78.7286L88.9625 78.7173L89.1412 78.6445L89.1718 78.6324L89.3505 78.563C89.3617 78.5587 89.3729 78.5544 89.3841 78.5503L89.5629 78.4846C89.5751 78.4801 89.5873 78.4758 89.5996 78.4715L89.7783 78.4097C89.7916 78.4052 89.8049 78.4007 89.8182 78.3964L89.9969 78.3389C90.0112 78.3343 90.0255 78.3298 90.0399 78.3256L90.2186 78.2724C90.2338 78.2678 90.2491 78.2635 90.2645 78.2593L90.4432 78.2107C90.4594 78.2063 90.4757 78.2021 90.492 78.1981L90.6707 78.1544C90.6879 78.1502 90.705 78.1462 90.7223 78.1425L90.901 78.1037C90.9189 78.0998 90.937 78.0962 90.955 78.0928L91.1337 78.0591C91.1525 78.0556 91.1712 78.0523 91.1901 78.0493L91.3688 78.0209C91.3882 78.0178 91.4076 78.015 91.4271 78.0125L91.6058 77.9895C91.6258 77.9869 91.6458 77.9847 91.6658 77.9827L91.8445 77.9652C91.8649 77.9632 91.8854 77.9615 91.9058 77.9601L92.0846 77.9481C92.1053 77.9467 92.126 77.9456 92.1468 77.9449L92.3255 77.9384C92.3464 77.9377 92.3673 77.9372 92.3882 77.9371L92.5669 77.9363C92.5879 77.9362 92.6088 77.9365 92.6297 77.937L92.8084 77.9418C92.8292 77.9423 92.85 77.9432 92.8708 77.9444L93.0496 77.9548C93.0701 77.956 93.0906 77.9575 93.1111 77.9593L93.2899 77.9753C93.31 77.9771 93.3302 77.9792 93.3503 77.9816L93.529 78.003C93.5487 78.0053 93.5683 78.008 93.5879 78.0109L93.7666 78.0377C93.7856 78.0406 93.8046 78.0437 93.8235 78.0471L94.0023 78.0792C94.0205 78.0825 94.0388 78.0861 94.057 78.0899L94.2357 78.1271C94.2532 78.1308 94.2706 78.1347 94.288 78.1388L94.4667 78.1811C94.4833 78.185 94.4999 78.1892 94.5163 78.1935L94.6951 78.2407C94.7107 78.2448 94.7263 78.2491 94.7418 78.2536L94.9206 78.3055C94.9352 78.3097 94.9498 78.3141 94.9644 78.3187L95.1431 78.375C95.1568 78.3793 95.1704 78.3838 95.1839 78.3883L95.3626 78.4489C95.3752 78.4532 95.3878 78.4576 95.4003 78.4621L95.579 78.5266C95.5828 78.528 95.5866 78.5294 95.5904 78.5308C95.5981 78.5336 95.6059 78.5365 95.6136 78.5395L95.7923 78.6078L95.8238 78.6201L96.0025 78.6919L96.0308 78.7035L96.2095 78.7785L96.2348 78.7893L96.4135 78.8672L96.4357 78.877L96.6144 78.9575L96.6336 78.9662L96.8123 79.049L96.8285 79.0566L97.0073 79.1413L97.0205 79.1476L97.1993 79.2339L97.1993 79.2339L97.2096 79.239L97.3884 79.3266L97.3884 79.3266L97.3958 79.3303L97.5746 79.4188L97.5793 79.4211L97.758 79.5102L97.7598 79.5111L97.9375 79.6L97.9385 79.6004L98.1124 79.6873L98.1163 79.6892L98.2845 79.7727L98.2912 79.776L98.4537 79.8559L98.4632 79.8606L98.6262 79.9397L98.7911 80.0183L98.953 80.0938L99.112 80.166L99.2679 80.2346L99.4207 80.2995L99.5705 80.3605L99.7172 80.4174L99.8607 80.4702L100.001 80.5187L100.138 80.5629L100.273 80.6029L100.404 80.6386L100.533 80.6701L100.659 80.6974L100.782 80.7207L100.904 80.7399L101.023 80.7554L101.141 80.7669L101.258 80.7748L101.374 80.779L101.49 80.7795L101.607 80.7764L101.723 80.7697L101.841 80.7592L101.96 80.7449L102.081 80.7268L102.204 80.7047L102.329 80.6786L102.457 80.6483L102.587 80.6139L102.721 80.5752L102.857 80.5322L102.997 80.4849L103.139 80.4334L103.285 80.3777L103.434 80.318L103.586 80.2542L103.741 80.1867L103.899 80.1155L104.06 80.0409L104.224 79.9632L104.391 79.8826L104.557 79.8013L104.564 79.7976L104.731 79.7151L104.736 79.7127L104.908 79.6269L104.91 79.626L105.086 79.5375L105.087 79.537L105.266 79.4478L105.27 79.4459L105.449 79.3572L105.455 79.3539L105.634 79.266L105.634 79.266L105.644 79.2613L105.822 79.1746L105.822 79.1746L105.835 79.1687L106.014 79.0834L106.029 79.0762L106.208 78.9928L106.226 78.9844L106.405 78.9032L106.426 78.8937L106.605 78.815L106.629 78.8045L106.808 78.7286L106.835 78.7172L107.014 78.6445L107.044 78.6324L107.223 78.563C107.228 78.5612 107.233 78.5594 107.237 78.5576C107.244 78.5551 107.25 78.5527 107.257 78.5503L107.435 78.4846C107.441 78.4826 107.446 78.4806 107.452 78.4786C107.459 78.4762 107.465 78.4738 107.472 78.4715L107.651 78.4097C107.664 78.4052 107.677 78.4007 107.691 78.3964L107.87 78.3389C107.884 78.3343 107.898 78.3298 107.912 78.3256L108.091 78.2724C108.106 78.2678 108.122 78.2635 108.137 78.2593L108.316 78.2107C108.332 78.2063 108.348 78.2021 108.365 78.1981L108.543 78.1544C108.56 78.1502 108.578 78.1462 108.595 78.1425L108.774 78.1037C108.792 78.0998 108.81 78.0962 108.828 78.0928L109.006 78.0591C109.025 78.0556 109.044 78.0523 109.063 78.0493L109.241 78.0209C109.261 78.0178 109.28 78.015 109.3 78.0125L109.478 77.9895C109.498 77.9869 109.518 77.9847 109.538 77.9827L109.717 77.9652C109.738 77.9632 109.758 77.9615 109.778 77.9601L109.957 77.9481C109.978 77.9467 109.999 77.9456 110.019 77.9449L110.198 77.9384C110.219 77.9377 110.24 77.9372 110.261 77.9371L110.44 77.9363C110.46 77.9362 110.481 77.9365 110.502 77.937L110.681 77.9418C110.702 77.9423 110.723 77.9432 110.743 77.9444L110.922 77.9548C110.943 77.956 110.963 77.9575 110.984 77.9593L111.162 77.9753C111.183 77.9771 111.203 77.9792 111.223 77.9816L111.402 78.003C111.421 78.0053 111.441 78.008 111.46 78.0109L111.639 78.0377C111.658 78.0406 111.677 78.0437 111.696 78.0471L111.875 78.0792C111.893 78.0825 111.911 78.0861 111.93 78.0899L112.108 78.1271C112.126 78.1308 112.143 78.1347 112.161 78.1388L112.339 78.1811C112.356 78.185 112.372 78.1892 112.389 78.1935L112.568 78.2407C112.583 78.2448 112.599 78.2491 112.614 78.2536L112.793 78.3055C112.808 78.3097 112.822 78.3141 112.837 78.3187L113.016 78.375C113.029 78.3793 113.043 78.3838 113.056 78.3883L113.235 78.4489C113.248 78.4532 113.26 78.4576 113.273 78.4621L113.452 78.5266C113.463 78.5308 113.475 78.5351 113.486 78.5395L113.665 78.6078L113.696 78.6201L113.875 78.6919L113.903 78.7035L114.082 78.7785L114.107 78.7893L114.286 78.8672L114.308 78.877L114.487 78.9575L114.506 78.9662L114.685 79.049L114.701 79.0566L114.88 79.1413L114.893 79.1476L115.072 79.2339L115.072 79.2339L115.082 79.239L115.261 79.3266L115.268 79.3303L115.447 79.4188L115.452 79.4211L115.631 79.5102L115.632 79.5111L115.81 79.6L115.811 79.6004L115.985 79.6873L115.989 79.6892L116.157 79.7727L116.164 79.776L116.326 79.8559L116.336 79.8606L116.493 79.9367L116.505 79.9427L116.664 80.0183L116.826 80.0938L116.985 80.166L117.14 80.2346L117.293 80.2995L117.443 80.3605L117.59 80.4174L117.733 80.4702L117.874 80.5187L118.011 80.5629L118.145 80.6029L118.277 80.6386L118.405 80.6701L118.531 80.6974L118.655 80.7207L118.776 80.7399L118.896 80.7553L119.014 80.7669L119.131 80.7748L119.247 80.779L119.363 80.7795L119.479 80.7764L119.596 80.7697L119.714 80.7592L119.833 80.7449L119.953 80.7268L120.076 80.7047L120.202 80.6786L120.329 80.6483L120.46 80.6139L120.593 80.5752L120.73 80.5322L120.869 80.485L121.012 80.4335L121.158 80.3777L121.306 80.318L121.458 80.2542L121.613 80.1867L121.771 80.1155L121.932 80.0409L122.09 79.9664L122.103 79.9601L122.258 79.8852L122.269 79.8801L122.429 79.8013L122.437 79.7976L122.603 79.7151L122.608 79.7127L122.78 79.6269L122.782 79.626L122.959 79.5375L122.96 79.537L123.139 79.4478L123.143 79.4459L123.321 79.3572L123.328 79.3539L123.507 79.266L123.516 79.2613L123.695 79.1746L123.695 79.1746L123.707 79.1687L123.886 79.0834L123.901 79.0762L124.08 78.9928L124.098 78.9844L124.277 78.9032L124.298 78.8937L124.477 78.815L124.502 78.8045L124.68 78.7286L124.708 78.7172L124.886 78.6445L124.917 78.6324L125.096 78.563C125.103 78.5602 125.11 78.5574 125.117 78.5547C125.121 78.5532 125.125 78.5518 125.129 78.5503L125.308 78.4846C125.32 78.4801 125.332 78.4758 125.345 78.4715L125.523 78.4097L125.534 78.406L125.563 78.3964L125.742 78.3389C125.753 78.3352 125.765 78.3317 125.776 78.3283C125.779 78.3274 125.782 78.3265 125.785 78.3256L125.964 78.2724C125.972 78.27 125.98 78.2677 125.988 78.2654C125.995 78.2633 126.002 78.2613 126.01 78.2593L126.188 78.2107C126.205 78.2063 126.221 78.2021 126.237 78.1981L126.416 78.1544C126.433 78.1502 126.45 78.1462 126.467 78.1425L126.646 78.1037C126.664 78.0998 126.682 78.0962 126.7 78.0928L126.879 78.0591C126.898 78.0556 126.916 78.0523 126.935 78.0493L127.114 78.0209C127.133 78.0178 127.153 78.015 127.172 78.0125L127.351 77.9895C127.371 77.9869 127.391 77.9847 127.411 77.9827L127.59 77.9652C127.61 77.9632 127.631 77.9615 127.651 77.9601L127.83 77.9481C127.85 77.9467 127.871 77.9456 127.892 77.9449L128.071 77.9384C128.092 77.9377 128.112 77.9372 128.133 77.9371L128.312 77.9363L128.312 77.9369L128.447 77.9363C128.468 77.9362 128.489 77.9365 128.51 77.937L128.688 77.9418C128.709 77.9423 128.73 77.9432 128.751 77.9444L128.929 77.9548C128.95 77.956 128.97 77.9575 128.991 77.9593L129.17 77.9753C129.19 77.9771 129.21 77.9792 129.23 77.9816L129.409 78.003C129.429 78.0053 129.448 78.008 129.468 78.0109L129.646 78.0377C129.665 78.0406 129.684 78.0437 129.703 78.0471L129.882 78.0792C129.9 78.0825 129.919 78.0861 129.937 78.0899L130.116 78.1271C130.133 78.1308 130.15 78.1347 130.168 78.1388L130.347 78.1811C130.363 78.185 130.38 78.1892 130.396 78.1935L130.575 78.2407C130.591 78.2448 130.606 78.2491 130.622 78.2536L130.8 78.3055C130.815 78.3097 130.83 78.3141 130.844 78.3187L131.023 78.375C131.037 78.3793 131.05 78.3838 131.064 78.3884L131.242 78.4489C131.255 78.4532 131.268 78.4576 131.28 78.4621L131.459 78.5266C131.47 78.5308 131.482 78.5351 131.493 78.5395L131.672 78.6078L131.704 78.6201L131.882 78.6919L131.911 78.7035L132.089 78.7785L132.115 78.7893L132.293 78.8672L132.316 78.877L132.494 78.9575L132.513 78.9662L132.692 79.049L132.708 79.0566L132.887 79.1413L132.9 79.1476L133.079 79.2339L133.079 79.2339L133.089 79.239L133.268 79.3266L133.276 79.3303L133.454 79.4188L133.459 79.4211L133.638 79.5102L133.64 79.5111L133.817 79.6L133.818 79.6005L133.992 79.6873L133.996 79.6892L134.168 79.7743L134.338 79.8582L134.506 79.9397L134.671 80.0183L134.833 80.0938L134.992 80.166L135.148 80.2346L135.301 80.2995L135.45 80.3605L135.597 80.4174L135.741 80.4702L135.881 80.5187L136.018 80.5629L136.153 80.6029L136.284 80.6386L136.413 80.6701L136.538 80.6974L136.662 80.7207L136.783 80.74L136.903 80.7554L137.021 80.7669L137.138 80.7748L137.254 80.779L137.37 80.7795L137.486 80.7764L137.603 80.7697L137.721 80.7592L137.84 80.7449L137.961 80.7268L138.084 80.7047L138.209 80.6786L138.337 80.6483L138.467 80.6139L138.601 80.5752L138.737 80.5322L138.876 80.485L139.019 80.4335L139.165 80.3778L139.314 80.318L139.466 80.2542L139.621 80.1867L139.779 80.1155L139.94 80.0409L140.104 79.9632L140.271 79.8826L140.44 79.7994L140.611 79.7151L140.615 79.7127L140.788 79.6269L140.789 79.626L140.966 79.5375L140.967 79.537L141.146 79.4478L141.15 79.4459L141.329 79.3572L141.335 79.3539L141.514 79.266L141.523 79.2614L141.702 79.1746L141.715 79.1686L141.893 79.0834L141.909 79.0762L142.087 78.9928L142.106 78.9844L142.284 78.9032L142.306 78.8937L142.484 78.815L142.509 78.8045L142.688 78.7286L142.715 78.7173L142.894 78.6445L142.924 78.6324L143.103 78.563C143.114 78.5587 143.125 78.5544 143.137 78.5503L143.315 78.4846C143.327 78.4801 143.34 78.4758 143.352 78.4715L143.531 78.4098C143.544 78.4052 143.557 78.4007 143.571 78.3964L143.749 78.3389C143.764 78.3343 143.778 78.3298 143.792 78.3256L143.971 78.2724C143.986 78.2678 144.002 78.2635 144.017 78.2593L144.196 78.2107C144.212 78.2063 144.228 78.2021 144.244 78.1981L144.423 78.1544C144.44 78.1502 144.457 78.1462 144.475 78.1425L144.653 78.1037C144.671 78.0998 144.689 78.0962 144.707 78.0928L144.886 78.0591C144.905 78.0556 144.924 78.0523 144.942 78.0493L145.121 78.0209C145.141 78.0178 145.16 78.0151 145.18 78.0125L145.358 77.9895C145.378 77.987 145.398 77.9847 145.418 77.9827L145.597 77.9652C145.617 77.9632 145.638 77.9615 145.658 77.9601L145.837 77.9481C145.858 77.9467 145.878 77.9456 145.899 77.9449L146.078 77.9384C146.099 77.9377 146.12 77.9372 146.141 77.9371L146.319 77.9363C146.332 77.9363 146.344 77.9363 146.356 77.9365C146.365 77.9366 146.373 77.9368 146.382 77.937L146.561 77.9418C146.582 77.9423 146.602 77.9432 146.623 77.9444L146.802 77.9548C146.823 77.956 146.843 77.9575 146.864 77.9593L147.042 77.9753C147.062 77.9771 147.083 77.9792 147.103 77.9816L147.281 78.003C147.301 78.0053 147.321 78.008 147.34 78.0109L147.519 78.0377C147.538 78.0406 147.557 78.0437 147.576 78.0471L147.755 78.0792C147.773 78.0825 147.791 78.0861 147.809 78.0899L147.988 78.1271C148.006 78.1308 148.023 78.1347 148.04 78.1388L148.219 78.1811C148.236 78.185 148.252 78.1892 148.269 78.1935L148.447 78.2407C148.463 78.2448 148.479 78.2491 148.494 78.2536L148.673 78.3055C148.688 78.3097 148.702 78.3141 148.717 78.3187L148.896 78.375C148.909 78.3793 148.923 78.3838 148.936 78.3883L149.115 78.4489C149.123 78.4517 149.131 78.4545 149.14 78.4574C149.144 78.4589 149.148 78.4605 149.153 78.4621L149.331 78.5266C149.343 78.5308 149.355 78.5351 149.366 78.5395L149.545 78.6078L149.576 78.6201L149.755 78.6919L149.783 78.7035L149.962 78.7785L149.987 78.7893L150.166 78.8672L150.188 78.877L150.367 78.9575L150.386 78.9662L150.565 79.049L150.581 79.0566L150.76 79.1413L150.773 79.1476L150.952 79.2339L150.962 79.239L151.141 79.3266L151.148 79.3303L151.327 79.4188L151.332 79.4211L151.51 79.5102L151.512 79.5111L151.69 79.6L151.691 79.6004L151.865 79.6873L151.869 79.6892L152.037 79.7727L152.044 79.776L152.206 79.8559L152.216 79.8606L152.379 79.9397L152.544 80.0183L152.705 80.0938L152.864 80.166L153.02 80.2346L153.173 80.2995L153.323 80.3605L153.47 80.4174L153.613 80.4702L153.754 80.5187L153.891 80.5629L154.025 80.6029L154.157 80.6386L154.285 80.6701L154.411 80.6974L154.535 80.7207L154.656 80.74L154.776 80.7554L154.894 80.7669L155.011 80.7748L155.127 80.779L155.274 80.7797L155.256 84.7796L155.077 84.7788C155.056 84.7787 155.035 84.7783 155.014 84.7775L154.835 84.7711C154.815 84.7704 154.794 84.7693 154.773 84.7679L154.595 84.7559C154.574 84.7545 154.554 84.7528 154.533 84.7508L154.355 84.7332C154.335 84.7313 154.315 84.729 154.295 84.7264L154.116 84.7034C154.096 84.7009 154.077 84.6981 154.058 84.695L153.879 84.6666C153.86 84.6636 153.841 84.6604 153.822 84.6569L153.644 84.6232C153.626 84.6198 153.608 84.6162 153.59 84.6123L153.411 84.5735C153.394 84.5697 153.377 84.5658 153.359 84.5616L153.181 84.5178C153.164 84.5138 153.148 84.5096 153.132 84.5052L152.953 84.4566C152.938 84.4525 152.923 84.4481 152.907 84.4436L152.729 84.3904C152.714 84.3861 152.7 84.3817 152.686 84.3771L152.507 84.3195C152.494 84.3152 152.48 84.3108 152.467 84.3062L152.288 84.2445C152.276 84.2402 152.264 84.2358 152.252 84.2314L152.073 84.1657C152.062 84.1615 152.05 84.1573 152.039 84.153L151.86 84.0836L151.83 84.0715L151.651 83.9987L151.624 83.9873L151.445 83.9114L151.421 83.9009L151.242 83.8222L151.221 83.8127L151.042 83.7315L151.024 83.7231L150.845 83.6398L150.83 83.6325L150.651 83.5473L150.651 83.5474L150.639 83.5413L150.46 83.4546L150.45 83.45L150.272 83.362L150.265 83.3588L150.086 83.27L150.082 83.2681L149.904 83.1789L149.903 83.1784L149.726 83.09L149.724 83.0891L149.552 83.0032L149.547 83.0009L149.38 82.9184L149.373 82.9147L149.207 82.8334L149.04 82.7528L148.876 82.675L148.715 82.6004L148.557 82.5293L148.402 82.4617L148.25 82.398L148.101 82.3382L147.955 82.2825L147.813 82.231L147.673 82.1837L147.537 82.1408L147.403 82.1021L147.273 82.0676L147.145 82.0374L147.02 82.0113L146.897 81.9892L146.776 81.9711L146.657 81.9568L146.539 81.9463L146.423 81.9395L146.307 81.9364L146.191 81.937L146.074 81.9411L145.957 81.949L145.839 81.9606L145.72 81.976L145.598 81.9953L145.475 82.0186L145.349 82.0459L145.22 82.0774L145.089 82.1131L144.955 82.153L144.817 82.1973L144.677 82.2458L144.533 82.2985L144.387 82.3555L144.237 82.4164L144.084 82.4813L143.928 82.55L143.769 82.6222L143.607 82.6977L143.442 82.7763L143.275 82.8577L143.107 82.94L143.101 82.9433L142.932 83.0268L142.929 83.0287L142.755 83.1155L142.754 83.116L142.576 83.2048L142.574 83.2058L142.395 83.2949L142.391 83.2972L142.212 83.3857L142.204 83.3894L142.026 83.477L142.015 83.482L141.837 83.5683L141.823 83.5747L141.645 83.6594L141.628 83.667L141.45 83.7497L141.431 83.7585L141.252 83.839L141.23 83.8488L141.051 83.9267L141.026 83.9375L140.847 84.0125L140.819 84.0241L140.64 84.0959L140.608 84.1082L140.43 84.1765C140.418 84.1809 140.407 84.1852 140.395 84.1893L140.216 84.2539C140.204 84.2584 140.191 84.2628 140.179 84.2671L140 84.3276C139.986 84.3322 139.973 84.3366 139.959 84.3409L139.781 84.3972C139.766 84.4018 139.751 84.4062 139.737 84.4105L139.558 84.4623C139.542 84.4668 139.527 84.4712 139.511 84.4753L139.332 84.5225C139.316 84.5268 139.299 84.5309 139.283 84.5349L139.104 84.5772C139.087 84.5813 139.069 84.5852 139.052 84.5888L138.873 84.6261C138.855 84.6299 138.837 84.6334 138.818 84.6367L138.64 84.6688C138.621 84.6722 138.602 84.6754 138.583 84.6782L138.404 84.705C138.384 84.708 138.365 84.7106 138.345 84.713L138.166 84.7344C138.146 84.7368 138.126 84.7389 138.106 84.7407L137.927 84.7566C137.907 84.7584 137.886 84.76 137.866 84.7612L137.687 84.7715C137.666 84.7727 137.645 84.7736 137.625 84.7742L137.446 84.7789Z" fill="#FDFFFC"/>
<path d="M11.25 19.2191C11.25 14.8008 14.8317 11.2191 19.25 11.2191H234.543C238.962 11.2191 242.543 14.8008 242.543 19.2191V45.2908C242.543 49.7091 238.962 53.2908 234.543 53.2908H19.25C14.8317 53.2908 11.25 49.7091 11.25 45.2908V19.2191Z" fill="#FDFFFC"/>
<path fill-rule="evenodd" clip-rule="evenodd" d="M48.2433 68.5099H19.25C17.0409 68.5099 15.25 70.3008 15.25 72.51V101.386C15.25 103.596 17.0409 105.386 19.25 105.386H48.2432C50.4524 105.386 52.2432 103.596 52.2432 101.386V72.5099C52.2432 70.3008 50.4524 68.5099 48.2433 68.5099ZM19.25 64.5099C14.8317 64.5099 11.25 68.0917 11.25 72.51V101.386C11.25 105.805 14.8317 109.386 19.25 109.386H48.2432C52.6615 109.386 56.2432 105.805 56.2432 101.386V72.5099C56.2432 68.0917 52.6615 64.5099 48.2433 64.5099H19.25Z" fill="#FDFFFC"/>
<path fill-rule="evenodd" clip-rule="evenodd" d="M48.2433 118.996H19.25C17.0409 118.996 15.25 120.787 15.25 122.996V151.873C15.25 154.082 17.0409 155.873 19.25 155.873H48.2432C50.4524 155.873 52.2432 154.082 52.2432 151.872V122.996C52.2432 120.787 50.4524 118.996 48.2433 118.996ZM19.25 114.996C14.8317 114.996 11.25 118.578 11.25 122.996V151.873C11.25 156.291 14.8317 159.873 19.25 159.873H48.2432C52.6615 159.873 56.2432 156.291 56.2432 151.872V122.996C56.2432 118.578 52.6615 114.996 48.2433 114.996H19.25Z" fill="#FDFFFC"/>
<path d="M73.1157 106.167C73.1157 101.749 76.6974 98.1673 81.1157 98.1673H211.344C215.762 98.1673 219.344 101.749 219.344 106.167V151.873C219.344 156.291 215.762 159.873 211.344 159.873H81.1157C76.6975 159.873 73.1157 156.291 73.1157 151.873V106.167Z" fill="#FDFFFC"/>
</svg>
