<?xml version="1.0" encoding="UTF-8"?><svg id="Layer_1" xmlns="http://www.w3.org/2000/svg" viewBox="0 0 587.69 189.41"><defs><style>.cls-1{fill:#c0e8e1;}</style></defs><path class="cls-1" d="m532.34,189.41c-1.97,0-3.86-.03-4.52-.04-.33,0-.66-.02-1-.03l-4.75-.18c-.67-.02-1.33-.06-1.99-.11l-4.75-.35c-.56-.04-1.12-.09-1.68-.15l-4.75-.5c-.55-.06-1.11-.13-1.66-.2l-4.75-.65c-.6-.08-1.19-.17-1.79-.27l-4.75-.81c-.55-.09-1.1-.2-1.64-.31l-4.74-.96c-.52-.11-1.03-.22-1.55-.34l-4.75-1.11c-.47-.11-.94-.23-1.41-.35l-4.75-1.24c-.51-.13-1.02-.27-1.52-.42l-4.75-1.39c-.41-.12-.81-.24-1.22-.37l-4.75-1.52c-.44-.14-.88-.29-1.31-.44l-4.75-1.65c-.34-.12-.69-.24-1.03-.37l-4.75-1.76c-.38-.14-.76-.28-1.13-.43l-4.75-1.88c-.29-.11-.57-.23-.85-.35l-4.75-1.98c-.3-.12-.6-.25-.9-.38l-4.73-2.07c-.3-.13-.59-.26-.88-.39l-4.75-2.18c-.2-.09-.39-.18-.58-.27l-4.75-2.25c-.19-.09-.37-.18-.56-.27l-4.75-2.31c-.19-.09-.37-.18-.55-.27l-4.75-2.38c-.15-.07-.3-.15-.45-.23l-4.75-2.44c-.1-.05-.21-.11-.31-.16l-4.75-2.47c-.07-.04-.14-.08-.22-.11l-4.75-2.5c-.07-.04-.15-.08-.22-.12l-4.75-2.53c-.09-.05-.17-.09-.26-.14l-18.67-10-8.93-4.67-8.36-4.21-4.26-2.06-4.07-1.9-4.07-1.84-3.9-1.68-3.81-1.56-3.7-1.43-3.65-1.33-3.53-1.2-3.4-1.06-3.44-.98-3.25-.83-3.24-.73-3.12-.6-3.01-.48-3.12-.4-3.03-.29-2.81-.18-2.93-.08-2.99.02-2.91.11-2.92.21-3.05.32-3.04.42-3.06.53-3.12.63-3.28.77-3.24.85-3.41,1-3.53,1.13-3.56,1.24-3.67,1.36-3.73,1.48-3.92,1.63-3.77,1.65-4.17,1.91-4.02,1.9-4.24,2.07-8.77,4.45-8.74,4.59h0l-9.29,4.98s-.07.04-.1.06l-9.5,5.09s-.07.04-.1.05l-4.75,2.53c-.07.04-.14.08-.21.11l-4.75,2.5c-.11.06-.22.12-.33.17l-4.75,2.46c-.09.05-.17.09-.26.13l-4.73,2.42c-.2.1-.41.21-.61.31l-4.75,2.35c-.14.07-.29.14-.44.21l-4.75,2.3c-.23.11-.46.22-.69.33l-4.75,2.22c-.19.09-.39.18-.58.27l-4.75,2.15c-.31.14-.63.28-.94.41l-4.75,2.04c-.28.12-.56.24-.84.35l-4.75,1.95c-.33.14-.66.27-.99.4l-4.75,1.84c-.32.12-.64.24-.96.36l-4.74,1.73c-.41.15-.81.29-1.22.43l-4.75,1.61c-.44.15-.88.29-1.32.43l-4.75,1.47c-.4.13-.81.25-1.22.36l-4.75,1.35c-.51.14-1.02.28-1.53.41l-4.75,1.2c-.47.12-.95.23-1.42.34l-4.75,1.07c-.53.12-1.05.23-1.59.33l-4.75.92c-.59.11-1.17.22-1.76.31l-4.75.76c-.54.09-1.09.16-1.63.23l-4.74.61c-.56.07-1.12.13-1.68.19l-4.75.46c-.61.06-1.22.11-1.83.15l-4.75.3c-.61.04-1.23.07-1.84.08l-4.75.14c-.62.02-1.23.02-1.86.02l-4.75-.03C23.92,189.21-.17,164.84,0,134.95c.17-29.78,24.37-53.81,54.11-53.81.11,0,.21,0,.32,0l3.79.02,2.93-.08,2.92-.18,3.02-.29,3.03-.39,3.08-.49,3.06-.59,3.24-.73,3.27-.83,3.38-.96,3.5-1.09,3.41-1.16,3.75-1.37,3.68-1.43,3.84-1.58,3.85-1.66,3.98-1.8,4.13-1.93,8.42-4.13,8.82-4.54,23.1-12.34c.07-.04.14-.07.21-.11l4.75-2.53c.06-.03.11-.06.16-.09l4.74-2.5c.09-.05.18-.09.26-.14l4.75-2.48c.11-.06.22-.11.33-.17l4.75-2.44c.14-.07.29-.15.43-.22l4.75-2.38c.18-.09.37-.18.56-.28l4.75-2.31c.19-.09.38-.18.57-.27l4.75-2.25c.19-.09.38-.18.57-.27l4.75-2.18c.31-.14.62-.28.94-.42l4.75-2.07c.28-.12.56-.24.84-.36l4.75-1.97c.27-.11.54-.22.81-.33l4.73-1.88c.39-.15.79-.31,1.18-.45l4.75-1.76c.34-.13.69-.25,1.03-.37l4.75-1.65c.44-.15.88-.3,1.32-.44l4.75-1.52c.4-.13.81-.25,1.21-.37l4.75-1.39c.5-.15,1.01-.29,1.52-.42l4.75-1.25c.47-.12.94-.24,1.41-.35l4.75-1.11c.52-.12,1.05-.24,1.58-.34l4.75-.96c.53-.11,1.05-.2,1.58-.29l4.74-.81c.6-.1,1.21-.2,1.81-.28l4.75-.65c.55-.08,1.11-.14,1.66-.2l4.75-.5c.56-.06,1.12-.11,1.68-.15l4.75-.35c.66-.05,1.32-.09,1.99-.11l4.75-.18c.57-.02,1.13-.03,1.7-.04l4.75-.03c.62,0,1.23,0,1.85.02l4.75.14c.62.02,1.23.04,1.85.08l4.75.3c.62.04,1.23.09,1.84.15l4.74.46c.55.05,1.1.12,1.65.19l4.75.61c.55.07,1.09.15,1.64.24l4.75.76c.59.09,1.18.2,1.77.31l4.75.92c.53.1,1.06.21,1.59.33l4.75,1.07c.47.11.95.22,1.42.34l4.75,1.2c.51.13,1.02.27,1.53.41l4.75,1.35c.41.12.81.24,1.22.36l4.75,1.47c.46.14.92.29,1.37.45l4.74,1.61c.38.13.75.26,1.13.4l4.75,1.73c.34.12.67.25,1,.38l4.75,1.84c.33.13.66.26.99.39l4.75,1.95c.28.12.57.24.85.36l4.75,2.04c.31.14.63.27.94.41l4.75,2.15c.19.09.39.18.58.27l4.75,2.22c.23.11.46.21.68.32l4.75,2.3c.17.08.33.16.5.25l4.74,2.35c.17.08.33.16.5.25l4.75,2.42c.11.06.22.11.33.17l4.75,2.46c.11.06.21.11.32.17l4.75,2.5c.07.04.14.07.21.11l4.75,2.53s.07.04.11.06l9.49,5.08c.05.03.11.06.16.09l13.54,7.22,8.98,4.64,4.28,2.15,4.13,2.01,4.19,1.98,3.99,1.83,3.83,1.68,3.95,1.64,3.71,1.47,3.71,1.37,3.54,1.23,3.5,1.12,3.37.99,3.31.87,3.25.76,3.18.65,3,.51,3.03.41,3.08.32,2.91.21,3.19.12c.97.01,2.11.02,2.52.02,29.85-.39,54.45,23.46,54.88,53.34.43,29.88-23.46,54.46-53.34,54.88-.65,0-1.33.01-2,.01Z"/></svg>