<svg width="256" height="128" viewBox="0 0 256 128" fill="none" xmlns="http://www.w3.org/2000/svg">
<path d="M182.025 75.8813C181.03 76.4912 180.686 77.7246 180.74 78.6361C180.859 80.6371 182.959 82.1919 184.772 82.0447C184.985 82.0267 185.946 81.9489 186.586 81.202C187.544 80.0829 187.198 78.1475 186.257 76.9951C185.31 75.8369 183.405 75.0354 182.025 75.8813Z" fill="white"/>
<path d="M28.7766 70.5189C26.6065 69.4754 23.6376 71.8435 21.9106 72.8721C17.9199 75.246 12.1598 79.9589 4.42827 89.2485C3.28473 91.0184 -4.68878 101.047 4.02803 108.045C6.4554 109.664 8.70859 114.442 31.8938 108.421C34.4688 107.797 43.2158 105.821 44.7882 105.467C44.9518 105.43 45.0767 105.307 45.1185 105.145C45.2048 104.813 45.2853 104.226 44.9846 103.702C44.11 102.173 38.908 103.011 38.908 103.011C24.9637 105.364 16.2056 109.404 9.38041 105.62C8.54606 105.156 7.39776 104.536 6.65022 103.265C1.82302 95.0472 22.3452 77.0847 26.2492 77.7025C26.9681 77.8163 27.3069 77.8105 27.984 77.7994C30.5247 77.7576 31.412 76.9285 31.6444 76.6998C31.8281 76.5182 31.9509 76.3446 32.0256 76.1386C32.2818 75.4419 31.8848 74.7023 31.5851 74.1925C30.3177 72.0341 29.6845 70.9557 28.7766 70.5189Z" fill="white"/>
<path d="M153.896 107.895C153.753 106.594 152.007 106.274 150.35 104.754C150.35 104.754 149.316 103.805 148.12 101.442C145.351 95.9692 151.583 87.9581 148.851 84.609C147.028 82.3748 142.262 83.502 139.825 84.079C133.852 85.492 130.329 89.5458 128.991 91.1298C125.504 95.2566 121.218 103.174 124.045 106.565C125.682 108.528 129.057 108.201 130.852 108.028C137.452 107.389 141.569 102.373 142.854 100.625C142.923 100.531 143.07 100.571 143.087 100.687C143.303 102.159 143.937 104.689 146.005 106.719C148.266 108.939 152.143 110.461 153.428 109.263C153.797 108.918 153.945 108.351 153.896 107.895ZM132.467 102.108C131.76 102.14 129.778 102.23 129.041 101.101C127.702 99.0503 131.431 94.4301 133.332 92.4994C134.305 91.5104 135.616 90.3949 137.404 89.5087C138.284 89.0719 141.666 87.3948 142.764 88.5139C143.513 89.2784 142.878 91.0265 142.397 92.3083C142.007 93.3491 138.701 101.823 132.467 102.108Z" fill="white"/>
<path d="M62.1422 96.3693C60.5037 89.5754 53.1824 83.2393 45.1951 83.3007C43.3136 83.3145 40.0434 83.3394 37.9188 85.5852C34.1653 89.5537 36.4344 97.8761 40.3404 102.7C41.3849 103.989 44.1019 107.344 48.6845 108.072C54.5012 108.996 61.1596 105.343 62.3339 100.43C62.7182 98.8232 62.4154 97.5018 62.1422 96.3693ZM55.5129 101.453C53.4365 103.688 48.9545 102.989 46.3159 101.122C42.08 98.1238 41.1631 91.1038 43.4528 89.2079C46.2338 86.905 55.2826 90.8925 56.5039 96.5991C56.5797 96.9528 57.1302 99.711 55.5129 101.453Z" fill="white"/>
<path d="M210.69 97.4035C209.195 91.2094 202.521 85.4329 195.238 85.4874C193.523 85.5012 190.541 85.524 188.605 87.5717C185.183 91.1898 187.251 98.7773 190.812 103.175C191.763 104.35 194.241 107.409 198.42 108.073C203.723 108.916 209.793 105.585 210.865 101.106C211.215 99.6408 210.939 98.4364 210.69 97.4035ZM204.646 102.039C202.752 104.076 198.666 103.439 196.261 101.736C192.398 99.0034 191.562 92.6028 193.65 90.8742C196.185 88.7746 204.435 92.4106 205.549 97.6132C205.618 97.935 206.119 100.45 204.646 102.039Z" fill="white"/>
<path d="M66.8142 111.713C64.5747 107.158 63.7383 102.696 63.338 100.002C62.1357 91.9223 63.148 88.2757 63.5434 87.0178C64.1824 84.9859 64.9395 82.5553 66.7279 82.0926C69.0393 81.4944 72.4794 84.3559 73.7818 87.427C74.1926 88.3953 74.4457 89.5134 75.8852 93.3173C76.288 94.3841 76.7121 95.4683 77.1573 95.4328C77.5173 95.4042 77.6788 94.6557 78.0203 93.5042C78.4634 92.0107 79.1442 89.5775 80.3153 87.9898C80.6425 87.5451 82.1915 85.4444 84.2785 85.4544C86.1336 85.4645 87.4666 87.1358 88.7542 88.7966C90.8771 91.5337 91.7454 94.0632 92.2128 95.2751C93.2261 97.902 95.1193 101.491 98.9936 105.422C99.6448 108.269 99.3287 109.158 98.8856 109.416C97.4742 110.238 92.5495 105.967 89.4694 100.845C86.9939 96.7267 86.1256 92.7487 84.7084 92.8922C84.3156 92.9313 84.0164 93.2749 83.4801 94.2575C81.3328 98.189 80.4154 103.131 78.6953 106.163C78.5095 106.49 78.1235 107.136 77.548 107.184C76.7481 107.252 76.0376 106.131 75.6575 105.487C75.4071 105.062 75.2239 104.745 75.2128 104.722C71.9749 98.0005 71.1797 95.1004 71.1797 95.1004C70.3824 92.1902 70.14 89.9724 69.3252 89.92C69.0838 89.9047 68.8725 90.0863 68.7291 90.2446C68.4448 91.4426 68.0985 93.2628 68.026 95.4958C67.972 97.1492 67.7565 102.136 70.1585 107.323C70.6577 108.402 71.4148 110.345 72.9432 114.225C73.3583 115.281 73.8697 116.613 73.3757 117.043C72.9278 117.434 71.8637 116.895 71.3947 116.651C68.5623 115.18 67.1281 112.352 66.8142 111.713Z" fill="white"/>
<path d="M105.147 84.6483C109.51 81.7773 117.302 80.7878 121.676 84.6435C124.194 86.8623 124.693 89.9043 124.798 90.7217C125.879 99.1002 115.608 106.347 113.448 105.351C112.854 105.076 112.469 104.511 112.469 104.511C111.789 103.508 112.089 102.249 112.133 102.065C112.571 100.235 114.659 99.8086 116.245 98.5571C119.278 96.1652 120.64 90.6275 118.762 88.1932C116.782 85.6256 110.933 86.1629 107.385 88.72C101.779 92.76 102.282 101.528 102.54 105.981C103.011 114.093 106.461 121.766 107.671 121.484C108.616 121.264 108.746 116.053 105.477 95.1259C105.298 94.3366 105.507 93.9501 105.617 93.7955C106.155 93.0406 107.782 92.9654 109.66 93.8564C109.935 93.9861 110.124 94.2466 110.179 94.5452C111.024 99.0992 113.638 113.645 113.805 121.875C113.834 123.27 113.818 125.781 112.259 126.851C110.275 128.212 106.928 126.458 106.293 126.125C97.307 121.417 93.0897 92.5826 105.147 84.6483Z" fill="white"/>
<path d="M158.396 83.5358C158.373 82.9847 158.03 82.4966 157.514 82.3049C156.294 81.8512 154.167 81.4388 153.964 83.961C153.725 86.931 154.297 100.496 154.475 104.521C154.509 105.293 154.94 105.986 155.609 106.372C156.588 106.939 158.127 107.625 158.742 106.736C159.114 106.2 164.683 96.4054 166.029 94.5921C166.506 93.9494 167.593 91.6925 167.826 95.7717C168.058 99.8503 171.643 106.547 174.699 107.692C175.751 108.026 179.059 109.023 180.943 106.674C181.328 106.194 181.496 105.582 181.406 104.972C181.203 103.604 180.454 101.87 178.118 103.04C177.028 103.354 174.082 104.615 172.3 92.9187C171.808 91.0604 171.986 85.4571 167.907 85.6334C167.428 85.6546 166.968 85.8155 166.532 86.0161C164.985 86.7309 163.679 86.5567 159.881 96.3493C159.607 97.2636 158.839 97.9751 158.963 95.6303C158.98 95.3243 158.969 95.021 158.946 94.7155C158.774 92.5184 158.494 85.9018 158.396 83.5358Z" fill="white"/>
<path d="M216.579 83.5358C216.556 82.9847 216.213 82.4966 215.697 82.3049C214.477 81.8512 212.35 81.4388 212.147 83.961C211.908 86.931 212.481 100.496 212.658 104.521C212.692 105.293 213.123 105.986 213.791 106.372C214.771 106.939 216.31 107.625 216.925 106.736C217.297 106.2 222.866 96.4054 224.212 94.5921C224.689 93.9494 225.776 91.6925 226.009 95.7717C226.242 99.8503 229.826 106.547 232.883 107.692C233.934 108.026 237.242 109.023 239.126 106.674C239.511 106.194 239.678 105.582 239.589 104.972C239.386 103.604 238.637 101.87 236.3 103.04C235.213 103.354 232.265 104.615 230.483 92.9187C229.991 91.0604 230.169 85.4571 226.09 85.6334C225.611 85.6546 225.151 85.8155 224.715 86.0161C223.167 86.7309 221.862 86.5567 218.064 96.3493C217.79 97.2636 217.022 97.9751 217.146 95.6303C217.163 95.3243 217.152 95.021 217.129 94.7155C216.957 92.5184 216.677 85.9018 216.579 83.5358Z" fill="white"/>
<path d="M180.784 84.4479C180.784 84.4479 180.38 84.6977 180.163 85.2986C179.504 87.1161 177.717 106.534 184.342 108.086C185.452 108.346 186.927 108.133 187.569 107.256C188.739 105.656 186.007 103.41 184.991 98.9708C183.574 92.7761 186.489 86.6328 184.53 85.2647C184.311 85.1117 183.645 84.7491 182.809 84.5082C182.079 84.297 181.35 84.0974 180.784 84.4479Z" fill="white"/>
<path d="M244.393 102.742H242.359V101.76H247.753V102.742H245.696V108.188H244.393V102.742Z" fill="white"/>
<path d="M254.59 105.565C254.548 104.735 254.495 103.734 254.504 102.866H254.473C254.24 103.648 253.944 104.516 253.625 105.327L252.587 108.112H251.58L250.626 105.365C250.352 104.545 250.096 103.667 249.907 102.866H249.885C249.854 103.705 249.811 104.726 249.758 105.604L249.6 108.188H248.381L248.858 101.759H250.574L251.506 104.345C251.761 105.097 251.983 105.862 252.163 106.576H252.195C252.387 105.881 252.629 105.088 252.904 104.335L253.889 101.759H255.586L255.999 108.188H254.727L254.59 105.565Z" fill="white"/>
<path d="M46.8254 0.662464C43.3017 -1.02955 38.4819 2.8103 35.6776 4.47636C29.1975 8.32627 19.8459 15.9652 7.29299 31.0255C5.43422 33.8943 -7.50997 50.1506 6.64234 61.4959C10.5838 64.1202 14.2431 71.8661 51.8861 62.1058C56.0685 61.0925 70.2695 57.8901 72.8229 57.3151C73.0876 57.2553 73.2909 57.0573 73.3592 56.7937C73.4984 56.2558 73.6292 55.3039 73.1416 54.4542C71.7212 51.9754 63.2754 53.335 63.2754 53.335C40.6345 57.1484 26.4149 63.6988 15.3337 57.5629C13.9779 56.8122 12.1138 55.8068 10.9004 53.7453C3.06297 40.4263 36.3838 11.3063 42.7225 12.3075C43.8888 12.4922 44.4394 12.4832 45.539 12.4647C49.6626 12.3969 51.1042 11.0522 51.4822 10.6811C51.7808 10.3878 51.9788 10.1051 52.1005 9.77316C52.5161 8.64392 51.8718 7.44479 51.3853 6.61732C49.3275 3.11947 48.2999 1.36976 46.8254 0.662464Z" fill="white"/>
<path d="M69.999 38.9359C69.999 38.9359 65.8209 36.6563 65.4688 44.2311C65.4418 45.9554 64.7552 57.3098 70.8683 62.2349C71.0923 62.4165 71.3591 62.5314 71.6402 62.5912C73.0321 62.8877 76.3134 63.2863 77.1165 61.5012C77.9392 59.6747 83.7241 45.1687 84.8804 42.268C84.9926 41.9859 85.0688 41.6952 85.1355 41.3987C85.2975 40.6809 85.9244 39.3171 88.2961 41.2357C88.4195 41.3357 88.5651 41.4252 88.7234 41.4411C89.9961 41.5729 92.4896 40.1154 91.9994 38.028C91.4774 35.8023 88.3327 32.7264 84.6829 33.0234C81.094 33.3167 74.2158 47.7173 73.742 52.6626C73.733 52.7563 73.6044 52.7685 73.5811 52.6779C73.1152 50.8822 72.1209 39.9609 69.999 38.9359Z" fill="white"/>
<path d="M118.056 62.443C117.894 60.9638 115.905 60.5996 114.019 58.8716C114.018 58.8716 112.84 57.7921 111.478 55.1053C108.326 48.8826 115.422 39.7745 112.31 35.967C110.235 33.4263 104.807 34.708 102.032 35.364C95.23 36.9713 91.2186 41.5798 89.6955 43.3804C85.7238 48.0731 80.8442 57.0758 84.0625 60.93C85.9261 63.1614 89.7701 62.7903 91.8147 62.5928C99.3298 61.867 104.019 56.1642 105.482 54.1773C105.561 54.0703 105.728 54.1153 105.746 54.2466C105.993 55.9201 106.716 58.7985 109.07 61.1057C111.645 63.6289 116.06 65.3601 117.522 63.9984C117.945 63.6056 118.113 62.9618 118.056 62.443ZM93.7524 55.9116C92.9493 55.9593 90.6929 56.09 89.8379 54.8179C88.283 52.5043 92.4633 47.1991 94.6 44.9755C95.6932 43.8383 97.1708 42.5508 99.1937 41.5174C100.19 41.0081 104.017 39.053 105.283 40.3087C106.147 41.1674 105.449 43.1639 104.92 44.6282C104.491 45.8173 100.848 55.4992 93.7524 55.9116Z" fill="white"/>
<path d="M145.811 27.6372C137.755 28.2948 131.138 29.45 125.954 30.6613C126.705 25.1871 127.984 19.8887 130.068 15.4665C130.433 14.692 130.831 13.9339 131.285 13.2086C132.746 10.8723 132.723 8.21355 141.025 5.29647C142.522 4.37264 142.745 3.35775 141.711 1.70068C141.288 1.02303 140.608 0.549207 139.833 0.4015C136.565 -0.221621 127.361 -0.00826873 122.168 20.0121C121.623 22.0302 120.25 26.1226 119.322 32.4443C116.049 33.4539 113.868 34.3417 112.787 34.8161C112.251 35.0512 111.819 35.4848 111.58 36.0269C109.869 39.9271 111.621 42.1877 111.994 41.9966C113.683 40.9917 116.029 39.9911 118.623 39.0467C118.147 46.1212 118.38 55.1065 120.3 66.1384C120.341 66.6784 123.064 67.2915 124.946 66.5614C125.661 66.2845 126.087 65.5327 126.019 64.7561C125.702 61.1751 124.434 49.2315 125.318 36.8559C130.847 35.2052 136.041 33.9637 137.561 33.5683C147.893 30.2457 146.981 29.3266 146.463 28.0481C146.356 27.7828 146.091 27.6145 145.811 27.6372Z" fill="white"/>
<path d="M144.234 36.7589C142.113 27.3316 140.1 18.142 139.068 13.4096C138.955 12.8891 138.699 12.3931 138.278 12.0686C137.489 11.4618 136.381 11.3401 135.47 11.843C134.442 12.4116 133.956 13.6144 134.231 14.7183C134.393 15.3673 134.593 16.0111 134.7 16.6718C135.823 23.6548 136.822 29.6414 137.626 34.3918C137.855 35.7408 138.06 36.942 138.247 38.0358C131.963 39.9121 130.448 42.5369 130.018 43.4004C129.442 44.5555 129.215 45.7054 129.146 46.6827C129.11 47.1788 129.613 47.5372 130.07 47.3424C132.341 46.3762 135.045 43.8562 138.392 42.8752C138.579 42.8196 138.851 42.7423 139.159 42.656C140.114 47.9893 140.695 49.216 141.051 51.7545C141.496 54.9263 141.95 57.018 142.282 60.2029C142.601 63.2518 142.603 65.6919 144.206 66.5797C145.5 67.2955 147.093 66.5893 147.343 66.4781C148.666 65.8915 149.621 64.6437 149.955 63.1253C150.064 62.6234 150.049 62.1083 149.932 61.6096C149.194 58.441 148.281 54.5043 147.242 49.9799C147.242 49.9799 146.281 44.9923 145.413 41.1795C145.797 41.1038 146.182 41.027 146.59 40.9524C150.782 40.1762 157.146 40.7533 165.117 40.6532C165.498 40.6485 165.885 40.5378 166.198 40.3213C166.844 39.875 166.994 39.5182 166.98 39.2508C166.863 37.058 155.336 35.1579 144.234 36.7589Z" fill="white"/>
<path d="M171.449 50.9728C171.495 50.5138 171.863 50.2052 172.024 50.0691C173.871 48.5052 178.492 44.5944 178.268 41.6975C178.249 41.4545 178.206 40.8848 177.797 40.5354C176.63 39.538 173.64 41.3205 173.246 41.555C168.321 44.4917 164.961 52.2185 167.592 55.9482C167.707 56.1118 167.989 56.4872 168.521 56.9086C173.814 61.092 185.956 55.6041 188.502 53.4378C188.646 53.3155 189.694 52.4091 191.173 52.2053C192.159 52.0703 192.678 52.3376 192.893 52.4737C193.389 52.7903 193.655 53.3059 193.696 53.4764C195.091 59.355 152.886 73.2013 160.999 49.302C164.768 38.2012 179.367 32.2728 182.848 35.3847C185.258 37.54 182.537 44.2508 181.024 47.035C180.637 47.7503 177.195 53.9931 174.016 53.4076C172.84 53.1916 171.349 51.9766 171.449 50.9728Z" fill="white"/>
<path d="M188.761 38.5363C189.313 38.3955 190.378 38.2642 191.785 38.7417C192.193 38.8804 192.491 39.2341 192.547 39.6608C192.857 42.0135 194.545 51.7447 194.545 51.7447C194.545 51.7447 195.222 52.9491 196.818 46.8079C197.556 44.8363 201.072 32.8573 206.973 33.0034C207.719 33.1654 210.383 33.7711 212.785 37.3748C212.873 37.8645 213.585 38.7539 211.673 41.8234C211.339 42.1157 210.81 42.2512 208.218 40.655C207.867 40.4401 207.407 40.5571 207.209 40.9176C205.804 43.4758 201.906 53.2016 201.906 53.2016L197.987 61.8687C197.92 62.0159 197.776 62.6506 197.618 62.6824C196.796 62.8476 194.083 63.0366 192.944 62.4664C192.341 62.1651 186.858 51.3497 188.285 39.0948C188.315 38.8312 188.504 38.6025 188.761 38.5363Z" fill="white"/>
<path d="M236.834 34.4167C233.183 33.2705 226.417 31.8014 220.036 34.665C218.382 35.4067 216.07 36.483 215.473 38.6308C214.707 41.3843 217.21 44.2749 219.409 46.7499C224.7 52.7048 229.779 54.0839 229.361 55.436C228.998 56.6087 224.659 57.2615 221.855 55.5123C220.591 54.7229 220.109 53.7393 219.154 53.8383C217.83 53.9765 216.411 56.1121 216.7 57.6347C217.592 62.3216 235.466 65.4685 238.913 59.8328C239.519 58.8439 239.525 57.8327 239.519 57.559C239.428 53.14 232.201 49.928 223.674 42.3214C222.962 41.685 221.812 40.623 222.083 39.8199C222.54 38.4625 226.907 38.2941 230.365 38.9305C233.632 39.5324 237.81 41.1694 239.213 40.0608C239.364 39.9406 239.483 39.7892 239.483 39.7892C240.238 38.8606 239.88 37.1209 239.14 36.0288C238.346 34.8566 237.161 34.503 236.834 34.4167Z" fill="white"/>
<path d="M213.334 32.7336C213.363 32.8109 213.401 32.885 213.45 32.9549C213.759 33.3974 214.348 33.8728 214.912 33.6235C216.459 32.9422 217.655 31.5304 218.466 30.0842C219.206 28.7682 220.152 26.7169 218.937 25.4025C218.529 24.9615 217.995 24.6921 217.433 24.5036C217.109 24.3956 216.787 24.2749 216.456 24.4163C215.321 24.9038 214.846 26.5941 214.517 27.6427C214.196 28.6607 213.886 29.6892 213.627 30.7252C213.474 31.3054 213.104 32.1164 213.334 32.7336Z" fill="white"/>
</svg>
