<?xml version="1.0" encoding="UTF-8" standalone="no"?>
<!DOCTYPE svg PUBLIC "-//W3C//DTD SVG 1.1//EN" "http://www.w3.org/Graphics/SVG/1.1/DTD/svg11.dtd">
<svg width="100%" height="100%" viewBox="0 0 2015 1001" version="1.1" xmlns="http://www.w3.org/2000/svg" xmlns:xlink="http://www.w3.org/1999/xlink" xml:space="preserve" xmlns:serif="http://www.serif.com/" style="fill-rule:evenodd;clip-rule:evenodd;stroke-linejoin:round;stroke-miterlimit:2;">
    <g transform="matrix(4.16667,0,0,4.16667,1432.6,638.327)">
        <path d="M0,-10.323C-1.879,-9.171 -2.529,-6.841 -2.427,-5.119C-2.202,-1.339 1.764,1.598 5.189,1.32C5.592,1.286 7.406,1.139 8.615,-0.272C10.425,-2.386 9.772,-6.042 7.994,-8.219C6.206,-10.407 2.607,-11.921 0,-10.323" style="fill:rgb(113,57,150);fill-rule:nonzero;"/>
    </g>
    <g transform="matrix(4.16667,0,0,4.16667,226.481,890.586)">
        <path d="M0,-80.994C-4.099,-82.965 -9.707,-78.492 -12.969,-76.549C-20.507,-72.065 -31.387,-63.163 -45.991,-45.616C-48.151,-42.273 -63.212,-23.33 -46.747,-10.111C-42.162,-7.053 -37.906,1.971 5.888,-9.401C10.752,-10.581 27.274,-14.313 30.244,-14.982C30.553,-15.052 30.789,-15.283 30.868,-15.589C31.031,-16.216 31.183,-17.326 30.615,-18.316C28.963,-21.203 19.137,-19.62 19.137,-19.62C-7.202,-15.176 -23.745,-7.544 -36.637,-14.693C-38.213,-15.568 -40.382,-16.74 -41.794,-19.141C-50.912,-34.663 -12.148,-68.592 -4.774,-67.425C-3.416,-67.21 -2.776,-67.221 -1.497,-67.242C3.302,-67.321 4.978,-68.887 5.417,-69.319C5.764,-69.662 5.996,-69.99 6.137,-70.379C6.621,-71.695 5.871,-73.092 5.305,-74.055C2.911,-78.132 1.715,-80.169 0,-80.994" style="fill:rgb(113,57,150);fill-rule:nonzero;"/>
    </g>
    <g transform="matrix(4.16667,0,0,4.16667,1211.21,666.616)">
        <path d="M0,43.358C-0.269,40.9 -3.568,40.295 -6.697,37.425C-6.697,37.425 -8.651,35.632 -10.909,31.169C-16.139,20.831 -4.369,5.699 -9.529,-0.627C-12.973,-4.847 -21.975,-2.718 -26.578,-1.628C-37.86,1.041 -44.515,8.698 -47.042,11.69C-53.628,19.485 -61.724,34.441 -56.384,40.846C-53.293,44.553 -46.917,43.936 -43.526,43.608C-31.061,42.402 -23.284,32.927 -20.857,29.626C-20.726,29.448 -20.449,29.524 -20.417,29.742C-20.009,32.522 -18.811,37.302 -14.905,41.136C-10.634,45.329 -3.311,48.205 -0.884,45.942C-0.186,45.289 0.094,44.219 0,43.358M-40.477,32.426C-41.812,32.487 -45.555,32.657 -46.948,30.525C-49.477,26.651 -42.433,17.924 -38.843,14.277C-37.005,12.409 -34.528,10.302 -31.151,8.628C-29.489,7.803 -23.101,4.635 -21.027,6.749C-19.612,8.193 -20.811,11.495 -21.719,13.916C-22.457,15.882 -28.701,31.889 -40.477,32.426" style="fill:rgb(113,57,150);fill-rule:nonzero;"/>
    </g>
    <g transform="matrix(4.16667,0,0,4.16667,489.08,752.599)">
        <path d="M0,0.951C-3.095,-11.882 -16.924,-23.85 -32.011,-23.734C-35.565,-23.708 -41.742,-23.661 -45.755,-19.419C-52.845,-11.923 -48.559,3.797 -41.181,12.909C-39.208,15.343 -34.076,21.68 -25.42,23.055C-14.433,24.801 -1.856,17.901 0.362,8.622C1.088,5.586 0.516,3.09 0,0.951M-12.522,10.553C-16.444,14.776 -24.91,13.455 -29.894,9.928C-37.895,4.265 -39.627,-8.995 -35.302,-12.576C-30.049,-16.926 -12.957,-9.394 -10.65,1.385C-10.507,2.053 -9.467,7.263 -12.522,10.553" style="fill:rgb(113,57,150);fill-rule:nonzero;"/>
    </g>
    <g transform="matrix(4.16667,0,0,4.16667,1658.2,761.093)">
        <path d="M0,0.866C-2.823,-10.834 -15.43,-21.745 -29.186,-21.642C-32.426,-21.616 -38.059,-21.573 -41.716,-17.705C-48.18,-10.871 -44.274,3.461 -37.547,11.768C-35.75,13.988 -31.069,19.766 -23.177,21.02C-13.16,22.611 -1.694,16.32 0.33,7.86C0.992,5.092 0.47,2.817 0,0.866M-11.417,9.621C-14.993,13.47 -22.712,12.267 -27.255,9.05C-34.551,3.888 -36.13,-8.202 -32.187,-11.467C-27.397,-15.433 -11.815,-8.565 -9.71,1.262C-9.581,1.87 -8.633,6.621 -11.417,9.621" style="fill:rgb(113,57,150);fill-rule:nonzero;"/>
    </g>
    <g transform="matrix(4.16667,0,0,4.16667,525.849,684.52)">
        <path d="M0,46.272C-4.23,37.668 -5.81,29.241 -6.566,24.152C-8.837,8.89 -6.925,2.002 -6.178,-0.374C-4.971,-4.212 -3.541,-8.803 -0.163,-9.677C4.203,-10.807 10.701,-5.402 13.161,0.399C13.937,2.228 14.415,4.34 17.134,11.525C17.895,13.54 18.696,15.588 19.537,15.521C20.217,15.467 20.522,14.053 21.167,11.878C22.004,9.057 23.29,4.461 25.502,1.462C26.12,0.622 29.046,-3.346 32.988,-3.327C36.492,-3.308 39.01,-0.151 41.442,2.986C45.452,8.156 47.092,12.934 47.975,15.223C49.889,20.185 53.465,26.965 60.783,34.389C62.013,39.767 61.416,41.447 60.579,41.934C57.913,43.486 48.611,35.419 42.793,25.744C38.117,17.965 36.477,10.451 33.8,10.722C33.058,10.796 32.493,11.445 31.48,13.301C27.424,20.727 25.691,30.061 22.442,35.789C22.091,36.407 21.362,37.626 20.275,37.718C18.764,37.846 17.422,35.728 16.704,34.512C16.231,33.71 15.885,33.111 15.864,33.068C9.748,20.371 8.246,14.893 8.246,14.893C6.74,9.396 6.282,5.207 4.743,5.108C4.287,5.079 3.888,5.422 3.617,5.721C3.08,7.984 2.426,11.422 2.289,15.64C2.187,18.763 1.78,28.183 6.317,37.98C7.26,40.018 8.69,43.688 11.577,51.018C12.361,53.012 13.327,55.527 12.394,56.34C11.548,57.079 9.538,56.06 8.652,55.6C3.302,52.821 0.593,47.479 0,46.272" style="fill:rgb(113,57,150);fill-rule:nonzero;"/>
    </g>
    <g transform="matrix(4.16667,0,0,4.16667,827.539,976.788)">
        <path d="M0,-74.994C8.242,-80.417 22.961,-82.286 31.222,-75.003C35.978,-70.812 36.921,-65.066 37.119,-63.522C39.161,-47.696 19.761,-34.008 15.681,-35.889C14.558,-36.408 13.832,-37.476 13.832,-37.476C12.546,-39.371 13.114,-41.749 13.196,-42.095C14.023,-45.552 17.968,-46.358 20.963,-48.722C26.692,-53.24 29.266,-63.7 25.718,-68.298C21.978,-73.148 10.93,-72.133 4.229,-67.303C-6.361,-59.672 -5.411,-43.11 -4.923,-34.699C-4.034,-19.376 2.483,-4.883 4.768,-5.415C6.553,-5.832 6.799,-15.675 0.624,-55.203C0.286,-56.694 0.68,-57.424 0.889,-57.716C1.904,-59.142 4.978,-59.284 8.526,-57.601C9.045,-57.356 9.401,-56.864 9.506,-56.3C11.101,-47.698 16.039,-20.223 16.355,-4.677C16.41,-2.042 16.38,2.701 13.435,4.722C9.687,7.292 3.364,3.98 2.165,3.351C-14.808,-5.543 -22.774,-60.007 0,-74.994" style="fill:rgb(113,57,150);fill-rule:nonzero;"/>
    </g>
    <g transform="matrix(4.16667,0,0,4.16667,1246.63,839.645)">
        <path d="M0,-44.181C-0.043,-45.222 -0.691,-46.144 -1.666,-46.506C-3.97,-47.363 -7.989,-48.142 -8.372,-43.378C-8.823,-37.768 -7.742,-12.146 -7.406,-4.543C-7.342,-3.084 -6.528,-1.775 -5.265,-1.047C-3.415,0.025 -0.508,1.321 0.654,-0.359C1.356,-1.372 11.875,-19.872 14.418,-23.297C15.319,-24.511 17.372,-28.774 17.812,-21.069C18.251,-13.365 25.021,-0.716 30.795,1.448C32.782,2.077 39.03,3.961 42.588,-0.476C43.316,-1.383 43.632,-2.539 43.462,-3.69C43.08,-6.274 41.665,-9.55 37.252,-7.34C35.194,-6.747 29.628,-4.365 26.263,-26.458C25.333,-29.968 25.67,-40.552 17.964,-40.219C17.06,-40.179 16.191,-39.875 15.368,-39.496C12.445,-38.146 9.978,-38.475 2.805,-19.978C2.287,-18.251 0.837,-16.907 1.071,-21.336C1.102,-21.914 1.082,-22.487 1.038,-23.064C0.714,-27.214 0.184,-39.712 0,-44.181" style="fill:rgb(113,57,150);fill-rule:nonzero;"/>
    </g>
    <g transform="matrix(4.16667,0,0,4.16667,1704.55,839.645)">
        <path d="M0,-44.181C-0.043,-45.222 -0.691,-46.144 -1.666,-46.506C-3.97,-47.363 -7.989,-48.142 -8.372,-43.378C-8.823,-37.768 -7.742,-12.146 -7.406,-4.543C-7.342,-3.084 -6.528,-1.775 -5.267,-1.047C-3.415,0.025 -0.508,1.321 0.654,-0.359C1.356,-1.372 11.875,-19.872 14.418,-23.297C15.319,-24.511 17.372,-28.774 17.812,-21.069C18.251,-13.365 25.021,-0.716 30.795,1.448C32.781,2.077 39.03,3.961 42.588,-0.476C43.316,-1.383 43.63,-2.539 43.462,-3.69C43.08,-6.274 41.664,-9.55 37.251,-7.34C35.196,-6.747 29.628,-4.365 26.263,-26.458C25.333,-29.968 25.67,-40.552 17.964,-40.219C17.06,-40.179 16.191,-39.875 15.368,-39.496C12.444,-38.146 9.978,-38.475 2.804,-19.978C2.287,-18.251 0.837,-16.907 1.071,-21.336C1.102,-21.914 1.082,-22.487 1.038,-23.064C0.714,-27.214 0.184,-39.712 0,-44.181" style="fill:rgb(113,57,150);fill-rule:nonzero;"/>
    </g>
    <g transform="matrix(4.16667,0,0,4.16667,1422.83,848.061)">
        <path d="M0,-44.478C0,-44.478 -0.762,-44.006 -1.173,-42.871C-2.417,-39.438 -5.792,-2.76 6.72,0.171C8.818,0.662 11.603,0.26 12.817,-1.397C15.027,-4.418 9.865,-8.66 7.946,-17.046C5.271,-28.747 10.777,-40.351 7.076,-42.935C6.662,-43.224 5.405,-43.909 3.826,-44.364C2.447,-44.763 1.07,-45.14 0,-44.478" style="fill:rgb(113,57,150);fill-rule:nonzero;"/>
    </g>
    <g transform="matrix(4.16667,0,0,4.16667,1923.46,841.858)">
        <path d="M0,-8.434L-3.843,-8.434L-3.843,-10.289L6.346,-10.289L6.346,-8.434L2.46,-8.434L2.46,1.855L0,1.855L0,-8.434Z" style="fill:rgb(113,57,150);fill-rule:nonzero;"/>
    </g>
    <g transform="matrix(4.16667,0,0,4.16667,2003.71,819.624)">
        <path d="M0,2.236C-0.079,0.668 -0.179,-1.223 -0.161,-2.863L-0.221,-2.863C-0.66,-1.386 -1.22,0.254 -1.822,1.785L-3.783,7.047L-5.686,7.047L-7.487,1.858C-8.004,0.308 -8.488,-1.35 -8.845,-2.863L-8.888,-2.863C-8.945,-1.278 -9.027,0.65 -9.127,2.309L-9.426,7.19L-11.729,7.19L-10.827,-4.954L-7.586,-4.954L-5.825,-0.07C-5.344,1.352 -4.924,2.796 -4.584,4.145L-4.524,4.145C-4.161,2.832 -3.704,1.334 -3.184,-0.088L-1.323,-4.954L1.882,-4.954L2.663,7.19L0.26,7.19L0,2.236Z" style="fill:rgb(113,57,150);fill-rule:nonzero;"/>
    </g>
    <g transform="matrix(4.16667,0,0,4.16667,368.532,550.396)">
        <path d="M0,-131.299C-6.656,-134.495 -15.76,-127.242 -21.057,-124.095C-33.297,-116.823 -50.961,-102.394 -74.672,-73.947C-78.183,-68.528 -102.633,-37.822 -75.901,-16.392C-68.456,-11.435 -61.544,3.196 9.559,-15.24C17.459,-17.154 44.283,-23.203 49.106,-24.289C49.606,-24.402 49.99,-24.776 50.119,-25.274C50.382,-26.29 50.629,-28.088 49.708,-29.693C47.025,-34.375 31.072,-31.807 31.072,-31.807C-11.694,-24.604 -38.553,-12.231 -59.484,-23.821C-62.045,-25.239 -65.566,-27.138 -67.858,-31.032C-82.662,-56.19 -19.723,-111.194 -7.75,-109.303C-5.547,-108.954 -4.507,-108.971 -2.43,-109.006C5.359,-109.134 8.082,-111.674 8.796,-112.375C9.36,-112.929 9.734,-113.463 9.964,-114.09C10.749,-116.223 9.532,-118.488 8.613,-120.051C4.726,-126.658 2.785,-129.963 0,-131.299" style="fill:rgb(113,57,150);fill-rule:nonzero;"/>
    </g>
    <g transform="matrix(4.16667,0,0,4.16667,550.916,447.317)">
        <path d="M0,-34.266C0,-34.266 -7.892,-38.572 -8.557,-24.264C-8.608,-21.007 -9.905,0.44 1.642,9.743C2.065,10.086 2.569,10.303 3.1,10.416C5.729,10.976 11.927,11.729 13.444,8.357C14.998,4.907 25.925,-22.493 28.109,-27.972C28.321,-28.505 28.465,-29.054 28.591,-29.614C28.897,-30.97 30.081,-33.546 34.561,-29.922C34.794,-29.733 35.069,-29.564 35.368,-29.534C37.772,-29.285 42.482,-32.038 41.556,-35.981C40.57,-40.185 34.63,-45.995 27.736,-45.434C20.957,-44.88 7.965,-17.679 7.07,-8.338C7.053,-8.161 6.81,-8.138 6.766,-8.309C5.886,-11.701 4.008,-32.33 0,-34.266" style="fill:rgb(113,57,150);fill-rule:nonzero;"/>
    </g>
    <g transform="matrix(4.16667,0,0,4.16667,929.142,284.138)">
        <path d="M0,49.299C-0.307,46.505 -4.064,45.817 -7.625,42.553C-7.627,42.553 -9.853,40.514 -12.425,35.439C-18.379,23.685 -4.976,6.481 -10.853,-0.711C-14.774,-5.51 -25.026,-3.089 -30.267,-1.85C-43.116,1.186 -50.693,9.891 -53.57,13.292C-61.072,22.156 -70.289,39.161 -64.21,46.441C-60.69,50.656 -53.429,49.955 -49.567,49.582C-35.372,48.211 -26.514,37.439 -23.751,33.686C-23.602,33.484 -23.287,33.569 -23.252,33.817C-22.786,36.978 -21.421,42.415 -16.973,46.773C-12.11,51.539 -3.771,54.809 -1.009,52.237C-0.21,51.495 0.108,50.279 0,49.299M-45.907,36.962C-47.424,37.052 -51.686,37.299 -53.301,34.896C-56.238,30.526 -48.342,20.505 -44.306,16.305C-42.241,14.157 -39.45,11.725 -35.629,9.773C-33.747,8.811 -26.519,5.118 -24.128,7.49C-22.496,9.112 -23.813,12.883 -24.813,15.649C-25.624,17.895 -32.504,36.183 -45.907,36.962" style="fill:rgb(113,57,150);fill-rule:nonzero;"/>
    </g>
    <g transform="matrix(4.16667,0,0,4.16667,1147.58,308.451)">
        <path d="M0,-22.28C-15.216,-21.038 -27.715,-18.856 -37.507,-16.568C-36.089,-26.908 -33.672,-36.916 -29.737,-45.269C-29.048,-46.732 -28.295,-48.164 -27.438,-49.534C-24.679,-53.947 -24.722,-58.969 -9.041,-64.479C-6.212,-66.224 -5.792,-68.141 -7.745,-71.271C-8.544,-72.551 -9.827,-73.446 -11.291,-73.725C-17.465,-74.902 -34.85,-74.499 -44.659,-36.683C-45.688,-32.871 -48.282,-25.141 -50.034,-13.2C-56.217,-11.293 -60.337,-9.616 -62.378,-8.72C-63.39,-8.276 -64.207,-7.457 -64.658,-6.433C-67.89,0.934 -64.581,5.204 -63.877,4.843C-60.686,2.945 -56.255,1.055 -51.355,-0.729C-52.254,12.634 -51.814,29.606 -48.188,50.444C-48.109,51.464 -42.966,52.622 -39.411,51.243C-38.06,50.72 -37.256,49.3 -37.385,47.833C-37.983,41.069 -40.379,18.509 -38.709,-4.867C-28.266,-7.985 -18.454,-10.33 -15.584,-11.077C3.932,-17.353 2.211,-19.089 1.231,-21.504C1.029,-22.005 0.529,-22.323 0,-22.28" style="fill:rgb(113,57,150);fill-rule:nonzero;"/>
    </g>
    <g transform="matrix(4.16667,0,0,4.16667,1135.17,327.687)">
        <path d="M0,-9.667C-4.007,-27.474 -7.808,-44.832 -9.757,-53.771C-9.972,-54.754 -10.454,-55.691 -11.25,-56.304C-12.741,-57.45 -14.834,-57.68 -16.553,-56.73C-18.496,-55.656 -19.414,-53.384 -18.895,-51.299C-18.589,-50.073 -18.21,-48.857 -18.009,-47.609C-15.887,-34.419 -14.001,-23.111 -12.481,-14.138C-12.049,-11.59 -11.662,-9.321 -11.308,-7.255C-23.179,-3.711 -26.039,1.247 -26.852,2.878C-27.94,5.06 -28.368,7.232 -28.5,9.078C-28.567,10.015 -27.618,10.692 -26.753,10.324C-22.465,8.499 -17.357,3.739 -11.035,1.886C-10.681,1.781 -10.168,1.635 -9.585,1.472C-7.782,11.546 -6.685,13.863 -6.012,18.658C-5.172,24.649 -4.314,28.6 -3.687,34.616C-3.085,40.375 -3.081,44.984 -0.053,46.661C2.391,48.013 5.401,46.679 5.872,46.469C8.371,45.361 10.176,43.004 10.806,40.136C11.013,39.188 10.984,38.215 10.763,37.273C9.369,31.288 7.645,23.852 5.682,15.306C5.682,15.306 3.867,5.885 2.228,-1.317C2.952,-1.46 3.679,-1.605 4.451,-1.746C12.368,-3.212 24.39,-2.122 39.446,-2.311C40.166,-2.32 40.896,-2.529 41.488,-2.938C42.707,-3.781 42.991,-4.455 42.964,-4.96C42.743,-9.102 20.971,-12.691 0,-9.667" style="fill:rgb(113,57,150);fill-rule:nonzero;"/>
    </g>
    <g transform="matrix(4.16667,0,0,4.16667,1349.36,427.047)">
        <path d="M0,-6.665C0.087,-7.532 0.782,-8.115 1.086,-8.372C4.576,-11.326 13.304,-18.713 12.881,-24.185C12.845,-24.644 12.763,-25.72 11.99,-26.38C9.786,-28.264 4.139,-24.897 3.395,-24.454C-5.909,-18.907 -12.254,-4.312 -7.286,2.733C-7.068,3.042 -6.536,3.751 -5.53,4.547C4.468,12.449 27.403,2.083 32.212,-2.009C32.484,-2.24 34.462,-3.952 37.256,-4.337C39.119,-4.592 40.099,-4.087 40.505,-3.83C41.442,-3.232 41.944,-2.258 42.022,-1.936C44.658,9.168 -35.063,35.322 -19.738,-9.821C-12.62,-30.789 14.957,-41.987 21.531,-36.109C26.084,-32.038 20.945,-19.362 18.087,-14.103C17.355,-12.752 10.854,-0.96 4.848,-2.066C2.627,-2.474 -0.189,-4.769 0,-6.665" style="fill:rgb(113,57,150);fill-rule:nonzero;"/>
    </g>
    <g transform="matrix(4.16667,0,0,4.16667,1485.61,449.526)">
        <path d="M0,-35.551C1.044,-35.817 3.054,-36.065 5.713,-35.163C6.483,-34.901 7.046,-34.233 7.152,-33.427C7.738,-28.983 10.926,-10.602 10.926,-10.602C10.926,-10.602 12.204,-8.327 15.22,-19.927C16.613,-23.651 23.255,-46.278 34.401,-46.002C35.81,-45.696 40.841,-44.552 45.379,-37.745C45.546,-36.82 46.891,-35.14 43.279,-29.342C42.647,-28.79 41.649,-28.534 36.752,-31.549C36.09,-31.955 35.22,-31.734 34.846,-31.053C32.193,-26.221 24.83,-7.85 24.83,-7.85L17.427,8.521C17.3,8.799 17.028,9.998 16.73,10.058C15.177,10.37 10.054,10.727 7.901,9.65C6.762,9.081 -3.594,-11.348 -0.898,-34.496C-0.842,-34.994 -0.485,-35.426 0,-35.551" style="fill:rgb(113,57,150);fill-rule:nonzero;"/>
    </g>
    <g transform="matrix(4.16667,0,0,4.16667,1863.96,492.778)">
        <path d="M0,-53.713C-6.895,-55.878 -19.676,-58.653 -31.729,-53.244C-34.852,-51.843 -39.219,-49.81 -40.347,-45.753C-41.794,-40.552 -37.067,-35.092 -32.913,-30.417C-22.918,-19.169 -13.326,-16.564 -14.115,-14.01C-14.8,-11.795 -22.996,-10.562 -28.292,-13.866C-30.681,-15.357 -31.591,-17.215 -33.394,-17.028C-35.896,-16.767 -38.575,-12.733 -38.029,-9.857C-36.346,-1.004 -2.584,4.94 3.928,-5.705C5.072,-7.573 5.084,-9.483 5.073,-10C4.9,-18.347 -8.751,-24.414 -24.856,-38.782C-26.202,-39.984 -28.374,-41.99 -27.863,-43.507C-26.998,-46.071 -18.751,-46.389 -12.219,-45.187C-6.047,-44.05 1.844,-40.958 4.494,-43.052C4.78,-43.279 5.005,-43.565 5.005,-43.565C6.431,-45.319 5.754,-48.605 4.357,-50.668C2.856,-52.882 0.619,-53.55 0,-53.713" style="fill:rgb(113,57,150);fill-rule:nonzero;"/>
    </g>
    <g transform="matrix(4.16667,0,0,4.16667,1679.01,198.121)">
        <path d="M0,13.827C0.055,13.973 0.126,14.113 0.219,14.245C0.802,15.081 1.916,15.979 2.981,15.508C5.903,14.221 8.162,11.554 9.695,8.822C11.092,6.336 12.88,2.461 10.584,-0.022C9.813,-0.855 8.805,-1.364 7.744,-1.72C7.132,-1.924 6.522,-2.152 5.898,-1.885C3.754,-0.964 2.856,2.229 2.234,4.21C1.628,6.133 1.042,8.076 0.554,10.033C0.265,11.129 -0.434,12.661 0,13.827" style="fill:rgb(113,57,150);fill-rule:nonzero;"/>
    </g>
</svg>
