<?xml version="1.0" encoding="UTF-8" standalone="no"?>
<!DOCTYPE svg PUBLIC "-//W3C//DTD SVG 1.1//EN" "http://www.w3.org/Graphics/SVG/1.1/DTD/svg11.dtd">
<svg width="100%" height="100%" viewBox="0 0 2729 47" version="1.1" xmlns="http://www.w3.org/2000/svg" xmlns:xlink="http://www.w3.org/1999/xlink" xml:space="preserve" xmlns:serif="http://www.serif.com/" style="fill-rule:evenodd;clip-rule:evenodd;stroke-linejoin:round;stroke-miterlimit:2;">
    <path d="M2728.48,24.726C2725.68,25.584 2722.4,24.944 2718.02,24.394C2710.7,23.472 2703.32,20.92 2694.52,23.36C2691.82,24.108 2689.14,22.898 2688.02,21.712C2687.1,20.742 2686.42,19.512 2683.58,19.4C2675.84,19.07 2667.54,17.86 2660.9,20.634C2656.44,22.504 2651.2,23.118 2645.04,22.7C2641.28,22.436 2637.78,22.7 2634.52,23.472C2629.54,24.658 2624.2,24.748 2618.64,24.438C2612.3,24.064 2607.12,24.856 2601.3,26.11C2591.36,28.244 2580.56,30.38 2568.5,28.224C2565.2,27.63 2563.66,28.29 2563.94,29.652C2564.14,30.666 2565.04,31.766 2561.8,32.27C2558.88,32.712 2556.98,31.832 2555.1,31.192C2551.34,29.938 2548.72,28.354 2546.72,26.616C2546.1,26.09 2545.54,25.54 2545.02,24.988C2541.58,21.294 2535.38,19.226 2525.5,19.026C2519.92,18.588 2513,18.938 2512.66,15.44C2510.82,14.386 2508.56,13.55 2505.54,14.648C2501.72,16.078 2495.32,16.518 2494.82,19.248C2494.68,20.018 2493.2,20.61 2491.48,20.896C2490.62,21.028 2489.76,21.16 2488.88,21.294C2484.32,21.952 2479.72,22.612 2475.8,23.866C2475.14,24.088 2473,24.088 2472.84,23.934C2470.24,21.644 2462.34,21.668 2460.16,19.666C2456.6,16.364 2451,16.408 2444.04,16.98C2439.86,17.31 2435.86,17.708 2431.74,16.3C2424.28,13.768 2421.62,13.968 2416.04,17.048C2413.46,18.456 2411.24,19.994 2408.98,21.49C2407.46,22.504 2405.38,23.316 2403.5,24.196C2398.54,26.528 2392.52,24.658 2387.18,25.142C2380.78,25.716 2376.56,24.812 2374.7,22.218C2373.22,20.148 2369.82,19.862 2365.38,20.678C2364.06,20.92 2362.88,21.294 2361.56,21.534C2359.86,21.864 2358.02,22.018 2356.48,21.426C2354.58,20.698 2355.2,19.93 2356.28,19.226L2356.3,19.226L2356.54,19.05C2357.3,18.564 2358.46,18.19 2359.38,17.728C2365.04,14.934 2362.82,12.866 2352.3,11.79C2353.52,15.31 2351.04,17.928 2344.02,19.312L2344,19.312C2342.64,19.6 2341.12,19.818 2339.42,19.994C2338.44,20.084 2337.08,20.368 2336.8,20.678C2334.5,23.296 2331.22,25.032 2323.24,25.254C2319.9,25.342 2318.82,27.762 2317.12,29.214C2315.3,30.754 2312.52,31.478 2308.28,30.686C2301.26,29.39 2291.12,30.158 2288.52,25.824C2288.18,25.254 2285.82,24.88 2284.34,24.462C2277.84,22.612 2270.44,22.018 2262.66,21.888C2255.4,21.732 2246.86,22.018 2241.72,20.104C2233.56,17.048 2222.36,16.058 2214.82,12.734C2212.56,11.744 2208.22,10.688 2205.12,12.054C2201.56,13.638 2198.44,13.438 2195.36,12.846C2194.12,12.582 2192.88,12.272 2191.62,11.986C2187.82,11.13 2184.32,9.766 2179.64,10.226C2174.28,10.756 2169.6,10.382 2165.06,9.26C2163.52,8.862 2161.52,8.468 2160.24,9.236C2159.18,9.876 2160.08,10.644 2161.1,11.282C2163.16,12.582 2165.76,13.614 2168.66,14.474C2171.82,15.396 2175.36,16.144 2179,16.87C2186.5,18.39 2186.64,21.976 2179.86,23.91C2176.1,24.988 2172.82,23.01 2169.54,23.758C2166.38,24.482 2165.74,26.464 2160.26,26.242C2153.22,25.934 2148,24.614 2142.96,22.834C2142.6,22.7 2142.24,22.568 2141.86,22.46L2141.82,22.436C2141.12,22.194 2140.4,21.952 2139.7,21.82C2137.98,21.49 2136.34,21.644 2135.22,23.296C2134.38,24.526 2131.76,24.24 2130,23.67C2120.68,20.654 2110.38,17.86 2110.2,12.272C2110.16,11.018 2109.24,10.294 2105.88,10.358C2102.62,10.426 2098.66,10.008 2096.26,10.6C2091.06,11.898 2085.28,11.854 2079.78,12.228C2079.62,12.866 2079.36,13.308 2079.4,13.726C2079.82,17.928 2077.98,18.52 2068.68,17.068C2066.62,16.738 2064.58,16.144 2062.48,16.498C2051.38,18.456 2037.54,16.144 2027.68,20.148C2026.12,20.788 2023.46,20.324 2021.32,20.172C2011,19.424 2001.06,20.722 1991.28,21.534C1984.26,22.106 1975.98,22.238 1970.68,24.924C1970.12,25.21 1968.68,25.342 1967.66,25.318C1961.78,25.298 1959.46,26.66 1958.14,28.772C1956.76,30.93 1952.18,32.294 1947.44,32.844C1942.9,33.35 1941.26,31.26 1938.82,30.05C1934.06,27.694 1930.2,27.364 1925.26,29.39C1921.4,30.994 1918,30.93 1913.56,30.248C1909.5,29.608 1905.26,29.17 1901.1,28.642C1897.58,28.18 1894.52,27.498 1892.48,26.11C1885.88,21.668 1878.06,17.796 1863.94,17.224C1862.58,17.156 1861.12,16.85 1860.02,16.476C1852.42,14.012 1843.52,14.494 1835.12,15.046C1829.32,15.44 1823.62,15.75 1817.82,15.596C1810.5,15.396 1802.86,14.804 1801.82,19.138C1801.8,19.268 1801.4,19.356 1801.18,19.488C1794.24,23.296 1781.9,23.91 1773.74,27.014C1773.34,27.168 1772.32,27.034 1771.6,27.034C1765.8,27.1 1759.9,26.926 1754.24,27.3C1748.98,27.63 1746.44,26.926 1743.76,25.186C1739.58,22.504 1736.34,22.262 1729.16,22.942C1711.38,24.638 1694.4,23.778 1679.02,19.686C1675.2,18.676 1671.34,18.038 1667.08,17.708C1649.54,16.32 1632.68,14.012 1615.66,11.854C1606.52,10.688 1597,9.81 1587.78,12.582C1582.56,14.142 1580.78,16.408 1578.9,18.456C1576.1,21.47 1571.32,23.184 1564.68,24.438C1557.32,20.172 1557.34,20.148 1542.56,18.214C1539.4,17.796 1537.28,17.004 1537.08,15.77C1536.58,12.428 1531.4,10.426 1525.14,8.818C1520.72,7.676 1517.42,6.378 1516.16,4.288L1516.08,4.154C1515.64,3.342 1514.08,2.594 1512.68,1.91C1510.05,0.652 1507.75,0.019 1505.42,-0L2728.48,-0L2728.48,24.726ZM1505.22,-0C1503.59,0.013 1501.94,0.328 1500.16,0.942C1499.34,1.228 1498.5,1.56 1497.6,1.976C1494.86,3.23 1493.54,4.64 1492.68,6.29C1491.46,8.642 1488.2,10.756 1482.42,11.612C1468.82,13.594 1458.74,17.136 1451.46,22.106C1449.18,23.646 1446.44,24.968 1441.88,25.494C1439.24,25.78 1435.58,25.868 1435.12,24.856C1433.38,20.984 1428.4,21.976 1422.78,23.208C1421.9,23.384 1420.42,23.538 1419.64,23.36C1412.02,21.82 1402.12,22.326 1396.4,19.006C1393.64,17.378 1389.68,16.364 1384.24,16.674C1380.44,16.87 1377.46,16.276 1374.96,15.31C1374.28,15.046 1373.64,14.76 1373.02,14.45C1367.78,11.768 1361.22,10.624 1352.8,11.592C1349.52,11.986 1345.98,12.118 1343.46,11.13C1337.58,8.774 1328.78,8.71 1322.62,6.466C1318.4,4.926 1312.84,6.068 1308.1,6.752C1304.26,7.302 1305.6,8.62 1306.1,9.766C1306.52,10.732 1305.72,11.592 1303.68,12.054C1298.28,13.264 1295.48,15.858 1289.02,16.518C1287.18,16.694 1285.2,17.18 1285.14,17.904L1285.06,18.302C1284.42,21.008 1279.68,21.8 1273.72,22.238C1271.18,22.416 1269.08,23.074 1267.36,23.866C1263.08,25.848 1258.76,27.85 1254.52,29.85C1242.96,35.35 1231.84,41.05 1211.42,41.158C1207.62,41.182 1204,42.26 1199.88,42.324C1197.76,42.368 1196,42.876 1194.5,43.624C1185.34,48.198 1175.36,47.692 1169.78,42.478C1168.6,41.38 1167.08,40.456 1168.12,39.18C1169.08,38.014 1166.96,37.726 1164.8,37.376C1158.78,36.45 1152.98,36.298 1146.8,37.352C1143.84,37.858 1139.6,37.926 1140.72,35.726C1141.58,34.03 1139.32,33.636 1136.18,33.436C1130.12,33.018 1124.46,32.072 1118.1,31.94C1110.22,31.788 1102.92,30.842 1095.84,28.86C1090.44,27.364 1082.42,25.648 1075.18,28.51C1073.26,29.258 1071,28.928 1069.9,27.96C1067.58,25.868 1065.24,24.748 1061.42,27.542C1060.4,28.29 1058.16,28.268 1056.52,27.916C1045.42,25.648 1033.18,23.208 1028.08,18.72C1022.32,13.638 1010.32,13.108 1001.32,10.49C999.66,10.008 997.08,10.402 995.14,10.932C991.26,11.986 986.02,12.714 983.74,14.186C980.74,16.124 976.58,16.32 972.24,16.916C969.72,17.268 965.92,17.29 965.56,18.808C964.7,22.262 959.78,21.426 954.84,20.434C951.4,24.526 945.66,26.11 935.02,25.142C924.44,24.176 914.1,24.394 903.54,24.812C895.52,25.142 887.24,25.23 879.96,23.69C870.36,21.668 862.14,22.238 853.4,24.57C847.58,26.154 841.26,28.048 833.24,26.352C831.6,26.002 829.82,26.508 828.1,26.794C821.26,27.85 821.02,27.85 819.46,24.856C818.62,23.228 817.48,22.238 813.16,23.428C808.36,24.748 804.34,24.462 800.78,22.656C799.3,21.908 797,21.382 795.06,21.998C789.42,23.758 781.82,24.088 777.32,26.858C772.78,29.652 765.76,31.236 756.82,32.052C747.84,32.864 735.8,32.338 731.88,37.376C731.8,37.484 731.3,37.528 731.02,37.64C717.9,41.818 698.52,40.588 689.18,34.89C686.64,33.326 683.94,32.096 679.16,31.81C676.2,31.634 673.82,30.906 671.4,30.248C663.88,28.2 655.62,27.3 646.54,27.762C643.28,27.916 640.02,28.136 636.92,27.452C628.3,25.54 618.96,25.12 609.38,25.45C605.36,25.604 601.52,25.23 599.72,23.91C594.86,20.348 586.14,19.356 577.92,18.082C574.38,17.53 570.94,16.936 567.92,16.034C566.26,15.552 564.38,15.838 562.88,16.32C557.6,17.992 554.96,16.65 553.06,14.848C551.36,13.22 549.92,11.48 551.5,9.722C553.36,7.652 552.64,5.762 548.18,4.64C544.32,3.672 538.7,4.242 535.06,2.682C535.02,2.682 533.2,3.142 532.82,3.494C531.98,4.288 531.52,5.168 530.88,6.004C528.8,8.774 528.6,8.818 521.98,7.456C521.02,7.258 520.1,7.016 519.14,6.796C512.66,5.388 512.86,5.432 509.4,7.764C504.36,11.15 498.46,14.23 491.78,17.156L491.5,17.268C483.82,20.634 475.58,24.064 475.82,29.234C475.88,30.906 473.98,32.382 470.7,33.48C466.18,34.976 461.74,34.626 461.16,32.338C460.52,29.874 456.54,28.422 453.58,26.64C450.3,24.702 445.9,24.726 441.9,26.44C440.04,27.232 439.74,28.268 438.72,29.214C437.74,30.094 436.2,30.686 433.7,30.532C431.2,30.38 429.66,29.564 429.86,28.684C430.34,26.464 428.78,24.702 424.76,23.208C423.74,22.81 423.42,22.086 424.14,21.534C426.14,20.018 423.92,18.302 425.46,16.782C427.44,14.824 424.64,14.494 420.82,14.45C412.4,14.386 405.9,16.364 400.86,18.52C394.678,21.184 387.82,21.426 381.18,20.148C373.68,18.72 367.06,19.094 360.18,20.216C351.9,21.558 342.78,21.534 334.7,21.226C333.24,21.16 331.9,21.14 330.68,21.14C325.42,21.16 321.98,21.82 318.04,23.67C315.2,25.012 312.1,26.046 308.78,26.838C299.6,29.06 288.76,29.366 277.4,28.796C275.1,28.684 273.34,28.136 271.82,27.498C265.32,24.768 257.86,24.418 250.02,26.288C243.96,27.718 238.96,27.168 234.08,25.494C230.74,24.35 227.56,23.142 223.26,22.568C218.24,21.932 216.66,20.478 217.12,18.476C217.34,17.51 218.62,16.32 215.54,15.77C212.9,15.266 210.5,15.882 208.66,16.63C203.24,18.764 195.7,19.182 190.44,17.86C181.04,15.508 170.22,15.484 160.62,13.812C154.6,12.778 149.36,13.088 144.22,14.628C137.22,16.718 130.3,17.422 122.24,15.134C117.18,13.682 111.24,13.526 106.82,16.014C105.26,16.87 102.62,17.068 100.28,17.486C91.3,19.138 81.44,19.424 72.08,20.502C68.26,20.94 66.68,21.47 65.76,22.922C64.34,25.186 64.16,27.65 60.86,29.652C49.66,36.474 36.34,42.304 15.86,44.656C9.1,45.428 5.56,45.074 2.14,42.678C1.14,41.974 0.4,41.292 0,40.588L0,-0L1505.22,-0Z"/>
</svg>
