<?xml version="1.0" encoding="UTF-8" standalone="no"?>
<!DOCTYPE svg PUBLIC "-//W3C//DTD SVG 1.1//EN" "http://www.w3.org/Graphics/SVG/1.1/DTD/svg11.dtd">
<svg width="100%" height="100%" viewBox="0 0 2729 50" version="1.1" xmlns="http://www.w3.org/2000/svg" xmlns:xlink="http://www.w3.org/1999/xlink" xml:space="preserve" xmlns:serif="http://www.serif.com/" style="fill-rule:evenodd;clip-rule:evenodd;stroke-linejoin:round;stroke-miterlimit:2;">
    <g transform="matrix(1,0,0,1,-1.7053e-13,0.000534856)">
        <path d="M2728.48,14.73C2724.46,16.77 2720.4,18.83 2716.46,20.89C2710.5,24.01 2703.2,25.61 2692.86,25.17C2672.46,24.29 2667.3,25.79 2663.32,32.67C2662.64,33.83 2661.42,34.91 2657.94,35.13C2652.86,35.41 2647.78,35.69 2642.68,35.93C2640.34,36.01 2637.38,35.61 2637.86,34.67C2639.24,31.99 2634.44,29.69 2635.56,27.05C2636.32,25.29 2634.74,23.87 2629.98,23.37C2625.38,22.91 2620.76,22.39 2616.8,24.17C2614,25.45 2613.02,26.57 2615.92,27.99C2618.22,29.13 2620.48,30.27 2622.48,31.45C2624.1,32.45 2625.38,33.55 2623.54,34.71C2621.5,35.99 2618.16,36.13 2614.8,35.93C2612.68,35.77 2610.52,35.45 2608.7,34.99C2601.26,33.15 2593.92,31.23 2586.6,29.31C2579.2,27.39 2577.92,24.11 2575.16,21.13C2573.22,19.07 2577.2,17.59 2578.9,15.89C2580.12,14.69 2581.58,13.53 2582.66,12.29C2583.78,11.03 2583.86,9.67 2582.28,8.49C2577.72,5.05 2570.66,2.63 2562.06,0.79C2555.44,-0.65 2549.74,0.13 2543.36,1.13C2531.76,2.97 2531.62,2.81 2532.06,7.81C2532.32,10.61 2528.18,12.13 2521.4,11.69C2506.24,10.75 2506.24,10.75 2507.06,16.67C2507.34,18.67 2505.96,19.25 2500.58,18.97C2495.12,18.71 2489.36,18.47 2485.08,16.99C2479.1,14.93 2472.72,14.85 2465.58,15.63C2461.72,16.07 2457.6,16.11 2453.7,16.49C2440.66,17.81 2428.56,17.35 2417.84,13.85C2415.46,13.09 2412.96,13.59 2410.56,13.89C2395.94,15.75 2380.96,14.99 2366.06,14.87C2363.5,14.85 2360.94,14.75 2358.36,14.69C2350.78,14.49 2344.78,15.49 2340.7,18.15C2338.4,19.61 2335.68,21.01 2331.78,21.91C2319.32,24.81 2305.42,26.41 2291.58,27.43C2282.7,28.07 2274.4,28.77 2267,30.63C2242.84,36.75 2219.54,33.05 2196.78,29.45C2190.86,28.51 2186.76,26.37 2179.68,28.19C2178.18,28.57 2175.38,28.25 2173.22,28.15C2159.08,27.55 2147.38,25.17 2138.06,20.91C2134.88,19.47 2131.5,18.21 2127.18,17.41C2125.26,17.07 2123.16,16.83 2120.82,16.67C2107.04,15.87 2091.86,16.51 2081.28,11.67C2081.06,11.59 2080.64,11.55 2080.3,11.49C2069.2,9.93 2059.06,7.59 2048.4,5.65C2040.44,4.21 2038.66,4.39 2034.56,7.37C2034.02,7.77 2033.52,8.15 2033.04,8.57C2031.4,10.01 2030.06,11.47 2028.24,12.89C2023.98,16.17 2019.38,16.91 2010.52,15.63C2007.46,15.19 2004.8,15.07 2002.14,15.67C1990.16,18.41 1976.42,20.03 1966.58,24.13C1961.4,26.29 1955.42,26.81 1948.58,26.01C1940.8,25.11 1932.88,24.63 1924.82,24.39C1915,24.07 1906.38,22.67 1899.14,19.97C1897.02,19.17 1894.7,18.43 1892.26,17.81C1885.68,16.11 1883.28,16.31 1879.54,19.23C1877.72,20.63 1876.14,21.71 1871.46,21.37C1868.84,21.17 1866.34,21.65 1864.36,22.33C1860.14,23.75 1855.08,23.93 1849.88,23.91C1843.66,23.91 1837.42,23.89 1831.2,23.77C1826.08,23.71 1821.02,23.35 1816.52,24.83C1813.44,25.85 1810.32,25.33 1807.66,24.35C1804.42,23.15 1801.66,21.89 1800.4,20.23C1800.04,19.79 1799.82,19.33 1799.7,18.85C1799.4,17.49 1798.02,16.31 1794.4,15.81C1790.82,15.31 1787,15.29 1787.28,17.15C1787.34,17.59 1787.32,17.99 1787.22,18.37C1786.58,20.77 1782.56,21.89 1776.52,22.71C1772.88,23.23 1769.92,24.51 1766.66,25.43C1763.82,27.03 1760.84,26.63 1757.8,25.51C1744.52,23.97 1744,24.07 1737.44,28.87C1734.8,30.81 1732.18,31.13 1728.12,29.45C1722.78,27.29 1717.24,25.27 1711.12,23.45C1707.36,22.31 1703.88,21.17 1699.44,22.31C1695.3,23.37 1698.38,24.93 1699.06,26.27L1699.42,26.65C1701.2,29.21 1699.96,31.15 1695.62,31.91C1689.78,32.95 1686.68,31.27 1684.1,29.71C1680.2,27.35 1674.96,25.61 1669.06,24.09C1664.28,22.87 1659.54,22.39 1655.44,24.43C1652.68,25.79 1650.2,25.69 1647.28,24.57C1644.9,23.67 1642.22,23.51 1639.26,24.19C1636.36,24.83 1633.8,24.43 1631.06,23.85C1623.72,22.23 1615.1,21.81 1608.08,19.85C1605.66,19.17 1601.9,18.91 1600.3,20.21C1596.72,23.09 1593.18,21.77 1589.42,20.41C1572.92,14.47 1554.34,14.77 1535.06,17.69C1531.34,18.23 1528.78,18.73 1525.86,17.07C1525.68,16.95 1525.5,16.87 1525.3,16.75C1522.14,15.23 1517.14,14.85 1512.18,14.77C1506.18,14.69 1500.18,14.39 1494.2,14.45C1489.7,14.47 1485.22,14.71 1480.74,15.41C1476.36,16.07 1471.36,15.75 1466.58,15.49C1453.36,14.77 1441.02,13.07 1428.94,10.93C1414.62,8.37 1405.04,9.37 1396.96,14.49C1393.4,16.73 1388.96,18.13 1382.92,19.03C1376.78,19.95 1370.54,20.83 1365.72,22.75C1358.58,25.59 1348.76,26.49 1340.06,28.19C1334.06,29.37 1328.72,28.29 1323.6,27.01C1315.14,24.87 1309.02,21.75 1301.68,19.13C1296.18,17.19 1290.42,16.21 1282.72,16.69C1273.58,17.27 1264.44,16.95 1255.98,15.19C1252.32,13.73 1249.8,14.65 1247.38,15.83C1242.54,18.31 1235.84,19.23 1228.18,19.43C1213.1,19.85 1199.42,17.97 1188.44,14.25C1181.4,11.87 1174.2,11.47 1167.46,12.53C1160.14,13.67 1155.58,12.79 1150.56,11.21C1146.84,10.05 1143.26,8.81 1139.56,7.63C1135.52,6.33 1131.08,5.29 1126.02,4.83C1120.94,4.35 1113.86,5.71 1112.16,7.43C1110.2,9.45 1114.44,10.27 1117.3,11.31C1120.26,12.37 1123.6,13.29 1126.5,14.39C1128.12,14.99 1131.04,15.49 1129.72,16.75C1128.9,16.81 1128.16,16.91 1127.48,16.87C1125.68,16.75 1123.92,16.55 1122.14,16.41C1107.16,15.05 1092.7,14.31 1080.08,19.19C1077.02,20.39 1071.48,20.69 1066.9,21.07C1064.02,21.33 1063.12,19.91 1061.28,19.25C1059.38,18.59 1057.28,18.41 1055.48,19.17C1049.94,21.53 1044.68,20.81 1038.98,19.23C1028.36,16.23 1018.86,17.19 1013.18,21.81C1011.44,23.23 1010.5,24.79 1009.14,26.29C1007.44,28.15 1004.58,29.25 999.14,28.57C996.68,28.27 993.98,27.85 991.62,28.27C984.1,29.61 977.24,28.43 970.3,27.59C953.9,25.51 937.6,23.33 921.14,21.35C912.28,20.27 908.18,21.07 903.9,24.11C899.68,27.11 899.68,27.11 894.48,24.55C893.56,24.09 892.76,23.59 891.74,23.19C881.36,19.03 864.98,19.97 858.26,25.17C855.08,27.63 849.44,29.17 843.24,28.69C832.72,27.83 826.68,30.01 820.28,32.49C812.22,35.61 802.42,37.61 791.4,38.37C780.2,39.11 768.98,39.81 758.04,41.05C748.86,42.05 741.36,41.15 735.42,38.29C731.96,36.63 729.04,34.77 725.62,33.09C723.48,32.03 720.62,31.03 717.54,32.57C714.62,34.01 712.16,32.99 709.02,32.81C697.24,32.15 685.32,31.87 673.46,31.47C673.1,31.45 672.7,31.51 672.4,31.59C668.04,32.57 663.86,33.89 659.34,31.55C658.1,30.89 655.9,31.57 654.56,32.03C650.64,33.37 646.7,33.09 642.36,32.31C632.2,30.53 621.64,29.51 610.34,29.89C604.08,30.11 598,29.41 591.86,28.97C585.66,28.51 579.76,27.99 576.14,25.55C574.4,24.39 558.1,22.05 555.44,22.57C548.46,23.91 541.92,22.83 535.08,22.47C520.16,21.71 508.34,19.57 500.3,14.07C495.36,10.71 487.78,10.27 479.18,12.01C469.56,13.97 458.38,13.17 448.54,14.63C447.14,14.85 445.78,15.11 444.44,15.41C442.92,15.77 440.06,15.41 438,15.17C426.42,13.81 414.68,12.53 404.558,9.81C391.9,6.39 376.76,5.41 363.16,2.93C359.84,2.33 356.6,2.83 357.34,4.35C358.92,7.57 353.42,9.03 348.82,10.89C341.18,13.95 335.98,14.03 329.08,10.73C325.14,8.83 322.16,6.65 318.66,4.61C311.58,0.55 300.28,0.55 294.18,4.81C290.78,7.17 285.88,8.23 280.5,8.79C276.12,9.27 271.42,9.43 267,9.77C261.54,10.17 255.46,9.25 249.66,8.95C246.76,8.79 243.02,8.77 242.52,7.41C241.68,5.11 237.66,5.25 233.64,5.15C227.78,4.99 221.94,4.83 216.1,4.63C204.22,4.27 201.32,4.95 196.74,9.23C196.02,9.89 195.3,10.57 194.78,11.25C192.34,14.53 187.22,16.15 178.26,16.59C168.18,17.07 157.78,17.55 148.52,19.43C141.32,20.89 133.94,22.11 126.26,23.11C115.8,24.47 108.68,27.15 105.62,31.39C101.34,36.35 101.32,36.35 88.54,34.85C85.32,34.47 82.18,34.43 79.02,34.89C77.28,35.07 75.28,35.11 73.8,35.45C65.3,37.51 56.26,38.95 46.48,39.73C44.72,39.87 43.16,40.35 41.44,40.59C29.92,42.35 20.88,45.55 11.6,48.61C10.96,48.81 10.32,49.01 9.66,49.21C6.44,49.11 3.22,49.05 0,49.01L0,-0.001L2728.48,-0.001L2728.48,14.73Z"/>
    </g>
</svg>
