<?xml version="1.0" encoding="UTF-8" standalone="no"?>
<!DOCTYPE svg PUBLIC "-//W3C//DTD SVG 1.1//EN" "http://www.w3.org/Graphics/SVG/1.1/DTD/svg11.dtd">
<svg width="100%" height="100%" viewBox="0 0 2729 50" version="1.1" xmlns="http://www.w3.org/2000/svg" xmlns:xlink="http://www.w3.org/1999/xlink" xml:space="preserve" xmlns:serif="http://www.serif.com/" style="fill-rule:evenodd;clip-rule:evenodd;stroke-linejoin:round;stroke-miterlimit:2;">
    <g transform="matrix(2,0,0,2,-635.76,-418.566)">
        <path d="M1682.12,221.646L1682.12,234.268L317.88,234.268L317.88,229.577C318.08,229.929 318.45,230.27 318.95,230.622C320.66,231.82 322.43,231.997 325.81,231.611C336.05,230.435 342.71,227.52 348.31,224.109C349.96,223.108 350.05,221.876 350.76,220.744C351.22,220.018 352.01,219.753 353.92,219.534C358.6,218.995 363.53,218.852 368.02,218.026C369.19,217.817 370.51,217.718 371.29,217.29C373.5,216.046 376.47,216.124 379,216.85C383.03,217.994 386.49,217.642 389.99,216.597C392.56,215.827 395.18,215.672 398.19,216.189C402.99,217.025 408.4,217.037 413.1,218.213C415.73,218.874 419.5,218.665 422.21,217.598C423.13,217.224 424.33,216.916 425.65,217.168C427.19,217.443 426.55,218.038 426.44,218.521C426.21,219.522 427,220.249 429.51,220.567C431.66,220.854 433.25,221.458 434.92,222.03C437.36,222.867 439.86,223.142 442.89,222.427C446.81,221.492 450.54,221.667 453.79,223.032C454.55,223.351 455.43,223.625 456.58,223.681C462.26,223.966 467.68,223.813 472.27,222.702C473.93,222.306 475.48,221.789 476.9,221.118C478.87,220.193 480.59,219.863 483.22,219.853C483.83,219.853 484.5,219.863 485.23,219.896C489.27,220.05 493.83,220.062 497.97,219.391C501.41,218.83 504.72,218.643 508.47,219.357C511.79,219.996 515.219,219.875 518.31,218.543C520.83,217.465 524.08,216.476 528.29,216.508C530.2,216.53 531.6,216.695 530.61,217.674C529.84,218.434 530.95,219.292 529.95,220.05C529.59,220.326 529.75,220.688 530.26,220.887C532.27,221.634 533.05,222.515 532.81,223.625C532.71,224.065 533.48,224.473 534.73,224.549C535.98,224.626 536.75,224.33 537.24,223.89C537.75,223.417 537.9,222.899 538.83,222.503C540.83,221.646 543.03,221.634 544.67,222.603C546.15,223.494 548.14,224.22 548.46,225.452C548.75,226.596 550.97,226.771 553.23,226.023C554.87,225.474 555.82,224.736 555.79,223.9C555.67,221.315 559.79,219.6 563.63,217.917L563.77,217.861C567.11,216.398 570.06,214.858 572.58,213.165C574.31,211.999 574.21,211.977 577.45,212.681C577.93,212.791 578.39,212.912 578.87,213.011C582.18,213.692 582.28,213.67 583.32,212.285C583.64,211.867 583.87,211.427 584.29,211.03C584.48,210.854 585.39,210.624 585.41,210.624C587.23,211.404 590.04,211.119 591.97,211.603C594.2,212.164 594.56,213.109 593.63,214.144C592.84,215.023 593.56,215.893 594.41,216.707C595.36,217.608 596.68,218.279 599.32,217.443C600.07,217.202 601.01,217.059 601.84,217.3C603.35,217.751 605.07,218.048 606.84,218.324C610.95,218.961 615.31,219.457 617.74,221.238C618.64,221.898 620.56,222.085 622.57,222.008C627.36,221.843 632.03,222.053 636.34,223.009C637.89,223.351 639.52,223.241 641.15,223.164C645.69,222.933 649.82,223.383 653.58,224.407C654.79,224.736 655.98,225.1 657.46,225.188C659.85,225.331 661.2,225.946 662.47,226.728C667.14,229.577 676.83,230.192 683.39,228.103C683.53,228.047 683.78,228.025 683.82,227.971C685.78,225.452 691.8,225.715 696.29,225.309C700.76,224.901 704.27,224.109 706.54,222.712C708.79,221.327 712.59,221.162 715.41,220.282C716.38,219.974 717.53,220.237 718.27,220.611C720.05,221.514 722.06,221.657 724.46,220.997C726.62,220.402 727.19,220.897 727.61,221.711C728.39,223.208 728.51,223.208 731.93,222.68C732.79,222.537 733.68,222.284 734.5,222.459C738.51,223.307 741.67,222.36 744.58,221.568C748.95,220.402 753.06,220.117 757.86,221.128C761.5,221.898 765.64,221.854 769.65,221.689C774.93,221.48 780.1,221.371 785.39,221.854C790.71,222.338 793.58,221.546 795.3,219.5C797.77,219.996 800.23,220.414 800.66,218.687C800.84,217.928 802.74,217.917 804,217.741C806.17,217.443 808.25,217.345 809.75,216.376C810.89,215.64 813.51,215.276 815.45,214.749C816.42,214.484 817.71,214.287 818.54,214.528C823.04,215.837 829.04,216.102 831.92,218.643C834.47,220.887 840.59,222.107 846.14,223.241C846.96,223.417 848.08,223.428 848.59,223.054C850.5,221.657 851.67,222.217 852.83,223.263C853.38,223.747 854.51,223.912 855.47,223.538C859.09,222.107 863.1,222.965 865.8,223.713C869.34,224.704 872.99,225.177 876.93,225.253C880.11,225.319 882.94,225.792 885.97,226.001C887.54,226.101 888.67,226.298 888.24,227.146C887.68,228.246 889.8,228.212 891.28,227.959C894.37,227.432 897.27,227.508 900.28,227.971C901.36,228.146 902.42,228.29 901.94,228.873C901.42,229.511 902.18,229.973 902.77,230.522C905.56,233.129 910.55,233.382 915.13,231.095C915.88,230.721 916.76,230.467 917.82,230.445C919.88,230.413 921.69,229.874 923.59,229.862C933.8,229.808 939.36,226.958 945.14,224.208C947.26,223.208 949.42,222.207 951.56,221.216C952.42,220.82 953.47,220.491 954.74,220.402C957.72,220.183 960.09,219.787 960.41,218.434L960.45,218.235C960.48,217.873 961.47,217.63 962.39,217.542C965.62,217.212 967.02,215.915 969.72,215.31C970.74,215.079 971.14,214.649 970.93,214.166C970.68,213.593 970.01,212.934 971.93,212.659C974.3,212.317 977.08,211.746 979.19,212.516C982.27,213.638 986.67,213.67 989.61,214.848C990.87,215.342 992.64,215.276 994.28,215.079C998.49,214.595 1001.77,215.167 1004.39,216.508C1004.7,216.663 1005.02,216.806 1005.36,216.938C1006.61,217.421 1008.1,217.718 1010,217.62C1012.72,217.465 1014.7,217.972 1016.08,218.786C1018.94,220.446 1023.89,220.193 1027.7,220.963C1028.09,221.052 1028.83,220.975 1029.27,220.887C1032.08,220.271 1034.57,219.775 1035.44,221.711C1035.67,222.217 1037.5,222.173 1038.82,222.03C1041.1,221.767 1042.47,221.106 1043.61,220.336C1047.25,217.851 1052.29,216.08 1059.09,215.089C1061.98,214.661 1063.61,213.604 1064.22,212.428C1064.65,211.603 1065.31,210.898 1066.68,210.271C1067.13,210.063 1067.55,209.897 1067.96,209.754C1070.16,208.996 1071.94,209.149 1074.22,210.238C1074.92,210.58 1075.7,210.954 1075.92,211.36L1075.96,211.427C1076.59,212.472 1078.24,213.121 1080.45,213.692C1083.58,214.496 1086.17,215.497 1086.42,217.168C1086.52,217.785 1087.58,218.181 1089.16,218.39C1096.55,219.357 1096.54,219.369 1100.22,221.502C1103.54,220.875 1105.93,220.018 1107.33,218.511C1108.27,217.487 1109.16,216.354 1111.77,215.574C1116.38,214.188 1121.14,214.627 1125.71,215.21C1134.22,216.289 1142.65,217.443 1151.42,218.137C1153.55,218.302 1155.48,218.621 1157.39,219.126C1165.08,221.172 1173.57,221.602 1182.46,220.754C1186.05,220.414 1187.67,220.535 1189.76,221.876C1191.1,222.746 1192.37,223.098 1195,222.933C1197.83,222.746 1200.78,222.833 1203.68,222.8C1204.04,222.8 1204.55,222.867 1204.75,222.79C1208.83,221.238 1215,220.931 1218.47,219.027C1218.58,218.961 1218.78,218.917 1218.79,218.852C1219.31,216.685 1223.13,216.981 1226.79,217.081C1229.69,217.158 1232.54,217.003 1235.44,216.806C1239.64,216.53 1244.09,216.289 1247.89,217.521C1248.44,217.708 1249.17,217.861 1249.85,217.895C1256.91,218.181 1260.82,220.117 1264.12,222.338C1265.14,223.032 1266.67,223.373 1268.43,223.604C1270.51,223.868 1272.63,224.087 1274.66,224.407C1276.88,224.748 1278.58,224.78 1280.51,223.978C1282.98,222.965 1284.91,223.13 1287.29,224.308C1288.51,224.913 1289.33,225.958 1291.6,225.705C1293.97,225.43 1296.26,224.748 1296.95,223.669C1297.61,222.613 1298.77,221.932 1301.71,221.942C1302.22,221.954 1302.94,221.888 1303.22,221.745C1305.87,220.402 1310.01,220.336 1313.52,220.05C1318.41,219.644 1323.38,218.995 1328.54,219.369C1329.61,219.445 1330.94,219.677 1331.72,219.357C1336.65,217.355 1343.57,218.511 1349.12,217.532C1350.17,217.355 1351.19,217.652 1352.22,217.817C1356.87,218.543 1357.79,218.247 1357.58,216.146C1357.56,215.937 1357.69,215.716 1357.77,215.397C1360.52,215.21 1363.41,215.232 1366.01,214.583C1367.21,214.287 1369.19,214.496 1370.82,214.462C1372.5,214.43 1372.96,214.792 1372.98,215.419C1373.07,218.213 1378.22,219.61 1382.88,221.118C1383.76,221.403 1385.07,221.546 1385.49,220.931C1386.05,220.105 1386.87,220.028 1387.73,220.193C1388.08,220.259 1388.44,220.38 1388.79,220.501L1388.81,220.513C1389,220.567 1389.18,220.633 1389.36,220.7C1391.88,221.59 1394.49,222.25 1398.01,222.404C1400.75,222.515 1401.07,221.524 1402.65,221.162C1404.29,220.788 1405.93,221.777 1407.81,221.238C1411.2,220.271 1411.13,218.478 1407.38,217.718C1405.56,217.355 1403.79,216.981 1402.21,216.52C1400.76,216.09 1399.46,215.574 1398.43,214.924C1397.92,214.605 1397.47,214.221 1398,213.901C1398.64,213.517 1399.64,213.714 1400.41,213.913C1402.68,214.474 1405.02,214.661 1407.7,214.396C1410.04,214.166 1411.79,214.848 1413.69,215.276C1414.32,215.419 1414.94,215.574 1415.56,215.706C1417.1,216.002 1418.66,216.102 1420.44,215.31C1421.99,214.627 1424.16,215.155 1425.29,215.65C1429.06,217.312 1434.66,217.807 1438.74,219.335C1441.31,220.292 1445.58,220.149 1449.21,220.227C1453.1,220.292 1456.8,220.589 1460.05,221.514C1460.79,221.723 1461.97,221.91 1462.14,222.195C1463.44,224.362 1468.51,223.978 1472.02,224.626C1474.14,225.022 1475.53,224.66 1476.44,223.89C1477.29,223.164 1477.83,221.954 1479.5,221.91C1483.49,221.799 1485.13,220.931 1486.28,219.622C1486.42,219.467 1487.1,219.325 1487.59,219.28C1488.44,219.192 1489.2,219.083 1489.88,218.939L1489.89,218.939C1493.4,218.247 1494.64,216.938 1494.03,215.178C1499.29,215.716 1500.4,216.75 1497.57,218.147C1497.11,218.378 1496.53,218.565 1496.15,218.808L1496.03,218.896L1496.02,218.896C1495.48,219.248 1495.17,219.632 1496.12,219.996C1496.89,220.292 1497.81,220.215 1498.66,220.05C1499.32,219.93 1499.91,219.743 1500.57,219.622C1502.79,219.214 1504.49,219.357 1505.23,220.392C1506.16,221.689 1508.27,222.141 1511.47,221.854C1514.14,221.612 1517.15,222.547 1519.63,221.381C1520.57,220.941 1521.61,220.535 1522.37,220.028C1523.5,219.28 1524.61,218.511 1525.9,217.807C1528.69,216.267 1530.02,216.167 1533.75,217.433C1535.81,218.137 1537.81,217.938 1539.9,217.773C1543.38,217.487 1546.18,217.465 1547.96,219.116C1549.05,220.117 1553,220.105 1554.3,221.25C1554.38,221.327 1555.45,221.327 1555.78,221.216C1557.74,220.589 1560.04,220.259 1562.32,219.93C1562.76,219.863 1563.19,219.797 1563.62,219.731C1564.48,219.588 1565.22,219.292 1565.29,218.907C1565.54,217.542 1568.74,217.322 1570.65,216.607C1572.16,216.058 1573.29,216.476 1574.21,217.003C1574.38,218.752 1577.84,218.577 1580.63,218.796C1585.57,218.896 1588.67,219.93 1590.39,221.777C1590.65,222.053 1590.93,222.328 1591.24,222.591C1592.24,223.46 1593.55,224.252 1595.43,224.879C1596.37,225.199 1597.32,225.639 1598.78,225.418C1600.4,225.166 1599.95,224.616 1599.85,224.109C1599.71,223.428 1600.48,223.098 1602.13,223.395C1608.16,224.473 1613.56,223.405 1618.53,222.338C1621.44,221.711 1624.03,221.315 1627.2,221.502C1629.98,221.657 1632.65,221.612 1635.14,221.019C1636.77,220.633 1638.52,220.501 1640.4,220.633C1643.48,220.842 1646.1,220.535 1648.33,219.6C1651.65,218.213 1655.8,218.818 1659.67,218.983C1661.09,219.039 1661.43,219.654 1661.89,220.139C1662.45,220.732 1663.79,221.337 1665.14,220.963C1669.54,219.743 1673.23,221.019 1676.89,221.48C1679.08,221.755 1680.72,222.075 1682.12,221.646Z" style="fill-rule:nonzero;"/>
    </g>
</svg>
