<?xml version="1.0" encoding="UTF-8" standalone="no"?>
<!DOCTYPE svg PUBLIC "-//W3C//DTD SVG 1.1//EN" "http://www.w3.org/Graphics/SVG/1.1/DTD/svg11.dtd">
<svg width="100%" height="100%" viewBox="0 0 2729 58" version="1.1" xmlns="http://www.w3.org/2000/svg" xmlns:xlink="http://www.w3.org/1999/xlink" xml:space="preserve" xmlns:serif="http://www.serif.com/" style="fill-rule:evenodd;clip-rule:evenodd;stroke-linejoin:round;stroke-miterlimit:2;">
    <g transform="matrix(1,0,0,1,0,-149.079)">
        <path d="M2728.48,175.679L2729,207L0,207L0,165.735C2.1,165.909 3.58,166.459 3.86,167.561C4.44,169.825 7.52,170.705 12.64,171.345C17.68,171.983 21.4,172.003 25.58,170.487C30.1,168.835 32.86,169.145 35.88,171.191C37.94,172.575 38.94,174.271 41.52,175.437C48.88,178.737 52.5,182.653 54.52,186.899C55.06,188.041 55.78,189.207 56.84,190.285C59.94,193.453 61.3,193.719 70.3,193.167C71.32,193.103 72.4,193.147 73.44,193.167C79.98,193.433 81.92,193.015 81.06,190.505C79.6,186.195 80.86,181.617 74.4,177.725C72.7,176.691 72.24,175.501 72.84,174.315C74.16,171.697 75.04,169.209 69.92,166.901C67.7,165.889 67.8,164.261 71.02,163.379C74.16,162.499 76.42,163.665 78.48,164.437C82.02,165.711 84.36,167.405 87.04,168.969C90.74,171.147 94.1,171.123 98.14,169.057C100.22,167.999 101.48,166.813 101.44,165.405C101.42,164.613 100.72,163.621 104.26,163.095C107.66,165.579 116.36,165.953 119.08,168.947C122.02,172.181 128.68,172.599 135.94,172.619C138.92,172.643 140.34,172.091 141.42,170.947C144.36,167.847 145.56,167.605 152.86,168.989C156.6,169.715 160.52,170.531 164.32,170.025C179.68,168.023 196.92,170.487 211.54,166.701C213.16,166.283 215.8,166.439 217.96,166.459C219.92,166.483 221.68,166.877 221.18,167.803C219.72,170.419 224.14,170.617 228.62,171.059C235.68,171.739 242.5,172.707 249.86,171.389C252.52,170.925 255.74,171.345 258.4,171.783C265.86,173.081 272.42,173.499 276.4,169.761C277.26,168.923 280,168.815 281.66,168.309C285.1,167.275 290.32,166.833 291.64,165.073C293.84,162.193 298.34,162.567 303.62,163.139C309.92,163.821 314.78,165.293 318.48,167.383C322.12,169.451 327.4,170.355 333.14,170.837C335.6,171.035 337.98,171.059 340.38,171.585C348.66,173.367 361.34,172.421 367.66,169.671C372.82,167.449 372.82,167.449 378.66,169.431C388,172.599 392.22,172.839 401.938,170.199C406.938,168.859 411.178,167.187 417.1,169.563C419.06,170.331 421.04,169.363 422.98,169.057C431.22,167.737 434.28,168.067 439.96,170.837C440.88,171.279 441.74,171.763 442.62,172.225C445.58,173.809 448.32,174.577 453.46,173.125C458.5,171.697 462.68,172.225 466.92,174.029C469.48,175.127 471.58,176.425 471.6,177.921C471.62,181.223 476.54,182.807 482.94,184.303C493.54,186.787 502.06,190.197 506.64,194.905C509.02,197.369 513.42,198.909 519.62,199.041C531.92,199.307 544.78,200.429 555.56,196.689C557.24,196.115 559.28,195.741 561.56,195.721C567.78,195.655 572.52,194.445 576.96,192.793C582.72,190.659 587.38,190.551 593.3,192.487C597.32,193.783 600.56,195.257 606.72,194.377C611.64,193.673 617.6,194.575 621.98,192.705C625,191.407 628.26,190.595 632.16,191.209C633.16,191.363 634.2,191.627 635.3,191.981C637.14,192.597 639.38,192.113 640.54,191.363L640.76,191.209C642.64,189.823 644.44,188.459 644.56,186.723C644.78,183.333 648.42,182.409 656.48,183.489C662.38,184.303 668.24,185.139 674.52,185.095C679.92,185.051 681.36,184.061 678.32,182.365C676.22,181.179 673.5,180.165 670.92,179.131C668.1,178.011 666.88,176.755 668.1,175.151C672.52,169.363 684.1,166.371 699.08,167.319C703,167.581 706.84,168.111 710.62,168.615C718.5,169.715 723.72,171.673 723.76,175.349C723.78,176.953 726.08,178.429 725.54,180.101C725.02,181.661 727.26,182.629 730.5,183.157C734.52,183.839 738.58,184.765 742.78,184.941C749.08,185.183 755.6,185.931 761.74,184.125C772.12,181.089 778.06,181.267 787.62,184.411C792.66,186.083 795.72,185.931 799.1,183.819C799.88,183.313 800.42,182.763 800.98,182.211C805.72,177.571 810.64,176.559 822.44,178.163C825.58,178.581 827.9,178.275 828.82,177.307C831.1,174.887 835.66,173.193 839.32,171.211C842.16,169.671 844.04,167.911 841.92,165.865C840.78,164.767 840.6,163.577 841,162.391C841.28,161.599 842.34,160.983 844.24,160.827C845.72,160.697 847.26,161.027 847.98,161.531C851.02,163.709 854.34,165.953 850.36,168.485C848.9,169.407 847.62,170.155 849.1,171.279C852.1,173.499 852.8,176.007 854.2,178.429C855.68,181.001 857.4,181.355 864.38,180.981C866.54,180.869 868.86,180.387 870.76,180.913C878.64,183.113 887.28,183.027 896.22,182.653C902.2,182.409 910.5,184.741 913.08,187.205C913.94,188.041 914.34,189.075 917.12,188.833C919.3,188.637 918.84,187.711 918.72,186.987C918.6,186.261 918.4,185.423 920.7,185.183C923.04,184.941 923.5,185.777 924.48,186.393C925.64,187.117 926.7,187.667 927.7,188.065C930.96,189.339 933.72,188.921 938.5,186.943C941.52,185.689 943.96,184.257 945.9,182.739C955.76,184.391 957.18,184.435 960.16,182.477C960.36,182.345 960.56,182.211 960.78,182.059C966.48,178.119 966.66,178.031 975.32,181.155C978.46,182.301 980.46,182.345 983.68,181.355C985.94,180.671 988.92,180.387 991.54,179.859C993.24,179.551 995.26,179.155 996.56,179.815C1003.4,183.201 1012.8,181.617 1021.1,181.817C1025.64,181.925 1031,182.255 1034.86,180.937C1039.54,179.353 1044.28,179.859 1049.32,180.253C1059.94,181.089 1070.32,182.477 1081.04,183.157C1083.52,183.313 1086.02,183.421 1088.56,183.489C1089.74,183.531 1090.92,183.555 1092.12,183.555C1095.66,183.575 1099.22,184.193 1102.68,184.631C1104.76,184.897 1106.76,185.247 1108.26,185.907C1108.74,186.107 1109.18,186.349 1109.56,186.633C1112.42,188.789 1116.78,189.581 1121.62,189.803L1121.64,189.803C1124.16,189.935 1126.8,189.891 1129.44,189.823C1133.32,189.713 1136.18,189.055 1131.76,187.361C1128.52,186.151 1130.94,185.601 1133.82,185.423C1135.54,185.315 1137.38,185.621 1139.18,185.645C1156.04,185.821 1172.08,185.379 1180.94,178.143C1184.38,175.349 1190.64,173.985 1198.68,173.741C1202.74,173.611 1204.06,174.115 1204.12,175.545C1204.24,178.999 1209.04,181.971 1210.28,185.315C1210.56,186.063 1211.64,186.767 1213.8,186.699C1215.28,186.655 1216.22,186.107 1216.7,185.513C1217.48,184.567 1217.78,183.333 1221.14,183.377C1224.54,183.421 1224.16,184.829 1225.42,185.645C1225.96,185.995 1226.58,186.349 1227.16,186.679C1231.44,186.393 1235.54,185.709 1237.88,184.523C1243.22,181.773 1249.6,181.113 1257.78,181.553C1261.36,181.749 1265,181.487 1268.14,182.453C1271.82,183.575 1275.72,183.531 1279.32,182.521C1284.8,181.001 1287.42,181.773 1289.86,184.017C1292.5,186.457 1294.36,186.589 1299.62,184.917C1304.26,183.465 1309.02,182.211 1314.5,181.311C1320.78,180.277 1324.48,178.405 1324.14,175.525C1322.48,174.315 1321.5,173.105 1324.48,171.959C1335,168.903 1347.56,167.319 1358.4,164.413C1363.84,162.961 1370.68,162.367 1377.1,163.907C1381.88,165.031 1386.72,165.161 1391.82,164.501C1395.24,164.039 1397.9,164.325 1400.82,165.273C1411.5,168.727 1424.02,170.597 1437.46,171.103C1444.06,171.365 1450.18,171.851 1453.68,174.073C1460.42,178.339 1471,177.591 1480.8,177.857C1484.62,177.965 1487.62,177.021 1486.06,175.369C1483.52,172.731 1487.1,170.155 1485.64,167.537C1484.84,166.109 1487.68,165.667 1490.46,166.239C1497.56,167.737 1504.5,169.013 1512.08,166.745C1512.3,166.657 1512.8,166.701 1513.14,166.725C1523.78,167.537 1534.88,167.625 1544.14,170.419C1549.5,172.027 1555.48,173.061 1562.48,172.687C1565.02,172.531 1567.76,172.511 1569.88,173.149C1576.62,175.171 1584.56,175.215 1592.34,175.919C1604.22,176.997 1611.08,174.821 1617.7,171.719C1619.86,170.705 1621.7,169.407 1625.22,169.363C1630.78,169.297 1635.44,168.087 1640.38,167.517C1643.28,168.923 1641.08,170.553 1642.82,171.915C1644.72,173.367 1643.66,174.489 1639.52,174.931C1635.4,175.369 1635,176.603 1634.96,177.989C1634.92,179.903 1634.88,181.817 1634.74,183.731C1634.54,186.171 1636.98,188.415 1642.26,189.163C1649.36,190.175 1656.26,191.341 1663.16,192.531C1666.36,193.059 1669.54,193.609 1672.76,194.137C1678.02,195.017 1683.96,195.017 1688.32,196.931C1691.46,198.293 1696.08,198.623 1700.44,197.743C1704.78,196.841 1705,195.193 1703.92,193.541L1703.84,193.365C1702.92,191.715 1705.04,191.121 1708.78,190.879C1711.3,190.727 1713.94,190.505 1715.62,189.649C1718.16,188.371 1721.18,188.327 1724.2,188.833C1724.62,188.901 1725.02,188.965 1725.44,189.055C1730.62,190.155 1733.88,189.449 1737.64,187.801C1739.16,187.117 1740.74,186.393 1742.4,185.709C1745.72,184.303 1749.34,183.047 1753.3,182.673C1761.82,181.861 1769.92,180.563 1778.4,179.835C1783.7,179.373 1788,178.781 1790.74,176.735C1792.82,175.195 1796.3,174.533 1800.86,174.777C1808.86,175.239 1814.72,173.675 1820.14,171.497C1828.08,168.285 1839.16,166.681 1846.78,163.247C1848.24,162.587 1851.48,162.567 1853.94,162.303C1857.8,161.883 1861.88,161.687 1865.52,161.071C1871.52,160.059 1877.34,159.705 1883.52,160.719C1887.16,161.313 1890.62,160.763 1894.16,160.365C1901.08,159.573 1908.1,161.465 1908.88,164.349C1909.36,166.129 1908.54,167.847 1906.36,169.451C1902.32,172.445 1897.28,175.107 1890.7,177.283C1888.76,177.921 1885.1,178.669 1885.88,179.505C1889.34,183.181 1881.68,183.575 1876.94,184.785C1872.12,186.019 1868.4,187.535 1867.16,189.847C1866.18,191.627 1867.96,192.311 1872.5,191.913C1875.74,191.607 1878.58,191.013 1881.12,190.111C1883.56,189.231 1886.08,188.219 1889.04,187.823C1903.74,185.821 1916.5,182.453 1928.42,178.605C1939.72,174.975 1951.62,171.497 1953.96,164.943C1954.8,162.567 1958.48,160.345 1960.96,158.057C1961.72,157.353 1963.14,156.867 1965.2,156.911C1967.46,156.955 1968.2,157.659 1968.66,158.363C1969.2,159.223 1969.36,160.103 1969.78,160.983C1970.04,161.555 1970.5,162.193 1972.2,162.281C1974.42,162.391 1975.32,161.707 1975.98,161.003C1976.38,160.609 1976.64,160.167 1976.88,159.749C1978.68,156.493 1984.5,154.889 1991.66,153.811C1998.06,152.841 2005.82,152.797 2008.42,149.079C2013.84,151.611 2018.28,153.875 2021.46,156.055C2025.76,158.981 2024,162.897 2023.12,166.415C2022.92,167.207 2021.04,167.581 2019.22,167.757C2013.42,168.353 2014.06,170.001 2015.7,171.565C2017.08,172.905 2019.08,174.183 2021.32,175.325C2033.82,181.641 2045.4,188.197 2056.78,194.863C2063.88,199.021 2073.56,202.695 2087.86,202.869C2091.34,202.913 2094.18,203.443 2096.22,204.629C2098.4,205.883 2101.46,207.051 2105.06,206.985C2115.1,206.809 2125.72,207.115 2133.3,203.553C2137.6,201.529 2131.5,198.337 2138.14,196.577C2139.06,195.169 2140.3,193.763 2140.84,192.331C2141.7,190.111 2145.96,189.231 2150,188.283C2154.74,187.185 2155.1,189.119 2157.04,189.999C2157.76,190.353 2159.1,190.353 2159.9,189.999C2160.96,189.537 2161.26,188.901 2160.32,188.395C2155.74,185.841 2158.32,183.555 2161.04,181.179C2163.3,181.463 2164.06,182.035 2163.98,182.609C2163.56,185.271 2166.32,187.405 2170.28,189.429C2171.6,190.087 2171.92,191.233 2174.56,191.145C2177.14,191.057 2177.76,190.067 2178.06,189.163C2179,186.501 2182.1,185.533 2189.22,185.975C2193.96,186.281 2198.76,184.961 2200.24,183.003C2202.82,179.573 2207.68,176.535 2208.2,172.731C2208.76,168.815 2211.54,164.943 2213.56,161.071C2214,160.235 2215.04,159.399 2216.28,158.715C2220.02,156.605 2222.4,156.649 2225.6,158.981C2228.5,161.071 2231.44,163.335 2237.64,163.733C2251.06,164.569 2259.74,167.847 2266.94,172.113C2271.08,174.557 2276.8,176.007 2284.24,176.141C2288.36,176.205 2292.1,176.691 2295.7,177.415C2303.18,178.935 2305,180.695 2302.42,183.863C2301.64,184.829 2300.58,185.777 2299.92,186.743C2299.34,187.647 2299.78,188.571 2301.76,189.119C2304.1,189.803 2306.58,189.625 2308.8,188.921C2309.94,188.547 2310.92,188.109 2312.06,187.755C2319.76,185.291 2327.4,182.807 2335.22,180.407C2342.12,178.295 2343.88,178.275 2350.08,180.607C2352.82,181.617 2355.26,182.103 2358.78,181.553C2360.82,181.223 2362.9,180.893 2365.14,181.155C2370.72,181.881 2375.58,181.199 2380.88,180.363C2387.66,179.309 2395.84,181.355 2402.54,179.155C2402.7,179.111 2403.72,179.441 2404.3,179.615C2406.42,180.277 2408.3,179.989 2410.24,179.441C2412.92,178.693 2415.68,177.989 2418.42,177.263C2425.3,176.007 2422.26,173.081 2424.88,171.123C2429.56,169.957 2433.18,170.463 2437.66,171.739C2446,174.073 2457.16,174.709 2463.12,178.537C2463.28,178.649 2463.76,178.713 2464.1,178.713C2473.2,178.803 2481.36,180.825 2490.72,180.563C2498.28,180.363 2505.92,180.607 2513.5,180.805C2518.02,180.913 2520.16,181.905 2518.02,183.775C2516.62,185.005 2515.9,186.261 2516.82,187.603C2517.94,189.251 2520.98,189.693 2523.98,188.439C2528.28,186.655 2532.16,184.721 2536.16,182.827C2544.8,178.693 2546.96,174.335 2539.4,169.539C2538.12,168.703 2535.74,167.561 2537.68,166.745C2543.4,164.305 2543.94,160.851 2548.6,158.277C2553.58,155.527 2557.72,155.527 2564.56,157.923C2568.72,158.671 2572.68,159.463 2566.98,161.357C2562.04,163.797 2561.74,166.877 2558.82,169.607C2562.58,170.223 2565.16,169.189 2568.18,169.607C2573.3,170.311 2575.36,168.703 2577.04,167.231C2577.76,166.591 2577.42,165.779 2577.72,165.053C2578.94,162.213 2580.8,161.795 2587.04,163.447C2592.06,164.787 2597.92,165.097 2603.1,166.173C2605.08,166.591 2607.66,166.637 2609.06,165.801C2611.78,164.127 2614.68,164.239 2618.16,165.317C2621.02,166.219 2625.34,166.965 2625,168.529C2624.4,171.191 2628.92,172.465 2632.38,174.095C2641,178.119 2642.36,178.099 2649.2,173.631C2653.38,176.185 2657.9,178.449 2666.56,178.099C2667.96,178.031 2669.66,178.781 2671,179.241C2679.76,182.235 2680.44,182.211 2686.88,178.757C2691.82,176.097 2693.3,175.943 2700.36,177.415C2703.26,178.011 2705.58,179.111 2708.96,179.265C2713.26,179.441 2713.72,177.725 2715.84,176.823C2716.52,176.515 2717.6,176.273 2718.58,176.205C2721.88,176.007 2725.22,175.743 2728.48,175.679Z"/>
    </g>
</svg>
