<?xml version="1.0" encoding="UTF-8" standalone="no"?>
<!DOCTYPE svg PUBLIC "-//W3C//DTD SVG 1.1//EN" "http://www.w3.org/Graphics/SVG/1.1/DTD/svg11.dtd">
<svg width="100%" height="100%" viewBox="0 0 2729 281" version="1.1" xmlns="http://www.w3.org/2000/svg" xmlns:xlink="http://www.w3.org/1999/xlink" xml:space="preserve" xmlns:serif="http://www.serif.com/" style="fill-rule:evenodd;clip-rule:evenodd;stroke-linejoin:round;stroke-miterlimit:2;">
    <g transform="matrix(2,0,0,2,-635.76,-3124)">
        <path d="M1682.12,1571.67L1682.12,1702.18C1682.12,1702.18 318.19,1702.08 317.88,1702.18L317.88,1570.15C318.07,1570.15 318.27,1570.15 318.47,1570.16C323.63,1570.37 328.82,1570.24 333.94,1570.82C336.44,1571.11 338.94,1570.6 341,1569.86C343.4,1569.01 345.55,1567.8 348.97,1568.08C353.93,1568.5 358.9,1568.96 362.44,1570.91C364.28,1571.91 366.46,1572.8 368.53,1573.73C369.68,1574.24 370.83,1574.78 372.55,1574.91C375.69,1575.14 378.82,1575.4 381.8,1574.56C383.22,1574.17 384.52,1574.45 385.69,1574.89C387.37,1575.43 389.34,1575.63 391.29,1575.65C394.85,1575.68 397.38,1576.53 399.61,1577.66C400.96,1578.33 402.31,1579.02 403.64,1579.69C404.83,1580.3 406.01,1580.91 407.17,1581.52C409.75,1582.9 412.82,1583.78 416.9,1583.83C418.33,1583.86 419.75,1584.08 421.17,1584.08C424.58,1584.08 426.95,1584.75 428.56,1586.12C429.69,1587.09 431.04,1588 434.03,1587.51C434.33,1587.45 434.82,1587.48 435.06,1587.56C440.77,1589.53 447.86,1590.72 451.85,1593.68C453.01,1595.23 455.69,1593.39 457.19,1594.19C459.43,1594.46 461.05,1595 461.63,1596.11C461.88,1596.58 462.5,1597.02 463.07,1597.44C465.82,1599.48 467.07,1599.41 471.84,1598.55C477.86,1597.49 480.02,1594.96 483.39,1592.9C486.75,1590.85 491.39,1589.35 494.52,1587.21C495.06,1586.85 496.26,1586.63 497.24,1586.44C498.82,1586.16 499.87,1586.36 500.59,1587.17C503.97,1590.94 505.65,1591.2 513.789,1589.51C515.51,1589.15 516.719,1588.6 517.96,1587.98C521,1586.47 524.21,1585.06 527.51,1583.68C531.78,1581.89 536.21,1580.17 540.65,1578.47C551.76,1574.19 565.14,1573.1 579.03,1572.8C584.42,1572.69 589.84,1572.82 595.25,1572.8C605.54,1572.76 615.77,1572.54 625.54,1570.77C628.02,1570.32 630.78,1570.16 633.45,1569.99C637.42,1569.72 641.24,1569.35 644.58,1568.25C646.78,1567.53 649.07,1567.36 651.7,1567.86C653.67,1568.24 655.83,1568.43 657.94,1568.62C661.57,1568.95 664.92,1569.46 667.29,1570.87C668.54,1571.6 670.07,1571.84 672.04,1571.42C674.64,1570.83 677.73,1571.04 680.28,1570.3C681.84,1569.85 683.39,1570.03 684.65,1570.66C686.2,1571.44 688.31,1571.71 690.43,1571.9C693.64,1572.17 696.58,1572.08 698.12,1570.43C698.78,1569.71 699.74,1569.09 701.76,1569.3C703.44,1569.49 703.93,1570.12 704.09,1570.81C704.43,1572.24 706.33,1573.41 707.32,1574.74C708.56,1576.4 711.11,1576.73 713.99,1575.62C716.73,1574.56 719.75,1573.98 723.16,1573.65C725.48,1573.44 727.62,1573 729.6,1572.41C737.66,1570.03 746.64,1569.42 755.99,1569.51C759.31,1569.56 762.37,1569.89 765.12,1570.82C769.09,1572.19 773.44,1572.45 778.41,1572.08C791.91,1571.05 805.48,1570.26 819.14,1569.83C821.27,1569.77 823.34,1569.37 825.47,1569.24C832.73,1568.78 839.99,1567.92 847.3,1569.04C849.22,1569.34 850.94,1569.14 852.35,1568.58C855.93,1567.15 859.13,1567.33 862.23,1568.89C862.7,1569.12 863.38,1569.28 864.01,1569.44C867.29,1570.24 869.34,1570.11 871.49,1568.72C873.17,1567.63 874.89,1566.58 877.1,1565.72C880.24,1564.5 881.74,1564.6 884.09,1566.1C884.93,1566.64 885.68,1567.22 886.69,1567.68C888.04,1568.29 889.86,1568.67 891.61,1568.18C893.69,1567.61 896.19,1567.73 898.24,1567.17C898.84,1567 899.73,1566.75 900.2,1566.85C903.48,1567.51 906.3,1567.59 908.74,1566.08C909.5,1565.62 910.87,1566 911.46,1566.42C913.35,1567.76 916.38,1568.24 919.27,1568.92C921.53,1569.45 923.31,1569.85 925.66,1569.08C927.01,1568.63 928.39,1569.05 929.63,1569.44C932.62,1570.36 935.64,1571.25 938.25,1572.42C939.85,1573.12 941.58,1573.33 943.46,1572.52C946.64,1571.12 949.97,1571.46 953.28,1572.44C953.89,1572.61 954.4,1572.86 955.01,1573.03C956.65,1573.49 957.81,1573.68 958.3,1572.44C958.81,1571.14 959.89,1570.96 961.5,1571.97C964.39,1573.78 967.79,1573.54 971.56,1572.98C975.15,1572.44 978.68,1571.82 982.5,1571.65C988.64,1571.36 994.55,1570.79 999.39,1568.8C1000.84,1568.19 1002.69,1567.76 1004.84,1567.91C1008.71,1568.67 1013,1568.56 1017.03,1568.98C1018.02,1569.08 1018.99,1569.22 1019.94,1569.4C1023.1,1570.12 1026.31,1570.71 1029.89,1570.89C1029.98,1570.89 1030.07,1570.9 1030.16,1570.9C1033.97,1571.06 1037.33,1571.98 1040.89,1572.56C1041.48,1572.65 1042.06,1572.76 1042.63,1572.87C1043.9,1573.1 1045.15,1573.34 1046.45,1573.52C1049.91,1573.97 1050.79,1573.74 1052.13,1572.15C1052.37,1571.88 1052.45,1571.57 1052.69,1571.28L1052.76,1571.21C1054.18,1569.81 1056.22,1569.41 1059.32,1570.1C1061.45,1570.57 1063.52,1570.99 1065.95,1571.05C1071.32,1571.2 1075.15,1572.53 1076.63,1574.64C1077.05,1575.23 1077.28,1575.89 1077.31,1576.6C1077.37,1577.98 1077.93,1578.26 1080.88,1577.76C1083.04,1577.4 1085.17,1577.19 1087.29,1577.14C1090.41,1577.03 1093.53,1577.23 1096.71,1577.71C1100.51,1578.29 1104.18,1577.78 1107.65,1576.95C1115.36,1575.1 1123.38,1574.79 1131.67,1575.99C1133.06,1576.19 1134.53,1576.45 1135.9,1576.27C1140.16,1575.68 1144.44,1576.54 1148.76,1576.08C1151.68,1575.77 1155.98,1577.69 1157.08,1579.42C1159.11,1582.62 1159.1,1582.59 1166.19,1582.2C1168.87,1582.04 1170.99,1581.51 1172.81,1580.67C1176.83,1578.82 1181.53,1577.5 1186.89,1576.62C1188.56,1576.34 1190.08,1575.85 1191.59,1575.41C1193.6,1574.83 1195.71,1574.42 1198.11,1574.31C1201.17,1574.17 1204.2,1573.93 1206.82,1573.11C1209.03,1572.41 1210.98,1572.64 1212.5,1573.55C1215.2,1575.16 1219.41,1574.72 1222.91,1575.21C1223.77,1575.34 1224.75,1575.11 1225.33,1574.78C1227.53,1573.54 1229.78,1573.82 1232.47,1574.51C1237.32,1575.73 1237.63,1575.65 1241.84,1573.87C1242.37,1573.65 1242.94,1573.44 1243.41,1573.19C1246.01,1571.81 1249.04,1571.49 1252.52,1572.43C1254.3,1572.9 1255.63,1572.9 1257.31,1572.2C1260.06,1571.05 1261.22,1571.11 1263.34,1572.44C1266.24,1574.26 1267.8,1576.39 1269.06,1578.54C1269.99,1580.15 1271.46,1581.47 1275.12,1582.04C1277,1581.61 1275.99,1580.86 1276.1,1580.27C1276.27,1579.28 1277.37,1579.14 1278.97,1579.61C1280.32,1580.01 1281.51,1580.52 1282.8,1580.97C1285.85,1582.04 1288.89,1583.05 1293.13,1582.43C1294.74,1582.18 1296.31,1582.54 1297.8,1582.86C1300.35,1583.41 1302.75,1583.06 1303.84,1582.02C1305.59,1580.34 1309.7,1579.9 1311.81,1578.42C1312.74,1577.78 1314.69,1577.83 1316.33,1577.82C1320.86,1577.8 1325.24,1577.62 1329.41,1576.6C1331.38,1576.11 1333.95,1576.13 1336.26,1575.95C1342.77,1575.42 1344.19,1574.56 1343.29,1571.54C1348.04,1571.1 1352.61,1571.37 1356.73,1572.47C1362.36,1573.98 1368.14,1574.42 1374.39,1573.56C1375.07,1573.46 1375.83,1573.38 1376.52,1573.42C1384.82,1573.85 1390.98,1571.66 1397.17,1569.71C1400.01,1568.82 1402.63,1568.2 1406.09,1568.38C1407.9,1568.48 1409.86,1568.43 1410.65,1567.47C1411.42,1566.53 1410.05,1565.9 1408.72,1565.33C1407.41,1564.76 1405.91,1564.28 1404.75,1563.66C1403.5,1562.99 1404.01,1562.42 1405.84,1562.19C1406.87,1562.05 1407.98,1561.99 1409.05,1562C1416.24,1562.1 1423.46,1562 1430.28,1563.42C1433.78,1564.13 1437.65,1564.12 1441.46,1563.97C1443.62,1563.88 1445.78,1563.74 1447.93,1563.77C1450.66,1563.83 1452.95,1564.23 1452.87,1565.81C1452.86,1566.05 1452.93,1566.3 1453.09,1566.53C1453.39,1566.95 1453.98,1567.26 1454.99,1567.29C1456.14,1567.33 1456.39,1566.93 1456.71,1566.53C1458.26,1564.63 1460.23,1564.23 1463.62,1565.55C1466.76,1566.77 1470.29,1567.35 1474.04,1567.22C1481.75,1566.95 1488.35,1568.73 1495.54,1569.34C1508.76,1570.45 1521.35,1572.87 1535.15,1572.82C1542.72,1572.8 1550.01,1574.03 1556.7,1575.78C1557.4,1575.97 1558.1,1576.16 1558.8,1576.34C1561.05,1576.96 1563.3,1577.58 1565.64,1578.1C1569.44,1578.95 1572.83,1579.97 1575.14,1581.66C1576.11,1582.36 1577.62,1582.84 1579.16,1583.28C1582.32,1584.2 1582.77,1584.09 1583.23,1582.37C1583.27,1582.21 1583.36,1582.05 1583.49,1581.9C1583.54,1581.83 1583.75,1581.79 1584.36,1581.56C1588.94,1582.53 1594.19,1583.16 1598.44,1584.7C1600.79,1585.56 1602.77,1585.84 1605.02,1584.78C1605.73,1584.44 1606.51,1584.25 1607.36,1584.17C1608.33,1584.04 1609.39,1584.04 1610.51,1584.08C1615.32,1584.19 1616.46,1583.76 1617.4,1581.57C1617.73,1580.8 1618.08,1580.04 1619.78,1579.76C1623.56,1579.14 1626.5,1577.85 1630.2,1577.17C1632.22,1576.79 1633.73,1575.94 1636.08,1577.16C1637.45,1577.87 1640.08,1577.26 1641.37,1576.23C1642.05,1575.71 1641.87,1575.12 1642.1,1574.56C1642.54,1573.49 1643.34,1573.36 1645.33,1573.93C1649.19,1575.05 1652.78,1574.52 1653.81,1572.56C1654.26,1571.71 1655.18,1571.07 1656.18,1570.39C1658.49,1568.81 1661.78,1567.62 1663.92,1565.95C1665.67,1564.6 1667.76,1564.61 1669.9,1565.92C1671.89,1567.14 1674.23,1568.06 1677,1568.89C1679.3,1569.58 1680.88,1570.57 1682.12,1571.67Z" style="fill-rule:nonzero;"/>
    </g>
</svg>
