<?xml version="1.0" encoding="UTF-8" standalone="no"?>
<!DOCTYPE svg PUBLIC "-//W3C//DTD SVG 1.1//EN" "http://www.w3.org/Graphics/SVG/1.1/DTD/svg11.dtd">
<svg width="100%" height="100%" viewBox="0 0 2729 75" version="1.1" xmlns="http://www.w3.org/2000/svg" xmlns:xlink="http://www.w3.org/1999/xlink" xml:space="preserve" xmlns:serif="http://www.serif.com/" style="fill-rule:evenodd;clip-rule:evenodd;stroke-linejoin:round;stroke-miterlimit:2;">
    <path d="M2181.45,0C2179.59,0.016 2177.7,0.138 2175.92,0.38C2172.26,0.84 2171.24,1.98 2173.74,3.32C2176.06,4.56 2179.06,5.52 2181.68,6.66C2184.34,7.8 2187.08,9.06 2185.54,10.94C2183.96,12.86 2180.04,12.96 2176.42,12.76C2169.5,12.4 2164.26,13.64 2158.58,15.42C2146.2,19.32 2133.88,23.7 2117.28,22.84C2115.9,22.76 2114.38,22.92 2113.02,23.12C2100.52,24.84 2088.96,23.96 2077.7,20.94C2069.46,18.74 2060.32,18.2 2050.82,19.08C2052.62,25.12 2049.78,26.84 2036.76,27.9C2032.14,28.26 2027,28.22 2023.06,29.2C2014.72,31.24 2005.96,31.6 1996.9,31.64C1993.62,31.66 1989.72,31.56 1987.86,32.84C1983.64,35.8 1975.42,36.68 1971.92,40.04C1969.74,42.12 1964.94,42.82 1959.84,41.72C1956.86,41.08 1953.72,40.36 1950.5,40.86C1942.02,42.1 1935.94,40.08 1929.84,37.94C1927.26,37.04 1924.88,36.02 1922.18,35.22C1918.98,34.28 1916.78,34.56 1916.44,36.54C1916.22,37.72 1918.24,39.22 1914.48,40.08C1907.16,38.94 1904.22,36.3 1902.36,33.08C1899.84,28.78 1896.72,24.52 1890.92,20.88C1886.68,18.22 1884.36,18.1 1878.86,20.4C1875.5,21.8 1872.84,21.8 1869.28,20.86C1862.32,18.98 1856.26,19.62 1851.06,22.38C1850.12,22.88 1848.98,23.3 1847.92,23.74C1839.5,27.3 1838.88,27.46 1829.18,25.02C1823.8,23.64 1819.3,23.08 1814.9,25.56C1813.74,26.22 1811.78,26.68 1810.06,26.42C1803.06,25.44 1794.64,26.32 1789.24,23.1C1786.2,21.28 1782.3,20.82 1777.88,22.22C1772.64,23.86 1766.58,24.34 1760.46,24.62C1755.66,24.84 1751.44,25.66 1747.42,26.82C1744.4,27.7 1741.36,28.68 1738.02,29.24C1727.3,31 1717.9,33.64 1709.86,37.34C1706.22,39.02 1701.98,40.08 1696.62,40.4C1682.44,41.18 1682.46,41.24 1678.4,34.84C1676.2,31.38 1667.6,27.54 1661.76,28.16C1653.12,29.08 1644.56,27.36 1636.04,28.54C1633.3,28.9 1630.36,28.38 1627.58,27.98C1611,25.58 1594.96,26.2 1579.54,29.9C1572.6,31.56 1565.26,32.58 1557.66,31.42C1551.3,30.46 1545.06,30.06 1538.82,30.28C1534.58,30.38 1530.32,30.8 1526,31.52C1520.1,32.52 1518.98,31.96 1518.86,29.2C1518.8,27.78 1518.34,26.46 1517.5,25.28C1514.54,21.06 1506.88,18.4 1496.14,18.1C1491.28,17.98 1487.14,17.14 1482.88,16.2C1476.68,14.82 1472.6,15.62 1469.76,18.42L1469.62,18.56C1469.14,19.14 1468.98,19.76 1468.5,20.3C1465.82,23.48 1464.06,23.94 1457.14,23.04C1454.54,22.68 1452.04,22.2 1449.5,21.74C1448.36,21.52 1447.2,21.3 1446.02,21.12C1438.9,19.96 1432.18,18.12 1424.56,17.8C1424.38,17.8 1424.2,17.78 1424.02,17.78C1416.86,17.42 1410.44,16.24 1404.12,14.8C1402.22,14.44 1400.28,14.16 1398.3,13.96C1390.24,13.12 1381.66,13.34 1373.92,11.82C1369.62,11.52 1365.92,12.38 1363.02,13.6C1353.34,17.58 1341.52,18.72 1329.24,19.3C1321.6,19.64 1314.54,20.88 1307.36,21.96C1299.82,23.08 1293.02,23.56 1287.24,19.94C1284.02,17.92 1281.86,18.28 1280.84,20.88C1279.86,23.36 1277.54,22.98 1274.26,22.06C1273.04,21.72 1272.02,21.22 1270.8,20.88C1264.18,18.92 1257.52,18.24 1251.16,21.04C1247.4,22.66 1243.94,22.24 1240.74,20.84C1235.52,18.5 1229.48,16.72 1223.5,14.88C1221.02,14.1 1218.26,13.26 1215.56,14.16C1210.86,15.7 1207.3,14.9 1202.78,13.84C1197,12.48 1190.94,11.52 1187.16,8.84C1185.98,8 1183.24,7.24 1181.72,8.16C1176.84,11.18 1171.2,11.02 1164.64,9.7C1163.7,9.5 1161.92,10 1160.72,10.34C1156.62,11.46 1151.62,11.22 1147.46,12.36C1143.96,13.34 1140.32,12.58 1137.62,11.36C1135.6,10.44 1134.1,9.28 1132.42,8.2C1127.72,5.2 1124.72,5 1118.44,7.44C1114.02,9.16 1110.58,11.26 1107.22,13.44C1102.92,16.22 1098.82,16.48 1092.26,14.88C1091,14.56 1089.64,14.24 1088.7,13.78C1082.5,10.66 1076.1,10.3 1068.94,13.16C1066.12,14.28 1062.68,14.68 1058.84,14.08C1044.22,11.84 1029.7,13.56 1015.18,14.48C1010.92,14.74 1006.78,15.54 1002.52,15.66C975.2,16.52 948.06,18.1 921.06,20.16C911.12,20.9 902.42,20.38 894.48,17.64C888.98,15.78 882.86,15.12 876.22,15.02C857.52,14.84 839.56,16.06 823.44,20.82C819.48,22 815.2,22.88 810.56,23.3C803.74,23.96 797.7,25.12 792.22,27.24C786.46,29.46 781.36,28.8 778.88,25.48C776.9,22.82 773.1,20.48 772.42,17.62C772.1,16.24 771.12,14.98 767.76,14.6C763.72,14.18 761.8,15.42 760.48,16.86C757.4,20.16 751.52,20.34 745.1,19.8C740.86,19.42 736.64,18.88 733.54,17.32C731.02,16.06 727.92,15.7 724.8,16.6C719.7,18.08 713.52,17.66 708.32,18.84C704.38,19.68 701.32,19.2 698.82,17.74C694.08,14.92 687.38,13.9 680.12,13.24C675.9,12.86 671.58,12.48 667.64,11.72C662.38,10.72 657.8,11.06 653.4,12.5C646.72,14.7 639.08,15.44 631.14,15.98C625.8,16.32 620.28,16.64 615.32,17.54C595.78,21.08 575.32,21.52 554.74,21.6C543.92,21.64 533.08,21.38 522.3,21.6C494.52,22.2 467.76,24.38 445.54,32.94C436.66,36.34 427.8,39.78 419.26,43.36C412.66,46.12 406.24,48.94 400.16,51.96C397.678,53.2 395.26,54.3 391.818,55.02C375.54,58.4 372.18,57.88 365.42,50.34C363.98,48.72 361.88,48.32 358.72,48.88C356.76,49.26 354.36,49.7 353.28,50.42C347.02,54.7 337.74,57.7 331.02,61.8C324.28,65.92 319.96,70.98 307.92,73.1C298.38,74.82 295.88,74.96 290.38,70.88C289.24,70.04 288,69.16 287.5,68.22C286.34,66 283.1,64.92 278.62,64.38C275.62,62.78 270.26,66.46 267.94,63.36C259.96,57.44 245.78,55.06 234.36,51.12C233.88,50.96 232.9,50.9 232.3,51.02C226.32,52 223.62,50.18 221.36,48.24C218.14,45.5 213.4,44.16 206.58,44.16C203.74,44.16 200.9,43.72 198.04,43.66C189.88,43.56 183.74,41.8 178.58,39.04C176.26,37.82 173.9,36.6 171.52,35.38C168.86,34.04 166.16,32.66 163.46,31.32C159,29.06 153.94,27.36 146.82,27.3C142.92,27.26 138.98,26.86 135.62,25.78C133.28,24.9 130.68,24.34 127.84,25.12C121.88,26.8 115.62,26.28 109.34,25.82C105.9,25.56 103.6,24.48 101.3,23.46C97.16,21.6 92.8,19.82 89.12,17.82C82.04,13.92 72.1,13 62.18,12.16C55.34,11.6 51.04,14.02 46.24,15.72C42.12,17.2 37.12,18.22 32.12,17.64C21.88,16.48 11.5,16.74 1.18,16.32C0.78,16.3 0.38,16.3 0,16.3L0,0L2181.45,0ZM2728.48,19.34C2726,17.14 2722.84,15.16 2718.24,13.78C2712.7,12.12 2708.02,10.28 2704.04,7.84C2699.76,5.22 2695.58,5.2 2692.08,7.9C2687.8,11.24 2681.22,13.62 2676.6,16.78C2674.6,18.14 2672.76,19.42 2671.86,21.12C2669.8,25.04 2662.62,26.1 2654.9,23.86C2650.92,22.72 2649.32,22.98 2648.44,25.12C2647.98,26.24 2648.34,27.42 2646.98,28.46C2644.4,30.52 2639.14,31.74 2636.4,30.32C2631.7,27.88 2628.68,29.58 2624.64,30.34C2617.24,31.7 2611.36,34.28 2603.8,35.52C2600.4,36.08 2599.7,37.6 2599.04,39.14C2597.16,43.52 2594.88,44.38 2585.26,44.16C2583.02,44.08 2580.9,44.08 2578.96,44.34C2577.26,44.5 2575.7,44.88 2574.28,45.56C2569.78,47.68 2565.82,47.12 2561.12,45.4C2552.62,42.32 2542.12,41.06 2532.96,39.12C2531.74,39.58 2531.32,39.66 2531.22,39.8C2530.96,40.1 2530.78,40.42 2530.7,40.74C2529.78,44.18 2528.88,44.4 2522.56,42.56C2519.48,41.68 2516.46,40.72 2514.52,39.32C2509.9,35.94 2503.12,33.9 2495.52,32.2C2490.84,31.16 2486.34,29.92 2481.84,28.68C2480.44,28.32 2479.04,27.94 2477.64,27.56C2464.26,24.06 2449.68,21.6 2434.54,21.64C2406.94,21.74 2381.76,16.9 2355.32,14.68C2340.94,13.46 2327.74,9.9 2312.32,10.44C2304.82,10.7 2297.76,9.54 2291.48,7.1C2284.7,4.46 2280.76,5.26 2277.66,9.06C2277.02,9.86 2276.52,10.66 2274.22,10.58C2272.2,10.52 2271.02,9.9 2270.42,9.06C2270.1,8.6 2269.96,8.1 2269.98,7.62C2270.14,4.46 2265.56,3.66 2260.1,3.54C2255.8,3.48 2251.48,3.76 2247.16,3.94C2239.54,4.24 2231.8,4.26 2224.8,2.84C2211.16,0 2196.72,0.2 2182.34,0L2728.48,0L2728.48,19.34Z"/>
</svg>
