<?xml version="1.0" encoding="UTF-8" standalone="no"?>
<!DOCTYPE svg PUBLIC "-//W3C//DTD SVG 1.1//EN" "http://www.w3.org/Graphics/SVG/1.1/DTD/svg11.dtd">
<svg width="100%" height="100%" viewBox="0 0 2729 84" version="1.1" xmlns="http://www.w3.org/2000/svg" xmlns:xlink="http://www.w3.org/1999/xlink" xml:space="preserve" xmlns:serif="http://www.serif.com/" style="fill-rule:evenodd;clip-rule:evenodd;stroke-linejoin:round;stroke-miterlimit:2;">
    <g transform="matrix(1,0,0,1,0,-157.208)">
        <path d="M2728.48,210.05L2728.48,241L0,241L0,195.37C0.62,195.17 1.24,194.97 1.88,194.75C8.78,192.49 17.54,193.27 24.56,195.05C30.06,196.45 28.56,199.45 27.64,201.85C26.66,204.43 29.26,205.55 34,206.17C38.58,206.75 43.22,206.79 47.94,206.65C56.58,206.41 65.24,206.15 73.88,206.15C79.3,206.15 83.66,205.91 86.28,203.29C88.54,201.03 93.34,200.63 98.3,200.89C104.98,201.21 106.2,202.39 102.02,204.89C99.66,206.33 98.34,207.37 102.6,208.41C110.58,210.35 125,208.39 128.42,204.59C130.42,202.37 133.64,201.51 138.18,201.35C142.1,201.21 146.18,201.09 150.02,201.37C160.66,202.19 169.12,200.65 176.04,196.95C181.54,194.03 188.38,191.91 196.04,190.31C203.58,188.75 211.14,187.19 217.76,184.81C221.02,183.67 224.86,183.23 228.96,183.31C234.44,183.43 239.8,183.09 244.84,182.13C250.24,181.07 254.64,181.89 258.84,183.43C265.62,185.91 271.5,188.83 277.8,191.53C288.38,196.13 300.62,199.55 314.78,201.25C319.18,201.75 321.86,202.73 323.38,204.55C324.96,206.39 326.4,208.31 326,210.33C325.4,213.39 328.04,216.17 329.2,219.09C330.04,221.19 333.18,222.47 337.64,223.19C343.94,224.23 350.02,225.01 356.02,222.83C361.42,220.87 370.86,222.47 374.18,218.55C374.3,218.43 375.62,218.35 376.12,218.47C381.64,219.85 381.52,218.05 382.58,216.35C385.68,211.43 393.78,210.49 401.96,213.95C403,214.41 403.86,214.95 404.78,215.47C408.078,217.33 411.9,218.27 417,216.95C422.2,215.59 425.06,216.83 427.28,218.85C427.62,219.13 427.86,219.43 428.08,219.77C429.74,222.27 432.62,223.61 438.24,221.77C440.66,220.97 442.94,221.31 445.44,221.49C455.42,222.19 456.84,222.09 466.3,220.07C468.02,219.73 469.76,219.63 471.56,219.79C474.64,220.05 477.12,219.41 479.74,218.85C483.5,217.99 487.4,217.27 492.46,216.25C491.88,218.41 491.24,219.83 491.18,221.27C491.1,223.57 493.16,224.25 497.42,223.03C501.12,221.97 502.86,222.19 505.24,223.75C509.1,226.27 510.26,226.37 515.02,224.43C521.84,221.65 527.6,218.43 529.92,214.29C535.5,204.29 551.16,199.59 571.62,197.91C581.28,197.13 588.18,195.01 594.42,191.91C596.62,190.83 598.66,189.67 601,188.65C602.26,188.11 604.02,187.63 605.84,188.13C607.22,188.53 606.98,189.25 607.06,189.91C607.52,193.85 607.68,193.91 615.64,194.77C620.6,195.33 625.62,195.71 630.62,195.09C634.62,194.59 637.62,194.81 639.52,196.71C640.94,198.13 643.44,199.31 646.92,199.29C654.18,199.21 655.8,201.43 657.12,203.97C657.58,204.87 656.88,206.05 660.46,206.57C665.66,205.29 671.44,203.99 676.98,202.49C681.1,201.39 685.32,199.89 686.3,197.83C688.68,192.79 692.92,188.57 703.58,186.19C704.44,185.99 705.26,185.47 705.48,185.03C707.54,181.05 714.36,180.71 721.42,180.53C727.94,180.37 734.38,180.51 740.84,180.93C756.9,181.95 773,182.91 789.08,183.83C807.66,184.89 826.78,184.71 844.6,187.57C867.22,191.21 890.56,193.13 913.96,195.05C924,195.89 934.06,195.87 944.08,194.93C947.18,194.65 950.04,194.29 952.48,193.01C959.5,189.37 963.82,188.71 972.54,190.09C973.38,190.21 974.26,190.37 975.2,190.55C990.52,193.35 1003.5,197.75 1015.52,202.83C1018.7,204.17 1021.42,205.75 1025.56,206.55C1031.2,207.63 1036.02,208.91 1034.02,212.39C1033.56,213.21 1034.62,214.03 1035.98,214.61C1039.76,216.25 1042.6,218.49 1049.44,216.37C1050.46,216.07 1051.66,215.93 1052.86,215.95C1056.14,215.99 1059.4,217.03 1058.82,217.95C1055.52,223.15 1064.7,224.53 1071.28,225.47C1082.76,227.07 1094.36,228.83 1106.62,229.19C1111.58,229.33 1115.48,229.01 1116.54,226.57C1117.7,223.93 1121.64,223.53 1126.56,222.97C1136.9,221.81 1147.4,222.45 1157.74,221.83C1173.02,220.91 1188.42,222.03 1203.84,220.79C1211.84,220.17 1220.22,220.25 1228.18,219.09C1242.04,217.03 1256.22,216.01 1270.8,216.45C1279.4,216.69 1288.32,216.65 1294.02,220.49C1294.76,220.99 1296.34,221.39 1297.66,221.49C1303.48,221.89 1305.68,223.79 1307.92,226.01C1313.36,231.43 1319.54,232.75 1331.84,231.67C1341.02,230.87 1349.82,231.01 1357.18,234.17C1360.12,235.43 1363.64,235.49 1367.3,235.19C1369.78,234.99 1372.72,234.15 1374.56,234.53C1382.2,236.09 1386.62,233.95 1391.8,232.07C1400.54,228.89 1408.94,225.17 1418.88,223.11C1426.02,221.63 1430.7,219.79 1434.56,216.97C1437.24,215.01 1440.08,213.09 1442.84,211.17C1446.18,208.79 1450.68,207.15 1457.04,207.45C1461.58,207.65 1464.46,206.81 1467.46,205.47C1474.38,202.37 1474.5,202.41 1481.58,205.05C1482.2,204.87 1483.04,204.79 1483.38,204.55C1487.1,201.79 1491.34,199.79 1499.2,201.55C1501.78,202.13 1503.92,201.33 1505.94,200.53C1510.34,198.85 1514.72,197.13 1519.38,195.59C1528.64,192.53 1533.12,192.81 1540.96,196.33C1544.9,198.11 1546.34,200.89 1550.6,202.23C1560.32,205.27 1565.44,209.77 1571.14,214.15C1575.28,216.45 1581.42,213.67 1585.8,215.39C1590.68,218.71 1595.84,221.59 1606.06,219.35C1608.36,218.85 1611.18,219.39 1613.16,220.13C1620.72,222.93 1629.56,224.89 1636.42,228.17C1642.96,231.29 1648.6,234.71 1654.64,237.99C1656.74,239.13 1659.06,240.77 1662.44,240.15C1667.6,239.19 1674.06,238.99 1677.16,236.39C1682.2,232.15 1691.64,230.45 1700.18,228.67C1706.6,227.31 1712.14,225.81 1716.92,223.51C1728.88,217.69 1742.8,213.03 1758.3,209.41C1762.22,208.51 1764.16,207.13 1765.78,205.43C1769.1,201.87 1775.08,199.59 1782.96,198.39C1785.68,197.97 1788.88,197.45 1790.96,198.73C1793.08,200.03 1791.12,201.29 1789.38,202.35C1786.6,204.05 1783.48,205.67 1780.76,207.41C1779.4,208.25 1779.24,209.23 1781.98,209.79C1793.06,212.19 1811.02,207.07 1811.06,201.49C1811.08,198.55 1812.18,197.81 1818.34,198.09C1825.84,198.45 1833.24,199.27 1840.68,199.81C1844.28,200.09 1847.88,200.31 1850.78,201.41C1856.92,203.77 1863.96,203.83 1871.28,203.19C1885.34,201.97 1898.62,203.41 1911.24,206.03C1925.96,209.07 1938.92,213.81 1954.92,215.69C1955.92,215.81 1956.9,216.11 1957.72,216.43C1965,219.19 1972.4,221.77 1982.6,221.71C1984.2,221.67 1985.88,222.33 1987.4,222.75C1999.68,226.33 2014.14,226.37 2027.6,228.01C2029.86,228.31 2032.64,227.97 2035.06,227.69C2044.64,226.59 2054.56,226.65 2064.1,226.81C2073.18,226.95 2083.28,227.87 2090.78,230.01C2098.5,232.21 2106.66,233.65 2114.62,235.43C2121.92,237.05 2128.76,237.69 2136.3,236.03C2141.66,234.85 2146.18,235.23 2148.84,237.91C2150.52,239.59 2153.02,239.85 2156.78,239.41C2170.1,237.81 2183.78,237.39 2197.5,237.25C2206.06,237.19 2213.86,236.11 2220.64,233.69C2225.52,231.95 2230.98,230.73 2236.5,229.47C2251.18,226.15 2264.16,221.67 2274.36,215.81C2280.54,212.25 2287.28,209.19 2295.9,206.93C2306.6,204.15 2316.54,200.89 2325.2,196.81C2328.7,195.19 2332.84,193.81 2336.84,192.39C2340.08,191.25 2342.96,191.29 2346.44,192.63C2352.48,194.97 2354.52,195.01 2359.88,192.33C2366.68,188.95 2372.66,185.19 2378.86,181.55C2381,180.29 2380.6,178.73 2380.46,177.23C2380.12,173.43 2378.82,169.67 2376.66,165.99C2375.74,164.41 2374.66,162.69 2376.98,161.17C2378.9,159.93 2392.7,158.19 2395.72,159.03C2400,160.21 2403.24,159.81 2406.2,158.25C2409.7,156.41 2412.52,157.29 2415.02,158.71C2416.8,159.75 2418.82,160.83 2419.68,162.03C2424.44,168.73 2435.94,172.79 2447.1,176.93C2453.4,179.25 2456.1,181.95 2455.3,185.53C2455.02,186.85 2454.7,188.15 2454.58,189.47C2454.4,191.49 2455.92,193.05 2460.62,193.59C2464.7,194.03 2467.48,195.31 2470.26,196.63C2475.26,198.99 2480.04,201.51 2485.5,203.61C2489.72,205.27 2493.32,206.55 2493.74,209.51C2494.2,212.77 2499,214.25 2505.82,213.59C2513.12,212.87 2520.54,213.07 2527.3,213.67C2537.9,214.61 2549.78,214.45 2558.1,218.71C2560.84,220.11 2565.06,220.43 2569.14,220.23C2578.18,219.79 2587.08,219.75 2595.88,221.09C2598.62,221.51 2601.58,221.07 2604.34,220.57C2610.4,219.53 2616.56,218.57 2622.58,217.47C2632.18,215.71 2633.88,213.93 2630.62,209.45C2627.78,205.57 2629.14,204.41 2637.76,203.55C2642.42,203.09 2647.1,202.91 2651.34,204.23C2657.34,206.11 2664.06,206.39 2671.04,206.15C2677.3,205.93 2683.36,206.15 2688.44,208.11C2693.68,210.11 2698.98,209.83 2704.42,208.33C2705.98,207.91 2707.66,207.59 2709.18,207.15C2714.48,205.67 2719.2,205.49 2723.2,208.13C2724.52,209.01 2726.26,209.69 2728.48,210.05Z"/>
    </g>
</svg>
