<svg width="254" height="176" viewBox="0 0 254 176" fill="none" xmlns="http://www.w3.org/2000/svg">
<path d="M0 16C0 7.16344 7.16344 0 16 0H237.131C245.968 0 253.131 7.16344 253.131 16V160C253.131 168.837 245.968 176 237.131 176H16C7.16345 176 0 168.837 0 160V16Z" fill="#ED1D24"/>
<path fill-rule="evenodd" clip-rule="evenodd" d="M237.131 4H16C9.37258 4 4 9.37258 4 16V160C4 166.627 9.37259 172 16 172H237.131C243.759 172 249.131 166.627 249.131 160V16C249.131 9.37259 243.759 4 237.131 4ZM16 0C7.16344 0 0 7.16344 0 16V160C0 168.837 7.16345 176 16 176H237.131C245.968 176 253.131 168.837 253.131 160V16C253.131 7.16344 245.968 0 237.131 0H16Z" fill="#1F1300"/>
<path fill-rule="evenodd" clip-rule="evenodd" d="M37.2012 132.46C37.1802 132.461 37.1592 132.461 37.1382 132.461L36.96 132.46C36.939 132.46 36.9181 132.46 36.8971 132.459L36.7189 132.452C36.698 132.452 36.6772 132.451 36.6565 132.449L36.4782 132.437C36.4577 132.436 36.4372 132.434 36.4168 132.432L36.2385 132.414C36.2184 132.412 36.1984 132.41 36.1784 132.408L36.0001 132.385C35.9806 132.382 35.9611 132.379 35.9416 132.376L35.7634 132.348C35.7445 132.345 35.7257 132.342 35.7069 132.338L35.5287 132.304C35.5106 132.301 35.4925 132.297 35.4745 132.293L35.2962 132.255C35.279 132.251 35.2618 132.247 35.2446 132.243L35.0664 132.199C35.05 132.195 35.0337 132.191 35.0175 132.186L34.8392 132.138C34.8327 132.136 34.8263 132.134 34.8198 132.132C34.8109 132.13 34.8021 132.127 34.7932 132.124L34.6149 132.071C34.6005 132.067 34.5862 132.063 34.5719 132.058L34.3937 132C34.3803 131.996 34.367 131.992 34.3537 131.987L34.1754 131.925C34.1631 131.921 34.1509 131.917 34.1386 131.912L33.9604 131.846C33.9491 131.842 33.9379 131.838 33.9267 131.834L33.7484 131.764L33.7178 131.752L33.5396 131.679L33.5121 131.668L33.3339 131.592L33.3095 131.581L33.1313 131.503L33.1099 131.493L32.9317 131.412L32.9134 131.404L32.7351 131.32L32.7197 131.313L32.5415 131.228L32.5415 131.228L32.529 131.222L32.3508 131.135L32.3412 131.13L32.163 131.042L32.1563 131.039L31.9781 130.95L31.9742 130.948L31.796 130.859L31.795 130.859L31.6185 130.77L31.6167 130.769L31.4426 130.682L31.2704 130.597L31.1011 130.514L30.9347 130.433L30.7712 130.355L30.6106 130.281L30.4531 130.21L30.2985 130.142L30.1471 130.079L29.9987 130.019L29.8535 129.963L29.7114 129.912L29.5725 129.865L29.4366 129.822L29.3037 129.783L29.1738 129.749L29.0466 129.718L28.9219 129.692L28.7997 129.67L28.6794 129.652L28.561 129.638L28.4439 129.628L28.3278 129.621L28.2123 129.618L28.0655 129.618L28.0469 125.618L28.2251 125.618C28.2385 125.618 28.2518 125.618 28.2651 125.618C28.2728 125.618 28.2804 125.618 28.2881 125.618L28.4663 125.623C28.4761 125.623 28.4858 125.624 28.4956 125.624C28.5067 125.625 28.5178 125.625 28.5289 125.626L28.7072 125.636C28.7278 125.637 28.7484 125.639 28.7689 125.641L28.9472 125.657C28.9674 125.658 28.9876 125.661 29.0078 125.663L29.186 125.684C29.2057 125.687 29.2254 125.689 29.245 125.692L29.4233 125.719C29.4423 125.722 29.4614 125.725 29.4803 125.729L29.6586 125.761C29.6769 125.764 29.6952 125.768 29.7135 125.771L29.8917 125.809C29.9092 125.812 29.9267 125.816 29.9441 125.82L30.1224 125.863C30.139 125.867 30.1556 125.871 30.1721 125.875L30.3504 125.922C30.366 125.926 30.3817 125.931 30.3972 125.935L30.5755 125.987C30.5902 125.991 30.6048 125.996 30.6194 126L30.7977 126.057C30.8113 126.061 30.825 126.066 30.8385 126.07L31.0168 126.131C31.0294 126.135 31.042 126.139 31.0545 126.144L31.2328 126.208C31.2444 126.213 31.2559 126.217 31.2674 126.221L31.4457 126.29L31.4772 126.302L31.6554 126.374L31.6838 126.385L31.8621 126.46L31.8873 126.471L32.0656 126.549L32.0878 126.559L32.2661 126.64L32.2853 126.648L32.4635 126.731L32.4798 126.739L32.658 126.823L32.6713 126.83L32.8496 126.916L32.8496 126.916L32.86 126.921L33.0382 127.009L33.0457 127.012L33.224 127.101L33.2287 127.103L33.4069 127.192L33.4088 127.193L33.586 127.282L33.587 127.283L33.7605 127.369L33.7643 127.371L33.9354 127.457L34.1056 127.54L34.2728 127.622L34.4372 127.7L34.5987 127.776L34.7571 127.848L34.9125 127.917L35.0649 127.982L35.2142 128.042L35.3603 128.099L35.5033 128.152L35.6432 128.2L35.78 128.245L35.9137 128.285L36.0446 128.32L36.1726 128.352L36.2979 128.379L36.4209 128.402L36.5417 128.421L36.6606 128.437L36.7781 128.448L36.8944 128.456L37.01 128.46L37.1254 128.461L37.2409 128.458L37.357 128.451L37.4741 128.441L37.5925 128.426L37.7128 128.408L37.835 128.386L37.9597 128.36L38.0869 128.33L38.2168 128.296L38.3497 128.257L38.4856 128.214L38.6246 128.167L38.7666 128.115L38.9119 128.06L39.0602 128L39.2117 127.936L39.3661 127.869L39.5237 127.798L39.6843 127.723L39.8478 127.645L40.0142 127.565L40.1836 127.482L40.3534 127.397L40.3581 127.395L40.5298 127.309L40.5316 127.308L40.7081 127.22L40.7091 127.219L40.8873 127.13L40.8912 127.128L41.0694 127.039L41.0761 127.036L41.2543 126.948L41.2639 126.944L41.4421 126.857L41.4421 126.857L41.4546 126.851L41.6328 126.766L41.6482 126.758L41.8265 126.675L41.8447 126.667L42.023 126.585L42.0444 126.576L42.2226 126.497L42.247 126.487L42.4252 126.411L42.4527 126.399L42.6309 126.326L42.6615 126.314L42.8398 126.245C42.851 126.241 42.8622 126.236 42.8735 126.232L43.0517 126.166C43.064 126.162 43.0762 126.158 43.0885 126.153L43.2668 126.092C43.2801 126.087 43.2934 126.082 43.3068 126.078L43.485 126.021C43.4993 126.016 43.5136 126.012 43.528 126.007L43.7063 125.954C43.7216 125.949 43.7369 125.945 43.7523 125.941L43.9306 125.892C43.9468 125.888 43.9631 125.884 43.9795 125.88L44.1577 125.836C44.1749 125.832 44.1921 125.828 44.2093 125.824L44.3876 125.785C44.3997 125.783 44.4118 125.78 44.4239 125.778C44.4298 125.776 44.4358 125.775 44.4418 125.774L44.62 125.741C44.6388 125.737 44.6576 125.734 44.6765 125.731L44.8547 125.702C44.8742 125.699 44.8937 125.696 44.9132 125.694L45.0915 125.671C45.1115 125.668 45.1315 125.666 45.1516 125.664L45.3299 125.646C45.3503 125.644 45.3708 125.643 45.3913 125.641L45.5696 125.629C45.5903 125.628 45.6111 125.627 45.632 125.626L45.8102 125.62C45.8312 125.619 45.8521 125.619 45.8731 125.618L46.0513 125.618C46.0723 125.617 46.0933 125.618 46.1143 125.618L46.2925 125.623C46.3134 125.624 46.3343 125.625 46.3551 125.626L46.5334 125.636C46.554 125.637 46.5746 125.639 46.5951 125.641L46.7734 125.657C46.7936 125.658 46.8138 125.661 46.834 125.663L47.0122 125.684C47.0319 125.687 47.0516 125.689 47.0712 125.692L47.2495 125.719C47.2685 125.722 47.2876 125.725 47.3065 125.729L47.4848 125.761C47.5031 125.764 47.5214 125.768 47.5397 125.771L47.7179 125.809C47.7354 125.812 47.7529 125.816 47.7703 125.82L47.9486 125.863C47.9652 125.867 47.9818 125.871 47.9983 125.875L48.1766 125.922C48.1874 125.925 48.1983 125.928 48.2092 125.931C48.2139 125.933 48.2187 125.934 48.2234 125.935L48.4017 125.987C48.4058 125.988 48.4099 125.99 48.414 125.991C48.4246 125.994 48.4351 125.997 48.4456 126L48.6239 126.057C48.6375 126.061 48.6512 126.066 48.6647 126.07L48.843 126.131C48.8556 126.135 48.8682 126.139 48.8807 126.144L49.059 126.208C49.0638 126.21 49.0685 126.212 49.0733 126.214C49.0801 126.216 49.0868 126.219 49.0936 126.221L49.2719 126.29L49.3034 126.302L49.4816 126.374L49.51 126.385L49.6883 126.46L49.7135 126.471L49.8918 126.549L49.914 126.559L50.0923 126.64L50.1115 126.648L50.2897 126.731L50.306 126.739L50.4842 126.823L50.4975 126.83L50.6758 126.916L50.6758 126.916L50.6862 126.921L50.8644 127.009L50.8719 127.012L51.0502 127.101L51.0549 127.103L51.2331 127.192L51.2349 127.193L51.4122 127.282L51.4132 127.283L51.5867 127.369L51.5905 127.371L51.7583 127.455L51.7649 127.458L51.927 127.538L51.9365 127.543L52.0991 127.622L52.2634 127.7L52.4249 127.776L52.5833 127.848L52.7388 127.917L52.8911 127.982L53.0403 128.042L53.1865 128.099L53.3295 128.152L53.4694 128.2L53.6062 128.245L53.7399 128.285L53.8708 128.32L53.9987 128.352L54.1241 128.379L54.2471 128.402L54.3679 128.421L54.4868 128.437L54.6043 128.448L54.7206 128.456L54.8362 128.46L54.9516 128.461L55.0671 128.458L55.1832 128.451L55.3003 128.441L55.4187 128.426L55.5389 128.408L55.6612 128.386L55.7859 128.36L55.9131 128.33L56.043 128.296L56.1759 128.257L56.3118 128.214L56.4507 128.167L56.5928 128.115L56.738 128.06L56.8864 128L57.0378 127.936L57.1924 127.869L57.3499 127.798L57.5105 127.723L57.674 127.645L57.8405 127.565L58.006 127.483L58.0135 127.48L58.1796 127.397L58.1843 127.395L58.356 127.309L58.3578 127.308L58.5343 127.22L58.5353 127.219L58.7135 127.13L58.7174 127.128L58.8956 127.039L58.9023 127.036L59.0805 126.948L59.0901 126.944L59.2683 126.857L59.2683 126.857L59.2808 126.851L59.459 126.766L59.4744 126.758L59.6527 126.675L59.671 126.667L59.8492 126.585L59.8706 126.576L60.0488 126.497L60.0732 126.487L60.2514 126.411L60.2789 126.399L60.4572 126.326L60.4877 126.314L60.666 126.245C60.6726 126.242 60.6793 126.24 60.686 126.237C60.6905 126.236 60.6951 126.234 60.6996 126.232L60.8779 126.166C60.8901 126.162 60.9024 126.158 60.9147 126.153L61.093 126.092C61.0999 126.089 61.1068 126.087 61.1137 126.084C61.1201 126.082 61.1265 126.08 61.1329 126.078L61.3112 126.021C61.3255 126.016 61.3398 126.012 61.3542 126.007L61.5325 125.954C61.5478 125.949 61.5631 125.945 61.5785 125.941L61.7568 125.892C61.773 125.888 61.7893 125.884 61.8057 125.88L61.9839 125.836C62.0011 125.832 62.0183 125.828 62.0355 125.824L62.2138 125.785C62.2318 125.781 62.2499 125.778 62.268 125.774L62.4462 125.741C62.465 125.737 62.4838 125.734 62.5027 125.731L62.6809 125.702C62.7004 125.699 62.7199 125.696 62.7394 125.694L62.9177 125.671C62.9377 125.668 62.9577 125.666 62.9778 125.664L63.1561 125.646C63.1765 125.644 63.197 125.643 63.2175 125.641L63.3958 125.629C63.4165 125.628 63.4373 125.627 63.4582 125.626L63.6364 125.62C63.6574 125.619 63.6783 125.619 63.6993 125.618L63.8775 125.618C63.8985 125.617 63.9195 125.618 63.9405 125.618L64.1187 125.623C64.1396 125.624 64.1604 125.625 64.1813 125.626L64.3596 125.636C64.3802 125.637 64.4007 125.639 64.4213 125.641L64.5996 125.657C64.6198 125.658 64.64 125.661 64.6601 125.663L64.8384 125.684C64.8581 125.687 64.8778 125.689 64.8974 125.692L65.0757 125.719C65.0947 125.722 65.1138 125.725 65.1327 125.729L65.311 125.761C65.3293 125.764 65.3476 125.768 65.3659 125.771L65.5441 125.809C65.5616 125.812 65.5791 125.816 65.5965 125.82L65.7748 125.863C65.7914 125.867 65.808 125.871 65.8245 125.875L66.0028 125.922C66.0184 125.926 66.0341 125.931 66.0496 125.935L66.2279 125.987C66.2333 125.989 66.2386 125.99 66.244 125.992C66.2533 125.995 66.2626 125.998 66.2718 126L66.4501 126.057C66.4637 126.061 66.4774 126.066 66.4909 126.07L66.6692 126.131C66.6757 126.133 66.6821 126.135 66.6885 126.137C66.6947 126.14 66.7008 126.142 66.707 126.144L66.8852 126.208L66.9013 126.214L66.9198 126.221L67.0981 126.29L67.1296 126.302L67.3078 126.374L67.3362 126.385L67.5145 126.46L67.5397 126.471L67.718 126.549L67.7402 126.559L67.9185 126.64L67.9377 126.648L68.1159 126.731L68.1322 126.739L68.3104 126.823L68.3237 126.83L68.502 126.916L68.502 126.916L68.5124 126.921L68.6906 127.009L68.6981 127.012L68.8764 127.101L68.8811 127.103L69.0593 127.192L69.0611 127.193L69.2385 127.282L69.2394 127.283L69.4128 127.369L69.4167 127.371L69.5844 127.455L69.5911 127.458L69.7532 127.538L69.7627 127.543L69.919 127.619L69.9314 127.625L70.0896 127.7L70.251 127.776L70.4096 127.848L70.5649 127.917L70.7172 127.981L70.8665 128.042L71.0127 128.099L71.1557 128.152L71.2956 128.2L71.4324 128.245L71.5661 128.285L71.6969 128.32L71.8249 128.352L71.9503 128.379L72.0733 128.402L72.1941 128.421L72.313 128.437L72.4305 128.448L72.5468 128.456L72.6624 128.46L72.7778 128.461L72.8933 128.458L73.0094 128.451L73.1265 128.441L73.2449 128.426L73.3652 128.408L73.4874 128.386L73.6121 128.36L73.7393 128.33L73.8692 128.296L74.0021 128.257L74.138 128.214L74.277 128.167L74.4191 128.115L74.5643 128.06L74.7126 128L74.8641 127.936L75.0186 127.869L75.1761 127.798L75.3368 127.723L75.4936 127.649L75.5068 127.642L75.6614 127.567L75.6718 127.562L75.8322 127.483L75.8397 127.48L76.0058 127.397L76.0105 127.395L76.1822 127.309L76.184 127.308L76.3605 127.22L76.3615 127.219L76.5397 127.13L76.5436 127.128L76.7218 127.039L76.7285 127.036L76.9068 126.948L76.9163 126.944L77.0945 126.857L77.0945 126.857L77.107 126.851L77.2852 126.766L77.3006 126.758L77.4789 126.675L77.4972 126.667L77.6754 126.585L77.6968 126.576L77.875 126.497L77.8994 126.487L78.0776 126.411L78.1051 126.399L78.2834 126.326L78.3139 126.314L78.4922 126.245C78.5034 126.241 78.5146 126.236 78.5258 126.232L78.7041 126.166L78.7173 126.162L78.7409 126.153L78.9192 126.092C78.9325 126.087 78.9458 126.082 78.9591 126.078L79.1374 126.021C79.1469 126.018 79.1563 126.015 79.1658 126.012C79.1707 126.01 79.1755 126.009 79.1804 126.007L79.3587 125.954C79.374 125.949 79.3893 125.945 79.4047 125.941L79.583 125.892C79.5992 125.888 79.6155 125.884 79.6319 125.88L79.8101 125.836C79.8212 125.833 79.8323 125.831 79.8434 125.828C79.8495 125.827 79.8556 125.825 79.8617 125.824L80.04 125.785C80.0495 125.783 80.0591 125.781 80.0686 125.779C80.0771 125.777 80.0856 125.776 80.0942 125.774L80.2724 125.741C80.2912 125.737 80.31 125.734 80.3289 125.731L80.5071 125.702C80.5266 125.699 80.5461 125.696 80.5656 125.694L80.7439 125.671C80.7639 125.668 80.7839 125.666 80.804 125.664L80.9823 125.646C81.0027 125.644 81.0232 125.643 81.0437 125.641L81.222 125.629C81.2427 125.628 81.2635 125.627 81.2844 125.626L81.4626 125.62C81.4836 125.619 81.5045 125.619 81.5255 125.618L81.7037 125.618L81.7037 125.618L81.8381 125.618C81.8455 125.618 81.853 125.618 81.8605 125.618C81.874 125.618 81.8875 125.618 81.901 125.618L82.0793 125.623C82.1001 125.624 82.121 125.625 82.1418 125.626L82.3201 125.636C82.3407 125.637 82.3613 125.639 82.3818 125.641L82.5601 125.657C82.5803 125.658 82.6005 125.661 82.6207 125.663L82.7989 125.684C82.8103 125.686 82.8216 125.687 82.833 125.689C82.8413 125.69 82.8496 125.691 82.8579 125.692L83.0362 125.719C83.0553 125.722 83.0743 125.725 83.0933 125.729L83.2715 125.761C83.2899 125.764 83.3082 125.768 83.3264 125.771L83.5047 125.809C83.5222 125.812 83.5396 125.816 83.5571 125.82L83.7353 125.863C83.7519 125.867 83.7685 125.871 83.785 125.875L83.9633 125.922C83.979 125.926 83.9946 125.931 84.0102 125.935L84.1884 125.987C84.1981 125.99 84.2077 125.993 84.2172 125.996C84.2223 125.997 84.2273 125.999 84.2323 126L84.4106 126.057C84.4243 126.061 84.4379 126.066 84.4515 126.07L84.6297 126.131C84.6424 126.135 84.6549 126.139 84.6675 126.144L84.8457 126.208C84.8573 126.213 84.8689 126.217 84.8804 126.221L85.0586 126.29L85.0901 126.302L85.2684 126.374L85.2967 126.385L85.475 126.46L85.5003 126.471L85.6785 126.549L85.7007 126.559L85.879 126.64L85.8982 126.648L86.0765 126.731L86.0927 126.739L86.271 126.823L86.2842 126.83L86.4625 126.916L86.4625 126.916L86.4729 126.921L86.6512 127.009L86.6587 127.012L86.8369 127.101L86.8416 127.103L87.0199 127.192L87.0217 127.193L87.199 127.282L87.2 127.283L87.3734 127.369L87.3772 127.371L87.5483 127.457L87.7185 127.54L87.8858 127.622L88.0501 127.7L88.2116 127.776L88.37 127.848L88.5255 127.917L88.6778 127.982L88.8271 128.042L88.9732 128.099L89.1162 128.152L89.2561 128.2L89.3929 128.245L89.5267 128.285L89.6575 128.32L89.7855 128.352L89.9109 128.379L90.0338 128.402L90.1546 128.421L90.2736 128.437L90.391 128.448L90.5073 128.456L90.623 128.46L90.7383 128.461L90.8538 128.458L90.9699 128.451L91.087 128.441L91.2055 128.426L91.3257 128.408L91.448 128.386L91.5726 128.36L91.6998 128.33L91.8298 128.296L91.9626 128.257L92.0985 128.214L92.2375 128.167L92.3796 128.115L92.5248 128.06L92.6731 128L92.8246 127.936L92.9791 127.869L93.1366 127.798L93.2972 127.723L93.4608 127.645L93.6272 127.565L93.7965 127.482L93.9663 127.397L93.971 127.395L94.1427 127.309L94.1446 127.308L94.321 127.22L94.322 127.219L94.5003 127.13L94.5041 127.128L94.6824 127.039L94.689 127.036L94.8673 126.948L94.8768 126.944L95.0551 126.857L95.055 126.857L95.0675 126.851L95.2458 126.766L95.2611 126.758L95.4394 126.675L95.4577 126.667L95.6359 126.585L95.6573 126.576L95.8355 126.497L95.8599 126.487L96.0382 126.411L96.0656 126.399L96.2439 126.326L96.2744 126.314L96.4527 126.245C96.4639 126.241 96.4751 126.236 96.4864 126.232L96.6647 126.166C96.6769 126.162 96.6892 126.158 96.7015 126.153L96.8797 126.092C96.893 126.087 96.9063 126.082 96.9197 126.078L97.0979 126.021C97.1122 126.016 97.1266 126.012 97.141 126.007L97.3192 125.954C97.3345 125.949 97.3498 125.945 97.3652 125.941L97.5435 125.892C97.5597 125.888 97.576 125.884 97.5924 125.88L97.7706 125.836C97.7878 125.832 97.805 125.828 97.8223 125.824L98.0005 125.785C98.0185 125.781 98.0366 125.778 98.0547 125.774L98.233 125.741C98.2454 125.738 98.2578 125.736 98.2703 125.734C98.2767 125.733 98.283 125.732 98.2894 125.731L98.4677 125.702C98.4871 125.699 98.5066 125.696 98.5261 125.694L98.7044 125.671C98.7244 125.668 98.7444 125.666 98.7645 125.664L98.9428 125.646C98.9632 125.644 98.9837 125.643 99.0042 125.641L99.1825 125.629C99.2033 125.628 99.2241 125.627 99.2449 125.626L99.4231 125.62C99.4348 125.619 99.4464 125.619 99.458 125.619C99.4673 125.619 99.4767 125.618 99.486 125.618L99.6643 125.618C99.6852 125.617 99.7062 125.618 99.7272 125.618L99.9054 125.623C99.9263 125.624 99.9472 125.625 99.968 125.626L100.146 125.636C100.167 125.637 100.187 125.639 100.208 125.641L100.386 125.657C100.407 125.658 100.427 125.661 100.447 125.663L100.625 125.684C100.645 125.687 100.665 125.689 100.684 125.692L100.862 125.719C100.873 125.721 100.884 125.722 100.894 125.724C100.903 125.726 100.911 125.727 100.919 125.729L101.098 125.761C101.116 125.764 101.134 125.768 101.153 125.771L101.331 125.809C101.348 125.812 101.366 125.816 101.383 125.82L101.562 125.863C101.578 125.867 101.595 125.871 101.611 125.875L101.789 125.922C101.802 125.926 101.814 125.929 101.826 125.932C101.83 125.933 101.833 125.934 101.836 125.935L102.015 125.987C102.029 125.991 102.044 125.996 102.059 126L102.237 126.057C102.25 126.061 102.264 126.066 102.278 126.07L102.456 126.131C102.469 126.135 102.481 126.139 102.494 126.144L102.672 126.208L102.688 126.214L102.707 126.221L102.885 126.29L102.916 126.302L103.095 126.374L103.123 126.385L103.301 126.46L103.326 126.471L103.505 126.549L103.527 126.559L103.705 126.64L103.724 126.648L103.903 126.731L103.919 126.739L104.097 126.823L104.11 126.83L104.289 126.916L104.299 126.921L104.477 127.009L104.485 127.012L104.663 127.101L104.668 127.103L104.846 127.192L104.848 127.193L105.025 127.282L105.026 127.283L105.2 127.369L105.203 127.371L105.371 127.455L105.378 127.458L105.54 127.538L105.549 127.543L105.712 127.622L105.876 127.7L106.038 127.776L106.196 127.848L106.352 127.917L106.504 127.982L106.653 128.042L106.799 128.099L106.942 128.152L107.082 128.2L107.219 128.245L107.353 128.285L107.484 128.32L107.612 128.352L107.737 128.379L107.86 128.402L107.981 128.421L108.1 128.437L108.217 128.448L108.334 128.456L108.449 128.46L108.596 128.461L108.577 132.461L108.399 132.46C108.378 132.46 108.357 132.46 108.336 132.459L108.158 132.452C108.137 132.452 108.116 132.451 108.096 132.449L107.917 132.437C107.897 132.436 107.876 132.434 107.856 132.432L107.678 132.414C107.658 132.412 107.637 132.41 107.617 132.408L107.439 132.385C107.42 132.382 107.4 132.379 107.381 132.376L107.203 132.348C107.184 132.345 107.165 132.342 107.146 132.338L106.968 132.304C106.95 132.301 106.932 132.297 106.914 132.293L106.735 132.255C106.718 132.251 106.701 132.247 106.684 132.243L106.505 132.199C106.496 132.196 106.486 132.194 106.476 132.191C106.47 132.19 106.463 132.188 106.457 132.186L106.278 132.138C106.263 132.133 106.248 132.129 106.232 132.124L106.054 132.071C106.04 132.067 106.025 132.063 106.011 132.058L105.833 132C105.819 131.996 105.806 131.992 105.793 131.987L105.615 131.925L105.606 131.922C105.597 131.919 105.587 131.916 105.578 131.912L105.399 131.846C105.388 131.842 105.377 131.838 105.366 131.834L105.188 131.764L105.157 131.752L104.979 131.679L104.951 131.668L104.773 131.592L104.749 131.581L104.57 131.503L104.549 131.493L104.371 131.412L104.352 131.404L104.174 131.32L104.159 131.313L103.981 131.228L103.981 131.228L103.968 131.222L103.79 131.135L103.79 131.135L103.78 131.13L103.602 131.042L103.595 131.039L103.417 130.95L103.413 130.948L103.235 130.859L103.234 130.859L103.058 130.77L103.056 130.769L102.884 130.684L102.879 130.681L102.713 130.599L102.706 130.595L102.54 130.514L102.374 130.433L102.21 130.355L102.05 130.281L101.892 130.21L101.738 130.142L101.586 130.079L101.438 130.019L101.293 129.963L101.151 129.912L101.012 129.865L100.876 129.822L100.743 129.783L100.613 129.749L100.486 129.718L100.361 129.692L100.239 129.67L100.119 129.652L100 129.638L99.883 129.628L99.7669 129.621L99.6514 129.618L99.5361 129.618L99.4204 129.622L99.3041 129.63L99.1867 129.642L99.0677 129.657L98.9469 129.676L98.8239 129.7L98.6986 129.727L98.5706 129.758L98.4398 129.794L98.306 129.834L98.1692 129.878L98.0293 129.927L97.8863 129.979L97.7402 130.036L97.5909 130.097L97.4386 130.162L97.2831 130.23L97.1247 130.303L96.9632 130.378L96.7989 130.457L96.6316 130.538L96.4647 130.62L96.4581 130.624L96.2903 130.707L96.2865 130.709L96.1131 130.796L96.1121 130.796L95.9348 130.885L95.933 130.886L95.7547 130.975L95.75 130.978L95.5718 131.066L95.5643 131.07L95.386 131.157L95.386 131.157L95.3756 131.162L95.1973 131.249L95.1841 131.255L95.0058 131.34L94.9896 131.347L94.8113 131.43L94.7921 131.439L94.6139 131.519L94.5916 131.529L94.4134 131.607L94.3881 131.618L94.2098 131.693L94.1815 131.705L94.0032 131.776L93.9717 131.789L93.7934 131.857C93.7819 131.862 93.7704 131.866 93.7588 131.87L93.5806 131.935C93.568 131.939 93.5555 131.944 93.5428 131.948L93.3646 132.008C93.351 132.013 93.3374 132.017 93.3237 132.022L93.1454 132.078C93.1405 132.08 93.1356 132.081 93.1306 132.083C93.1209 132.086 93.1113 132.089 93.1015 132.091L92.9233 132.143C92.9077 132.148 92.8921 132.152 92.8764 132.156L92.6981 132.203C92.6816 132.208 92.665 132.212 92.6484 132.216L92.4702 132.258C92.4527 132.262 92.4353 132.266 92.4177 132.27L92.2395 132.307C92.2213 132.311 92.203 132.315 92.1846 132.318L92.0064 132.35C91.9874 132.353 91.9684 132.357 91.9493 132.359L91.771 132.386C91.7514 132.389 91.7317 132.392 91.712 132.394L91.5338 132.416C91.5136 132.418 91.4934 132.42 91.4732 132.422L91.2949 132.438C91.2744 132.44 91.2538 132.441 91.2332 132.442L91.0549 132.453C91.0341 132.454 91.0132 132.455 90.9924 132.455L90.8141 132.46C90.8021 132.461 90.7902 132.461 90.7782 132.461C90.7692 132.461 90.7602 132.461 90.7512 132.461L90.5729 132.46C90.5519 132.46 90.531 132.46 90.51 132.459L90.3318 132.452C90.311 132.452 90.2902 132.451 90.2694 132.449L90.0911 132.437C90.0706 132.436 90.0501 132.434 90.0297 132.432L89.8514 132.414C89.8314 132.412 89.8113 132.41 89.7913 132.408L89.613 132.385C89.5935 132.382 89.574 132.379 89.5546 132.376L89.3763 132.348C89.3574 132.345 89.3386 132.342 89.3199 132.338L89.1416 132.304C89.1235 132.301 89.1054 132.297 89.0874 132.293L88.9092 132.255C88.8919 132.251 88.8747 132.247 88.8575 132.243L88.6793 132.199C88.6629 132.195 88.6466 132.191 88.6304 132.186L88.4521 132.138C88.4367 132.133 88.4214 132.129 88.4061 132.124L88.2279 132.071C88.2135 132.067 88.1991 132.063 88.1848 132.058L88.0066 132C87.9932 131.996 87.9799 131.992 87.9666 131.987L87.7884 131.925C87.7761 131.921 87.7638 131.917 87.7516 131.912L87.5733 131.846C87.562 131.842 87.5508 131.838 87.5396 131.834L87.3613 131.764L87.3308 131.752L87.1525 131.679L87.1251 131.668L86.9468 131.592L86.9224 131.581L86.7442 131.503L86.7229 131.493L86.5446 131.412L86.5263 131.404L86.348 131.32L86.3327 131.313L86.1544 131.228L86.1544 131.228L86.142 131.222L85.9637 131.135L85.9542 131.13L85.7759 131.042L85.7692 131.039L85.591 130.95L85.5872 130.948L85.4089 130.859L85.4079 130.859L85.2315 130.77L85.2296 130.769L85.0556 130.682L84.8834 130.597L84.714 130.514L84.5476 130.433L84.3841 130.355L84.2236 130.281L84.066 130.21L83.9115 130.142L83.76 130.079L83.6117 130.019L83.4665 129.963L83.3244 129.912L83.1854 129.865L83.0495 129.822L82.9167 129.783L82.7867 129.749L82.6595 129.718L82.5349 129.692L82.4126 129.67L82.2924 129.652L82.1739 129.638L82.0568 129.628L81.9407 129.621L81.8252 129.618L81.6784 129.618L81.6784 129.618L81.5755 129.618L81.4599 129.622L81.3436 129.63L81.2261 129.642L81.1072 129.657L80.9864 129.676L80.8634 129.7L80.7381 129.727L80.61 129.758L80.4792 129.794L80.3455 129.834L80.2087 129.878L80.0688 129.927L79.9258 129.979L79.7797 130.036L79.6304 130.097L79.478 130.162L79.3226 130.23L79.1642 130.303L79.0028 130.378L78.8445 130.454L78.8321 130.46L78.6758 130.536L78.6663 130.54L78.5042 130.62L78.4976 130.624L78.3298 130.707L78.326 130.709L78.1525 130.796L78.1515 130.796L77.9742 130.885L77.9725 130.886L77.7942 130.975L77.7895 130.978L77.6112 131.066L77.6037 131.07L77.4255 131.157L77.4255 131.157L77.4151 131.162L77.2368 131.249L77.2235 131.255L77.0453 131.34L77.029 131.347L76.8508 131.43L76.8316 131.439L76.6533 131.519L76.6311 131.529L76.4529 131.607L76.4276 131.618L76.2493 131.693L76.2209 131.705L76.0427 131.776L76.0112 131.789L75.8329 131.857C75.8257 131.86 75.8185 131.863 75.8113 131.865C75.8069 131.867 75.8026 131.868 75.7983 131.87L75.62 131.935C75.6156 131.936 75.6111 131.938 75.6066 131.939C75.5985 131.942 75.5904 131.945 75.5823 131.948L75.404 132.008C75.3905 132.013 75.3769 132.017 75.3632 132.022L75.1849 132.078C75.1703 132.083 75.1557 132.087 75.141 132.091L74.9627 132.143C74.9472 132.148 74.9315 132.152 74.9159 132.156L74.7376 132.203C74.7211 132.208 74.7045 132.212 74.6879 132.216L74.5096 132.258C74.4922 132.262 74.4747 132.266 74.4572 132.27L74.279 132.307C74.2657 132.31 74.2523 132.313 74.239 132.315C74.234 132.316 74.2291 132.317 74.2241 132.318L74.0458 132.35C74.0269 132.353 74.0078 132.357 73.9888 132.359L73.8105 132.386C73.7909 132.389 73.7712 132.392 73.7515 132.394L73.5733 132.416C73.5531 132.418 73.5329 132.42 73.5127 132.422L73.3344 132.438C73.3247 132.439 73.315 132.44 73.3053 132.44C73.2944 132.441 73.2835 132.442 73.2727 132.442L73.0944 132.453C73.0736 132.454 73.0527 132.455 73.0318 132.455L72.8536 132.46C72.8326 132.461 72.8116 132.461 72.7906 132.461L72.6124 132.46C72.5914 132.46 72.5705 132.46 72.5495 132.459L72.3713 132.452C72.3608 132.452 72.3503 132.452 72.3399 132.451C72.3295 132.45 72.3192 132.45 72.3089 132.449L72.1306 132.437C72.1101 132.436 72.0896 132.434 72.0692 132.432L71.8909 132.414C71.8786 132.413 71.8662 132.412 71.8539 132.41C71.8462 132.41 71.8385 132.409 71.8308 132.408L71.6525 132.385C71.633 132.382 71.6135 132.379 71.594 132.376L71.4158 132.348C71.3969 132.345 71.3781 132.342 71.3593 132.338L71.1811 132.304C71.1706 132.302 71.1601 132.3 71.1496 132.298C71.142 132.297 71.1345 132.295 71.1269 132.293L70.9486 132.255C70.9314 132.251 70.9142 132.247 70.897 132.243L70.7188 132.199C70.7024 132.195 70.6861 132.191 70.6698 132.186L70.4916 132.138C70.4762 132.133 70.4609 132.129 70.4456 132.124L70.2673 132.071C70.2529 132.067 70.2386 132.063 70.2243 132.058L70.0461 132C70.0327 131.996 70.0194 131.992 70.0061 131.987L69.8279 131.925C69.8155 131.921 69.8033 131.917 69.791 131.912L69.6128 131.846C69.6015 131.842 69.5903 131.838 69.5791 131.834L69.4008 131.764L69.3703 131.752L69.192 131.679L69.1645 131.668L68.9863 131.592L68.9619 131.581L68.7836 131.503L68.7623 131.493L68.5841 131.412L68.5658 131.404L68.3875 131.32L68.3721 131.313L68.1939 131.228L68.1939 131.228L68.1814 131.222L68.0032 131.135L67.9936 131.13L67.8154 131.042L67.8087 131.039L67.6305 130.95L67.6266 130.948L67.4483 130.859L67.4474 130.859L67.2709 130.77L67.2691 130.769L67.0974 130.684L67.0927 130.681L66.9266 130.599L66.9191 130.595L66.7587 130.516L66.7483 130.511L66.5937 130.436L66.5805 130.43L66.4235 130.355L66.2629 130.281L66.1054 130.21L65.951 130.142L65.7995 130.079L65.6511 130.019L65.5059 129.963L65.3639 129.912L65.2249 129.865L65.089 129.822L64.9561 129.783L64.8262 129.749L64.6989 129.718L64.5743 129.692L64.4521 129.67L64.3318 129.652L64.2134 129.638L64.0963 129.628L63.9802 129.621L63.8647 129.618L63.7493 129.618L63.6337 129.622L63.5174 129.63L63.3999 129.642L63.281 129.657L63.1602 129.676L63.0372 129.7L62.9119 129.727L62.7839 129.758L62.6531 129.794L62.5193 129.834L62.3825 129.878L62.2426 129.927L62.0996 129.979L61.9535 130.036L61.8042 130.097L61.6518 130.162L61.4964 130.23L61.338 130.303L61.1766 130.378L61.0183 130.454L61.0059 130.46L60.8496 130.536L60.8401 130.54L60.678 130.62L60.6714 130.624L60.5036 130.707L60.4998 130.709L60.3263 130.796L60.3253 130.796L60.148 130.885L60.1463 130.886L59.968 130.975L59.9633 130.978L59.785 131.066L59.7775 131.07L59.5993 131.157L59.5993 131.157L59.5889 131.162L59.4106 131.249L59.3973 131.255L59.2191 131.34L59.2028 131.347L59.0246 131.43L59.0054 131.439L58.8271 131.519L58.8049 131.529L58.6267 131.607L58.6014 131.618L58.4231 131.693L58.3947 131.705L58.2165 131.776L58.185 131.789L58.0067 131.857C57.9952 131.862 57.9837 131.866 57.9721 131.87L57.7938 131.935C57.7813 131.939 57.7687 131.944 57.7561 131.948L57.5778 132.008C57.5643 132.013 57.5506 132.017 57.537 132.022L57.3587 132.078C57.3441 132.083 57.3295 132.087 57.3148 132.091L57.1365 132.143C57.121 132.148 57.1053 132.152 57.0897 132.156L56.9114 132.203C56.9018 132.206 56.8922 132.208 56.8826 132.211C56.8757 132.213 56.8687 132.214 56.8617 132.216L56.6834 132.258C56.666 132.262 56.6485 132.266 56.631 132.27L56.4528 132.307C56.4345 132.311 56.4162 132.315 56.3979 132.318L56.2196 132.35C56.2007 132.353 56.1816 132.357 56.1626 132.359L55.9843 132.386C55.9647 132.389 55.945 132.392 55.9253 132.394L55.7471 132.416C55.7332 132.417 55.7194 132.419 55.7056 132.42C55.6992 132.421 55.6928 132.421 55.6865 132.422L55.5082 132.438C55.4877 132.44 55.4671 132.441 55.4465 132.442L55.2682 132.453C55.2473 132.454 55.2265 132.455 55.2056 132.455L55.0274 132.46C55.0064 132.461 54.9854 132.461 54.9644 132.461L54.7862 132.46C54.7652 132.46 54.7443 132.46 54.7233 132.459L54.5451 132.452C54.5242 132.452 54.5034 132.451 54.4827 132.449L54.3044 132.437C54.2839 132.436 54.2634 132.434 54.243 132.432L54.0647 132.414C54.0446 132.412 54.0246 132.41 54.0046 132.408L53.8263 132.385C53.8068 132.382 53.7873 132.379 53.7678 132.376L53.5896 132.348C53.5707 132.345 53.5519 132.342 53.5331 132.338L53.3549 132.304C53.3368 132.301 53.3187 132.297 53.3007 132.293L53.1224 132.255C53.1052 132.251 53.088 132.247 53.0708 132.243L52.8926 132.199C52.8762 132.195 52.8599 132.191 52.8437 132.186L52.6654 132.138C52.65 132.133 52.6347 132.129 52.6194 132.124L52.4411 132.071C52.4267 132.067 52.4124 132.063 52.3981 132.058L52.2199 132C52.2123 131.998 52.2047 131.995 52.1971 131.993C52.1914 131.991 52.1856 131.989 52.1799 131.987L52.0016 131.925C51.9893 131.921 51.9771 131.917 51.9648 131.912L51.7866 131.846C51.7753 131.842 51.7641 131.838 51.7529 131.834L51.5746 131.764L51.5441 131.752L51.3658 131.679L51.3383 131.668L51.1601 131.592L51.1357 131.581L50.9575 131.503L50.9361 131.493L50.7579 131.412L50.7395 131.404L50.5613 131.32L50.5459 131.313L50.3677 131.228L50.3677 131.228L50.3552 131.222L50.177 131.135L50.1674 131.13L49.9892 131.042L49.9825 131.039L49.8043 130.95L49.8004 130.948L49.6222 130.859L49.6212 130.859L49.4447 130.77L49.4429 130.769L49.2712 130.684L49.2665 130.681L49.1004 130.599L49.0929 130.595L48.9273 130.514L48.7608 130.433L48.5974 130.355L48.4368 130.281L48.2792 130.21L48.1248 130.142L47.9733 130.079L47.8249 130.019L47.6797 129.963L47.5377 129.912L47.3987 129.865L47.2628 129.822L47.1299 129.783L47 129.749L46.8727 129.718L46.7481 129.692L46.6258 129.67L46.5056 129.652L46.3872 129.638L46.2701 129.628L46.154 129.621L46.0385 129.618L45.9231 129.618L45.8075 129.622L45.6912 129.63L45.5737 129.642L45.4548 129.657L45.334 129.676L45.211 129.7L45.0856 129.727L44.9577 129.758L44.8268 129.794L44.6931 129.834L44.5563 129.878L44.4164 129.927L44.2734 129.979L44.1272 130.036L43.978 130.097L43.8256 130.162L43.6702 130.23L43.5118 130.303L43.3503 130.378L43.1859 130.457L43.0186 130.538L42.8518 130.62L42.8452 130.624L42.6774 130.707L42.6736 130.709L42.5001 130.796L42.4991 130.796L42.3219 130.885L42.32 130.886L42.1418 130.975L42.1371 130.978L41.9588 131.066L41.9513 131.07L41.7731 131.157L41.7731 131.157L41.7627 131.162L41.5844 131.249L41.5711 131.255L41.3929 131.34L41.3766 131.347L41.1984 131.43L41.1792 131.439L41.0009 131.519L40.9787 131.529L40.8004 131.607L40.7752 131.618L40.5969 131.693L40.5685 131.705L40.3903 131.776L40.3588 131.789L40.1805 131.857C40.169 131.862 40.1575 131.866 40.1459 131.87L39.9676 131.935C39.9551 131.939 39.9425 131.944 39.9299 131.948L39.7516 132.008C39.7381 132.013 39.7244 132.017 39.7108 132.022L39.5325 132.078C39.5179 132.083 39.5033 132.087 39.4886 132.091L39.3103 132.143C39.2948 132.148 39.2791 132.152 39.2635 132.156L39.0852 132.203C39.0687 132.208 39.0521 132.212 39.0355 132.216L38.8572 132.258C38.8398 132.262 38.8223 132.266 38.8048 132.27L38.6266 132.307C38.6083 132.311 38.59 132.315 38.5717 132.318L38.3934 132.35C38.3745 132.353 38.3554 132.357 38.3364 132.359L38.1581 132.386C38.1385 132.389 38.1188 132.392 38.0991 132.394L37.9208 132.416C37.9007 132.418 37.8805 132.42 37.8603 132.422L37.682 132.438C37.6615 132.44 37.6409 132.441 37.6203 132.442L37.442 132.453C37.4211 132.454 37.4003 132.455 37.3794 132.455L37.2012 132.46Z" fill="#FDFFFC"/>
<path d="M16.8281 47.2669C16.8281 42.8486 20.4098 39.2668 24.8281 39.2668H146.262C150.681 39.2668 154.262 42.8486 154.262 47.2668V106.996C154.262 111.414 150.681 114.996 146.262 114.996H24.8281C20.4099 114.996 16.8281 111.414 16.8281 106.996V47.2669Z" fill="#FDFFFC"/>
<path fill-rule="evenodd" clip-rule="evenodd" d="M32.0469 140.044H120.812C124.678 140.044 127.812 143.178 127.812 147.044V155.171C127.812 159.037 124.678 162.171 120.812 162.171H32.0469C28.1809 162.171 25.0469 159.037 25.0469 155.171V147.044C25.0469 143.178 28.1809 140.044 32.0469 140.044ZM32.0469 143.044C29.8377 143.044 28.0469 144.835 28.0469 147.044V155.171C28.0469 157.381 29.8377 159.171 32.0469 159.171H120.812C123.021 159.171 124.812 157.381 124.812 155.171V147.044C124.812 144.835 123.021 143.044 120.812 143.044H32.0469Z" fill="#FDFFFC"/>
<rect x="11.2188" y="11.2192" width="225.084" height="14.7251" rx="4" fill="#FDFFFC"/>
<path fill-rule="evenodd" clip-rule="evenodd" d="M228.305 42.2668H179.094C176.332 42.2668 174.094 44.5054 174.094 47.2668V55.1075C174.094 57.8689 176.332 60.1075 179.094 60.1075H228.305C231.066 60.1075 233.305 57.8689 233.305 55.1075V47.2668C233.305 44.5054 231.066 42.2668 228.305 42.2668ZM179.094 39.2668C174.675 39.2668 171.094 42.8486 171.094 47.2668V55.1075C171.094 59.5258 174.675 63.1075 179.094 63.1075H228.305C232.723 63.1075 236.305 59.5258 236.305 55.1075V47.2668C236.305 42.8486 232.723 39.2668 228.305 39.2668H179.094Z" fill="#FDFFFC"/>
<path fill-rule="evenodd" clip-rule="evenodd" d="M228.305 71.717H179.094C176.332 71.717 174.094 73.9556 174.094 76.717V84.5577C174.094 87.3191 176.332 89.5577 179.094 89.5577H228.305C231.066 89.5577 233.305 87.3191 233.305 84.5577V76.717C233.305 73.9556 231.066 71.717 228.305 71.717ZM179.094 68.717C174.675 68.717 171.094 72.2988 171.094 76.717V84.5577C171.094 88.976 174.675 92.5577 179.094 92.5577H228.305C232.723 92.5577 236.305 88.976 236.305 84.5577V76.717C236.305 72.2988 232.723 68.717 228.305 68.717H179.094Z" fill="#FDFFFC"/>
<path fill-rule="evenodd" clip-rule="evenodd" d="M228.305 101.167H179.094C176.332 101.167 174.094 103.406 174.094 106.167V114.008C174.094 116.769 176.332 119.008 179.094 119.008H228.305C231.066 119.008 233.305 116.769 233.305 114.008V106.167C233.305 103.406 231.066 101.167 228.305 101.167ZM179.094 98.1672C174.675 98.1672 171.094 101.749 171.094 106.167V114.008C171.094 118.426 174.675 122.008 179.094 122.008H228.305C232.723 122.008 236.305 118.426 236.305 114.008V106.167C236.305 101.749 232.723 98.1672 228.305 98.1672H179.094Z" fill="#FDFFFC"/>
<path fill-rule="evenodd" clip-rule="evenodd" d="M228.305 130.617H179.094C176.332 130.617 174.094 132.856 174.094 135.617V143.458C174.094 146.22 176.332 148.458 179.094 148.458H228.305C231.066 148.458 233.305 146.22 233.305 143.458V135.617C233.305 132.856 231.066 130.617 228.305 130.617ZM179.094 127.617C174.675 127.617 171.094 131.199 171.094 135.617V143.458C171.094 147.876 174.675 151.458 179.094 151.458H228.305C232.723 151.458 236.305 147.876 236.305 143.458V135.617C236.305 131.199 232.723 127.617 228.305 127.617H179.094Z" fill="#FDFFFC"/>
</svg>
